<?xml version="1.0" encoding="UTF-8"?>
<svg id="Capa_1" data-name="Capa 1" xmlns="http://www.w3.org/2000/svg" viewBox="0 0 252.28 252.28">
  <defs>
    <style>
      .cls-1 {
        fill: #24397c;
      }

      .cls-2 {
        fill: #b1c7e8;
      }
    </style>
  </defs>
  <circle class="cls-1" cx="126.14" cy="126.14" r="117.92"/>
  <g>
    <path class="cls-2" d="m126.14,246.61c-16.26,0-32.04-3.19-46.89-9.47-14.35-6.07-27.23-14.75-38.29-25.82-11.06-11.06-19.75-23.95-25.82-38.29-6.28-14.85-9.47-30.63-9.47-46.89s3.19-32.04,9.47-46.89c6.07-14.35,14.75-27.23,25.82-38.29,11.06-11.06,23.95-19.75,38.29-25.82,14.85-6.28,30.63-9.47,46.89-9.47s32.04,3.19,46.89,9.47c14.35,6.07,27.23,14.75,38.29,25.82,11.06,11.06,19.75,23.95,25.82,38.29,6.28,14.85,9.47,30.63,9.47,46.89s-3.19,32.04-9.47,46.89c-6.07,14.35-14.75,27.23-25.82,38.29-11.06,11.06-23.95,19.75-38.29,25.82-14.85,6.28-30.63,9.47-46.89,9.47Zm0-235.83C62.53,10.78,10.78,62.53,10.78,126.14s51.75,115.36,115.36,115.36,115.36-51.75,115.36-115.36S189.75,10.78,126.14,10.78Z"/>
    <path class="cls-2" d="m126.14,240.1c-15.38,0-30.31-3.01-44.36-8.96-13.57-5.74-25.76-13.96-36.22-24.42-10.47-10.47-18.68-22.65-24.42-36.22-5.94-14.05-8.96-28.97-8.96-44.36s3.01-30.31,8.96-44.36c5.74-13.57,13.96-25.76,24.42-36.22,10.47-10.47,22.65-18.68,36.22-24.42,14.05-5.94,28.97-8.96,44.36-8.96s30.31,3.01,44.36,8.96c13.57,5.74,25.76,13.96,36.22,24.42,10.47,10.47,18.68,22.65,24.42,36.22,5.94,14.05,8.96,28.97,8.96,44.36s-3.01,30.31-8.96,44.36c-5.74,13.57-13.96,25.76-24.42,36.22-10.47,10.47-22.65,18.68-36.22,24.42-14.05,5.94-28.97,8.96-44.36,8.96Zm0-226.13c-61.85,0-112.17,50.32-112.17,112.17s50.32,112.17,112.17,112.17,112.17-50.32,112.17-112.17S187.99,13.97,126.14,13.97Z"/>
    <g>
      <g>
        <path class="cls-2" d="m220.94,92.75s0,.01,0,.02c0,0,0,.02,0,.02l.6,1.76s.02.08.01.13l-.06.46s-.01.04-.03.09l-.13.26s-.03.06-.05.07l-.34.35s-.06.04-.1.06l-.6.2s-.08.02-.11.01l-.48-.07s-.04,0-.08-.03l-.27-.13s-.06-.04-.07-.05l-.33-.33s-.06-.07-.07-.11l-.46-1.36-1.75.59c-.07.02-.14.02-.2,0-.06-.03-.11-.08-.13-.15l-.05-.16v-.04c-.04-.07-.04-.14,0-.2.03-.07.09-.11.15-.14h.04s4.13-1.42,4.13-1.42l.05-.02c.06-.02.13-.02.19.01h0s0,0,0,0c.07.03.11.09.14.15Zm-.56.68l-1.31.44.44,1.3.23.23.32.04.49-.16.22-.23.04-.32-.44-1.3Z"/>
        <path class="cls-2" d="m222.82,98.69s.01.02.01.03c0,0,0,0,0,.02s0,.01,0,.02l.22.78s.01.08,0,.13l-.08.46s-.01.04-.04.09l-.29.52s-.04.06-.06.07l-.35.31s-.02.03-.04.03l-.55.37s-.05.03-.08.04l-1.02.29s-.05,0-.08,0l-.67-.03s-.02,0-.03-.01l-.46-.08s-.04-.01-.08-.03l-.52-.29s-.06-.04-.07-.06l-.32-.34s-.04-.06-.05-.11l-.23-.81c-.01-.05-.02-.09-.01-.13l.1-.46s0-.05.03-.08l.29-.52s.04-.06.05-.07l.35-.31s.02-.03.02-.03l.56-.37s.05-.03.07-.04l1.02-.29s.06-.01.09,0l.66.03s.03,0,.05,0l.46.08s.05.01.08.03l.52.3s.07.04.08.05l.29.32s.04.05.07.08c0,0,0,.01.01.03Zm-.64.47l-.3-.44-.61-.2-.59-.03-.94.26-.49.33-.42.49-.02.54.09.32.3.45.61.2.59.02.94-.26.49-.33.42-.49.02-.54-.09-.32Z"/>
        <path class="cls-2" d="m223.93,102.89h0s0,.02,0,.03c0,0,0,.01,0,.02l.04.17c.02.07,0,.14-.03.2-.04.06-.09.1-.16.12l-3.88.88.45,2.01c.02.07,0,.14-.03.2s-.09.1-.16.12l-.16.04h-.04c-.07.03-.14.02-.19-.02h0c-.06-.04-.1-.09-.12-.18v-.04s-.55-2.4-.55-2.4v-.04c-.02-.07-.01-.14.02-.19.03-.06.09-.1.17-.12h.04s4.26-.97,4.26-.97h.05c.07-.03.13-.02.19.01h0c.06.04.1.09.12.17Z"/>
        <path class="cls-2" d="m224.91,107.53s0,.01,0,.02c0,0,0,.02,0,.02l.03.17c.01.07,0,.14-.04.19-.04.06-.09.09-.17.11l-4.34.81h-.02s-.02.02-.02.02c-.07.01-.14,0-.19-.04h0c-.06-.05-.1-.1-.11-.18v-.04s-.04-.17-.04-.17c-.01-.07,0-.14.04-.2.04-.06.1-.1.17-.11l4.33-.81h.05c.07-.02.13,0,.19.03h0s0,0,0,0c.06.04.1.1.11.17Zm2.37.2h0c.02.09,0,.17-.07.24l-.15.21c-.04.06-.1.1-.17.11-.09.02-.16,0-.22-.06l-1.27-1.05h0s0-.01,0-.02c-.01,0-.02-.02-.02-.03-.02-.02-.04-.05-.05-.09,0,0,0,0,0-.01,0,0,0,0,0-.01h0s0-.03,0-.05h0s0-.02,0-.02h0s0-.02,0-.02v-.02s0-.01,0-.01h0s0-.02,0-.02h0s0-.02,0-.02h0s0-.02,0-.02h.01s0-.02,0-.02c0,0,0-.01,0-.02h0s0,0,0,0v-.02s.02,0,.03-.01c0,0,0,0,0,0h.01s.01-.02.01-.02h.01s.04-.02.07-.02h0s.02,0,.02,0h.02s0,0,.01,0c0,0,.01,0,.02,0,.04,0,.07.01.1.03l1.41.79c.1.04.15.11.17.19h0Z"/>
        <path class="cls-2" d="m225.59,111.58l.12.83s0,.09-.01.13l-.14.44s-.02.04-.05.08l-.35.48s-.05.05-.07.06l-.36.24c-.06.04-.11.07-.15.07,0,0-.04,0-.11-.01,0,0,0,0,0,0,0,0,0,0,0,0h0s0,0,0,0h0s-.02,0-.02,0h0s0,0,0,0c-.07-.04-.11-.11-.12-.2v-.04s-.03-.17-.03-.17c-.01-.1.02-.19.11-.25l.36-.25.13-.17.11-.35-.1-.7-.21-.31-.17-.12-.4-.14-.59-.11-.96.14-.55.27-.34.24-.12.17-.12.36.1.7.21.3.17.13.35.11.31-.04-.08-.57c-.01-.07,0-.14.05-.2.04-.06.1-.09.17-.1l.17-.02h.05c.07-.02.14,0,.19.04h0c.06.05.1.11.11.18v.04s.15,1.01.15,1.01c.01.07,0,.14-.05.2-.04.06-.1.1-.17.11l-.85.12s-.06,0-.11-.02l-.45-.14s-.04-.02-.07-.04l-.48-.36s-.05-.05-.06-.07l-.28-.38s-.03-.07-.04-.12l-.12-.83c0-.05,0-.1,0-.13l.16-.44s.01-.05.04-.08l.36-.48s.04-.05.06-.06l.39-.26s.02-.03.03-.03l.6-.29s.05-.02.08-.03l1.05-.15s.06,0,.09,0l.65.11s.03,0,.05.02l.44.14s.05.02.08.04l.47.36s.06.05.07.06l.26.38s.04.08.05.12Z"/>
        <path class="cls-2" d="m226.24,117.13s0,.02,0,.03c0,0,0,0,0,.01,0,0,0,0,0,.01l.07.81s0,.09-.02.13l-.17.43s-.02.04-.05.08l-.38.46s-.05.05-.07.06l-.4.24s-.03.02-.04.03l-.61.26s-.06.02-.09.02l-1.06.09s-.05,0-.08,0l-.65-.15s-.02,0-.03-.02l-.44-.17s-.04-.02-.07-.05l-.46-.39s-.05-.05-.06-.07l-.25-.4s-.03-.07-.03-.12l-.07-.84c0-.05,0-.1.01-.13l.18-.43s.02-.05.04-.08l.39-.46s.05-.05.06-.06l.41-.24s.02-.02.03-.02l.62-.26s.05-.02.08-.02l1.06-.09s.06,0,.09,0l.64.15s.03,0,.05.02l.43.17s.05.02.08.04l.45.39s.06.05.06.07l.22.37s.03.05.05.09c0,0,0,.01,0,.03Zm-.72.34l-.21-.49-.56-.31-.57-.14-.97.08-.55.23-.5.4-.12.52.03.33.21.5.56.31.58.13.97-.08.54-.23.5-.4.12-.52-.03-.34Z"/>
        <path class="cls-2" d="m226.56,121.71c0,.1-.04.17-.13.23l-3.06,2.34,2.95-.08h.05c.07,0,.13.02.18.07h0c.05.05.08.11.09.19v.02s0,.02,0,.02v.17c0,.07-.02.14-.06.19-.05.05-.11.08-.18.09l-4.43.13h-.03c-.1,0-.18-.04-.24-.13,0,0,0,0,0,0h0s0-.02,0-.02h0s0-.02,0-.02h0s0-.01,0-.01h0s0-.01,0-.01c0,0,0,0,0,0v-.04c0-.1.04-.17.12-.23l3.07-2.36-3,.08c-.07,0-.14-.02-.19-.07-.05-.05-.08-.11-.08-.18v-.17s0-.04,0-.04c0-.08.02-.14.07-.19.05-.06.11-.08.19-.09h.04s4.38-.13,4.38-.13h.04c.1,0,.17.04.23.13h0s0,.02,0,.02h0s0,.01,0,.01h0s0,.02,0,.02h0s0,.03,0,.03v.02s0,.02,0,.02Z"/>
        <path class="cls-2" d="m226.61,128.35s0,.02,0,.03c0,0,0,0,0,.01,0,0,0,0,0,.01l-.02.81s-.01.09-.03.12l-.22.41s-.03.04-.06.07l-.43.41s-.06.04-.07.05l-.42.19s-.03.02-.04.02l-.64.19s-.06.01-.09.01l-1.06-.03s-.05,0-.08-.02l-.63-.22s-.01,0-.03-.02l-.42-.22s-.04-.02-.06-.05l-.41-.44s-.04-.05-.05-.07l-.21-.42s-.02-.07-.02-.12l.02-.84c0-.05,0-.09.03-.12l.23-.41s.02-.05.05-.07l.44-.41s.05-.04.07-.05l.43-.19s.03-.02.03-.02l.64-.19s.06-.01.08-.01l1.06.03s.06,0,.09.02l.62.22s.03,0,.04.02l.41.22s.04.03.07.05l.41.44s.05.06.06.07l.18.39s.03.06.04.1c0,0,0,.01,0,.03Zm-.75.26l-.15-.51-.52-.37-.55-.2-.97-.03-.57.17-.54.34-.18.51v.33s.14.52.14.52l.52.37.56.2.97.03.56-.17.54-.34.18-.51v-.34Z"/>
        <path class="cls-2" d="m226.02,137.21s0,.01,0,.02,0,.02,0,.02l-.02.17c0,.07-.04.13-.09.17-.05.04-.12.06-.19.05l-4.39-.5h-.02s-.02,0-.02,0c-.07,0-.13-.04-.17-.09h0c-.05-.06-.07-.13-.06-.21v-.04s.02-.17.02-.17c0-.07.04-.13.1-.18.06-.05.12-.07.19-.06l4.38.5h.05c.07.01.12.04.17.1h0s0,0,0,0c.05.06.07.13.06.2Z"/>
        <path class="cls-2" d="m225.62,140.26c-.01.1-.07.16-.17.2l-3.42,1.79,2.92.42h.05c.07.02.12.05.16.1h0c.05.06.06.13.05.21v.02s-.01.02-.01.02l-.02.17c-.01.07-.04.13-.1.18-.06.05-.12.06-.19.05l-4.38-.63h-.03c-.1-.02-.17-.08-.21-.18,0,0,0,0,0,0v-.02s0,0,0,0h0s0-.02,0-.02h0s0-.01,0-.01h0s0-.01,0-.02c0,0,0,0,0,0v-.04c.02-.1.07-.17.17-.21l3.42-1.8-2.97-.43c-.07-.01-.13-.04-.17-.1-.04-.06-.06-.12-.05-.19l.02-.17v-.04c.02-.08.05-.14.11-.18.06-.05.13-.06.2-.05h.04s4.33.63,4.33.63h.04c.1.02.16.08.2.18h0s0,.02,0,.02h0s0,.01,0,.01h0s0,.02,0,.02h0s0,.03,0,.03v.02s0,.02,0,.02Z"/>
        <path class="cls-2" d="m224.7,145.77s0,.01,0,.02c0,0,0,.02,0,.02l-.3,1.4s-.02.07-.03.08l-.35.58s-.05.06-.09.09l-.5.32s-.06.03-.08.03l-.45.13s-.03,0-.05,0l-.66.08s-.06,0-.09,0l-1.04-.22s-.05-.02-.08-.03l-.58-.34s-.02,0-.03-.02l-.37-.3s-.03-.03-.05-.06l-.33-.5s-.04-.08-.04-.11l-.07-.67s0-.06,0-.09l.3-1.4v-.04c.03-.08.06-.13.12-.17.06-.04.13-.05.2-.04h.04s4.27.92,4.27.92h.05c.07.02.12.06.16.12h0s0,0,0,0c.04.06.05.13.04.2Zm-.83.3l-3.42-.73-.2.95.06.57.11.17.33.26.53.3.95.2.6-.06.4-.1.16-.11.29-.49.2-.95Z"/>
        <path class="cls-2" d="m223.46,151.24s0,.01,0,.02c0,0,0,.02,0,.02l-.04.16c-.02.07-.06.12-.12.16-.06.03-.13.04-.2.02l-3.03-.83-.57.04-.16.08-.31.48-.09.32.03.57.1.15.47.31,3.03.83c.07.02.12.06.16.13s.04.13.02.2l-.04.16s0,.01,0,.02c0,0,0,.02,0,.02-.02.08-.06.13-.12.16h0c-.06.04-.12.05-.2.03h-.05s-3.02-.84-3.02-.84c-.03,0-.06-.02-.08-.04l-.56-.37s-.05-.04-.07-.09l-.3-.52s-.04-.08-.04-.12l-.04-.67s0-.06,0-.08l.11-.42s.02-.05.04-.07l.37-.56s.05-.06.09-.08l.52-.3s.08-.04.11-.04l.67-.04s.06,0,.09,0l3.02.82h.05c.07.03.12.07.15.13h0s0,0,0,0c.04.07.05.13.03.2Z"/>
        <path class="cls-2" d="m221.64,157.44l-.27.81s-.02.06-.03.07l-.41.54s-.05.05-.09.08l-.5.26c-.07.05-.14.06-.23.03-.04-.01-.07-.03-.09-.05h0c-.09-.1-.12-.19-.08-.29,0,0,0-.01.01-.02,0,0,0-.02.01-.02l.12-.37c.02-.07.07-.13.13-.16l.24-.11.26-.26.23-.7v-.57s-.06-.11-.06-.11l-.24-.08-.32.05-.27.27-.73.86s0,0,0,0c0,0,0,0,0,0l-.34.34s-.04.04-.07.05l-.53.27s-.07.03-.09.03l-.47.08s-.07,0-.12-.02l-.6-.2c-.07-.02-.12-.07-.15-.13l-.27-.54s-.03-.08-.03-.12v-.67s0-.06,0-.08l.27-.81s.02-.05.04-.08l.4-.54s.05-.06.09-.08l.51-.26c.07-.05.14-.05.22-.03.03,0,.05.02.08.04h0c.09.09.12.19.09.29v.03s-.13.38-.13.38c-.02.06-.07.11-.14.15l-.22.12-.26.26-.23.7v.57s.06.11.06.11l.44.14.36-.05.19-.1.3-.3.73-.86s0,0,0,0c0,0,0,0,0,0l.34-.33s.04-.04.06-.06l.27-.13s.05-.02.08-.02l.46-.07s.08,0,.12,0l.41.14c.06.02.11.07.15.13l.27.53s.03.08.03.12v.67s0,.04-.01.09Z"/>
        <path class="cls-2" d="m220.37,161.13s0,.01-.01.02c0,.01-.01.02-.01.02l-.98,2.53c-.03.07-.07.12-.14.15-.06.03-.13.04-.2,0l-.17-.07h-.03c-.07-.04-.12-.08-.14-.15h0c-.03-.08-.03-.15,0-.21l.02-.04.35-.89-3.71-1.44c-.07-.03-.12-.07-.15-.14-.03-.07-.03-.13,0-.2l.06-.16.02-.05c.02-.06.07-.11.13-.14h0c.06-.04.13-.04.21-.01h.02s.02.02.02.02l3.67,1.42.36-.94c.03-.07.07-.12.14-.15.07-.03.13-.03.2,0l.16.06h.02s.03,0,.03.01c.06.02.11.07.14.13h0c.03.08.03.15,0,.21Z"/>
        <path class="cls-2" d="m218.44,165.95s0,.01-.01.02c0,0-.01.01-.01.02l-.67,1.51s-.03.06-.04.07l-.46.49s-.06.05-.1.07l-.27.1s-.07.02-.08.02l-.48.02s-.07,0-.12-.03l-.58-.26s-.07-.04-.09-.06l-.31-.38s-.02-.04-.04-.07l-.11-.27s-.02-.09-.02-.12l.06-.53-2.02.24c-.08.01-.14.01-.18,0-.04-.02-.07-.04-.09-.06h0s0-.01,0-.01c0,0,0,0,0,0v-.02s-.01,0-.01,0v-.02c-.05-.07-.05-.14-.01-.22l.02-.04.07-.16c.04-.09.11-.14.21-.15l2.29-.28.27-.6-1.69-.75c-.07-.03-.11-.08-.14-.14s-.03-.13,0-.2l.07-.15.02-.04c.03-.07.08-.12.14-.14.07-.03.14-.03.21,0l.04.02,3.99,1.78.05.02c.06.03.11.07.13.14h0s0,0,0,0c.03.07.03.14,0,.21Zm-.87.12l-1.26-.56-.48,1.08-.04.52.18.23.47.21.3-.02.35-.38.48-1.08Z"/>
        <path class="cls-2" d="m216.27,170.63s0,.01-.01.02c0,0-.01.01-.01.02l-.07.15c-.03.07-.08.11-.15.13-.07.02-.13.02-.2-.02l-3.96-1.96h-.02s-.02,0-.02,0c-.07-.03-.11-.08-.13-.15h0c-.03-.08-.03-.14,0-.21l.02-.04.07-.15c.03-.07.08-.11.15-.14.07-.03.14-.02.2.01l3.95,1.96.05.02c.06.03.1.08.12.14h0s0,0,0,0c.02.07.02.14-.01.21Z"/>
        <path class="cls-2" d="m214.28,174.45h0s0,.01,0,.01v.03s-.02,0-.02,0c0,0,0,0,0,.01-.03.04-.07.06-.12.07-.06.01-.11.01-.15,0l-4.64-.63c-.05,0-.1-.01-.13-.03-.03-.02-.06-.05-.09-.09,0,0-.01-.01-.02-.03,0,0,0,0,0,0,0,0,0,0,0,0-.03-.07-.03-.15.02-.23l.02-.03.08-.15s.06-.08.11-.11c.05-.03.1-.04.15-.03l.95.12.86-1.56-.62-.73s-.05-.08-.06-.14c0-.06,0-.11.03-.16l.08-.15.02-.04c.04-.08.1-.12.18-.14h0s0,0,0,0h.02s.02,0,.02,0c.04,0,.09,0,.13.03.03.02.07.05.1.1l3.04,3.57s.06.08.07.13c.01.06,0,.11,0,.16h0s0,.02,0,.02h0Zm-1.44-.77l-1.07-1.27-.58,1.06,1.65.21Z"/>
        <path class="cls-2" d="m212.45,177.66h0s0,.01-.01.02c0,0-.01,0-.01.01l-.09.15c-.04.06-.09.1-.16.12-.07.02-.13,0-.2-.03l-3.39-2.08-1.08,1.76c-.04.06-.09.1-.17.12-.07.02-.14,0-.2-.03l-.14-.09-.04-.02c-.06-.04-.1-.09-.12-.16h0c-.02-.07-.01-.14.03-.21l.02-.04,1.29-2.1.02-.03c.04-.06.09-.1.16-.12.07-.02.13-.01.2.03l.04.02,3.72,2.28.04.03c.06.04.1.09.12.15h0c.02.08,0,.15-.03.21Z"/>
      </g>
      <g>
        <path class="cls-2" d="m208.62,92.68h0s0,.02,0,.03c0,0,0,.01,0,.02l.06.16c.03.07.03.13,0,.2-.03.07-.07.11-.14.14l-3.71,1.45.75,1.92c.03.07.03.14,0,.21s-.08.12-.14.14l-.16.06-.04.02c-.07.03-.13.03-.2,0h0c-.07-.03-.11-.08-.14-.15l-.02-.04-.9-2.29v-.03c-.04-.07-.04-.13-.01-.2.02-.07.07-.11.15-.14l.04-.02,4.06-1.59.05-.02c.07-.03.13-.03.19,0h0c.07.03.12.08.14.15Z"/>
        <path class="cls-2" d="m210.7,98.36h0s0,.01,0,.01v.03s0,0,0,0c0,0,0,0,0,.01,0,.04,0,.09-.03.14-.03.05-.06.09-.1.11l-3.63,2.96s-.08.06-.11.08c-.03.01-.08.01-.13,0,0,0-.02,0-.03,0,0,0,0,0,0,0,0,0,0,0,0,0-.08-.03-.13-.08-.16-.17v-.03s-.07-.17-.07-.17c-.02-.05-.02-.1,0-.15.01-.06.04-.1.08-.13l.74-.61-.56-1.69-.96-.05s-.09-.02-.14-.06c-.05-.04-.08-.08-.1-.13l-.05-.16v-.04c-.04-.08-.03-.16,0-.22h0s0-.01,0-.01h.01s0-.03,0-.03c.02-.03.06-.06.11-.08.04-.01.08-.01.14,0l4.69.21s.1,0,.15.04c.05.03.08.07.11.11h0s0,.01.01.02h0Zm-1.55.52l-1.66-.08.38,1.15,1.28-1.06Z"/>
        <path class="cls-2" d="m212.93,106.33s0,.01,0,.02c0,.01,0,.02,0,.02l.35,1.62s.01.06,0,.08l-.08.67s-.02.07-.04.11l-.16.24s-.04.06-.05.06l-.38.3s-.06.04-.11.05l-.62.13s-.08,0-.11,0l-.47-.12s-.04-.01-.08-.04l-.15-.09-.1.15s-.04.06-.06.07l-.36.3s-.06.04-.11.05l-.62.13c-.05.01-.09.01-.13,0l-.45-.13s-.05-.01-.08-.03l-.24-.16s-.07-.06-.09-.09l-.34-.58s-.03-.05-.03-.08l-.35-1.62v-.04c-.03-.08-.01-.14.02-.2.04-.06.1-.1.17-.12h.04s4.27-.92,4.27-.92h.05c.07-.02.13-.01.19.02h0s0,0,0,0c.06.04.1.1.12.17Zm-2.71,1.06l-1.35.29.25,1.15.26.45.3.08.49-.11.24-.19.06-.51-.25-1.15Zm2.08-.44l-1.35.29.25,1.15.27.44.29.08.5-.11.24-.19.06-.51-.25-1.15Z"/>
        <path class="cls-2" d="m214.13,112.69h0s0,.01,0,.01v.03s0,0,0,0c0,0,0,0,0,.01,0,.04-.02.09-.05.13-.04.05-.08.08-.12.09l-4.07,2.32s-.09.05-.12.06c-.03,0-.08,0-.13-.02,0,0-.02,0-.03-.01,0,0,0,0,0,0,0,0,0,0,0,0-.07-.04-.11-.1-.13-.2v-.04s-.03-.17-.03-.17c0-.05,0-.1.02-.15.02-.05.06-.09.11-.11l.83-.48-.27-1.76-.93-.21s-.09-.03-.13-.08c-.04-.05-.07-.09-.07-.14l-.03-.17v-.04c-.02-.09,0-.16.05-.22h0s0,0,0,0h.01s.01-.03.01-.03c.03-.03.07-.05.12-.06.04,0,.08,0,.14.02l4.59.99s.1.02.14.06.07.08.09.13h0s0,.02,0,.02h0Zm-1.61.26l-1.62-.36.18,1.19,1.44-.83Z"/>
        <path class="cls-2" d="m214.65,116.6s0,.01,0,.02c0,0,0,.02,0,.02l.15,1.65s0,.07,0,.08l-.16.65s-.03.07-.06.11l-.19.22s-.05.05-.06.06l-.41.26s-.07.03-.11.03l-.63.06s-.08,0-.11-.01l-.45-.18s-.04-.02-.07-.04l-.23-.18s-.06-.06-.08-.1l-.21-.49-1.65,1.2c-.06.05-.11.08-.16.08-.04,0-.08,0-.11-.01h0s0,0,0,0c0,0,0,0,0,0h-.02s0-.01,0-.01h-.02c-.07-.06-.11-.12-.11-.2v-.04s-.02-.17-.02-.17c0-.1.03-.18.11-.24l1.87-1.36-.06-.66-1.84.17c-.07,0-.14-.01-.19-.06-.06-.04-.09-.1-.09-.18l-.02-.17v-.04c-.01-.08,0-.14.05-.2.05-.06.11-.09.18-.1h.04s4.34-.41,4.34-.41h.05c.07-.01.13,0,.18.05h0s0,0,0,0c.06.05.09.11.1.18Zm-.7.54l-1.38.13.11,1.17.22.47.28.11.51-.05.26-.16.11-.5-.11-1.17Z"/>
        <path class="cls-2" d="m215.08,122.86l.03.84s0,.09-.03.13l-.19.42s-.02.04-.06.08l-.4.44s-.05.05-.07.05l-.38.2c-.07.04-.12.05-.15.06,0,0-.04,0-.1-.03,0,0,0,0,0,0,0,0,0,0,0,0h0s0,0,0,0h0s-.01,0-.01,0h0s0,0,0,0c-.07-.05-.1-.12-.1-.21v-.04s0-.18,0-.18c0-.1.04-.18.14-.24l.38-.21.15-.16.15-.33-.02-.71-.16-.3-.56-.36-.56-.17-.97.03-.56.2-.54.39-.14.31.02.71.18.32.15.15.39.19c.1.05.15.13.15.23v.18s.01.01.01.01c0,0,0,.02,0,.02,0,.08-.03.15-.09.21l-.02.02h0s0,0,0,0c0,0,0,0,0,0h0s-.09.05-.14.05c-.03,0-.08-.01-.15-.05l-.39-.18s-.04-.02-.07-.05l-.44-.41s-.05-.05-.05-.07l-.23-.41s-.02-.07-.03-.12l-.03-.84c0-.05,0-.1.02-.12l.21-.42s.02-.05.05-.07l.41-.44s.05-.05.06-.05l.42-.22s.02-.02.03-.02l.63-.22s.06-.02.08-.02l1.06-.03s.06,0,.09.01l.64.19s.03,0,.04.02l.42.19s.04.03.07.05l.43.41s.06.06.06.07l.22.41s.03.08.03.12Z"/>
        <path class="cls-2" d="m215.1,128.69h0s0,.01,0,.01v.03s0,0,0,0c0,0,0,0,0,.01,0,.04-.03.08-.08.12-.05.04-.09.06-.13.07l-4.43,1.54s-.09.03-.13.03c-.03,0-.08-.01-.12-.04,0,0-.02,0-.03-.02,0,0,0,0,0,0s0,0,0,0c-.06-.05-.09-.12-.09-.22v-.04s0-.18,0-.18c0-.05.02-.1.05-.14.03-.05.07-.08.12-.09l.9-.32.05-1.78-.88-.37s-.08-.05-.11-.1c-.03-.05-.05-.1-.05-.15v-.17s0-.04,0-.04c0-.09.03-.16.09-.2h0s0,0,0,0h.01s.01-.02.01-.02c.03-.02.08-.03.13-.03.04,0,.08.01.13.04l4.33,1.8s.09.04.13.08c.04.05.06.09.07.14h0s0,.02,0,.02h0Zm-1.63-.03l-1.53-.65-.04,1.21,1.57-.56Z"/>
        <path class="cls-2" d="m214.48,136.95s0,.01,0,.02,0,.02,0,.02l-.25,1.84s-.02.08-.05.12l-.26.39s-.03.04-.07.06l-.23.18s-.06.04-.07.04l-.46.16s-.07.01-.12,0l-.63-.09s-.08-.02-.11-.04l-.4-.28s-.03-.03-.06-.06l-.18-.23s-.03-.06-.04-.08l-.15-.44c-.02-.05-.02-.09-.02-.13l.19-1.42-1.83-.25c-.07,0-.13-.04-.17-.1-.04-.06-.06-.12-.05-.19l.02-.17v-.04c.02-.08.05-.14.1-.18.06-.05.13-.06.2-.05h.04s4.32.6,4.32.6h.05c.07.02.12.05.16.1h0s0,0,0,0c.05.06.06.13.05.2Zm-.8.36l-1.37-.19-.19,1.36.11.31.27.18.51.07.3-.11.18-.27.19-1.36Z"/>
        <path class="cls-2" d="m213.47,143.27h0s0,.01,0,.01v.03s-.01,0-.01,0c0,0,0,0,0,.01-.01.04-.05.08-.1.11-.05.03-.1.05-.14.05l-4.62.8c-.05.01-.1.02-.14.01-.03,0-.07-.03-.11-.06,0,0-.02,0-.03-.02,0,0,0,0,0,0,0,0,0,0,0,0-.05-.06-.07-.14-.05-.23v-.04s.04-.17.04-.17c0-.05.03-.09.07-.13.04-.04.09-.07.14-.07l.94-.17.34-1.75-.81-.51s-.07-.06-.1-.12c-.02-.06-.03-.11-.02-.16l.03-.17v-.04c.03-.09.07-.15.13-.18h0s0,0,0,0h.02s.02-.02.02-.02c.04-.02.08-.02.14-.01.04,0,.08.03.12.06l3.98,2.48s.08.05.11.1c.03.05.04.1.04.15h0s0,.02,0,.02h0Zm-1.6-.3l-1.41-.89-.23,1.19,1.64-.3Z"/>
        <path class="cls-2" d="m212.63,147.13s0,.01,0,.02c0,0,0,.02,0,.02l-.41,1.6s-.02.06-.03.08l-.37.56s-.05.06-.09.08l-.25.15s-.06.03-.08.03l-.47.11s-.07,0-.12,0l-.62-.16s-.08-.03-.1-.05l-.36-.32s-.03-.03-.05-.07l-.15-.25s-.04-.08-.04-.12l-.03-.53-1.95.58c-.07.03-.13.03-.18.02-.04-.01-.08-.03-.1-.05h0s0-.01,0-.01c0,0,0,0,0,0v-.02s-.02,0-.02,0v-.02c-.06-.06-.07-.13-.05-.22v-.04s.05-.17.05-.17c.02-.09.09-.16.18-.19l2.22-.66.16-.64-1.79-.46c-.07-.02-.13-.06-.16-.12-.04-.06-.05-.13-.03-.2l.04-.16v-.04c.03-.08.07-.13.13-.17.07-.04.13-.05.2-.03h.04s4.23,1.09,4.23,1.09h.05c.07.03.12.07.15.13h0s0,0,0,0c.04.07.05.13.03.2Zm-.84.27l-1.34-.34-.29,1.14.05.52.22.2.5.13.3-.07.28-.44.29-1.14Z"/>
        <path class="cls-2" d="m210.93,153.17l-.26.8s-.04.08-.07.11l-.32.33s-.04.03-.08.05l-.53.28s-.07.03-.09.03l-.43.06c-.08.01-.13.01-.16,0,0,0-.04-.02-.09-.06,0,0,0,0,0,0,0,0,0,0,0,0h0s0-.01,0-.01h0s-.01-.01-.01-.01h0s0-.01,0-.01c-.05-.07-.05-.14-.03-.23v-.03s.07-.17.07-.17c.03-.1.1-.16.21-.18l.43-.07.19-.1.25-.26.22-.68-.05-.34-.41-.52-.47-.34-.93-.3h-.59s-.64.19-.64.19l-.24.25-.22.68.06.37.09.19.31.31c.08.08.1.17.07.27l-.05.17v.02s0,.02,0,.02c-.03.08-.08.13-.15.17h-.03s0,0,0,0c0,0,0,0,0,0,0,0,0,0,0,0h0c-.05.02-.1.01-.14,0-.03,0-.07-.04-.12-.09l-.31-.3s-.03-.03-.05-.07l-.27-.53s-.03-.07-.03-.09l-.08-.46s0-.07.02-.13l.26-.8c.02-.05.04-.09.06-.11l.34-.33s.04-.04.07-.05l.53-.27s.06-.03.08-.03l.47-.06s.03-.01.03-.01h.67s.06,0,.08.01l1.01.33s.05.02.08.04l.54.39s.03.02.04.03l.33.32s.03.04.05.07l.27.53s.03.07.03.09l.07.46s0,.09-.01.13Z"/>
        <path class="cls-2" d="m205.82,156.3h0s-.01.04-.01.04l-.06.16c-.02.06-.07.11-.15.14l-.27.13c-.07.03-.14.03-.2.01l-.21-.08c-.06-.02-.11-.07-.14-.14l-.12-.27c-.03-.07-.03-.14-.01-.2l.08-.2c.03-.07.07-.12.14-.15l.27-.12c.07-.03.14-.03.2-.01l.21.08c.06.02.11.07.14.14l.1.24s.03.07.04.12v.02s0,.08,0,.09Z"/>
        <path class="cls-2" d="m205.74,165.97h0c-.03.07-.08.12-.15.14-.07.02-.13.02-.2-.01l-3.95-1.97h-.02s-.02-.01-.02-.01c-.07-.03-.11-.08-.13-.15h0c-.03-.07-.02-.14.01-.21l.02-.04.08-.15c.03-.07.08-.11.15-.13.07-.02.14-.02.2.01l3.04,1.51s0-.02,0-.04v-.47c0-.05.01-.09.02-.12.03-.07.08-.11.15-.13.07-.02.14-.02.2.01l.15.08.04.02s.08.05.09.07h0s0,.02,0,.02h.01s0,.02,0,.02c.03.05.03.1.02.17v.39s.28.81.28.81c.02.07.02.13-.01.19Z"/>
        <path class="cls-2" d="m201.81,168.03l-1.92,3.3c-.04.06-.09.1-.16.12-.07.02-.14,0-.2-.03-.06-.04-.1-.09-.12-.16-.02-.07,0-.14.03-.2l1.92-3.3c.04-.06.09-.11.16-.13.07-.02.14-.01.2.02.06.04.1.09.12.16.02.07,0,.14-.03.2Z"/>
        <path class="cls-2" d="m200.53,175.04s0,.01-.02.02c0,0-.01.02-.02.02l-1.14,1.69s0,.02-.01.03h-.02s-.01.03-.01.03l-.09.14c-.04.06-.1.1-.17.11-.07.02-.13,0-.19-.04-.05-.04-.09-.08-.11-.14l-.52-1.61-.41.32s-.06.04-.11.05l-.59.11s-.09,0-.12,0l-.65-.17s-.04-.02-.07-.04l-.18-.12s-.06-.04-.07-.06l-.4-.54s-.03-.05-.04-.11l-.12-.58s0-.09,0-.12l.18-.65s.02-.06.04-.08l.35-.52s.04-.05.06-.06l.53-.41s.06-.04.11-.05l.29-.06s.06,0,.09,0l.46.06s.08.02.12.05c.06.04.1.1.11.17.01.07,0,.14-.04.2l-.09.14-.02.04s-.06.07-.08.08h-.01s0,0,0,0h-.01s0,0,0,0h0s-.11.03-.17.01l-.24-.04-.19.09-.3.22-.3.45-.1.37v.26s.1.25.1.25l.23.29.1.07.35.1h.27s.24-.09.24-.09l.3-.23.19-.28v-.02s0-.02,0-.02c0,0,0,0,.02-.01,0,0,.02-.01.02-.01l.08-.12v-.02s0-.02,0-.02c.06-.09.14-.12.25-.12h0s.01,0,.01,0h0s.04.01.05.02c.01,0,.03.01.06.03.06.04.1.1.11.17l.49,1.5.79-1.17c.04-.06.1-.1.17-.11.07-.01.14,0,.2.04l.14.09h.02s.02.02.02.02c.06.04.09.09.1.16h0c.01.08,0,.15-.04.21Z"/>
      </g>
      <g>
        <path class="cls-2" d="m36.05,170.69l-.37-.76s-.03-.08-.03-.12v-.46s0-.05.02-.09l.19-.56s.03-.07.04-.08l.26-.34c.05-.06.08-.1.12-.11,0,0,.04-.01.1-.02,0,0,0,0,0,0,0,0,0,0,0,0h0s0,0,0,0h0s.02,0,.02,0h0s0,0,0,0c.08.02.14.07.18.15l.02.03.08.16c.04.09.04.18-.03.27l-.26.35-.07.21v.37s.31.64.31.64l.27.21.66.09.58-.08.87-.43.43-.41.33-.58v-.34s-.31-.64-.31-.64l-.3-.22-.2-.07h-.44c-.11-.01-.19-.06-.23-.15l-.08-.16h-.01s0-.03,0-.03c-.04-.07-.04-.15,0-.23v-.02s.02,0,.02,0c0,0,0,0,0,0s0,0,0,0h0s.07-.08.11-.1c.03-.01.08-.02.15-.02h.43s.04,0,.08.02l.57.19s.07.03.08.04l.38.28s.05.05.07.1l.37.76s.04.09.04.12v.47s-.01.05-.03.09l-.19.57s-.03.06-.04.08l-.29.37s-.01.03-.02.03l-.48.46s-.04.04-.07.05l-.95.47s-.05.02-.09.03l-.66.09s-.03,0-.05,0h-.47s-.05,0-.09-.01l-.56-.2s-.07-.03-.08-.04l-.37-.28s-.06-.06-.08-.1Z"/>
        <path class="cls-2" d="m33.62,165.42h0s0-.01,0-.01v-.03s0,0,0,0c0,0,0,0,0-.01-.01-.04,0-.09.02-.14.03-.05.06-.09.09-.12l3.37-3.25s.07-.07.11-.09c.03-.01.07-.02.13-.01,0,0,.02,0,.03,0,0,0,0,0,0,0,0,0,0,0,0,0,.08.02.13.07.17.16v.03s.08.16.08.16c.02.04.02.1.01.15-.01.06-.03.1-.07.13l-.68.67.7,1.64.96-.03s.09.01.15.05c.05.03.09.07.11.12l.07.16.02.04c.03.08.03.16,0,.22h0s0,.01,0,.01h-.01s0,.03,0,.03c-.02.04-.06.06-.11.09-.04.02-.08.02-.14.02l-4.69.18s-.1,0-.15-.02c-.05-.03-.09-.06-.12-.1h0s-.01-.01-.01-.02h0Zm1.5-.65l1.66-.05-.47-1.11-1.19,1.17Z"/>
        <path class="cls-2" d="m32.15,161.77s0-.01,0-.02c0,0,0-.02,0-.02l-.57-1.55s-.02-.06-.02-.08v-.67s0-.08.01-.12l.12-.26s.03-.06.04-.07l.33-.35s.06-.04.1-.06l.6-.22s.08-.02.11-.02l.48.06s.04,0,.08.03l.27.12s.08.05.1.07l.32.42,1.29-1.58c.04-.06.09-.1.14-.12.04-.01.08-.02.11-.02h0s0,0,0,0c0,0,0,0,0,0h.02s0,0,0,0h.02c.08.03.13.08.16.16v.04s.08.17.08.17c.03.09.02.18-.05.26l-1.46,1.79.23.62,1.74-.63c.07-.03.14-.02.2,0,.06.03.11.08.13.15l.06.16v.04c.04.07.04.14.01.2-.03.07-.08.12-.15.14l-.04.02-4.1,1.49-.05.02c-.06.02-.13.02-.19,0h0s0,0,0,0c-.07-.03-.12-.08-.14-.15Zm.54-.7l1.3-.47-.4-1.11-.33-.4-.3-.04-.48.18-.21.22.02.52.4,1.11Z"/>
        <path class="cls-2" d="m30.57,157.29s0-.01,0-.03c0-.01,0-.02,0-.03l-.8-2.59c-.02-.07-.02-.14.01-.2.03-.07.08-.11.15-.13l.17-.05h.04c.07-.03.14-.03.2,0h0c.07.04.11.1.13.17v.04s.3.92.3.92l3.8-1.17c.07-.02.14-.02.2.02.06.03.11.09.13.16l.05.16.02.05c.02.07.01.13-.02.19h0c-.03.07-.08.12-.16.14h-.02s-.02,0-.02,0l-3.76,1.16.3.97c.02.07.02.14-.02.2-.03.06-.09.11-.16.13l-.16.05h-.02s-.02.02-.03.02c-.07.02-.13.01-.19-.02h0c-.07-.04-.11-.09-.13-.16Z"/>
        <path class="cls-2" d="m28.79,151.09h0s0-.01,0-.01v-.03s0,0,0,0c0,0,0,0,0-.01,0-.04,0-.09.04-.14.03-.05.07-.08.11-.1l3.83-2.71s.08-.06.12-.07c.03,0,.08,0,.13,0,0,0,.02,0,.03,0,0,0,0,0,0,0,0,0,0,0,0,0,.07.03.12.09.14.18v.04s.05.17.05.17c.01.05,0,.1,0,.15-.02.06-.05.1-.09.12l-.78.56.44,1.72.95.11s.09.03.14.07c.05.04.07.09.09.13l.04.16v.04c.03.09.02.16-.02.22h0s0,.01,0,.01h-.01s-.01.03-.01.03c-.03.03-.07.05-.12.07-.04,0-.08,0-.14,0l-4.66-.53s-.1-.01-.14-.05-.08-.07-.1-.12h0s0-.01-.01-.02h0Zm1.58-.42l1.65.2-.3-1.17-1.35.97Z"/>
        <path class="cls-2" d="m27.97,147.69s0-.01,0-.02c0-.01,0-.02,0-.02l-.03-.17c-.02-.09,0-.17.07-.24l1.39-1.46-1.85-.81c-.09-.04-.14-.1-.16-.19l-.03-.17s0-.01,0-.02c0,0,0-.02,0-.02-.02-.09,0-.16.08-.23h0s0-.02,0-.02h0s0-.01,0-.01h0s0,0,0,0c.04-.02.07-.04.09-.04.08-.02.14,0,.2.03l2.26.99,2.16-.43h.04c.07-.02.14-.01.19.03.06.03.1.09.12.18v.04s.04.17.04.17c.01.07,0,.14-.04.2-.04.06-.1.1-.17.12l-2.2.44-1.7,1.78c-.04.06-.1.09-.17.11-.03,0-.06,0-.09,0h-.02s0,0,0,0c0,0,0,0,0,0,0,0,0,0,0,0h-.02c-.09-.05-.15-.11-.16-.2Z"/>
        <path class="cls-2" d="m26.75,140.92h0s0-.01,0-.01v-.03s0,0,0,0c0,0,0,0,0-.01,0-.04.02-.09.05-.13.04-.04.08-.08.12-.09l4.09-2.3s.09-.05.13-.06c.03,0,.08,0,.13.02,0,0,.02,0,.03.01,0,0,0,0,0,0,0,0,0,0,0,0,.07.04.11.1.13.2v.04s.03.17.03.17c0,.05,0,.1-.03.15-.02.05-.06.09-.11.11l-.83.48.26,1.76.93.21s.09.03.13.08c.04.05.07.09.07.14l.02.17v.04c.02.09,0,.16-.05.22h0s0,0,0,0h-.01s-.01.03-.01.03c-.03.03-.07.05-.13.06-.04,0-.08,0-.14-.02l-4.58-1.01s-.1-.02-.14-.06c-.04-.04-.07-.08-.09-.13h0s0-.02,0-.02h0Zm1.61-.25l1.62.37-.18-1.19-1.45.83Z"/>
        <path class="cls-2" d="m30.02,136.44l-.02-.21c0-.06.02-.13.07-.19l.18-.23c.05-.06.11-.09.17-.1l.18-.02h.03s.04,0,.04,0l.35-.04h.04s.09,0,.16.03l.39.14c.08.02.13.06.17.14l.23.37s.05.09.05.13c0,.07-.01.14-.06.19-.05.06-.11.09-.18.1-.11.01-.19-.03-.26-.14l-.19-.3-.19-.02v.02c0,.07-.01.14-.06.2l-.19.23c-.05.06-.11.09-.17.1l-.22.02c-.07,0-.13-.01-.19-.06l-.23-.19c-.06-.05-.1-.11-.11-.18Z"/>
        <path class="cls-2" d="m25.7,129.28s0-.01,0-.02c0,0,0-.02,0-.02v-.17c0-.07.02-.13.07-.18.05-.05.11-.08.18-.08l1.87-.03-.03-2.01-1.87.03c-.07,0-.13-.02-.18-.08-.05-.05-.08-.12-.08-.19v-.17s0-.01,0-.02c0,0,0-.02,0-.02,0-.08.02-.14.07-.19h0c.04-.05.1-.08.18-.08h.05s4.36-.08,4.36-.08h.04c.07,0,.13.02.18.07h0c.05.05.08.11.08.2v.04s0,.17,0,.17c0,.07-.02.14-.07.19-.05.05-.11.08-.19.08l-1.85.03.03,2.01,1.85-.03c.07,0,.14.02.19.07.05.05.08.11.08.18v.17s0,.04,0,.04c0,.08-.02.14-.07.19-.05.05-.12.08-.19.08h-.04s-4.36.08-4.36.08h-.05c-.07,0-.13-.02-.18-.07h0s0,0,0,0c-.05-.05-.08-.12-.08-.19Z"/>
        <path class="cls-2" d="m25.67,123.66s0-.01,0-.02c0,0,0-.02,0-.02v-.17c0-.07.04-.13.09-.18.05-.05.11-.07.19-.07l3.14.12.54-.17.14-.11.2-.53v-.33s-.14-.55-.14-.55l-.13-.12-.53-.2-3.14-.12c-.07,0-.13-.03-.18-.09-.05-.06-.07-.12-.07-.19v-.17s0-.01,0-.02c0,0,0-.02,0-.02,0-.08.03-.14.08-.19h0c.05-.05.11-.08.19-.07h.05s3.13.12,3.13.12c.03,0,.06,0,.09.02l.63.24s.05.03.09.07l.41.44s.05.07.06.1l.19.64s.01.06.01.08l-.02.43s0,.05-.02.08l-.24.63s-.03.07-.07.1l-.44.41s-.07.06-.1.06l-.64.19s-.06.01-.09.01l-3.13-.12h-.05c-.07,0-.13-.03-.17-.08h0s0,0,0,0c-.05-.06-.08-.12-.07-.19Z"/>
        <path class="cls-2" d="m25.96,118.06s0-.01,0-.02c0,0,0-.02,0-.02l.23-2.45h0s0-.03,0-.04c0-.07.04-.13.09-.18h0s.11-.07.19-.06h.05s.17.02.17.02c.07,0,.13.04.18.09.05.06.07.12.06.19l-.19,2.06,1.38.13.09-1.01c0-.07.04-.13.09-.18s.12-.07.19-.06l.17.02s.02,0,.04,0c.08,0,.14.04.18.09h0c.05.06.07.12.06.2v.04s-.09.96-.09.96l1.37.13.19-2.06c0-.07.04-.13.09-.18.06-.05.12-.07.19-.06l.17.02h.04c.08.01.14.04.18.09.05.05.07.12.06.2v.04s-.23,2.45-.23,2.45v.04c-.01.08-.04.14-.09.18-.06.05-.12.07-.2.06h-.04s-4.34-.4-4.34-.4h-.05c-.07-.01-.12-.04-.17-.09h0s0,0,0,0c-.05-.06-.07-.12-.06-.2Z"/>
        <path class="cls-2" d="m26.48,113.13h0s0-.02,0-.02c0,0,0-.01,0-.02l.02-.17c.01-.07.04-.13.1-.17.06-.04.12-.06.19-.05l3.94.56.29-2.04c.01-.07.04-.13.1-.18.06-.05.12-.06.2-.05l.17.02h.04c.07.02.13.05.17.1h0c.05.06.06.12.05.21v.04s-.35,2.44-.35,2.44v.04c-.02.07-.05.13-.1.17-.05.05-.12.06-.2.05h-.04s-4.32-.62-4.32-.62h-.05c-.07-.02-.13-.05-.16-.1h0c-.05-.06-.06-.13-.05-.2Z"/>
        <path class="cls-2" d="m27.12,108.83v-.02s.02-.02.02-.02l.03-.17s.04-.09.08-.14c.04-.04.09-.07.13-.08l3.35-.61-2.89-1.82s-.08-.06-.1-.12c-.02-.05-.03-.1-.02-.15l.03-.17h0s0-.03,0-.04c.02-.08.06-.14.13-.18h0s0-.01,0-.01h0s0,0,.01,0h0s.09-.03.13-.02.09.03.13.06l3.98,2.47c.11.05.16.13.16.25v.02s0,.02,0,.02v.02s0,0,0,0v.02s-.05.08-.1.11c-.05.03-.1.05-.14.05l-4.61.82c-.05.01-.1.02-.14.01-.05,0-.09-.03-.12-.05h0s0-.02,0-.02h0s0-.02-.01-.02c-.06-.06-.08-.13-.06-.22Z"/>
        <path class="cls-2" d="m28.55,102.11h0s0-.01,0-.01v-.03s.02,0,.02,0c0,0,0,0,0-.01.02-.04.05-.08.1-.1.05-.03.1-.04.15-.04l4.65-.58c.05-.01.1-.01.14,0,.03,0,.07.03.11.07,0,0,.02,0,.02.02,0,0,0,0,0,0,0,0,0,0,0,0,.05.06.06.14.04.23v.04s-.05.17-.05.17c-.01.05-.04.09-.08.13-.04.04-.09.06-.14.06l-.95.13-.42,1.73.79.55s.07.07.09.12c.02.06.03.11.01.16l-.04.16v.04c-.03.09-.08.14-.14.18h0s0,0,0,0h-.02s-.02.01-.02.01c-.04.02-.08.02-.14,0-.04,0-.08-.03-.12-.07l-3.86-2.67s-.08-.06-.11-.11c-.03-.05-.04-.1-.03-.15h0s0-.02,0-.02h0Zm1.59.38l1.36.95.29-1.17-1.65.22Z"/>
      </g>
      <g>
        <path class="cls-2" d="m49.61,170.33h0s0-.02,0-.03c0,0,0-.01,0-.02l-.08-.15c-.04-.06-.05-.13-.03-.2.02-.07.06-.12.12-.16l1.24-.72-.72-1.24c-.04-.06-.05-.13-.03-.2.02-.07.06-.13.12-.16l.15-.09.03-.02c.06-.04.13-.05.2-.03h0s0,0,0,0c.07.02.13.06.16.12v.02s.02.02.02.02l.69,1.21,1.21-.7.03-.02c.07-.04.13-.05.19-.03.07.02.13.06.17.13l.02.03.08.15c.04.06.05.13.03.2s-.06.13-.12.16l-1.24.72.71,1.24c.04.06.05.13.03.2-.02.07-.06.13-.12.16l-.15.08-.04.02c-.06.04-.13.05-.2.03h0c-.07-.02-.12-.06-.16-.13l-.02-.04-.69-1.2-1.2.69s-.01,0-.02.02h-.02c-.06.04-.12.05-.19.03h0c-.07-.02-.13-.06-.16-.11Z"/>
        <path class="cls-2" d="m46.66,166.24s0-.01,0-.02c0-.01,0-.02,0-.02l-.9-1.83s0-.01-.02-.03v-.02s-.01-.02-.01-.02l-.07-.15c-.03-.07-.04-.13-.02-.2.02-.07.06-.12.13-.15.06-.03.11-.04.17-.03l1.65.35-.07-.51s0-.08.01-.12l.2-.56s.04-.08.06-.1l.48-.48s.03-.02.07-.04l.19-.09s.07-.03.08-.03l.67-.08s.06,0,.11.02l.56.19s.08.04.1.06l.47.48s.04.05.05.07l.28.57s.02.05.03.09l.09.67s0,.08-.01.12l-.09.28s-.02.05-.05.07l-.28.37s-.06.06-.1.08c-.07.03-.13.04-.2.01-.07-.02-.12-.07-.15-.13l-.07-.15-.02-.04s-.03-.08-.03-.11h0s0-.02,0-.02v-.02s0,0,0,0h0c0-.07.03-.11.08-.16l.15-.19.02-.21-.04-.37-.24-.49-.27-.27-.22-.13-.26-.04-.37.05-.11.05-.26.26-.14.24-.04.26.05.38.15.3h.01s.01.02.02.03c0,0,0,.01,0,.02,0,.01,0,.02,0,.02l.06.13h.01s.01.02.02.03c.05.09.04.18-.02.27h0s0,.01,0,.01h0s-.03.03-.04.04c0,0-.03.02-.06.04-.07.03-.14.04-.2,0l-1.54-.32.62,1.27c.03.07.04.13.01.2s-.07.12-.13.15l-.15.07-.02.02s-.02.01-.03.01c-.06.03-.12.03-.19.01h0c-.07-.03-.12-.07-.15-.13Z"/>
        <path class="cls-2" d="m43.72,159.76s0-.01,0-.03c0-.01,0-.02,0-.02v-.03s0,0,0,0h0s0-.02,0-.02c.01-.13.06-.21.16-.25,0,0,.02,0,.04,0l2.66-1.11-.23-.54c-.03-.07-.03-.14,0-.21.03-.07.07-.12.14-.15l.16-.07.05-.02c.06-.03.13-.03.19,0h0s0,0,0,0c.07.02.12.07.15.14,0,0,0,.01,0,.02,0,0,0,.02,0,.02l.21.5.7-.29.02-.02h.02c.07-.04.13-.04.2-.01h0c.07.03.12.07.15.15l.02.04.07.16c.03.07.03.13,0,.2-.03.07-.08.11-.14.14l-.74.31.62,1.48s0,.01.02.03v.02s.01.02.01.02l.07.16c.03.07.03.13,0,.2-.03.07-.07.11-.14.14-.04.02-.09.02-.16.02l-4-.83c-.11-.01-.19-.06-.23-.16Zm1.8-.24l1.7.36-.38-.91-1.32.55Z"/>
        <path class="cls-2" d="m40.85,151.55l-.12-.41s-.02-.06-.02-.08l.03-.67c0-.08.03-.13.08-.18l.35-.32s.06-.05.1-.06c.07-.02.14-.01.2.02.07.03.11.09.13.16l.06.2c.03.1,0,.19-.07.27l-.13.11v.39s.08.32.08.32l.25.36.39.12.72-.06h0s0-.01,0-.02l-.38-.55s-.03-.05-.04-.07l-.06-.2s-.01-.06-.01-.09l.02-.67s.01-.07.03-.12l.29-.52s.05-.07.08-.09l.55-.39s.04-.02.08-.03l.2-.06s.07-.02.09-.02l.67.03s.06,0,.11.04l.53.28s.07.05.09.08l.38.55s.03.05.04.08l.06.2s0,.05,0,.08l-.02.67s-.01.07-.03.12l-.29.53s-.06.08-.09.1l-.75.45s-.03.02-.06.03l-1.02.3s-.01,0-.02,0c0,0-.02,0-.02,0l-1.09.1s-.08,0-.1,0l-.73-.23c-.05,0-.1-.04-.14-.1l-.39-.55s-.02-.04-.03-.08Zm2.32-.74l.22.3.2.18.26.08h.32s.5-.28.5-.28l.13-.16.08-.26.02-.37-.03-.11-.22-.31-.2-.16-.25-.08h-.37s-.12.02-.12.02l-.3.21-.17.21-.08.25-.02.38.03.11Z"/>
        <path class="cls-2" d="m39.61,146.93l-.19-.83s0-.07,0-.11l.1-.46s.01-.04.04-.08l.15-.25s.04-.04.05-.06l.37-.31s.07-.05.11-.06l.41-.1s.09,0,.13,0l.46.11s.01,0,.02,0l.72.26s0,0,.02.01c.01,0,.02,0,.02,0l1.73.96-.45-1.92c-.02-.07,0-.14.03-.2.04-.06.09-.1.16-.12l.16-.04h.02s.02-.02.02-.02c.07-.02.14,0,.19.03h0c.06.04.1.09.12.17v.04s.62,2.61.62,2.61v.03s.02.04.02.04l.03.14v.03c.03.1,0,.17-.05.24,0,.01-.02.02-.03.02,0,0,0,0,0,0,0,0,0,0,0,0h-.01s0,.01,0,.01h0s0,.01,0,.01c0,0-.03.01-.07.02-.09.02-.16,0-.22-.04l-2.45-1.35-.68-.25-.38-.09-.3.07-.24.21-.08.31.17.71.21.25.31.08.15-.04c.07-.02.14,0,.2.03.06.04.1.09.12.16l.04.16v.04c.03.08.02.14-.02.2-.04.06-.1.11-.17.12h-.04s-.16.05-.16.05c-.03,0-.07,0-.12,0l-.47-.1s-.04-.01-.08-.03l-.25-.16s-.07-.05-.07-.05l-.3-.37s-.05-.07-.06-.11Z"/>
        <path class="cls-2" d="m38.65,142.47s0-.01,0-.03v-.02s-.36-2.04-.36-2.04c-.01-.07,0-.14.04-.2.04-.06.09-.1.17-.11l.18-.03h.04c.07-.02.14,0,.19.03h0c.06.05.1.11.11.18v.04s.29,1.61.29,1.61l.84-.03-.12-.21s-.01-.04-.02-.09l-.11-.62s0-.07,0-.09l.1-.66s.02-.07.05-.11l.34-.48s.06-.07.1-.08l.59-.33s.04-.01.09-.02l.41-.07s.07-.01.09,0l.67.11s.06.02.1.05l.49.34s.07.06.08.09l.32.59s.02.06.03.08l.11.62s0,.06,0,.09l-.1.66s-.02.07-.05.11l-.17.24s-.04.04-.06.06l-.37.28s-.07.04-.12.05c-.07.01-.14,0-.2-.04-.06-.04-.1-.1-.11-.17l-.03-.17v-.04s-.02-.09,0-.12h0s0-.02,0-.02v-.02s.01,0,.01,0h0c.02-.06.06-.1.12-.13l.2-.14.08-.2.06-.37-.09-.53-.18-.33-.18-.18-.24-.11-.37-.06-.33.06-.32.17-.2.19-.12.24-.05.37.13.73.24.33s.03.06.04.11l.03.17v.02s.02.02.02.02c.01.07,0,.13-.05.2h0s-.01.02-.01.02h0c-.05.06-.1.08-.16.09-.04,0-.06,0-.07,0l-1.82.11h-.01c-.07.02-.14,0-.2-.04h0c-.06-.05-.09-.1-.1-.17Z"/>
        <path class="cls-2" d="m37.38,132.38l-.05-.85s0-.07.02-.11l.18-.44s.02-.04.05-.08l.19-.22s.04-.04.06-.05l.42-.24s.08-.03.12-.04l.42-.03s.09,0,.13.02l.44.19s.01,0,.02.01l.66.38s0,0,.02.01c.01,0,.02,0,.02,0l1.54,1.23-.12-1.97c0-.07.02-.14.07-.19.05-.05.11-.08.18-.09h.17s.02-.01.02-.01h.02c.07-.01.14,0,.19.05h0c.06.05.09.11.09.19v.04s.17,2.67.17,2.67v.03s0,.04,0,.04v.14s.01.03.01.03c0,.1-.03.17-.1.23,0,.01-.02.02-.03.02,0,0,0,0,0,0,0,0,0,0,0,0h-.01s0,0,0,0h0s0,0,0,0c0,0-.03,0-.07.01-.09,0-.16-.02-.21-.08l-2.19-1.74-.63-.36-.35-.15-.31.02-.28.16-.13.29.04.72.16.28.29.13h.15c.07-.01.14,0,.19.05.05.05.08.1.09.18v.17s.01.04.01.04c0,.08-.02.14-.06.19-.05.06-.11.09-.18.09h-.04s-.17.01-.17.01c-.03,0-.07,0-.12-.03l-.44-.18s-.04-.02-.07-.05l-.22-.2s-.06-.06-.06-.06l-.23-.42s-.03-.08-.04-.12Z"/>
        <path class="cls-2" d="m37.16,126.81v-.43s0-.07,0-.08l.21-.64c.02-.07.06-.12.13-.15l.42-.22s.08-.03.11-.03c.07,0,.14.02.19.08.05.05.08.11.08.19v.21c0,.1-.05.18-.14.24l-.15.07-.12.37v.33s.15.42.15.42l.34.22.71.14h0s0-.02,0-.02l-.22-.64s-.02-.06-.02-.08v-.21s0-.06.01-.09l.21-.64s.03-.07.06-.1l.42-.42s.07-.06.1-.07l.64-.23s.04,0,.08,0h.21s.07,0,.09,0l.64.21s.06.03.1.07l.43.41s.06.07.07.1l.22.64s.02.06.02.09v.21s0,.05-.01.08l-.21.64s-.03.07-.07.1l-.42.43s-.08.06-.12.07l-.85.23s-.03,0-.07,0h-1.06s-.01,0-.02,0c0,0-.02,0-.02,0l-1.07-.2s-.08-.02-.1-.04l-.63-.43s-.08-.07-.1-.13l-.22-.64s0-.04,0-.08Zm2.43-.07l.13.35.15.23.23.14.31.1.56-.14.17-.12.14-.23.12-.35v-.12s-.13-.36-.13-.36l-.15-.21-.22-.15-.35-.11h-.12s-.34.12-.34.12l-.23.16-.14.21-.12.36v.12Z"/>
        <path class="cls-2" d="m37.27,121.6l.02-.43s0-.07.01-.08l.25-.63c.02-.07.07-.12.14-.14l.43-.19s.08-.03.11-.02c.07,0,.14.03.19.09.05.05.07.12.07.19v.21c-.02.1-.07.18-.17.23l-.16.07-.14.37-.02.33.12.42.33.24.7.18h0s0-.02,0-.02l-.18-.65s-.01-.06-.01-.08v-.21s.02-.06.03-.09l.24-.63s.04-.07.07-.1l.44-.4s.07-.05.11-.06l.65-.19s.04,0,.08,0h.21s.07.02.09.02l.63.25s.05.03.09.07l.4.44s.05.07.06.11l.18.65s.01.06.01.09v.21s-.02.05-.03.08l-.24.63s-.04.07-.07.1l-.45.4s-.08.06-.12.06l-.86.18s-.03,0-.07,0l-1.06-.05s-.01,0-.02,0c0,0-.02,0-.02,0l-1.06-.27s-.07-.03-.09-.04l-.61-.46s-.08-.07-.1-.14l-.19-.65s0-.04,0-.08Zm2.43.07l.11.36.13.23.22.16.3.12.57-.1.17-.11.16-.22.14-.34v-.12s-.1-.36-.1-.36l-.14-.22-.21-.16-.35-.13h-.12s-.35.09-.35.09l-.23.14-.16.2-.14.35v.12Z"/>
        <path class="cls-2" d="m38.18,112.51h0s.13-.83.13-.83c0-.04.01-.06.02-.08l.32-.59c.03-.07.08-.11.15-.12l.45-.14s.08-.02.11-.01l.43.07s.08.02.11.05l.38.28s.05.03.07.05l.18.24s0,.02.02.03c0,0,.01-.01.03-.03l.49-.34s.06-.04.08-.04l.45-.15s.07-.01.12,0l.63.1c.05,0,.09.02.12.04l.38.28s.04.03.06.06l.17.23s.04.08.05.11l.11.66s0,.06,0,.08l-.13.84s-.01.06-.03.08l-.31.6s-.04.06-.08.09l-.24.18s-.05.03-.08.03l-.45.14s-.08.02-.13,0l-.63-.1s-.08-.02-.11-.05l-.38-.28s-.05-.03-.07-.05l-.36-.49-.02-.03-.03.03-.24.18s-.05.03-.08.04l-.44.14c-.05.02-.09.02-.12.02l-.43-.07s-.06-.02-.1-.05l-.39-.27c-.06-.03-.1-.09-.11-.17l-.11-.64s0-.04,0-.07h0s0-.03,0-.03c0,0,0-.01,0-.02h0Zm.74.07l.07.38.09.07.3.05.3-.1.21-.29.13-.31-.03-.34-.11-.34-.26-.19-.3-.05-.1.03-.18.35-.12.74Zm1.84-.09l.04.34.12.38.13.17.3.22.5.08.22-.06.14-.16.18-.33.12-.74-.07-.37-.08-.2-.19-.13-.5-.08-.35.11-.18.13-.23.33-.14.31Z"/>
        <path class="cls-2" d="m39.13,107.41l.18-.83s.02-.07.05-.1l.29-.37s.03-.03.07-.06l.25-.16s.05-.02.07-.03l.47-.11s.08-.01.12,0l.41.09s.08.03.12.06l.37.3s.01,0,.02.02l.53.54s0,.01.01.02c0,0,.02.01.02.01l1.15,1.61.42-1.92c.02-.07.05-.13.12-.17.06-.04.13-.05.2-.04l.16.04h.02s.02,0,.02,0c.07.02.13.05.16.11h0c.04.06.06.13.04.21v.04s-.58,2.62-.58,2.62v.03s-.02.04-.02.04l-.03.14v.03c-.03.1-.08.16-.16.19-.01,0-.02.01-.03,0,0,0,0,0,0,0,0,0,0,0,0,0h-.02s0,0,0,0h0s0,0,0,0c-.01,0-.03,0-.07,0-.09-.02-.15-.06-.18-.13l-1.63-2.28-.51-.52-.3-.25-.3-.07-.31.08-.2.25-.16.71.08.32.25.2.15.03c.07.02.13.05.17.11.04.06.05.12.04.2l-.04.16v.04c-.03.08-.06.13-.12.17-.06.04-.13.05-.2.04h-.04s-.16-.05-.16-.05c-.03,0-.06-.03-.11-.06l-.38-.29s-.03-.03-.05-.06l-.15-.25s-.04-.07-.04-.08l-.11-.47s-.01-.08,0-.12Z"/>
        <path class="cls-2" d="m40.43,102.14l.06-.2s.02-.07.03-.08l.38-.55s.05-.06.09-.09l.52-.3c.05-.03.1-.04.14-.04l.87.03s.03,0,.07.01l1.01.29s.01,0,.03.01c.01,0,.02.01.03.01l.96.48s.05.04.08.07l.5.57s.06.09.06.17l.03.66s0,.06,0,.09l-.11.4s-.02.05-.04.08l-.38.56c-.04.07-.1.1-.18.11l-.46.08c-.05.01-.09.01-.12,0-.07-.02-.12-.06-.16-.13-.04-.07-.05-.13-.03-.21l.06-.2c.03-.1.1-.16.2-.19l.18-.03.22-.32.09-.32-.02-.44-.26-.3-.65-.33h0s0,.02,0,.02l.04.67s0,.04-.02.09l-.06.2s-.02.07-.03.08l-.38.55s-.05.07-.09.09l-.52.29s-.08.04-.12.04l-.67.02s-.06,0-.08,0l-.21-.06s-.05-.02-.07-.04l-.56-.37s-.06-.05-.08-.09l-.29-.52s-.03-.08-.03-.12l-.04-.67s0-.04.02-.09Zm.72.17l.02.36.09.26.16.2.31.21.11.03.38-.02.24-.08.21-.18.21-.3.04-.13-.02-.36-.09-.26-.16-.2-.28-.19h-.58s-.19.05-.19.05l-.21.18-.21.3-.04.13Z"/>
      </g>
    </g>
    <g>
      <path class="cls-2" d="m55.6,52.88l7.17,6.6c.23.21.37.5.38.82.01.31-.1.61-.31.85l-6.76,7.35c-.21.23-.5.37-.82.38-.31.01-.61-.1-.85-.31l-7.17-6.6-3,3.26,19.46,17.92,3-3.26-7.67-7.06c-.24-.23-.39-.52-.4-.84-.01-.32.1-.63.33-.87l6.71-7.29c.23-.24.52-.39.84-.4.32-.01.63.1.87.33l7.67,7.06,3-3.26-19.46-17.92-3,3.26Z"/>
      <rect class="cls-2" x="73.24" y="40.63" width="4.4" height="26.45" transform="translate(-17.25 53.17) rotate(-35.1)"/>
      <path class="cls-2" d="m91.03,55.28c-.25.11-.52.12-.76.02-.24-.09-.43-.27-.54-.51l-2.33-5.33c-.21-.49.03-1.06.53-1.28l11.2-4.89-1.56-3.57-11.2,4.89c-.5.22-1.09,0-1.3-.48l-2.04-4.67c-.11-.24-.11-.51-.01-.76.1-.25.28-.45.53-.55l12.09-5.28-1.54-3.54-17.03,7.44,10.58,24.24,17.13-7.48-1.56-3.57-12.19,5.32Z"/>
      <path class="cls-2" d="m127.46,48.27c-.26-.6-.44-1.11-.56-1.62v-.02c-.2-.7-.32-1.25-.38-1.79l-.32-1.91v-.03c-.15-.6-.32-1.18-.54-1.76-.18-.57-.46-1.1-.85-1.61-.34-.49-.8-.9-1.36-1.2l-.46-.27h-.02c-.07-.05-.11-.1-.11-.15,0-.08.07-.16.1-.19.56-.44,1.54-1.29,1.88-2.08.62-1.3.85-2.79.66-4.42-.24-2.16-1.18-3.84-2.8-4.99-1.57-1.08-3.66-1.49-6.22-1.2l-12.4,1.38,2.94,26.29,4.41-.49-1.07-9.54c-.08-.72.4-1.34,1.1-1.42l6.46-.72c.7-.08,1.3-.03,1.77.15.46.17.82.4,1.12.73.31.34.57.76.74,1.19.19.51.35,1.04.54,1.68.19.63.31,1.23.37,1.78l.04.22c.1.57.18,1.05.23,1.55v.03c.11.56.24,1.08.36,1.52.16.61.46.98.7,1.24l.18.19,5.09-.57-.79-.76c-.33-.32-.61-.72-.83-1.21Zm-6.21-12.31c-.18.23-.43.37-.71.4l-9.75,1.09c-.28.03-.56-.05-.78-.23-.23-.19-.37-.45-.41-.75l-.63-5.6c-.03-.3.05-.59.23-.82.18-.23.43-.37.71-.4l9.75-1.09s.08,0,.12,0c.54,0,1.01.42,1.07.99l.63,5.6c.03.3-.05.59-.23.82Z"/>
      <path class="cls-2" d="m148.28,26.98l-12.22-2.49-5.29,25.92,4.35.89,1.92-9.41c.07-.34.26-.63.54-.82.28-.19.61-.25.94-.19l6.37,1.3c.69.14,1.25.37,1.64.68.38.3.65.63.85,1.04.19.42.31.9.34,1.35.02.55.02,1.1,0,1.76-.02.66-.08,1.27-.19,1.81l-.03.22c-.08.57-.15,1.06-.26,1.55v.03c-.08.57-.11,1.11-.14,1.56-.03.63.14,1.07.29,1.39l.11.23,5.02,1.02-.52-.96c-.22-.4-.36-.87-.42-1.41-.07-.65-.08-1.2-.03-1.71v-.02c.03-.73.09-1.29.2-1.82l.28-1.92v-.03c.06-.61.07-1.21.04-1.84,0-.6-.1-1.18-.32-1.79-.18-.57-.49-1.1-.93-1.56l-.35-.4-.02-.02c-.05-.05-.07-.11-.06-.17.02-.08.11-.13.16-.15.82-.3,1.89-.79,2.43-1.4.99-1.05,1.66-2.39,1.99-4,.44-2.13.06-4.02-1.12-5.61-1.16-1.51-3.03-2.54-5.55-3.06Zm2.77,5.63l-1.13,5.53c-.06.29-.23.54-.47.71-.24.16-.52.22-.8.16l-9.61-1.96c-.58-.12-.95-.7-.83-1.3l1.13-5.53c.12-.6.69-.99,1.27-.87l9.61,1.96c.58.12.95.7.83,1.3Z"/>
      <path class="cls-2" d="m206.25,65.86c-.03-1.09-.3-2.19-.84-3.36-.51-1.09-1.21-2.14-2.12-3.19-.79-.92-1.68-1.71-2.64-2.37-1.04-.68-2.07-1.15-3.14-1.43-1.11-.27-2.21-.29-3.36-.05-1.11.25-2.2.82-3.22,1.7-.99.86-1.62,1.73-1.91,2.64-.31.93-.39,1.87-.24,2.9.15.96.44,1.91.86,2.83.36.86.79,1.76,1.37,2.82.18.32.35.65.52.98.3.56.61,1.14.92,1.68.02.04.04.09.08.18,1.62,3.59,1.63,4.51,1.61,4.69l-3.72,3.22c-.22.19-.51.27-.81.24-.32-.03-.61-.19-.82-.44l-6.83-7.91c-.44-.51-.43-1.24.04-1.64l3.78-3.27-2.74-3.17-.39.33c-1.2,1.04-2.08,2.19-2.61,3.42-.51,1.22-.72,2.47-.66,3.8.07,1.24.41,2.51,1.01,3.77.57,1.22,1.34,2.41,2.3,3.52.79.92,1.68,1.72,2.71,2.46.91.69,1.96,1.23,3.21,1.65h.02c.76.22,1.52.33,2.29.33.41,0,.83-.03,1.25-.09h.01c1.24-.23,2.41-.8,3.47-1.72.98-.84,1.67-1.77,2.06-2.76v-.02c.34-.93.46-1.93.36-2.97-.1-1.04-.36-2.07-.78-2.99-.38-.91-.82-1.87-1.31-2.85l-.03-.06h-.01c-.59-1.01-3.26-6.21-3.3-7.27l3.43-2.96c.47-.41,1.11-.4,1.46,0l5.92,6.85c.16.18.23.43.2.7-.03.29-.18.55-.4.75l-3.13,2.71,2.77,3.2.39-.35c1.04-.94,1.8-1.97,2.35-3.13v-.02c.49-1.15.68-2.25.61-3.36Z"/>
      <path class="cls-2" d="m183.75,51.6c.39-1.74.45-3.42.16-5-.27-1.64-.9-3.19-1.88-4.61-.94-1.43-2.34-2.69-4.14-3.74-1.85-1.07-3.59-1.65-5.32-1.75-1.69-.15-3.35.07-4.93.66-1.52.54-2.96,1.42-4.27,2.62-1.31,1.19-2.4,2.53-3.25,4.01-.85,1.47-1.48,3.09-1.86,4.81-.39,1.7-.44,3.34-.16,5,.27,1.62.91,3.17,1.9,4.59.96,1.45,2.32,2.68,4.17,3.75,1.8,1.05,3.59,1.63,5.29,1.74.35.03.7.04,1.05.04,1.37,0,2.67-.23,3.88-.67,1.58-.58,2.98-1.44,4.26-2.62,1.31-1.19,2.4-2.53,3.25-4.01.85-1.47,1.48-3.09,1.86-4.81Zm-4.14,2.26c-.02.75-.41,1.42-1.05,1.81l-6.74,4.1c-.69.42-1.54.43-2.24.02l-6.3-3.65c-.69-.4-1.11-1.15-1.09-1.95l.21-7.88c.02-.75.41-1.42,1.05-1.81l6.74-4.1c.35-.21.74-.32,1.14-.32s.76.1,1.1.3l6.3,3.65c.69.4,1.11,1.15,1.09,1.95l-.21,7.88Z"/>
    </g>
    <g>
      <path class="cls-2" d="m87.98,199.25c.76-1.12,1.17-2.27,1.2-3.43h0s0-.02,0-.02c-.02-1.17-.23-2.18-.64-3.08-.21-.49-.53-.95-.95-1.39-.41-.43-.87-.87-1.3-1.24l-1.5-1.16-9.52-6.5-14.92,21.85,10.57,7.21c1.09.74,2.2,1.23,3.31,1.43.56.12,1.12.18,1.67.18.48,0,.97-.05,1.45-.14h.01c.92-.2,1.8-.58,2.7-1.17h.02c.85-.63,1.54-1.32,2.06-2.08.93-1.37,1.38-2.83,1.32-4.34v-.05c-.08-.56-.32-1.22-.51-1.67-.16-.37-.12-.75.1-1.07.17-.24.42-.41.69-.47.42-.05.83-.16,1.22-.32,1.17-.47,2.19-1.33,3.02-2.55Zm-10.88-10.9l7.56,5.16c.45.31.56.95.24,1.42l-2.84,4.15c-.3.45-.94.57-1.39.26l-7.56-5.16c-.22-.15-.36-.38-.41-.64s0-.53.15-.75l2.84-4.15c.16-.23.39-.39.66-.44.07-.01.13-.02.2-.02.2,0,.39.06.55.17Zm1.65,15.6l-3.24,4.75c-.15.22-.38.36-.64.41-.26.05-.53,0-.75-.15l-7.56-5.16c-.45-.3-.57-.94-.26-1.39l3.24-4.75c.3-.45.94-.57,1.39-.26l7.56,5.16c.22.15.36.38.41.64s0,.53-.15.75Z"/>
      <path class="cls-2" d="m102.92,197.69l-17.26,22.53,4.37,1.27,4.39-5.88c.3-.41.81-.57,1.31-.43l8,2.33c.5.14.84.56.87,1.06l.47,7.3,4.65,1.35-2.54-28.29-4.26-1.24Zm-4.91,13.13s.05-.14.16-.28l3.97-5.38c.18-.25.44-.34.68-.34.1,0,.2.02.29.04.28.08.63.29.68.83l.38,6.27v.02c.01.09-.02.21-.06.34-.16.56-.74,1.01-1.42.81l-4.04-1.17h0c-.49-.14-.77-.66-.63-1.15Z"/>
      <path class="cls-2" d="m124.09,223.92c-.27,0-.52-.09-.71-.27-.19-.18-.3-.42-.3-.67l-.12-5.82c0-.26.09-.5.27-.68.18-.19.43-.29.7-.3l12.22-.25-.08-3.9-12.22.25c-.55.01-1.01-.41-1.02-.94l-.1-5.1c0-.26.09-.51.28-.71.19-.19.43-.3.7-.31l13.19-.27-.08-3.86-18.58.38.54,26.45,18.69-.38-.08-3.9-13.3.27Z"/>
      <path class="cls-2" d="m157.23,194.89l5.4,15.28c.1.27.08.54-.04.77-.11.21-.31.38-.55.46-.22.08-.56.08-.85-.14l-15.92-12.15-4.13,1.46,8.81,24.94,4.01-1.42-5.29-14.98c-.22-.62.14-1.11.61-1.27.29-.1.62-.04.9.17l15.6,11.91,4.23-1.49-8.81-24.94-3.98,1.41Z"/>
      <path class="cls-2" d="m172.69,185.2l-3.56,2.65,7.54,27.36,3.65-2.71-2.04-7.05c-.14-.48.03-1,.45-1.3l6.69-4.97c.41-.31.95-.33,1.37-.05l6.1,4.03,3.89-2.89-24.09-15.05Zm9.06,11.4c-.03.22-.12.52-.45.77l-3.37,2.51h0c-.2.15-.44.21-.69.17-.25-.04-.46-.16-.61-.36-.04-.05-.09-.16-.13-.29l-1.89-6.41c-.13-.42.09-.76.35-.95.14-.11.33-.2.56-.2.15,0,.32.04.51.16l5.23,3.49h.02c.08.06.15.15.24.27.19.25.27.56.24.86Z"/>
    </g>
    <path class="cls-2" d="m126.14,186.03c-8.08,0-15.93-1.58-23.31-4.71-7.13-3.02-13.54-7.33-19.04-12.83-5.5-5.5-9.82-11.9-12.83-19.04-3.12-7.38-4.71-15.23-4.71-23.31s1.58-15.93,4.71-23.31c3.02-7.13,7.33-13.54,12.83-19.04,5.5-5.5,11.9-9.82,19.04-12.83,7.38-3.12,15.23-4.71,23.31-4.71s15.93,1.58,23.31,4.71c7.13,3.02,13.54,7.33,19.04,12.83,5.5,5.5,9.82,11.9,12.83,19.04,3.12,7.38,4.71,15.23,4.71,23.31s-1.58,15.93-4.71,23.31c-3.02,7.13-7.33,13.54-12.83,19.04-5.5,5.5-11.9,9.82-19.04,12.83-7.38,3.12-15.23,4.71-23.31,4.71Zm0-117.99c-32.04,0-58.1,26.06-58.1,58.1s26.06,58.1,58.1,58.1,58.1-26.06,58.1-58.1-26.06-58.1-58.1-58.1Z"/>
    <path class="cls-2" d="m126.14,193.04c-9.03,0-17.79-1.77-26.04-5.26-7.97-3.37-15.12-8.19-21.26-14.34-6.14-6.14-10.97-13.3-14.34-21.26-3.49-8.25-5.26-17.01-5.26-26.04s1.77-17.79,5.26-26.04c3.37-7.97,8.19-15.12,14.34-21.26,6.14-6.14,13.3-10.97,21.26-14.34,8.25-3.49,17.01-5.26,26.04-5.26s17.79,1.77,26.04,5.26c7.97,3.37,15.12,8.19,21.26,14.34,6.14,6.14,10.97,13.3,14.34,21.26,3.49,8.25,5.26,17.01,5.26,26.04s-1.77,17.79-5.26,26.04c-3.37,7.97-8.19,15.12-14.34,21.26-6.14,6.14-13.3,10.97-21.26,14.34-8.25,3.49-17.01,5.26-26.04,5.26Zm0-128.17c-33.79,0-61.27,27.49-61.27,61.27s27.49,61.27,61.27,61.27,61.27-27.49,61.27-61.27-27.49-61.27-61.27-61.27Z"/>
  </g>
  <g>
    <path class="cls-2" d="m131.57,94.4s0,0,0,0c.05-.04.01-.02,0,0Z"/>
    <path class="cls-2" d="m142.1,99.35c-.5-.14-1.07.28-1.26.96s.06,1.33.56,1.48c.5.14,1.07-.28,1.26-.96s-.06-1.33-.56-1.48Z"/>
    <path class="cls-2" d="m133.38,100.64c.5.14,1.07-.28,1.26-.96.19-.67-.06-1.33-.56-1.48-.5-.14-1.07.28-1.26.96-.19.67.06,1.33.56,1.48Z"/>
    <path class="cls-2" d="m141.64,103.59c-.33-.28-.65-.55-.98-.83-.48-.41-.96-.83-1.45-1.23.06-.31.12-.63.18-.94.12-.64.25-1.29.37-1.93l.09-.45c.04-.22-.06-.47-.3-.52-.21-.05-.47.06-.52.3-.08.41-.16.81-.23,1.22-.12.64-.25,1.29-.37,1.93-.03.15-.06.3-.09.45-.03.14-.01.31.11.41.35.3.7.59,1.05.89.4.34.8.68,1.2,1.02-.22-.01-.44-.02-.65-.03-.95-.04-1.89-.09-2.84-.13-.22-.01-.43-.02-.65-.03-.22-.01-.43.2-.42.42.01.24.19.41.42.42.5.02,1,.05,1.5.07.89.04,1.78.08,2.67.13.3.01.6.03.9.04.06,0,.13,0,.19,0,.14,0,.28-.06.37-.17.14-.18.12-.44-.04-.6-.16-.15-.34-.29-.51-.43Z"/>
    <path class="cls-2" d="m140.25,105.47c-.06.01-.12.04-.17.07-.31.12-.63.23-.96.3-.1.02-.2.04-.31.06-.06.01-.12.02-.18.03-.02,0-.04,0-.06,0,.12-.01-.02,0-.04,0-.26.03-.52.04-.78.04-.14,0-.27,0-.41-.02-.08,0-.15-.01-.23-.02-.03,0-.06,0-.1-.01-.03,0-.03,0,.01,0-.03,0-.05,0-.08-.01-.23-.03-.45-.08-.66-.15-.1-.03-.2-.07-.3-.1-.06-.02-.11-.04-.16-.06,0,0,0,0-.01,0,0,0,0,0,0,0-.03,0-.06-.02-.08-.04-.22-.1-.43-.2-.64-.31-.42-.23-.83-.49-1.23-.76-.19-.13-.38-.27-.56-.4-.08-.06-.17-.12-.25-.19,0,0,0,0,0,0,0,0,0,0,0,0-.02-.02-.04-.03-.06-.05-.04-.03-.08-.07-.12-.1-.14-.11-.29-.23-.43-.35-.06-.05-.12-.1-.18-.16.02,0,.04,0,.06,0,.09,0,.18,0,.27,0,.05,0,.09,0,.14.01,0,0,.1,0,.03,0-.07,0,.03,0,.05,0,.11.02.21.04.32.07.21.06.47-.07.52-.3.05-.22-.07-.46-.3-.52-.73-.2-1.49-.15-2.16.2-.45.24-.82.59-1.11,1-.05.07-.11.15-.15.23-.1.19-.05.47.15.58.2.1.47.06.58-.15.03-.06.07-.11.11-.17.02-.02.04-.05.05-.07,0-.01.02-.02.02-.03.06-.07.12-.14.19-.21.06-.06.12-.12.19-.17.21.62.45,1.24.72,1.84.33.75.71,1.48,1.19,2.14.46.65,1.02,1.29,1.75,1.65.38.19.78.3,1.21.3.4,0,.8-.09,1.18-.24.79-.33,1.48-.86,2.08-1.46.48-.48.92-1.01,1.32-1.57.1-.13.21-.27.21-.44,0-.31-.3-.54-.6-.47Zm.22.81h0s.02,0,.02,0c0,0,.02,0,.03-.01.04-.01.06,0-.04.02Z"/>
    <polygon class="cls-2" points="124.15 97.45 124.15 97.45 124.15 97.45 124.15 97.45 124.15 97.45"/>
    <path class="cls-2" d="m124.35,99.54s0,0,0,0c-.06-.09-.02-.03,0,0Z"/>
    <path class="cls-2" d="m123.95,98.62s0,.02,0,.03c0,0,0,0,0,.01,0-.05,0-.06,0-.04Z"/>
    <path class="cls-2" d="m126.95,97.85s0,0-.01,0c0,0,0,0-.01,0,0,0,.02,0,.03.01,0,0,0,0,0,0Z"/>
    <path class="cls-2" d="m126.39,97.68s-.06,0,0,0h0Z"/>
    <path class="cls-2" d="m123.49,120.3s-.01,0-.02,0c-.02,0-.03,0-.05,0-.02,0-.04-.01-.07-.01-.01,0-.02,0-.03,0-.03,0-.05.01-.08.02-.02,0-.05.01-.07.02-.03.02-.06.04-.09.06-.01,0-.02.02-.03.03-.03.03-.05.06-.07.1,0,.01-.01.03-.02.04,0,.01-.01.02-.02.04,0,.02,0,.04,0,.05,0,.02-.01.04-.01.06-.02.66-.04,1.32-.06,1.97-.03,1.05-.07,2.1-.1,3.15,0,.24-.01.48-.02.72,0,.19.14.36.31.41.71.21,1.42.41,2.13.62,1.13.33,2.26.66,3.39.98.26.07.52.15.77.22.17.05.39-.03.48-.19.31-.6.62-1.2.93-1.8.49-.95.98-1.89,1.47-2.84.11-.22.22-.43.34-.65.12-.24.02-.55-.25-.62-.29-.08-.59-.16-.88-.24-.7-.19-1.41-.38-2.11-.57l-2.56-.68c-.74-.2-1.47-.4-2.21-.59-.36-.1-.72-.2-1.08-.29Zm5.96,7.2c-.06.12-.13.24-.19.36-.6-.17-1.2-.35-1.8-.52l-3.39-.98c-.15-.04-.3-.09-.45-.13.02-.55.03-1.11.05-1.66,0-.22.01-.44.02-.65.13.03.25.06.38.1.6.15,1.21.31,1.81.46.73.19,1.46.37,2.19.56.63.16,1.26.32,1.89.49.15.04.31.08.46.12-.32.62-.64,1.24-.96,1.86Zm-.65-4.91c.74.2,1.47.4,2.21.59.2.05.39.1.59.16-.23.44-.45.88-.68,1.31-.04.07-.07.14-.11.21-.15-.04-.3-.08-.45-.12-.6-.15-1.21-.31-1.81-.46-.73-.19-1.46-.37-2.19-.56-.63-.16-1.26-.32-1.89-.49-.25-.06-.5-.13-.76-.19.02-.54.03-1.08.05-1.63,0-.06,0-.12,0-.17.12.03.24.06.36.1.7.19,1.41.38,2.11.57.85.23,1.7.46,2.56.68Z"/>
    <path class="cls-2" d="m106.15,166.27s0,0,0-.01c0,0,0,0,0,0-.01-.03-.02-.02,0,.02Z"/>
    <path class="cls-2" d="m95.77,128.2s0,0,0,0c0,0,0,0,0,0,0,0,0-.01,0-.02,0,0,0,0,0,0Z"/>
    <path class="cls-2" d="m95.83,130.32s0,0,0,0c0,0,0,0,0,0,.02.02.02.02-.01-.02Z"/>
    <path class="cls-2" d="m100.92,136.56s0,0,0,0c-.01-.02-.02-.03-.02-.04,0,.01.02.02.02.04Z"/>
    <path class="cls-2" d="m102.03,137.07c-.08-.02-.03,0,0,0h0Z"/>
    <polygon class="cls-2" points="100.95 134.61 100.95 134.61 100.95 134.61 100.95 134.61"/>
    <path class="cls-2" d="m104.49,136.54c-.06,0-.03,0,0,0h0Z"/>
    <path class="cls-2" d="m155.14,115.6s0,.02,0,.03c0,0,0,0,0,0,0,0,0,0,0,.01,0,0,0-.03,0-.05h0Z"/>
    <path class="cls-2" d="m155.31,116.07s0,0,0,0c0,0,0,0,0,0,.02.02.03.03,0,0Z"/>
    <path class="cls-2" d="m160.71,119.12s0,0,.01,0c0,0,.01,0,.02,0,.02,0,.01,0-.03-.01Z"/>
    <path class="cls-2" d="m160.18,118.43s0,0,0,0c0,0,0,.01,0,.02,0,0,0-.02-.01-.05,0,.01,0,.02,0,.03Z"/>
    <path class="cls-2" d="m163.73,116.42h-.01s-.08.02.01,0Z"/>
    <path class="cls-2" d="m161.08,119.22c-.1-.02-.04,0,0,0h0Z"/>
    <path class="cls-2" d="m160.37,117.91s0,0,0,0c0,.02-.02.03-.03.04,0,0,0-.01.03-.05,0,0,0,0,0,0Z"/>
    <path class="cls-2" d="m160.18,118.31s0,0,0,0c0-.03,0-.04,0-.04,0,.01,0,.02,0,.03Z"/>
    <path class="cls-2" d="m163.53,111.03s-.04-.02,0,0h0Z"/>
    <path class="cls-2" d="m157.99,117.87s.06,0,0,0h0Z"/>
    <path class="cls-2" d="m155.99,107.39s.03,0,0,0h0Z"/>
    <path class="cls-2" d="m171.38,122.51s-.02-.07-.03-.1c-.01-.04-.03-.07-.06-.1,0,0,0-.02-.02-.03,0,0-.02-.02-.03-.02,0,0-.01-.01-.02-.02-.55-.49-1.09-.99-1.64-1.48-.33-.3-.67-.6-1-.9,0-.02.01-.04.01-.06,0-.24-.02-.48-.04-.72-.05-.63-.14-1.26-.25-1.89-.15-.79-.35-1.57-.62-2.32-.31-.85-.69-1.67-1.22-2.41-.54-.76-1.22-1.43-2.03-1.9-.54-.31-1.14-.52-1.73-.69-.72-.21-1.45-.36-2.19-.44-.09,0-.18,0-.27-.01-.02-.04-.04-.08-.07-.11-.26-.27-.53-.53-.81-.78-.59-.53-1.23-1.03-1.91-1.44-.64-.38-1.37-.68-2.12-.49-.54.14-1,.55-1.22,1.05-.08.18-.13.39-.16.59-.1-.08-.2-.16-.3-.24-.51-.41-1.01-.82-1.52-1.22-.56-.45-1.11-.9-1.67-1.35-.56-.45-1.12-.9-1.68-1.35-.52-.42-1.05-.85-1.57-1.27-.44-.36-.88-.71-1.32-1.07-.32-.26-.64-.51-.96-.77-.15-.12-.29-.24-.44-.36.06-.66.09-1.33.09-1.99,0-.68-.03-1.37-.09-2.05-.05-.58-.12-1.15-.22-1.72-.06-.37-.13-.74-.22-1.1-.01-.06-.03-.12-.05-.18,1.35-.51,2.63-1.21,3.8-2.04.8-.56,1.6-1.18,2.27-1.9,0-.01.02-.02.03-.03,0,0,0-.02.01-.02.05-.06.08-.12.1-.19,0,0,0-.02,0-.03.01-.09,0-.19-.05-.27-.08-.12-.2-.19-.34-.2,0,0-.02,0-.03,0-.01,0-.03,0-.04,0-.06-.02-.11-.02-.17-.01-.34-.02-.67-.05-1.01-.07-1.02-.08-2.04-.15-3.06-.23-1.32-.1-2.64-.2-3.95-.3-1.32-.1-2.65-.2-3.97-.3-1.02-.08-2.03-.16-3.05-.24-.47-.04-.95-.1-1.43-.05-.76.08-1.47.34-2.08.8-.23.17-.44.36-.64.57-.22-.17-.43-.34-.65-.51-.67-.53-1.34-1.06-2.02-1.59-.77-.61-1.55-1.22-2.32-1.83-.59-.47-1.18-.93-1.77-1.4-.14-.11-.27-.22-.41-.32-.01,0-.02-.02-.03-.03-.14-.11-.25-.14-.42-.11-.02,0-.05,0-.07.01l-1.39.25c-.85.15-1.7.3-2.55.45-.98.17-1.96.35-2.94.52-.84.15-1.69.3-2.53.45-.45.08-.9.16-1.35.24-.02,0-.04,0-.06.01-.01,0-.02.01-.03.02-.03.01-.06.03-.09.05-.05.03-.09.08-.12.13-.01.02-.03.04-.04.07-.01.03-.02.06-.02.09,0,.02-.01.04-.01.06-.07.62-.14,1.24-.21,1.86-.02.17,0,.35.14.47.07.06.15.12.22.18.32.26.63.51.95.77.16.13.31.25.47.38-.51.09-1.03.17-1.54.26-.1.02-.2.03-.3.05,0,0,0,0,0,0-.01,0-.02,0-.03,0-.04,0-.09.02-.13.04-.02,0-.03.02-.05.04-.02.01-.04.02-.05.03,0,0,0,0,0,.01-.05.05-.09.1-.1.18-.11.56-.22,1.12-.32,1.69-.02.08-.03.16-.05.24-.03.14-.01.31.11.41.13.11.26.21.39.32.36.29.71.58,1.07.87.53.43,1.06.86,1.58,1.29.64.52,1.28,1.04,1.92,1.56.7.57,1.4,1.14,2.11,1.71.71.58,1.42,1.15,2.13,1.73l1.99,1.62c.56.45,1.12.91,1.68,1.36.4.33.81.66,1.21.98.16.13.31.25.47.38-.15.47-.29.94-.44,1.41,0,.03-.02.06-.03.09-.48.44-.97.89-1.45,1.33-.3.27-.59.55-.89.82-.05-.02-.09-.03-.15-.03-.1,0-.19,0-.29,0-.27.01-.55.04-.82.07-.46.05-.93.12-1.39.21-.57.11-1.14.24-1.7.38-.69.18-1.38.4-2.06.64-.82.29-1.63.63-2.43.99-.88.4-1.73.85-2.57,1.33-.95.55-1.86,1.15-2.75,1.79-1.01.73-1.99,1.51-2.92,2.34-1.02.91-1.99,1.87-2.91,2.88-.16.17-.31.35-.47.52-.26-.23-.52-.46-.78-.69,0,0-.01,0-.02-.01-.17-.15-.43-.17-.6,0-.29.31-.59.62-.88.93-.47.49-.94.98-1.41,1.47-.11.11-.21.22-.32.34-.07.08-.11.18-.12.28,0,.12.02.23.12.31.31.26.62.53.94.79-.02.02-.04.03-.05.06-.24.35-.48.69-.71,1.04-.43.62-.86,1.25-1.28,1.87-.46-.36-.92-.72-1.39-1.08-.08-.06-.15-.12-.23-.18-.09-.07-.18-.13-.3-.12-.11,0-.23.04-.3.12-.18.22-.37.44-.56.66-.44.53-.89,1.05-1.33,1.58l-1.61,1.91c-.32.38-.64.76-.96,1.14-.16-.12-.32-.24-.48-.36-.15-.11-.3-.22-.45-.33-.11-.08-.18-.12-.33-.14-.7-.09-1.4-.17-2.1-.25-.27-.03-.53-.06-.8-.1-.06,0-.11,0-.16.03-.05.02-.1.05-.14.1-.22.27-.45.53-.67.8-.53.63-1.06,1.27-1.6,1.9-.64.77-1.29,1.54-1.93,2.3-.56.66-1.11,1.33-1.67,1.99-.27.32-.55.64-.81.97,0,0,0,0-.01.01-.14.16-.19.44,0,.6.17.14.34.28.5.42.46.38.91.77,1.37,1.15l2.02,1.7c.82.69,1.65,1.38,2.47,2.07.9.76,1.8,1.51,2.71,2.27.91.76,1.82,1.53,2.73,2.29.85.71,1.7,1.42,2.55,2.14.28.24.57.48.85.71-.46.57-.92,1.13-1.38,1.7-.19.23-.15.49.09.66.25.19.49.37.74.56-.32.4-.64.8-.96,1.2-.57.71-1.14,1.42-1.71,2.13-.13.16-.26.32-.39.49-.13.17-.19.44,0,.6.13.11.26.22.39.33.35.3.7.59,1.05.89.52.43,1.03.87,1.55,1.3.63.53,1.26,1.06,1.9,1.6.69.58,1.38,1.16,2.07,1.74l2.1,1.76c.65.55,1.3,1.1,1.96,1.65l1.65,1.39,1.18,1c.19.16.38.32.56.47,0,0,.02.01.02.02.14.12.35.17.51.07.64-.42,1.24-1.06,1.46-1.81.09-.3.1-.62.04-.93-.07-.35-.25-.66-.47-.93-.17-.21-.37-.39-.57-.57-.18-.17-.36-.34-.53-.51-.85-.81-1.69-1.63-2.53-2.45-.8-.78-1.6-1.57-2.4-2.36-.32-.32-.64-.64-.97-.96.23-.3.46-.59.69-.89.04-.05.07-.1.09-.15.12.09.24.18.36.28.37.28.73.56,1.1.84.16.12.38.04.51-.07l1.73-1.41c1.38-1.13,2.77-2.25,4.15-3.38l5-4.07c1.44-1.17,2.88-2.35,4.32-3.52.48-.39.96-.78,1.43-1.17.18-.15.37-.3.56-.45,1.59-.01,3.18-.18,4.72-.54.18.19.37.38.55.57.5.52,1,1.04,1.5,1.55.74.77,1.49,1.54,2.23,2.31.9.93,1.81,1.87,2.71,2.8.99,1.03,1.99,2.06,2.98,3.09,1,1.03,2,2.07,3,3.1.94.97,1.87,1.94,2.81,2.9.79.81,1.57,1.63,2.36,2.44.57.59,1.14,1.18,1.71,1.77.27.28.53.56.81.83.01.01.02.02.04.04.16.16.44.16.6,0,.22-.23.44-.46.65-.69.31.32.61.63.92.95.63.66,1.27,1.31,1.9,1.97.14.15.29.3.43.45.16.17.43.15.6,0l.37-.34c.34-.31.67-.62,1.01-.93.5-.46.99-.91,1.49-1.37l1.82-1.68c.66-.61,1.33-1.22,1.99-1.83.67-.62,1.34-1.24,2.02-1.86.63-.58,1.25-1.15,1.88-1.73.53-.49,1.05-.97,1.58-1.46l1.14-1.05c.18-.17.37-.33.54-.5,0,0,.02-.01.02-.02.15-.13.15-.35.07-.51-.09-.19-.21-.38-.34-.55-.29-.39-.63-.76-1.07-.99-.26-.14-.54-.22-.83-.24-.32-.02-.64.06-.93.19-.3.13-.55.34-.8.54-.19.15-.37.3-.56.46-.93.75-1.86,1.49-2.8,2.23-.91.72-1.82,1.43-2.73,2.15-.37.29-.73.57-1.1.86l-.81-.81c.05-.05.1-.1.15-.15l.93-.97c.12-.13.17-.35.07-.51-.43-.65-.87-1.31-1.3-1.96-1.08-1.62-2.15-3.24-3.23-4.86-1.38-2.07-2.76-4.15-4.13-6.22l-4.02-6.05c-.96-1.45-1.92-2.89-2.88-4.34-.16-.24-.32-.48-.48-.72.21-.47.43-.93.62-1.41.39-.98.7-1.99.98-3,.15.06.3.14.45.2.73.29,1.48.52,2.24.69,1.11.26,2.26.41,3.4.44,1.4.04,2.8-.11,4.16-.44,1.61-.39,3.16-1.05,4.58-1.92.13-.08.26-.17.39-.25.03.03.06.05.1.08l2.25,1.86c.54.45,1.08.89,1.62,1.34.26.21.51.42.77.63.01,0,.02.02.03.03.05.04.1.07.16.09.02,0,.04,0,.06.01.05.01.11.01.16,0,.01,0,.02,0,.03,0,.37-.07.73-.14,1.1-.21.88-.17,1.76-.33,2.64-.5,1.06-.2,2.12-.4,3.18-.6l2.75-.52c.45-.08.9-.15,1.34-.25,0,0,.01,0,.02,0,.13-.02.27-.16.3-.3.09-.57.18-1.14.27-1.7.01-.08.03-.16.04-.24,0-.02,0-.03,0-.05,0-.05,0-.1,0-.15,0,0,0-.02,0-.03-.02-.07-.05-.13-.1-.18-.45-.41-.9-.81-1.36-1.22.34-.07.68-.13,1.01-.2.17-.03.34-.07.51-.1.13-.03.27-.16.3-.3.1-.56.2-1.12.29-1.67.01-.08.03-.16.04-.24.01-.06,0-.12,0-.18Zm-10.67-12.22s.07,0,.11.01c.02,0,.06,0,.07.01.35.05.7.12,1.04.21.36.09.72.2,1.08.32.16.05.32.11.47.17.03.01.05.02.08.03-.02,0-.02,0-.03-.01.01,0,.02,0,.03.01.05.02.11.05.16.07.19.09.38.2.56.32.09.06.18.12.27.18.02.01.04.03.06.04,0,0,0,0,0,0,.04.03.09.07.13.11.32.27.61.58.87.91,0,0,0,.01.01.02,0,.01.02.02.03.04.03.04.07.09.1.13.06.08.12.17.17.26.12.18.23.36.33.55.1.18.2.37.29.56.05.1.09.19.13.29,0,0,.01.03.02.05,0,0,0,0,0,.01.02.05.04.09.06.14.29.74.51,1.51.68,2.29.07.34.13.67.18,1.01,0,.04.01.08.02.11,0,.02,0,.04,0,.06,0,0,0,0,0,0,0,.02,0,.06,0,.07,0,.04,0,.08.01.11.02.13.03.27.04.4,0,.09.01.19.02.28-.27-.24-.54-.49-.81-.73-.21-.19-.41-.37-.62-.56-.02-.02-.04-.02-.06-.03-.03-.02-.05-.04-.08-.05,0,0,0,0-.01,0-.08-.04-.17-.05-.26-.02l-.04.02s0,0-.01,0c-.63.24-1.26.49-1.89.73-.51.2-1.03.41-1.54.6-.13.05-.26.09-.39.12-.09.02-.18.04-.28.06-.02,0-.05,0-.07.01-.05,0-.1.01-.15.01-.11,0-.22,0-.33,0-.03,0-.06,0-.09,0,0,0,0,0,0,0,0,0,0,0,.02,0-.06-.01-.11-.02-.17-.03-.06-.01-.11-.03-.16-.05,0,0-.01,0-.02,0,0,0,0,0,0,0,0,0,0,0-.01,0-.01,0-.02-.01-.03-.01.01,0,.01,0,.02,0,0,0-.02,0-.03-.01-.05-.02-.1-.05-.14-.08,0,0,0,0-.01,0-.02-.02-.04-.03-.06-.05-.01-.01-.09-.1-.11-.12,0,0,0,0,0-.01-.02-.03-.04-.06-.06-.1-.02-.03-.03-.06-.05-.09,0,0,0-.02-.01-.03-.02-.05-.04-.11-.05-.16,0,0,0-.01,0-.02,0-.02,0-.04-.01-.06,0,.01,0,.02,0,.03,0,0,0,0,0,0,0-.02,0-.05,0-.07,0,0,0-.01,0-.02,0,.01,0,.02,0,.04,0-.01,0-.03,0-.05,0-.02,0-.03,0-.03,0-.02,0-.03,0-.05,0-.02.01-.04.02-.06.04-.07.08-.14.13-.21,0,0,.01-.03.03-.04,0,0,0,0,0-.01,0,0,0,0,0,.01.02-.02.04-.04.06-.07.04-.05.09-.09.14-.14.04-.04.08-.08.13-.11.02-.02.04-.03.06-.05.01,0,.03-.02.04-.03.11-.08.23-.16.34-.23.13-.08.26-.15.4-.22.06-.03.12-.06.19-.09.04-.02.07-.03.11-.05.01,0,.03-.01.04-.02,0,0,0,0,0,0,.3-.12.6-.22.91-.31.3-.08.6-.15.91-.19.02,0,.03,0,.05,0,0,0,0,0-.01,0,.03,0,.07,0,.1-.01.07,0,.15-.01.22-.02.14,0,.28-.01.41,0,.13,0,.25.01.38.03.22.03.43-.21.42-.42-.01-.25-.19-.39-.42-.42-.62-.08-1.26,0-1.86.13-.66.14-1.32.37-1.92.68-.53.27-1.05.62-1.41,1.1,0,0,0,0,0,0-.05.02-.1.05-.15.07-.02,0-.04.02-.06.03,0,0-.05.02-.06.03-.13.05-.25.1-.38.14-.11.03-.21.06-.32.09-.04,0-.08.02-.13.03-.02,0-.05,0-.07.01,0,0,0,0,0,0-.09,0-.17.02-.26.02-.08,0-.17-.01-.25-.01.02,0,.02,0,.03,0-.02,0-.03,0-.04,0-.03,0-.06-.01-.08-.02-.06-.01-.11-.03-.16-.05-.01,0-.02,0-.03-.01-.03-.01-.05-.03-.08-.04-.02-.01-.05-.03-.07-.05,0,0,0,0-.01,0-.07-.06-.13-.13-.19-.2-.01-.02-.02-.03-.03-.05-.02-.04-.05-.07-.07-.11-.02-.03-.03-.06-.04-.09,0-.01,0-.02-.01-.03-.02-.06-.04-.12-.05-.18,0-.03,0-.05,0-.08,0-.02,0-.03,0-.05.02-.09.04-.17.07-.26.03-.07.01-.01-.01.02.01-.02.02-.05.03-.07.02-.05.05-.09.07-.13.02-.04.05-.08.07-.11.01-.02.03-.04.05-.06h0c.07-.08.13-.16.2-.24.08-.08.16-.15.24-.22.04-.04.08-.07.13-.1,0,0,0,0,0,0,.03-.02.06-.04.09-.06.1-.07.2-.14.3-.2.22-.14.44-.26.67-.37.12-.06.25-.1.36-.16h.02s.06-.03.09-.04c.07-.03.13-.05.2-.08.49-.18.99-.32,1.51-.42.07-.01.14-.02.21-.04.02,0,.04,0,.06,0,.01,0,.02,0,.04,0,.13-.02.26-.03.39-.03.23-.01.46,0,.69.02.22.03.43-.21.42-.42-.01-.25-.19-.39-.42-.42-.48-.06-.96-.01-1.43.06-.53.08-1.05.22-1.56.4-.54.19-1.06.42-1.55.72-.43.26-.86.57-1.19.96-.22.26-.4.56-.5.89-.05-.02-.11-.04-.17-.04,0,0-.02,0-.03,0,0,0,0,0-.03,0-.04,0-.09-.01-.13-.02-.08-.02-.16-.04-.24-.06-.03,0-.05-.02-.08-.03,0,0-.02,0-.03-.01-.06-.03-.12-.07-.18-.11,0,0,0,0,0,0-.02-.02-.04-.03-.06-.05-.03-.03-.06-.06-.08-.09,0,0,0,0,0,0,0-.01-.02-.02-.03-.03.01.01.02.02.03.03,0,0-.01-.02-.02-.02-.01-.02-.03-.05-.04-.07-.01-.02-.02-.04-.03-.06,0,0,0,0,0-.01-.03-.08-.06-.17-.07-.26,0,.03,0,0,0-.02,0-.02,0-.04,0-.06,0,.01,0,.02,0,.03,0-.05,0-.09,0-.14,0-.15,0-.3.02-.45,0-.02,0-.04,0-.06,0-.03.02-.05.03-.08.01-.02.02-.05.03-.07.04-.08.08-.15.13-.22.02-.03.05-.06.07-.1.02-.02.03-.04.05-.06.06-.08.13-.15.2-.22.07-.07.15-.14.22-.2.04-.03.08-.06.12-.1.01,0,.09-.07.04-.03-.05.04.03-.02.04-.03.18-.14.37-.26.57-.38.21-.12.42-.23.63-.33.06-.03.11-.05.17-.08.03-.01.05-.02.08-.03.04-.02.1-.04.02,0,.12-.04.23-.09.35-.14.45-.16.91-.3,1.37-.38.07-.01.13-.02.2-.03,0,0,.02,0,.03,0,.02,0,.04,0,.07,0,.12-.01.24-.02.36-.03.22,0,.45,0,.67.02.22.03.43-.21.42-.42-.01-.25-.19-.39-.42-.42-.45-.06-.91-.02-1.36.05-.49.07-.97.2-1.44.37-.96.34-1.9.82-2.65,1.51-.23.22-.42.47-.58.74,0,0-.01,0-.02.01-.03,0-.05.01-.08.02,0,0-.01,0-.01,0-.06,0-.12,0-.18,0-.01,0-.03,0-.04,0-.04,0-.08-.02-.12-.03-.03,0-.06-.02-.09-.03-.01,0-.03-.01-.04-.02-.07-.04-.14-.08-.21-.12,0,0-.02-.02-.03-.02-.03-.03-.06-.06-.09-.09-.01-.01-.02-.03-.04-.04-.02-.03-.04-.05-.06-.08-.02-.03-.03-.06-.05-.09,0-.02-.01-.04-.02-.05-.01-.04-.02-.07-.03-.11,0-.02,0-.04,0-.06,0-.04,0-.09,0-.13,0,0,0,0,0,0,0-.02,0-.04.01-.06.01-.05.03-.1.04-.15,0-.02.01-.04.02-.06,0,0,0-.02.01-.03.06-.12.12-.23.2-.33.01-.02.02-.03.04-.05,0,0,0,0,0,0,.01-.02.04-.05.05-.06.06-.07.11-.13.17-.19.17-.17.35-.34.54-.49.04-.03.08-.06.12-.1.01-.01.03-.02.04-.03,0,0,.01,0,.02-.01.09-.07.18-.13.26-.19.18-.13.37-.25.56-.36.2-.12.41-.23.62-.33.05-.03.11-.05.16-.07.03-.01.05-.02.08-.04,0,0,.02,0,.03-.01.11-.05.23-.09.34-.13.49-.18,1-.31,1.52-.39.03,0,.07-.01.1-.02,0,0,.02,0,.03,0,.06-.02.15-.02.21-.02.15-.01.29-.03.44-.03.3-.02.6-.02.9,0,.16,0,.32.02.48.04.07,0,.15.02.22.02Zm-.33,8.58s-.01-.01-.02-.02c.02.02.04.06.02.02Zm-2.69-1.08c.05.02.03.01,0,0h0Zm1.67-2.86s.01,0,.02,0c-.02,0-.07.03-.02,0Zm-3.22,1.54s-.02,0-.04,0c.02,0,.03,0,.04,0Zm-1.6-2.16s.01,0,.02-.01c0,0,0,0,0,0,0,0-.01,0-.02.01Zm-.03.9s-.04-.03-.06-.05c.02.02.04.03.06.05Zm.21.06c-.05,0-.1,0-.15-.02.05.02.09.03.15.02Zm4.78-2.8s0,0,0,0c.04,0,.02,0,0,0Zm-4.73-4.11s0-.02,0-.03c0-.01,0-.03,0-.03,0-.02,0-.05.02-.07.01-.05.03-.1.05-.16,0-.02.01-.03.02-.05.02-.05.05-.1.08-.15.02-.04.05-.08.08-.12.02-.02.04-.05.06-.07.04-.04.08-.08.12-.11,0,0,0,0,0,0,.02-.01.04-.03.06-.04.05-.03.09-.06.14-.08,0,0,0,0,0,0,.03,0,.05-.02.08-.03.05-.02.11-.03.16-.04,0,0,.01,0,.02,0,.03,0,.06,0,.09,0,.07,0,.13,0,.2,0,.01,0,.02,0,.03,0,0,0-.01,0-.02,0,.04.01.09.01.13.02.07.02.14.03.21.06.04.01.07.02.11.04.02,0,.04.01.06.02,0,0,0,0,0,0,0,0,0,0,0,0,.17.08.33.16.49.25.33.19.64.4.94.63.02.02.04.03.07.05,0,0,.01,0,.02.01,0,0,.02.02.02.02.02.01.03.03.05.04.07.06.15.12.22.18.13.11.26.22.38.33.13.12.25.24.38.37-.73.04-1.46.15-2.16.38-.26.08-.51.18-.76.28-.02-.05-.05-.09-.09-.12-.1-.08-.21-.17-.31-.25-.26-.21-.52-.42-.79-.63,0-.05-.02-.1-.06-.15-.03-.03-.05-.07-.07-.11,0,0-.01-.02-.01-.03,0,0,0,0,0,0-.01-.04-.03-.09-.04-.13,0-.01,0-.03,0-.04,0,0,0,0,0-.01,0-.05,0-.1,0-.14,0-.02,0-.05,0-.07Zm-9.76-6.25c.42.34.83.67,1.25,1.01.51.41,1.01.82,1.52,1.22.56.45,1.11.9,1.67,1.35.56.45,1.12.9,1.68,1.35.52.42,1.05.85,1.57,1.27.44.36.88.71,1.32,1.07.32.26.64.51.96.77.12.1.24.2.37.29-.38.21-.74.44-1.09.7-.83.63-1.89,1.58-1.59,2.75.18.71.89,1.21,1.62,1.26-.01.14-.02.27-.01.41.02.26.08.51.19.75.12.26.32.47.55.64.34.24.75.33,1.16.37.04,0,.08,0,.12-.02.05.24.16.47.3.66.17.23.39.44.65.56.34.16.71.23,1.08.2.35-.02.69-.11,1.01-.22.02.18.07.36.15.54.25.54.77.9,1.35.99.49.07.99.02,1.46-.11.48-.13.94-.34,1.41-.52.72-.28,1.45-.56,2.17-.84.49.44.98.89,1.47,1.33.89.81,1.78,1.61,2.68,2.42-.09.02-.18.03-.27.05-.86.15-1.73.29-2.59.44-1.04.18-2.08.35-3.12.53-.9.15-1.81.31-2.71.46-.37.06-.74.11-1.11.19-.1-.08-.21-.17-.31-.25-.45-.36-.9-.73-1.35-1.09-.66-.54-1.33-1.08-1.99-1.62l-2.42-1.96c-.89-.72-1.77-1.44-2.66-2.16-.9-.73-1.79-1.45-2.69-2.18-.83-.68-1.67-1.36-2.5-2.03l-2.11-1.71c-.51-.41-1.02-.82-1.52-1.24-.24-.19-.47-.38-.71-.58.44-.82.83-1.66,1.16-2.53.35-.93.64-1.88.86-2.84.16-.72.28-1.44.38-2.17.21.17.42.34.64.51Zm-1.61-7.38c.04.23.08.45.11.68,0,.06.02.13.03.19,0,0,0,0,0,.01,0,.03,0,.06.01.09.02.14.03.28.05.42.07.64.11,1.29.13,1.93.02.77,0,1.54-.06,2.31-.03.42-.08.84-.13,1.26,0,.02,0,.05-.01.07,0,.06-.02.11-.02.17-.02.11-.03.22-.05.33-.04.22-.08.45-.12.67-.19.95-.43,1.88-.74,2.79-.16.48-.33.97-.54,1.44,0,0,0,0,0,0-.01.03-.03.06-.04.09-.03.06-.05.13-.08.19-.05.12-.11.24-.17.36-.11.25-.23.49-.36.73-.53,1.03-1.14,2.01-1.82,2.94-.09.12-.18.24-.27.36-.02.03-.06.08-.02.02-.02.03-.05.06-.07.09-.05.06-.1.13-.15.19-.2.25-.4.49-.6.72-.43.49-.88.97-1.35,1.43-.24.23-.48.46-.73.69-.16.15-.16.45,0,.6.18.16.42.16.6,0,.01,0,.02-.02.03-.03-.02.03-.03.06-.05.08-.37.67-.74,1.33-1.1,2-.32.58-.64,1.16-.96,1.73-.03.06-.07.13-.1.19-.24-.36-.47-.71-.71-1.07-.76-1.14-1.52-2.29-2.28-3.43-.92-1.38-1.84-2.77-2.76-4.15-.8-1.2-1.59-2.39-2.39-3.59l-.78-1.18c-.1-.14-.19-.29-.29-.43.15-.48.3-.96.45-1.43.4-1.27.79-2.54,1.19-3.8.18-.58.36-1.16.54-1.74,2.18-.33,4.14-1.33,5.87-2.69.62-.48,1.2-1.01,1.76-1.56.18-.17.35-.34.53-.5.02-.02.04-.03.06-.05.06.02.13.04.19.06.16.05.32.09.48.13.3.08.61.14.92.19.6.1,1.21.16,1.82.16,1.12,0,2.24-.15,3.32-.44.17-.05.34-.11.51-.16.07.3.14.6.19.91Zm16.61,32.09c.06,0,.13-.02.19-.03,1.05-.16,2.1-.32,3.16-.47-.07.41-.14.81-.21,1.22,0,0,0,.01,0,.02-.39.07-.77.14-1.16.22l-2.25.42c-.1.02-.2.04-.29.05l-.34-.28c-.48-.39-.96-.79-1.43-1.18-.71-.58-1.41-1.16-2.12-1.74-.86-.71-1.73-1.42-2.59-2.13-.95-.78-1.9-1.56-2.85-2.34l-2.86-2.35c-.89-.73-1.78-1.46-2.67-2.19-.75-.62-1.5-1.23-2.26-1.85-.54-.44-1.08-.89-1.62-1.33-.24-.2-.48-.4-.72-.59.2-.26.4-.52.59-.79.18.14.35.28.53.43.62.49,1.23.99,1.85,1.48.88.71,1.77,1.42,2.65,2.13,1.04.84,2.08,1.67,3.13,2.51,1.09.88,2.18,1.75,3.28,2.63,1.02.81,2.03,1.63,3.05,2.44.83.67,1.67,1.34,2.5,2,.54.43,1.07.86,1.61,1.29.12.1.24.2.37.29.02.01.04.03.05.04.14.11.27.13.45.1Zm-21.5-12.31c.05-.09.09-.17.14-.26.09.33.17.67.22,1.01.01.09.03.17.04.26,0,.04.01.08.02.12,0,.01,0,.06.01.09.02.18.04.36.06.54.04.41.07.83.09,1.24.02.46.03.92.03,1.38-.47.11-.93.23-1.4.34-.7.17-1.41.34-2.11.51l.83-1.5c.37-.67.74-1.33,1.1-2,.32-.58.64-1.16.96-1.73Zm-12.6-13.86s-.01,0-.02,0c-.03-.01-.06-.03-.1-.04-.07-.03-.14-.06-.21-.1-.15-.08-.3-.16-.44-.25-.08-.05-.15-.1-.23-.15-.03-.02-.06-.04-.09-.07-.02-.01-.04-.03-.05-.04-.14-.12-.28-.25-.4-.39-.01-.02-.03-.03-.04-.05,0,0,0,0,0,0-.02-.04-.06-.08-.08-.12-.05-.08-.1-.16-.14-.24-.02-.04-.04-.08-.06-.12,0-.02-.02-.04-.02-.06-.03-.09-.06-.18-.08-.28,0-.02,0-.05-.01-.07,0,0,0,0,0,0,0,0,0,0,0,.02,0,0,0-.02,0-.03,0,0,0-.02,0-.02,0,0,0,0,0,0,0-.03,0-.07,0-.1,0-.11,0-.21,0-.32,0-.03,0-.05,0-.08,0,0,0,0,0,0,.01-.06.02-.12.04-.18.03-.13.07-.26.12-.39,0-.03.02-.05.03-.08,0,0,0-.01,0-.02,0,.02-.02.03,0,0,0-.01.01-.02.01-.03,0,0,0,.02-.01.03.03-.06.05-.11.08-.17.05-.1.11-.2.18-.29,0,0,0,0,0,0,0,0,0,0,0,0,.02-.02.03-.04.05-.06.04-.04.07-.08.11-.12.03-.03.07-.07.11-.1,0,0,.01-.01.02-.02.01-.01.03-.02.04-.03.08-.05.16-.1.24-.14.02-.01.04-.02.06-.03,0,0,0,0,.01,0,.01,0,.02,0,.03-.01.02,0,.05-.02.07-.03.09-.03.18-.05.27-.07.04,0,.08-.02.13-.02.02,0,.04,0,.05,0,.17-.02.35-.02.52,0,.08,0,.16.01.25.02,0,0,.02,0,.03,0,.04,0,.08.01.13.02.14.03.28.06.42.1.16.05.33.1.48.16.04.01-.04-.02-.07-.03.05.02.1.04.16.04-.05.15-.1.31-.14.46-.06-.03-.11-.06-.17-.08-.31-.13-.65-.22-1-.22-.46,0-.86.2-1.12.58-.15.22-.23.49-.27.74-.04.25-.04.5.05.74.1.27.29.56.57.69.2.09.47.06.58-.15.1-.19.06-.48-.15-.58-.01,0-.02-.01-.03-.02,0,0-.01,0-.02-.01-.03-.02-.05-.05-.08-.07-.02-.03-.04-.06-.05-.08,0,0,0,0,0,0,0-.04-.02-.07-.03-.11,0,0,0-.02,0-.03,0-.05,0-.1,0-.15,0,0,0-.05,0-.07,0,0,0-.01,0-.02,0-.05.02-.11.04-.16.01-.05.03-.1.05-.16.01-.02.02-.05.04-.07.02-.04.05-.07.07-.1-.06.11-.01.02.02,0,0,0,.02-.02.03-.03.03-.02.06-.04.09-.05,0,0,0,0,0,0,0,0,0,0,0,0,.03,0,.07-.02.1-.03,0,0,.02,0,.03,0,.03,0,.06,0,.1,0,.07,0,.14.01.21.01-.02,0-.02,0-.03,0,.01,0,.02,0,.03,0,.04,0,.08.02.11.02.13.03.26.08.39.13-.05-.02-.01,0,.01,0,0,0,0,0,0,0,.01,0,.02,0,.03.01-.01,0-.01,0-.02,0,.03.01.05.02.08.04.03.01.06.03.08.04-.29.93-.58,1.86-.87,2.79,0,.01,0,.02-.01.04-.1-.04-.2-.07-.3-.11Zm10.1-6.8s0,0,0,0c0,0,0,0,0,0,.04-.03.02-.02,0,0Zm.07-.04s-.05.04-.07.04c0,0,0,0,0,0,.01,0,.05-.02.06-.04Zm-5.13-4.14c.13-.14.27-.27.42-.4.04-.03.07-.06.11-.09,0,0,0,0,0,0,.02-.01.04-.03.05-.04.09-.07.19-.13.28-.19.09-.05.18-.1.28-.15.04-.02.09-.04.13-.06,0,0,0,0,.01,0,0,0,0,0,0,0,.03-.01.07-.03.1-.04.22-.08.46-.14.69-.18.01,0,.01,0,.02,0,0,0,0,0,0,0,.03,0,.07,0,.1-.01.06,0,.11,0,.17-.01.15,0,.29,0,.44,0,.12,0,.23.02.35.03.24.02.47.04.71.06.65.05,1.3.1,1.95.15,1.69.13,3.38.26,5.07.39,1.65.12,3.31.25,4.96.37-.13.02-.26.05-.39.07-.11.02-.23.03-.34.05-.03,0-.07,0-.1.01,0,0,0,0,0,0-.07,0-.14.02-.2.03-.24.03-.47.05-.71.08-.45.04-.91.07-1.36.09-1.3.05-2.61.02-3.9-.13-.09-.01-.19-.02-.28-.03h-.03s-.06-.01-.1-.02c-.06,0-.12-.02-.18-.03-.22-.04-.47.06-.52.3-.05.21.06.48.3.52.71.13,1.44.18,2.16.22,1.71.09,3.43.02,5.13-.22.21-.03.42-.08.64-.11h0s-.05.02-.08.04c-.29.12-.59.24-.89.34-1.06.37-2.15.65-3.26.81-.03,0-.05,0-.08.01,0,0,0,0,0,0-.06,0-.12.02-.19.02-.12.01-.24.03-.35.04-.22.02-.45.04-.67.05-.4.02-.81.03-1.21.01-.33-.01-.67-.03-1-.07-.07,0-.14-.02-.21-.02-.02,0-.05,0-.07,0,0,0-.02,0-.03,0-.12-.02-.23-.03-.35-.06-.25-.04-.49-.1-.73-.16,0,0,0,0,0,0-.21-.07-.47.08-.52.3-.05.23.07.45.3.52.2.06.4.1.6.14.58.11,1.18.18,1.77.21.85.04,1.7,0,2.54-.09,1.12-.14,2.23-.38,3.31-.73.27-.09.53-.21.79-.31-.26.16-.52.33-.8.48-.41.23-.82.44-1.25.63-.06.03-.12.05-.17.08-.02.01-.05.02-.07.03-.01,0,0,0-.02,0,0,0,0,0,0,0-.12.05-.24.1-.36.15-.23.09-.47.18-.71.25-.5.16-1.01.3-1.53.4-.56.11-.96.16-1.54.19-1.21.07-2.31-.05-3.46-.37-.34-.09-.69-.3-1.02-.09-.17.11-.32.26-.47.39-.49.46-.97.93-1.48,1.37-.16.14-.33.28-.5.42-.05.04-.09.07-.14.11-.01,0-.02.02-.04.03,0,0-.02.01-.02.02-.1.08-.2.15-.3.22-.41.3-.84.58-1.28.84-.98.57-1.94.97-3.06,1.22-.09.02-.19.04-.28.06.09-.28.17-.55.26-.83.05,0,.1,0,.16-.01,1.39-.41,2.66-1.11,3.79-2.01.72-.57,1.38-1.22,1.96-1.95.12-.16.25-.32.36-.48.12-.18.04-.48-.15-.58-.21-.11-.45-.05-.58.15-.02.03-.04.06-.06.08-.02.03-.05.07-.07.1-.01.02-.03.04-.04.06-.22.28-.44.54-.69.8-.35.37-.73.73-1.12,1.05-.05.04-.11.09-.16.13-.03.02-.06.04-.08.07-.01.01-.04.03-.05.04,0,0,0,0,0,0-.12.09-.24.18-.36.26-.27.19-.54.37-.83.53-.34.2-.69.37-1.05.53-.02,0-.04.02-.06.03,0,0-.04.02-.04.02,0,0-.02,0-.02,0-.02.01-.05.02-.07.03-.1.04-.19.08-.29.11-.08.03-.17.06-.26.08l.04-.14c.17-.54.34-1.09.51-1.63,1.44-.33,2.64-1.39,3.49-2.56.07-.09.14-.19.2-.29.11-.18.05-.46-.15-.56-.2-.11-.44-.05-.56.15-.05.08-.1.15-.15.23-.03.04-.05.07-.08.11-.01.02-.03.04-.04.06,0,0,0,0,0,0,0,0,0,0,0,0-.08.1-.16.2-.25.3-.22.25-.45.49-.7.71-.06.06-.13.11-.2.17-.01.01-.05.04-.08.06,0,0,0,0,0,0-.03.02-.06.04-.09.06-.15.11-.32.22-.48.32-.1.06-.2.11-.3.16-.05.03-.1.05-.15.07-.01,0-.04.02-.05.02.11-.02,0,0-.03.01-.02,0-.05.01-.07.02.12-.39.24-.77.36-1.16.12-.38.23-.75.35-1.13.03-.1.06-.19.09-.29,0,0,0-.02,0-.03.07-.12.13-.24.2-.35.07-.11.15-.22.23-.33,0-.01,0-.01.01-.02,0,0,0,0,.01-.02.02-.03.04-.05.07-.08.06-.07.12-.14.18-.21Zm2.69,2.67s-.05.06,0,0h0Zm-17.84-7.02c1.05-.19,2.09-.37,3.14-.56.91-.16,1.82-.32,2.73-.48.37-.07.74-.13,1.11-.2.18.14.37.29.55.43.59.47,1.19.93,1.78,1.4.71.56,1.43,1.13,2.14,1.69.62.49,1.24.97,1.85,1.46.26.2.51.4.77.6-.02.02-.04.04-.05.06-.14.2-.29.43-.37.66-.12.34-.21.68-.32,1.03-.26.83-.52,1.67-.78,2.5-.2.65-.41,1.31-.61,1.96-.44-.19-.91-.31-1.39-.36-.4-.05-.81-.03-1.2.07-.02-.06-.05-.12-.1-.17-.11-.09-.23-.18-.34-.27l-.93-.74c-.46-.36-.91-.73-1.37-1.09l-1.67-1.33c-.61-.49-1.22-.97-1.83-1.46-.62-.49-1.23-.98-1.85-1.47-.58-.46-1.15-.92-1.73-1.37-.49-.39-.98-.78-1.46-1.17-.29-.23-.58-.46-.87-.7.07-.01.14-.03.21-.04.87-.15,1.73-.31,2.6-.46Zm-3.24,2.34c-.11-.09-.23-.18-.34-.27.04-.34.08-.68.11-1.02.21.17.42.34.64.51.46.36.91.73,1.37,1.09l1.67,1.33c.61.49,1.22.97,1.83,1.46.62.49,1.23.98,1.85,1.47.58.46,1.15.92,1.73,1.37.49.39.98.78,1.46,1.17.35.28.7.56,1.05.83.14.11.27.22.41.33-.14.09-.27.17-.39.29-.11.11-.19.26-.28.39-.02-.01-.03-.03-.05-.04-.29-.23-.57-.46-.86-.69-.43-.34-.85-.69-1.28-1.03-.52-.42-1.04-.84-1.56-1.25-.57-.46-1.14-.92-1.7-1.37-.57-.46-1.15-.92-1.72-1.39-.54-.43-1.07-.87-1.61-1.3-.45-.36-.9-.73-1.35-1.09-.32-.26-.65-.52-.97-.79Zm1.61,2.37c.61.49,1.21.98,1.82,1.47.65.52,1.3,1.05,1.95,1.57.64.51,1.27,1.03,1.91,1.54.55.45,1.11.89,1.66,1.34.41.33.81.66,1.22.99.19.15.37.3.56.45-.03.1-.09.2-.11.31-.08.34-.1.69-.06,1.04-.44-.35-.87-.69-1.31-1.04-.56-.44-1.12-.89-1.68-1.33-.61-.48-1.22-.97-1.84-1.45-.62-.49-1.24-.98-1.86-1.47-.58-.46-1.16-.92-1.74-1.38-.49-.39-.98-.77-1.47-1.16-.29-.23-.58-.46-.87-.69.44-.07.89-.15,1.33-.22.1-.02.2-.03.3-.05.01,0,.02-.01.04-.02.05.04.1.08.15.12Zm10.31,12.28c-.53-.43-1.06-.86-1.58-1.29-.64-.52-1.28-1.04-1.92-1.56-.7-.57-1.4-1.14-2.11-1.71-.71-.58-1.42-1.15-2.13-1.73-.66-.54-1.33-1.08-1.99-1.62-.56-.45-1.12-.91-1.68-1.36-.4-.33-.81-.66-1.21-.98-.14-.12-.29-.24-.43-.35.06-.33.13-.67.19-1,.23.18.46.37.7.55.46.36.92.73,1.38,1.09.56.44,1.12.89,1.68,1.33.61.48,1.22.97,1.84,1.45.62.49,1.24.98,1.86,1.47.58.46,1.16.92,1.74,1.38.49.39.98.77,1.47,1.16l1.06.84c.17.13.33.26.5.39l.02.02c.07.06.16.09.24.11.24.22.51.42.79.58.34.19.71.35,1.08.48-.16.52-.33,1.05-.49,1.57-.33-.27-.67-.54-1-.82Zm.39,4.21c.06-.05.12-.11.18-.16.29.44.58.87.87,1.31.56.84,1.11,1.67,1.67,2.51.66,1,1.33,2,1.99,3,.66,1,1.32,1.99,1.99,2.99.55.82,1.09,1.64,1.64,2.46.28.42.56.83.83,1.25-.27-.03-.55-.06-.82-.09-.84-.09-1.68-.17-2.52-.26-.13-.01-.25-.03-.38-.04-.28-.3-.56-.6-.85-.89-.75-.8-1.51-1.6-2.26-2.39-.91-.97-1.83-1.93-2.74-2.9-.79-.84-1.58-1.67-2.37-2.51-.29-.31-.58-.62-.87-.92.41-.37.81-.75,1.22-1.12.81-.74,1.62-1.49,2.43-2.23Zm-19.66,10.11c.47-.44.95-.86,1.44-1.28.23-.2.47-.39.71-.59.12-.1.24-.19.36-.29l.08-.06s.01-.01.02-.02c0,0,0,0,0,0,.06-.05.12-.1.19-.14.89-.68,1.82-1.31,2.77-1.9.84-.52,1.71-1,2.6-1.43.41-.2.82-.39,1.24-.57.05-.02.1-.04.15-.06.01,0,.02,0,.03-.01.01,0,.02-.01.04-.02.1-.04.2-.08.3-.12.19-.08.38-.15.57-.22.7-.26,1.41-.5,2.12-.71.59-.17,1.18-.31,1.78-.44.25-.05.5-.1.75-.14.11-.02.23-.04.34-.05.05,0,.1-.01.15-.02.02,0,.03,0,.05,0h0c.19-.03.38-.04.57-.06-.2.18-.39.36-.59.54-.18.17-.37.34-.55.51-.17.16-.15.44,0,.6.15.16.3.32.45.47l1.17,1.24,1.64,1.73c.62.65,1.23,1.3,1.85,1.95.6.63,1.2,1.27,1.8,1.9.5.53.99,1.05,1.49,1.58.31.33.62.65.92.98.06.06.11.12.17.18.14.14.36.14.54.16.75.08,1.5.16,2.25.23.55.06,1.1.11,1.65.17-.06.2-.11.39-.17.59-.25.86-.49,1.72-.74,2.58-.3,1.04-.6,2.07-.89,3.11-.26.9-.52,1.8-.78,2.7-.09.31-.18.61-.26.92-1.91-.57-3.83-1.13-5.74-1.7-2.29-.68-4.59-1.36-6.88-2.04-1.26-.37-2.52-.75-3.77-1.12l.73-.91c.26-.33.52-.66.78-.98,0,0,0,0,.01-.01.04-.05.07-.12.09-.18.5-.32,1.01-.64,1.51-.97.72-.46,1.45-.92,2.17-1.39.68-.43,1.35-.86,2.03-1.3.57-.36,1.14-.73,1.71-1.09.41-.26.82-.52,1.23-.78.19-.12.39-.25.58-.37,0,0,.02-.01.02-.02.19-.12.28-.38.15-.58-.12-.19-.38-.28-.58-.15-.13.08-.27.17-.4.25-.36.23-.72.46-1.09.69-.54.34-1.08.69-1.62,1.03-.65.42-1.31.84-1.96,1.25-.72.46-1.43.91-2.15,1.37-.72.46-1.45.92-2.17,1.39-.68.43-1.35.86-2.03,1.3-.57.36-1.14.73-1.71,1.09-.41.26-.82.52-1.23.78-.14.09-.28.18-.42.27-.11-.1-.22-.19-.32-.29-.81-.72-1.63-1.43-2.44-2.15-.98-.87-1.97-1.73-2.95-2.6-.79-.7-1.58-1.39-2.37-2.09.84-.94,1.71-1.85,2.62-2.71Zm30.89,16.27c-.54,1.13-1.17,2.22-1.89,3.25-.39-.1-.79-.2-1.18-.3-.95-.24-1.91-.48-2.86-.72-1.15-.29-2.3-.58-3.45-.87-1-.25-2-.5-3-.75-.47-.12-.93-.24-1.4-.35.14-.45.27-.89.41-1.34.2-.66.41-1.32.61-1.99.07-.22.14-.44.2-.66,1.53.45,3.07.91,4.6,1.36,1.82.54,3.64,1.08,5.46,1.62.6.18,1.19.35,1.79.53.24.07.48.15.73.22Zm-15.42,2.7c-.06.2-.12.39-.18.59-.26-.06-.52-.12-.79-.19-.63-.15-1.26-.3-1.9-.45,0,0,0,0-.01,0l.12-.38.61-1.93c.25-.78.49-1.55.74-2.33.21-.67.43-1.34.64-2.02.08-.24.15-.48.23-.72.56.17,1.11.33,1.67.5.3.09.6.18.91.27-.05.16-.1.33-.15.49-.19.63-.39,1.26-.58,1.89-.23.77-.47,1.53-.7,2.3-.2.66-.41,1.32-.61,1.99Zm-4.7-1.4s-.03.02-.04.03c-.15.12-.31.23-.47.34-.35.24-.71.45-1.08.64-.2.1-.41.2-.62.29,0,0-.01,0-.02,0-.02,0-.04.02-.05.02-.06.02-.12.05-.18.07-.11.04-.23.09-.34.12-.48.17-.97.3-1.47.39-.13.02-.27.05-.4.07-.01,0-.03,0-.04,0,0,0,0,0,0,0-.02,0-.04,0-.07,0-.07,0-.15.02-.22.03-.29.03-.58.05-.87.05-.3,0-.6,0-.9-.02-.16,0-.32-.02-.48-.04-.08,0-.16-.02-.24-.03-.04,0-.08,0-.11-.01-.02,0-.04,0-.05,0-.01,0-.02,0-.04,0,0,0,0,0,0,0,.19-.23.39-.47.58-.7.13-.16.19-.44,0-.6-.16-.13-.32-.26-.48-.39.02-.02.05-.02.06-.05.38-.48.77-.96,1.15-1.44.06-.08.13-.16.19-.24.17-.24.26-.52.29-.81.2-.25.39-.49.59-.74.18.04.37.09.55.13.6.15,1.2.3,1.81.44.73.18,1.46.36,2.19.54l1.88.46c.1.03.2.05.31.08-.35.4-.73.78-1.13,1.12-.06.05-.13.11-.2.16-.03.03-.07.06-.11.08Zm-4.68,1.98s-.02,0-.03,0c.01,0,.03,0,.03,0Zm-.04,0s-.02,0,0,0h0Zm-9.86,14.53c-.35.11-.71.22-1.06.33-.33.1-.65.2-.98.3.44-.53.88-1.05,1.32-1.58l.86-1.03c.16-.04.33-.08.49-.12.49-.12.99-.24,1.48-.36-.05.06-.1.12-.15.17-.55.63-1.09,1.27-1.64,1.9-.11.12-.21.25-.32.37Zm3.34-3.89c-.1.12-.2.24-.3.36-.67.16-1.33.32-2,.48.05-.06.1-.12.16-.19.56-.66,1.11-1.33,1.67-1.99.24-.29.49-.58.73-.87.55-.03,1.1-.07,1.65-.1-.11.14-.23.28-.34.41l-1.57,1.9Zm.41-3.07c-.07,0-.14,0-.21.01-.12-.1-.23-.19-.35-.29-.46-.38-.91-.77-1.37-1.15-.03-.02-.05-.04-.08-.06.24-.27.48-.54.72-.82.31.26.62.52.93.78.57.48,1.14.96,1.71,1.44-.46.03-.91.06-1.37.08Zm-1.03-3.89c-.19.23-.39.47-.58.7-.34.38-.68.76-1.01,1.15,0,0,0,0-.01.01-.17-.14-.34-.28-.51-.43.38-.46.76-.92,1.14-1.38.65-.78,1.29-1.57,1.94-2.35.15-.18.3-.36.45-.54.03-.03.04-.07.06-.11.04-.03.07-.06.1-.09.13.11.25.21.38.32.06.05.12.1.17.15-.71.86-1.42,1.71-2.13,2.57Zm-9.57-12.39l.3.26s.1.08.14.12c-.06.13-.11.27-.15.4-.3.99-.23,2.17.6,2.9.06.05.13.09.2.14-.16.83-.14,1.73.36,2.43.36.5.87.85,1.46,1.04.04.01.08.02.12.03.02.06.02.12.05.18.14.37.37.66.69.89.38.27.85.38,1.3.44.09.01.19.02.28.02.08.35.24.69.51.94.27.25.6.42.95.52.22.06.46.1.69.12.12.01.24.03.35.01.29-.03.57-.07.85-.15.26-.07.55-.19.73-.41.06,0,.11,0,.17,0-.15.18-.3.36-.45.55-.39.48-.79.95-1.18,1.43-.26-.21-.52-.43-.78-.64l-2.6-2.13c-1.05-.86-2.09-1.72-3.14-2.58-.91-.75-1.82-1.49-2.73-2.24-.44-.36-.88-.72-1.32-1.08,0,0-.01-.01-.02-.02,0,0,0,0-.01,0,.03-.03.05-.06.08-.1.7-.85,1.41-1.7,2.11-2.56.14-.17.29-.35.43-.52Zm10.46,8.84s-.03.02-.05.03c-.06.04-.12.07-.18.1,0,0,0,0,0,0,0,0-.01,0-.01,0-.04.01-.08.03-.12.04-.04.01-.09.02-.13.03,0,0-.02,0-.02,0,.01,0,.02,0,.03,0-.02,0-.04,0-.06,0-.11,0-.22,0-.33,0,0,0-.01,0-.02,0,0,0,0,0,0,0-.03,0-.05,0-.08-.01-.01,0-.02,0-.03,0,0-.02-.02-.04-.03-.06-.02-.04-.04-.08-.05-.11,0-.01,0-.02-.01-.03-.02-.07-.04-.14-.06-.21,0-.02,0-.03,0-.05,0-.02,0-.04,0-.06,0-.04.02-.08.03-.12,0-.03.02-.05.03-.08,0,0,0-.02.01-.03,0,0,0,0,0-.02.05-.1.1-.19.16-.28.32.27.65.55.97.82-.01.01-.02.03-.04.04Zm-1.72.66s0,0,0-.01c0,0,0,0,0,0,0,0,0,0,0,.01Zm0,0s0,.04.01.04c-.01-.01-.02-.03-.02-.05,0,0,0,.01,0,.01Zm-11.9-5.68c.35.28.69.57,1.04.85.87.71,1.73,1.42,2.6,2.13,1.05.86,2.09,1.72,3.14,2.58.91.75,1.82,1.49,2.73,2.24.36.3.73.6,1.09.9-.08.09-.15.18-.23.28-.14.16-.27.33-.41.49-.05-.04-.1-.08-.15-.12-.82-.69-1.65-1.38-2.47-2.07-.9-.76-1.8-1.51-2.71-2.27-.91-.76-1.82-1.53-2.73-2.29-.82-.68-1.63-1.37-2.45-2.05.18-.22.36-.43.54-.65Zm15.4,5.35l-2.15-1.82s-.07-.06-.11-.09c.32-.51.64-1.01.96-1.52.8.64,1.6,1.28,2.4,1.92l.1.08c-.4.48-.8.96-1.19,1.44Zm4.29-8.67c.1-.11.19-.21.29-.32.15-.16.18-.44,0-.6-.01,0-.02-.02-.03-.03.36-.23.71-.45,1.07-.68l1.62-1.03c.17-.11.35-.22.52-.33-.27.34-.54.67-.8,1.01-.62.78-1.24,1.56-1.86,2.34-.54.68-1.08,1.35-1.62,2.03-.13.16-.25.32-.38.47-.07-.15-.15-.3-.24-.43-.11-.15-.23-.3-.36-.45.6-.66,1.2-1.32,1.8-1.98Zm6.58,4.56s-.04.05,0,0h0Zm.88-2.15c-.18.57-.36,1.14-.54,1.72-.16-.04-.33-.08-.49-.12-.6-.15-1.2-.3-1.81-.44-.73-.18-1.46-.36-2.19-.54-.63-.15-1.25-.31-1.88-.46-.12-.03-.25-.06-.38-.09.33-.41.66-.83.99-1.24.62-.78,1.24-1.56,1.86-2.34.11-.13.21-.27.32-.4.71.21,1.42.42,2.13.63.92.27,1.84.55,2.76.82-.06.18-.12.37-.17.55-.2.64-.41,1.29-.61,1.93Zm-17.72-11.4s.03-.03.05-.05c.23.2.46.41.69.61.81.72,1.63,1.43,2.44,2.15.98.87,1.97,1.73,2.95,2.6.85.75,1.7,1.5,2.55,2.25.32.28.63.56.95.84l-1.78,1.96s-.02.02-.03.04c-.24-.2-.47-.4-.71-.6-.83-.71-1.66-1.41-2.5-2.12-1.01-.85-2.01-1.71-3.02-2.56-.87-.74-1.74-1.48-2.61-2.22-.33-.28-.65-.55-.98-.83.19-.2.38-.4.57-.6l1.41-1.47Zm-2.13,4.92c.27-.39.55-.78.81-1.18.66.56,1.32,1.12,1.97,1.67,1.01.85,2.01,1.71,3.02,2.56.87.74,1.74,1.48,2.61,2.22.42.36.85.72,1.27,1.08,0,0,.01,0,.02.01.05.04.1.09.14.13.05.05.1.11.15.16.03.03.05.06.08.09.01.02.03.03.04.05,0,0,.02.02.02.03,0,0,.01.02.02.02.01.02.03.03.04.05.03.05.06.09.09.14.06.09.11.19.16.28,0,.01.01.03.02.04,0,.01,0,.02.01.03.02.05.04.1.05.16.01.05.02.1.03.16,0,.03,0,.06,0,.09,0,.05,0,.1,0,.15,0,.03-.01.06-.02.1,0,.02-.01.05-.02.07,0,.01-.04.11-.02.05.02-.06-.01.03-.02.05-.02.03-.04.07-.06.1-.02.03-.08.11.02-.01,0,0,0,0,0,0,0,0-.01.02-.02.03l-.08.1c-.22.27-.44.55-.66.82-.17.22-.34.43-.52.65-.04.04-.06.1-.08.15-.57-.45-1.14-.91-1.7-1.36-.04-.04-.09-.07-.13-.11.21-.32.41-.64.62-.95.12-.19.04-.47-.15-.58-.21-.11-.45-.05-.58.15-.25.39-.5.78-.76,1.17,0,0,0,0,0,0,0,0,0,.01-.01.02-.01.02-.03.04-.04.06,0,0,0,0,0,0-.5.8-1.01,1.61-1.51,2.41-.08.12-.16.24-.23.37-.24.43-.36.9-.18,1.37.04.1.08.19.13.29,0,.02.02.04.03.06-.01,0-.03.02-.04.02,0,0,0,0,0,0-.04.02-.08.03-.12.04-.14.04-.28.07-.42.1-.06,0-.11.02-.17.03-.02,0-.04,0-.06,0-.1.01-.2,0-.31,0-.03,0-.06,0-.08,0,0,0,0,0-.01,0,0,0,0,0,.01,0-.04-.01-.09-.01-.13-.02-.1-.02-.19-.04-.29-.06-.08-.02-.16-.05-.24-.08,0,0-.02,0-.02,0-.04-.02-.08-.04-.12-.06-.05-.03-.11-.07-.16-.1,0,0-.01-.01-.02-.02-.03-.02-.05-.04-.07-.07-.02-.02-.05-.05-.07-.07,0,0,0,0,0-.01,0,0,0,.01.02.02,0,0-.01-.02-.02-.02-.02-.02-.03-.05-.02-.04-.02-.03-.05-.07-.07-.1-.01-.02-.03-.05-.04-.07,0,0,0,0,0,0-.02-.05-.04-.11-.05-.16-.01-.05-.03-.11-.03-.16,0-.03,0-.05,0-.08,0-.12,0-.24,0-.35,0-.04.02-.15.02-.13,0-.03,0-.06.02-.09.04-.19.09-.38.15-.56.02-.06.05-.13.07-.19-.03.08-.02.04,0,.01,0,0,0-.01,0-.02,0,0,0,0,0,0,0-.01.01-.03.02-.04,0,.02-.01.03-.02.04,0-.01.01-.02.02-.04.02-.05.05-.08.07-.13.56-.87,1.13-1.73,1.69-2.6.02-.02.03-.05.05-.07.12-.19.04-.47-.15-.58-.21-.11-.45-.05-.58.15-.55.84-1.09,1.68-1.64,2.52-.05.08-.11.16-.15.24-.06.1-.1.22-.14.32-.13.34-.21.7-.25,1.06-.01,0-.03,0-.04,0-.03,0-.06,0-.09,0-.01,0-.03,0-.04,0,0,0-.04,0-.05,0,0,0-.01,0-.01,0-.03,0-.05,0-.08-.01-.06-.01-.11-.02-.17-.04-.1-.02-.2-.05-.29-.09-.02,0-.03-.01-.05-.02-.04-.02-.08-.04-.11-.06-.07-.04-.13-.08-.2-.12,0,0-.02-.02-.03-.02-.03-.03-.06-.05-.08-.08-.02-.02-.04-.04-.06-.07,0,0-.01-.01-.02-.02-.04-.06-.07-.12-.1-.18,0,0,0,0,0-.01,0-.03-.02-.05-.03-.08-.02-.06-.04-.13-.05-.19,0,0,0-.03,0-.05,0-.02,0-.04,0-.05,0-.07,0-.13,0-.2,0-.07,0-.13,0-.2,0-.03,0-.06,0-.09,0,0,0,0,0,0,.02-.12.04-.24.07-.35.05-.18.11-.36.18-.54,0-.02.01-.03.02-.05,0-.01.01-.03.02-.04.09-.16.2-.3.3-.45.19-.29.38-.58.57-.87.3-.47.62-.92.91-1.4,0,0,.01-.02.02-.02.12-.19.04-.47-.15-.58-.21-.11-.45-.05-.58.15-.27.42-.54.83-.81,1.25-.32.49-.64.98-.96,1.48-.03.05-.06.11-.08.16-.09.2-.16.4-.22.61-.06.21-.1.43-.12.65-.02,0-.04-.02-.06-.03-.05-.02-.1-.05-.15-.08-.06-.03-.11-.06-.16-.1-.02-.02-.05-.03-.07-.05,0,0,0,0-.01,0-.11-.09-.21-.18-.3-.29,0,0-.01-.02-.02-.02-.02-.03-.04-.06-.06-.09-.04-.06-.08-.13-.12-.2-.01-.03-.03-.06-.04-.08,0-.02-.02-.05-.03-.07-.03-.08-.05-.17-.07-.25-.01-.05-.02-.1-.03-.15,0-.03,0-.06,0-.09,0-.12-.01-.25,0-.37,0-.06,0-.12.01-.19,0,0,.01-.09.01-.1,0,0,0-.01,0-.02.02-.14.05-.28.09-.41l1.66-2.43c.08-.11.16-.23.23-.34.12-.18.04-.48-.15-.58-.21-.11-.44-.04-.58.15-.55.81-1.11,1.63-1.66,2.44-.05-.04-.09-.09-.13-.14-.01-.01-.03-.03-.04-.05,0,0,0,0,0,0,0,0,0,0,0,0,0,0-.01-.02-.02-.02,0,0,0,0,.01.01,0-.01-.02-.02-.02-.04-.04-.05-.07-.11-.1-.16-.01-.02-.02-.05-.04-.07,0,0,0-.02-.01-.03-.04-.11-.07-.22-.1-.34,0-.03,0-.05-.01-.08,0,0,0,0,0,0,0-.06-.01-.11-.01-.17,0-.11,0-.23,0-.34,0-.03,0-.05,0-.08,0,0,0,0,0,0,0-.05.01-.09.02-.14.02-.09.04-.18.06-.27.04-.13.08-.26.13-.39-.03.08-.01.02,0,0,0,0,0,0,0,0,0-.02.01-.03.02-.05,0,.02-.01.03-.02.04,0,0,0,0,0-.01.06-.11.15-.21.22-.32.41-.59.81-1.19,1.22-1.78.5-.72.99-1.45,1.49-2.17Zm-.08,9.08h0s.01-.03,0,0Zm-4.1-7.68c.15-.18.3-.36.45-.54.41.32.82.64,1.24.96.05.04.09.07.14.11-.3.43-.59.86-.89,1.3-.48-.41-.97-.82-1.45-1.23.17-.2.34-.4.51-.6Zm-3.01,3.56l1.61-1.91c.11-.13.23-.27.34-.4.15.12.29.25.44.38-.41.5-.82.99-1.23,1.49-.7.85-1.41,1.7-2.11,2.56-.12.14-.24.29-.36.43-.16-.14-.33-.27-.49-.41.15-.18.31-.37.46-.55.44-.53.89-1.05,1.33-1.58Zm-2.77.31c.29.21.57.43.86.64-.18.21-.36.42-.53.63-.16-.13-.31-.26-.47-.39-.42-.35-.83-.7-1.25-1.05.4.05.8.1,1.2.15.07,0,.13.02.2.02Zm-4.95,2.52c.56-.66,1.11-1.33,1.67-1.99.19-.23.39-.46.58-.69.05.04.1.08.15.12.46.38.91.77,1.37,1.15l2.02,1.7c.82.69,1.65,1.38,2.47,2.07.9.76,1.8,1.51,2.71,2.27.91.76,1.82,1.53,2.73,2.29l2.55,2.14c.72.6,1.43,1.2,2.15,1.8l1.55,1.3c.16.13.31.26.47.39-.12.15-.25.3-.37.45-.53.64-1.06,1.27-1.6,1.9-.35.42-.71.85-1.06,1.27-.07-.06-.15-.12-.22-.19-.45-.38-.9-.77-1.35-1.15-.67-.57-1.34-1.14-2-1.7-.78-.67-1.57-1.33-2.35-2,.32-.38.64-.76.96-1.14.11-.14.23-.27.34-.41.14-.16.18-.45,0-.6l-.59-.49c-.47-.39-.94-.79-1.4-1.18-.57-.47-1.13-.95-1.7-1.42-.49-.41-.98-.83-1.48-1.24-.24-.2-.48-.4-.72-.6,0,0,0,0-.01,0-.16-.14-.44-.19-.6,0-.31.37-.62.74-.93,1.11-.13.15-.25.3-.38.45-.49-.42-.99-.84-1.48-1.26-.71-.6-1.42-1.21-2.13-1.81-.51-.43-1.02-.87-1.53-1.3-.16-.14-.33-.28-.49-.41.23-.27.46-.55.69-.82Zm9.74,11.87l-.09.11c-.08-.07-.16-.13-.24-.2-.47-.39-.94-.79-1.4-1.18l-1.7-1.42c-.49-.41-.98-.83-1.48-1.24-.14-.12-.29-.24-.43-.36.21-.25.42-.51.64-.76,0,0,.01-.01.02-.02,1.13.96,2.25,1.92,3.38,2.87.61.52,1.23,1.04,1.84,1.56-.18.21-.35.42-.53.63Zm-1.06-3.09c-.9-.77-1.8-1.53-2.7-2.3-.13-.11-.26-.22-.39-.33.31-.37.62-.74.93-1.11l.09-.11c.08.07.16.13.24.2.47.39.94.79,1.4,1.18.57.47,1.13.95,1.7,1.42.49.41.98.83,1.48,1.24.14.12.29.24.43.36-.21.25-.42.51-.64.76-.14.16-.28.33-.41.49-.71-.6-1.42-1.21-2.13-1.81Zm-.43,6.06c-.9-.76-1.8-1.51-2.71-2.27-.91-.76-1.82-1.53-2.73-2.29-.85-.71-1.7-1.42-2.55-2.14l-2.15-1.8c-.52-.43-1.03-.86-1.55-1.3-.16-.13-.31-.26-.47-.39.12-.15.25-.3.37-.45.53-.63,1.06-1.27,1.6-1.9l.7-.84c.18.16.37.31.55.47.76.65,1.52,1.29,2.29,1.94.93.79,1.86,1.58,2.79,2.37-.19.22-.38.45-.56.67-.11.14-.23.27-.34.41-.14.16-.19.44,0,.6l.59.49c.47.39.94.79,1.4,1.18.57.47,1.13.95,1.7,1.42.49.41.98.83,1.48,1.24.24.2.48.4.72.6,0,0,0,0,.01,0,.16.14.44.19.6,0,.3-.36.61-.73.91-1.09.34.29.69.58,1.03.88.97.83,1.95,1.65,2.92,2.48.61.52,1.22,1.04,1.83,1.56.05.04.1.08.15.13-.11.13-.22.26-.33.39-.56.66-1.11,1.33-1.67,1.99-.19.23-.39.46-.58.69-.05-.04-.1-.08-.15-.12-.46-.38-.91-.77-1.37-1.15-.67-.57-1.35-1.13-2.02-1.7-.82-.69-1.65-1.38-2.47-2.07Zm7.6,10.46c-.32.41-.63.82-.95,1.22-.14.18-.18.42,0,.6.32.32.64.63.96.95.74.73,1.49,1.47,2.24,2.2.84.82,1.69,1.65,2.53,2.47.35.34.71.68,1.07,1.02.08.08.17.16.25.24.06.06.12.12.17.19,0,0,.02.02.03.03,0,0,0,0,0,0,.03.04.05.08.08.12.04.06.07.12.1.19,0,0,0,0,0,.01,0,0,0,0,0,0,0,0,0,0,0,0,0,.01,0,.02.01.03,0,0,0,0,0-.02.01.03.02.06.03.1.02.06.03.11.04.17,0,0,0,0,0,.01,0,.04,0,.07,0,.11,0,.05,0,.1,0,.15,0,0,0,0,0,0,0,.03-.01.07-.02.1-.01.05-.03.11-.05.16,0,.01-.01.03-.02.05,0,.01-.01.03-.02.04-.05.1-.11.2-.17.29-.03.04-.06.08-.09.12h0s-.04.06-.06.08c-.13.15-.27.29-.42.42,0,0-.02.01-.03.02-.03-.03-.07-.06-.1-.09-.35-.3-.7-.59-1.05-.89-.52-.43-1.03-.87-1.55-1.3-.63-.53-1.26-1.06-1.9-1.6-.69-.58-1.38-1.16-2.07-1.74-.7-.59-1.4-1.18-2.1-1.76-.65-.55-1.3-1.1-1.96-1.65l-1.65-1.39c-.39-.33-.79-.66-1.18-1-.1-.08-.2-.17-.3-.25.26-.33.53-.66.79-.98.57-.71,1.14-1.42,1.71-2.13.12-.15.23-.29.35-.44.53.41,1.07.81,1.6,1.22,1.26.96,2.51,1.91,3.77,2.87-.02.01-.04.02-.05.04Zm2.36.66c-.93-.71-1.86-1.41-2.79-2.12-1.59-1.21-3.18-2.42-4.77-3.63-.24-.18-.48-.36-.71-.54.38-.46.75-.92,1.13-1.39.22.18.44.37.66.55.52.43,1.03.86,1.55,1.3.24.2.49.41.73.61.01,0,.02.02.03.03.01.01.03.02.05.03.07.05.15.09.24.09.02,0,.05,0,.07,0,.02,0,.03,0,.05,0,0,0,.01,0,.02,0,.01,0,.03,0,.04-.01.47-.15.93-.29,1.4-.44.06-.02.12-.04.18-.06.51.41,1.03.82,1.54,1.23.87.7,1.75,1.4,2.62,2.1.13.1.25.2.38.3-.8.65-1.61,1.31-2.41,1.96Zm17.04-13.87s-.06.05-.09.07c-.14.11-.28.23-.42.34-.56.46-1.13.92-1.69,1.38-1.83,1.49-3.67,2.99-5.5,4.48-1.98,1.61-3.96,3.23-5.94,4.84-.11.09-.21.17-.32.26-.5-.4-1-.8-1.49-1.19-.87-.7-1.75-1.4-2.62-2.1-.04-.03-.08-.06-.12-.1.26-.08.52-.16.79-.24.04-.01.09-.03.13-.04.11-.04.17-.09.24-.17.14-.17.29-.34.43-.5.5-.58,1-1.16,1.5-1.74.35-.4.69-.8,1.04-1.2,0,0,.01-.01.02-.02,0,0,0-.02.02-.03.04-.04.08-.09.12-.14.85-1.03,1.7-2.06,2.55-3.09.08-.09.15-.18.23-.27,0,0,.01-.02.02-.03.07-.07.11-.16.11-.27,0,0,0-.02,0-.02,0-.1-.03-.2-.12-.27l-1.28-1.07c-.68-.57-1.35-1.13-2.03-1.7-.06-.05-.12-.1-.18-.15.44-.53.88-1.06,1.32-1.59.64-.77,1.28-1.54,1.92-2.31,1.26.22,2.54.27,3.81.09,1.04-.15,2.04-.45,2.99-.9.78-.37,1.51-.83,2.18-1.37.25-.2.48-.41.71-.62-.07.21-.13.42-.2.63-.1.33-.22.65-.31.98,0,0,0,0,0,.01-.07.21.08.47.3.52.4.09.79.19,1.19.28.63.15,1.26.3,1.9.45.15.03.29.07.44.1.23.05.45-.07.52-.3.08-.26.16-.53.24-.79.19-.63.39-1.26.58-1.89.02-.05.03-.1.05-.15.39.1.77.19,1.16.29.95.24,1.91.48,2.86.72,1.15.29,2.3.58,3.45.87,1,.25,2,.5,3,.75.39.1.77.2,1.16.29-.13.17-.34.43-.5.63-.2.24-.41.47-.62.7-.43.46-.88.9-1.35,1.31-.94.82-1.98,1.53-3.12,2.14-2.52,1.33-5.4,1.95-8.26,2.01-.27,0-.56-.04-.79.14Zm19.47,13.74c-.99-1.03-1.99-2.06-2.98-3.09-1-1.03-2-2.07-3-3.1-.94-.97-1.87-1.94-2.81-2.9l-2.36-2.44c-.57-.59-1.14-1.18-1.71-1.77-.16-.17-.33-.34-.49-.51,1.48-.43,2.91-1.04,4.23-1.83.86-.52,1.66-1.13,2.42-1.79.06.08.12.16.18.24.34.44.69.88,1.03,1.33.51.65,1.01,1.31,1.52,1.96l1.86,2.39,2.03,2.62,2.05,2.64c.64.82,1.28,1.65,1.91,2.47.54.69,1.08,1.39,1.61,2.08.39.5.78,1,1.16,1.5.13.17.26.33.39.5-.23.22-.46.44-.69.66l-2.1,2.01c-.24.23-.49.46-.73.7l-.83-.86c-.9-.93-1.81-1.87-2.71-2.8Zm22.63-3.62s0,0,0,0c-.02,0-.04.01,0,0Zm-8.69,6.35c.18.18.42.14.6,0,.37-.29.74-.58,1.12-.88.86-.67,1.72-1.35,2.57-2.02.94-.74,1.88-1.49,2.82-2.24.38-.3.76-.61,1.13-.92.03-.02.05-.04.08-.06-.1.06.03-.02.05-.03.07-.05.14-.09.21-.13.03-.02.07-.04.1-.05,0,0,.01,0,.02-.01.06-.02.13-.05.19-.06.03,0,.06-.01.09-.02,0,0,.01,0,.02,0,.05,0,.11,0,.16,0,.03,0,.06,0,.09,0,0,0,.01,0,.02,0,.02,0,.05,0,.06,0,.03,0,.06.01.09.02.05.01.1.03.14.05.03.01.05.02.08.04.1.05.19.11.28.18.02.02.04.03.06.05.04.04.08.07.12.11.07.07.14.15.21.22.03.04.06.07.09.11.01.02.02.03.04.05.05.07.1.14.14.21,0,0,.01.02.02.03-.05.04-.09.08-.14.13-.34.31-.67.62-1.01.93-.5.46-.99.91-1.49,1.37-.61.56-1.22,1.12-1.82,1.68-.66.61-1.33,1.22-1.99,1.83-.67.62-1.34,1.24-2.02,1.86-.63.58-1.25,1.15-1.88,1.73-.53.49-1.05.97-1.58,1.46-.38.35-.76.7-1.14,1.05-.08.08-.17.15-.25.23-.3-.31-.61-.63-.91-.94l-1.9-1.97c-.06-.06-.11-.12-.17-.17.44-.46.88-.92,1.31-1.38,1.11-1.16,2.22-2.33,3.33-3.49l1.06,1.06Zm-.24-3.14c-.77.81-1.54,1.62-2.31,2.42-1.35,1.42-2.71,2.84-4.06,4.26-.21.22-.42.44-.63.66-.08-.09-.17-.18-.25-.26-.5-.52-1-1.04-1.5-1.55-.27-.28-.54-.56-.81-.84l.54-.52c.67-.64,1.34-1.28,2-1.92.81-.77,1.62-1.55,2.42-2.32.7-.67,1.4-1.34,2.1-2.01.23-.22.46-.44.69-.66.44.66.88,1.33,1.32,1.99.16.25.32.5.49.74Zm-14.56-21.93c.59.88,1.17,1.77,1.76,2.65.72,1.08,1.43,2.16,2.15,3.23.78,1.18,1.57,2.36,2.35,3.54.79,1.19,1.58,2.38,2.38,3.58.74,1.11,1.48,2.22,2.22,3.34.47.71.95,1.42,1.42,2.14-.21.2-.41.39-.62.59l-2,1.92c-.37.36-.75.71-1.12,1.07-.07-.09-.13-.17-.2-.26-.34-.44-.69-.88-1.03-1.33-.51-.65-1.02-1.31-1.52-1.96-.62-.8-1.24-1.6-1.86-2.39-.68-.87-1.36-1.75-2.03-2.62-.68-.88-1.36-1.76-2.05-2.64-.64-.82-1.28-1.65-1.91-2.47-.54-.69-1.08-1.39-1.61-2.08l-1.16-1.5c-.12-.15-.24-.31-.36-.46.18-.17.36-.35.54-.53,1.04-1.09,1.95-2.3,2.74-3.59.34-.56.65-1.14.94-1.73.33.5.66,1,1,1.5Zm-.48-4.82c-.21.59-.45,1.17-.7,1.75-.04-.01-.07-.03-.12-.04-1.28-.38-2.56-.76-3.84-1.14-.1-.03-.19-.06-.29-.09.07-.23.13-.45.2-.68.25-.86.49-1.72.74-2.58.3-1.04.6-2.07.89-3.11.26-.9.52-1.8.78-2.7.1-.36.21-.72.31-1.08.45-.11.89-.22,1.34-.33.83-.2,1.66-.4,2.49-.61.05-.01.11-.03.16-.04,0,.2,0,.4-.01.59-.02.52-.06,1.05-.11,1.57-.02.27-.05.54-.08.81-.01.13-.03.25-.04.38,0,.08-.02.15-.03.23,0,.03,0,.05,0,.08,0,.02,0,.04,0,.06,0,0,0,0,0,.02-.32,2.35-.86,4.67-1.67,6.9Zm14.19-2.84c-.09.04-.18.08-.28.12-.02,0-.05.02-.07.03,0,0-.01,0-.02,0-.04.02-.08.03-.12.05-.19.08-.38.15-.57.22-.36.13-.73.25-1.1.35-.35.1-.71.19-1.07.26-.17.04-.35.07-.52.1-.09.01-.17.03-.26.04-.04,0-.07.01-.11.02-.02,0-.04,0-.06,0,0,0,0,0,0,0,0,0,0,0,0,0-.65.08-1.31.13-1.97.13-.6,0-1.21-.03-1.8-.1-.07,0-.14-.02-.21-.02-.03,0-.06,0-.09-.01-.01,0-.03,0-.04,0-.13-.02-.26-.04-.4-.06-.26-.04-.51-.09-.76-.14-.8-.17-1.58-.39-2.35-.68-.13-.05-.26-.1-.39-.15,0,0-.01,0-.02,0-.02,0-.04-.02-.06-.02-.05-.02-.09-.04-.14-.06-.02,0-.04-.02-.06-.03.03-.12.07-.24.1-.36.33-1.37.57-2.75.74-4.15.15-1.24.24-2.49.26-3.74.01-1.05-.02-2.1-.13-3.15-.03-.24-.06-.48-.1-.72.39.32.77.64,1.16.96.71.58,1.41,1.16,2.12,1.75.86.71,1.72,1.42,2.58,2.13l2.83,2.34,2.86,2.36c.62.52,1.25,1.03,1.87,1.55-.59.37-1.2.71-1.84,1Zm5.94,1.29c-.71-.58-1.41-1.16-2.12-1.75-.86-.71-1.72-1.42-2.58-2.13-.94-.78-1.89-1.56-2.83-2.34-.95-.79-1.91-1.57-2.86-2.36-.89-.73-1.78-1.47-2.66-2.2-.75-.62-1.5-1.24-2.25-1.86l-1.62-1.34c-.26-.21-.51-.42-.77-.63-.01,0-.02-.02-.03-.03-.01-.01-.03-.02-.05-.03-.03-.13-.05-.27-.09-.39-.04-.13-.09-.27-.14-.4-.02-.06-.06-.11-.1-.16.09-.1.18-.21.27-.31.19.15.38.31.56.46.64.52,1.27,1.05,1.91,1.57.91.75,1.83,1.5,2.74,2.25,1.08.88,2.15,1.77,3.23,2.65,1.12.92,2.24,1.84,3.36,2.76,1.05.86,2.09,1.72,3.14,2.58.86.7,1.71,1.41,2.57,2.11.55.45,1.1.9,1.65,1.35.09.07.17.14.26.21-.07.37-.14.74-.21,1.11-.46-.38-.92-.76-1.38-1.14Zm8.84.13c-1.06.2-2.12.4-3.18.6l-2.75.52c-.24.05-.48.09-.72.14.07-.38.14-.77.22-1.15,0,0,0,0,0,0,1.21-.22,2.41-.45,3.62-.67.1-.02.21-.04.31-.06.13-.02.27-.16.3-.3l.32-1.83c.02-.09.03-.18.05-.27.06-.34-.19-.57-.52-.52-1.17.18-2.34.35-3.51.53-.09.01-.17.03-.26.04-.11-.09-.22-.18-.33-.27-.47-.37-.93-.75-1.4-1.12-.69-.55-1.37-1.1-2.06-1.65-.84-.68-1.69-1.35-2.53-2.03-.92-.74-1.83-1.47-2.75-2.21-.93-.74-1.86-1.49-2.79-2.23-.87-.69-1.73-1.39-2.6-2.08-.73-.59-1.46-1.17-2.19-1.76-.53-.42-1.05-.84-1.58-1.27-.25-.2-.49-.4-.74-.6.19-.29.37-.57.54-.87.27.22.54.44.81.65.88.72,1.77,1.43,2.65,2.15,1.2.98,2.41,1.96,3.61,2.93,1.31,1.06,2.62,2.13,3.93,3.19,1.21.98,2.41,1.96,3.62,2.94.88.71,1.76,1.43,2.63,2.14l.74.6c.12.1.29.28.44.32.12.03.27,0,.39-.03.17-.03.33-.06.5-.08l1.75-.3c1.62-.27,3.23-.55,4.85-.82.98-.17,1.97-.33,2.95-.5-.06.35-.12.69-.18,1.04-.38.08-.77.15-1.15.23l-2.23.44c-.17.03-.34.07-.51.1-.13.03-.27.16-.3.3-.12.65-.25,1.3-.37,1.94-.02.09-.04.18-.05.28-.06.33.19.58.52.52l1.43-.27,2.17-.42c-.06.35-.11.71-.17,1.06-.28.05-.56.11-.84.16-.88.17-1.76.33-2.64.5Zm3.24-2.5c-.21.04-.42.08-.63.12-.72.14-1.43.28-2.15.41.08-.43.17-.87.25-1.3v-.03c.39-.08.78-.15,1.16-.23.06-.01.12-.02.18-.04.39.35.79.71,1.18,1.06Z"/>
    <path class="cls-2" d="m151.06,94.58c.32-.31.64-.62.96-.93.77-.75,1.53-1.49,2.3-2.24.92-.9,1.84-1.79,2.76-2.69.8-.78,1.6-1.56,2.4-2.33.39-.38.78-.74,1.16-1.13,0,0,.01-.01.02-.02.16-.15.17-.44,0-.6-.17-.16-.43-.16-.6,0-.32.31-.64.62-.96.93-.77.75-1.53,1.49-2.3,2.24-.92.9-1.84,1.79-2.76,2.69-.8.78-1.6,1.56-2.4,2.33-.39.38-.78.74-1.16,1.13,0,0-.01.01-.02.02-.16.15-.17.44,0,.6.17.16.43.16.6,0Z"/>
    <path class="cls-2" d="m157.17,95.73c-.93.54-1.87,1.07-2.8,1.61-.46.26-.92.51-1.37.78,0,0-.01,0-.02.01-.19.11-.27.39-.15.58.12.19.37.27.58.15.37-.21.75-.43,1.12-.64.9-.51,1.79-1.03,2.69-1.54l3.24-1.86c.93-.54,1.87-1.07,2.8-1.61.46-.26.92-.51,1.37-.78,0,0,.01,0,.02-.01.19-.11.27-.39.15-.58-.12-.19-.37-.27-.58-.15-.37.21-.75.43-1.12.64-.9.51-1.79,1.03-2.69,1.54-1.08.62-2.16,1.24-3.24,1.86Z"/>
    <path class="cls-2" d="m160.33,100.98c-1.08.3-2.15.59-3.23.89-.52.14-1.04.28-1.56.43,0,0-.01,0-.02,0-.21.06-.37.3-.3.52.07.22.29.36.52.3.43-.12.86-.24,1.29-.36,1.03-.28,2.06-.57,3.09-.85,1.24-.34,2.48-.68,3.71-1.03,1.08-.3,2.15-.59,3.23-.89.52-.14,1.04-.28,1.56-.43,0,0,.01,0,.02,0,.21-.06.37-.3.3-.52-.07-.22-.29-.36-.52-.3-.43.12-.86.24-1.29.36-1.03.28-2.06.57-3.09.85-1.24.34-2.48.68-3.71,1.03Z"/>
    <path class="cls-2" d="m97.53,109.19c.44-.06.88-.11,1.33-.17,1.06-.13,2.12-.27,3.18-.4,1.27-.16,2.55-.32,3.82-.48,1.11-.14,2.21-.28,3.32-.42.53-.07,1.07-.13,1.6-.2,0,0,.02,0,.02,0,.22-.03.43-.17.42-.42,0-.21-.19-.45-.42-.42-.44.06-.88.11-1.33.17-1.06.13-2.12.27-3.18.4-1.27.16-2.55.32-3.82.48-1.11.14-2.21.28-3.32.42-.53.07-1.07.13-1.6.2h-.02c-.22.03-.43.18-.42.43,0,.21.19.45.42.42Z"/>
    <path class="cls-2" d="m98.54,101.06c.43.05.85.11,1.28.16,1.03.13,2.05.26,3.08.39,1.24.16,2.47.31,3.71.47,1.07.14,2.14.27,3.21.41.52.07,1.04.15,1.56.2,0,0,.01,0,.02,0,.22.03.43-.21.42-.42-.01-.25-.19-.39-.42-.42-.43-.05-.85-.11-1.28-.16-1.03-.13-2.05-.26-3.08-.39-1.24-.16-2.47-.31-3.71-.47-1.07-.14-2.14-.27-3.21-.41-.52-.07-1.04-.15-1.56-.2,0,0-.01,0-.02,0-.22-.03-.43.21-.42.42.01.25.19.39.42.42Z"/>
    <path class="cls-2" d="m99.43,92.91c.41.16.83.33,1.24.49l2.98,1.18c1.19.47,2.39.95,3.58,1.42l3.11,1.23c.5.2,1,.42,1.5.6,0,0,.01,0,.02,0,.21.08.47-.09.52-.3.06-.24-.07-.43-.3-.52-.41-.16-.83-.33-1.24-.49-.99-.39-1.99-.79-2.98-1.18-1.19-.47-2.39-.95-3.58-1.42-1.04-.41-2.07-.82-3.11-1.23-.5-.2-1-.42-1.5-.6,0,0-.01,0-.02,0-.21-.08-.47.09-.52.3-.06.24.07.43.3.52Z"/>
  </g>
</svg>