<?xml version="1.0" encoding="UTF-8"?>
<svg id="Capa_1" data-name="Capa 1" xmlns="http://www.w3.org/2000/svg" viewBox="0 0 301.31 118.8">
  <defs>
    <style>
      .cls-1 {
        fill: #24397c;
      }
    </style>
  </defs>
  <g>
    <path class="cls-1" d="m32.5,71.44v11.38c0,1.87,1.54,3.41,3.41,3.41h20.72c.25,0,.5-.03.74-.08-1.05-7.31-4.83-13.73-10.28-18.2h-11.18c-1.87,0-3.41,1.54-3.41,3.49Z"/>
    <path class="cls-1" d="m57.55,92.86c-.29-.08-.6-.13-.92-.13h-20.72c-1.87,0-3.41,1.54-3.41,3.41v13c0,1.87,1.54,3.41,3.41,3.41h11.28c5.78-4.79,9.67-11.78,10.37-19.7Z"/>
    <path class="cls-1" d="m24.09,96.63c0-2.19-1.71-3.9-3.9-3.9H0c1.11,13.25,11.16,23.95,24.09,26.07v-22.17Z"/>
    <path class="cls-1" d="m20.27,86.23c2.11,0,3.82-1.71,3.82-3.82v-20.62C11.69,63.82,1.94,73.74.18,86.23h20.09Z"/>
  </g>
  <g>
    <path class="cls-1" d="m104.22,92.84c-.74-.84-1.89-1.65-2.71-2.18-.74-.48-1.15-1.22-1.15-2.08,0-.66.25-1.29.69-1.74.62-.55,1.18-1.18,1.65-1.89,1.39-2.09,2.1-4.64,2.1-7.58,0-2.69-.63-5.04-1.89-7.01-1.35-1.9-2.83-3.33-4.52-4.36-.88-.56-1.93-.97-3.1-1.2-1.16-.25-2.42-.46-3.61-.6l-3.83-.22h-23.06v53.1h25.68c2.65,0,5.03-.46,7.07-1.37,2-.82,3.71-1.94,5.23-3.46,1.28-1.36,2.31-2.98,3.15-5.01.71-1.96,1.07-3.89,1.07-5.73,0-3.31-.91-6.21-2.7-8.63l-.05-.06Zm-11.29-6.74h-18.54c-1.22,0-2.24-1.03-2.24-2.24v-10.18c0-1.28,1.01-2.31,2.24-2.31h18.54c1.24,0,2.24,1.04,2.24,2.31v10.18c0,1.22-1.03,2.24-2.24,2.24Zm-20.78,9.68c0-1.22,1.03-2.24,2.24-2.24h18.54c1.21,0,2.24,1.03,2.24,2.24v11.63c0,1.22-1.03,2.24-2.24,2.24h-18.54c-1.22,0-2.24-1.03-2.24-2.24v-11.63Z"/>
    <path class="cls-1" d="m129.96,64l-20.62,53.1h8.73l5.14-13.76c.39-1.05,1.37-1.72,2.51-1.72h16.87c1.14,0,2.12.68,2.51,1.72l4.99,13.77h9.32l-20.77-53.1h-8.67Zm4.26,13.4c.55,0,1.54.18,2,1.35l4.3,12.02c.09.22.09.48.09.79,0,1.28-.95,2.6-2.53,2.6h-8.51c-1.16,0-2.1-.94-2.1-2.1,0-.2.06-.46.17-.74l4.66-12.66c.33-.94,1.24-1.28,1.92-1.28Z"/>
    <path class="cls-1" d="m170.95,107.49v-11.78c0-1.2,1.01-2.17,2.24-2.17h24.51v-7.44h-24.51c-1.24,0-2.24-.97-2.24-2.17v-10.32c0-1.22,1.03-2.24,2.24-2.24h26.48v-7.37h-37.17v53.1h37.39v-7.44h-26.69c-1.24,0-2.24-.97-2.24-2.17Z"/>
    <path class="cls-1" d="m240.06,96.58c0,1.42-1.09,2.17-2.17,2.17-.53,0-1.26-.25-1.72-.94l-22.12-33.81h-8.52v53.1h8.17v-31.93c0-1.47,1.13-2.24,2.24-2.24.69,0,1.35.38,1.79,1.01l21.69,33.16h8.74v-53.1h-8.09v32.58Z"/>
    <path class="cls-1" d="m280.54,64h-8.67l-20.62,53.1h8.73l5.14-13.76c.39-1.05,1.37-1.72,2.51-1.72h16.87c1.14,0,2.12.68,2.51,1.72l4.99,13.77h9.32l-20.77-53.1Zm-4.41,13.4c.55,0,1.54.18,2,1.35l4.3,12.02c.09.22.09.48.09.79,0,1.28-.95,2.6-2.53,2.6h-8.51c-1.16,0-2.1-.94-2.1-2.1,0-.2.06-.46.17-.74l4.66-12.66c.33-.94,1.24-1.28,1.92-1.28Z"/>
  </g>
  <g>
    <path class="cls-1" d="m35.43,20.37c0,1.44-1.17,2.61-2.61,2.61H12.61c-1.44,0-2.61-1.17-2.61-2.61V.87H1.47v53.1h8.53v-20.88c0-1.53,1.15-2.68,2.68-2.68h20.07c1.53,0,2.68,1.15,2.68,2.68v20.88h8.53V.87h-8.53v19.5Z"/>
    <rect class="cls-1" x="49.6" y=".87" width="8.46" height="53.1"/>
    <path class="cls-1" d="m101.1,46.53h-26.69c-1.24,0-2.24-.97-2.24-2.17v-11.78c0-1.2,1.01-2.17,2.24-2.17h24.51v-7.44h-24.51c-1.24,0-2.24-.97-2.24-2.17v-10.32c0-1.22,1.03-2.24,2.24-2.24h26.48V.87h-37.17v53.1h37.39v-7.44Z"/>
    <path class="cls-1" d="m115.27,34.76c0-1.58,1.21-2.82,2.75-2.82h13.16c1.47,0,2.69.24,3.64.71.91.46,1.61,1.03,2.18,1.79.56.77,1,1.71,1.25,2.63.27,1.08.48,2.18.72,3.51.23,1.32.35,2.57.35,3.76l.02.41c.07,1.16.12,2.16.12,3.18v.05c.08,1.16.23,2.22.37,3.12.19,1.2.68,1.99,1.1,2.54l.24.32h9.77l-1.11-1.33c-.61-.74-1.09-1.63-1.45-2.7-.4-1.28-.65-2.37-.77-3.45-.24-1.46-.35-2.61-.35-3.77l-.22-3.9c-.15-1.23-.37-2.43-.66-3.62-.22-1.18-.66-2.29-1.32-3.36-.57-1.05-1.39-1.96-2.41-2.66l-.91-.68c-.19-.13-.29-.3-.29-.49,0-.28.23-.47.34-.55,1.21-.75,3.38-2.23,4.19-3.68,1.53-2.45,2.3-5.35,2.3-8.64,0-4.34-1.49-7.87-4.42-10.5-2.87-2.5-6.94-3.76-12.09-3.76h-25.02v53.1h8.53v-19.21Zm-.15-24.06c0-1.36,1.07-2.46,2.39-2.46h19.85c1.32,0,2.39,1.1,2.39,2.46v11.41c0,1.36-1.07,2.46-2.39,2.46h-19.85c-1.32,0-2.39-1.1-2.39-2.46v-11.41Z"/>
    <path class="cls-1" d="m164.2,34.76c0-1.58,1.21-2.82,2.75-2.82h13.16c1.47,0,2.69.24,3.64.71.91.46,1.61,1.03,2.18,1.79.56.77,1,1.71,1.25,2.63.27,1.09.48,2.19.72,3.51.23,1.32.35,2.57.35,3.76l.02.4c.07,1.17.12,2.17.12,3.19v.05c.08,1.15.23,2.22.37,3.12.19,1.2.68,1.99,1.1,2.54l.24.32h9.77l-1.11-1.33c-.61-.74-1.09-1.63-1.45-2.7-.4-1.29-.65-2.37-.77-3.45-.24-1.46-.35-2.61-.35-3.77l-.22-3.9c-.15-1.23-.37-2.43-.66-3.62-.22-1.18-.66-2.29-1.32-3.36-.57-1.05-1.39-1.96-2.41-2.66l-.91-.68c-.19-.13-.29-.3-.29-.49,0-.28.23-.47.34-.55,1.21-.75,3.38-2.23,4.19-3.68,1.53-2.45,2.3-5.35,2.3-8.65,0-4.34-1.49-7.87-4.42-10.5-2.87-2.5-6.94-3.76-12.09-3.76h-25.02v53.1h8.53v-19.21Zm-.15-24.06c0-1.36,1.07-2.46,2.39-2.46h19.85c1.32,0,2.39,1.1,2.39,2.46v11.41c0,1.36-1.07,2.46-2.39,2.46h-19.85c-1.32,0-2.39-1.1-2.39-2.46v-11.41Z"/>
    <path class="cls-1" d="m264.96,50.97c1.96,1.51,4.33,2.66,7.03,3.41,2.6.74,5.42,1.12,8.37,1.12,2.44,0,4.84-.29,7.29-.89,2.24-.48,4.44-1.36,6.75-2.73,2.02-1.32,3.69-3.02,4.98-5.06,1.28-2.16,1.93-4.67,1.93-7.47,0-2.57-.5-4.83-1.49-6.72-.97-1.71-2.32-3.19-4.01-4.4-1.71-1.22-3.62-2.17-5.52-2.73-1.89-.63-3.95-1.23-6.09-1.76l-.13-.02c-1.85-.33-14.27-3.28-15.69-4.66v-9.28c0-1.38.95-2.46,2.17-2.46h18.32c1.18,0,2.17,1.13,2.17,2.46v8.16h8.12l-.02-.83c-.07-2.8-.62-5.31-1.69-7.69-1.11-2.23-2.52-3.96-4.28-5.28-1.68-1.39-3.71-2.42-6.19-3.14-2.37-.67-4.79-.98-7.64-.98-2.43,0-4.8.3-7.06.9-2.43.71-4.42,1.62-6.28,2.88-1.87,1.32-3.32,2.96-4.46,5-1.08,2-1.62,4.38-1.62,7.07s.49,4.68,1.49,6.3c.99,1.67,2.31,3.02,4.05,4.13,1.66,1.02,3.48,1.84,5.41,2.41,1.77.59,3.77,1.12,6.12,1.62.73.16,1.46.32,2.18.49,1.26.29,2.56.58,3.81.82.07.02.19.06.39.12,8.21,2.44,9.33,3.66,9.47,3.89v10.04c0,1.36-1.2,2.46-2.68,2.46h-21.16c-1.5,0-2.68-1.08-2.68-2.46v-9.9h-8.02v.81c0,3.18.59,6.02,1.76,8.43,1.19,2.37,2.78,4.32,4.88,5.95Z"/>
    <path class="cls-1" d="m255.81,27.89c0-15.28-12.23-27.66-27.32-27.66s-27.32,12.39-27.32,27.66,12.23,27.66,27.32,27.66,27.32-12.39,27.32-27.66Zm-35.27,19.61c-2,0-3.84-1.08-4.84-2.83l-7.95-13.95c-1-1.75-1-3.91,0-5.66l7.95-13.94c1-1.75,2.85-2.83,4.84-2.83h15.9c2,0,3.84,1.08,4.84,2.83l7.95,13.94c1,1.75,1,3.91,0,5.66l-7.95,13.95c-1,1.75-2.85,2.83-4.84,2.83h-15.9Z"/>
  </g>
</svg>