<?xml version="1.0" encoding="UTF-8"?>
<svg id="Capa_1" data-name="Capa 1" xmlns="http://www.w3.org/2000/svg" viewBox="0 0 203 238.19">
  <defs>
    <style>
      .cls-1 {
        fill: #24397c;
      }

      .cls-2 {
        fill: #fffffb;
      }
    </style>
  </defs>
  <path class="cls-2" d="m180.68,1.77H22.31C10.97,1.77,1.77,10.97,1.77,22.31v114.37c0,55.08,44.65,99.72,99.72,99.72h0c55.08,0,99.72-44.65,99.72-99.72V22.31c0-11.34-9.2-20.54-20.54-20.54Z"/>
  <path class="cls-1" d="m101.5,238.19c-13.7,0-26.99-2.68-39.51-7.98-12.09-5.11-22.94-12.43-32.26-21.75-9.32-9.32-16.64-20.18-21.75-32.26-5.29-12.51-7.98-25.81-7.98-39.51V22.31C0,10.01,10.01,0,22.31,0h158.37c12.3,0,22.31,10.01,22.31,22.31v114.37c0,13.7-2.68,26.99-7.98,39.51-5.11,12.09-12.43,22.94-21.75,32.26s-20.18,16.64-32.26,21.75c-12.51,5.29-25.81,7.98-39.51,7.98ZM22.31,3.55C11.97,3.55,3.55,11.97,3.55,22.31v114.37c0,54.01,43.94,97.95,97.95,97.95s97.95-43.94,97.95-97.95V22.31c0-10.35-8.42-18.77-18.76-18.77H22.31Z"/>
  <g>
    <path class="cls-1" d="m118.41,171.77c1.32.14,2.6.46,3.84.95,2.34.93,4.4,2.3,6.38,3.84,2.07,1.61,3.96,3.42,5.67,5.42,2.38,2.76,4.57,5.65,6.48,8.76.36.59.35.58.9.14,1.77-1.38,3.35-2.97,4.99-4.5,1.5-1.39,2.87-2.92,4.52-4.15.6-.44,1.22-.85,1.97-.99.94-.18,1.59.33,1.64,1.28.06,1.1-.27,2.12-.74,3.09-1.86,3.86-4.19,7.41-6.92,10.71-1.52,1.84-3.03,3.68-4.56,5.51-.66.79-1.33,1.57-2.08,2.28-.56.53-1.15.55-1.74.03-1.48-1.3-2.89-2.67-4.22-4.12-.16-.18-.29-.22-.48-.04-.13.12-.29.22-.45.31-.18.09-.38.11-.56-.02-1.82-1.41-3.61-2.86-5.5-4.16-2.92-2.01-6.02-3.63-9.4-4.72-2.06-.66-4.16-1.04-6.33-1.14-3.48-.16-6.85.42-10.16,1.45-.64.2-1.15.65-1.73.98-2.43,1.38-4.94,2.58-7.61,3.43-1.83.58-3.7.96-5.6,1.01-4.26.11-8.45-.4-12.47-1.94-3.43-1.32-6.75-2.85-9.8-4.92-1.71-1.16-3.28-2.48-4.8-3.87-1.6-1.48-3.11-3.04-4.64-4.59-1.05-1.06-2.09-2.15-2.96-3.38-.27-.38-.27-.36-.56,0-1.17,1.46-1.82,3.18-2.46,4.9-.52,1.4-.89,2.87-1.53,4.23-.12.25-.26.48-.43.7-.74.92-1.92.91-2.65,0-.79-1-1.11-2.18-1.26-3.4-.32-2.55.37-4.94,1.23-7.29,1.24-3.38,3.32-6.17,6.02-8.53,1.39-1.22,2.81-2.41,4.36-3.43.37-.24.75-.45,1.19-.58.4-.12.66,0,.86.34.53.88,1.05,1.77,1.57,2.66.22.37.24.38.5.06.54-.69,1-.67,1.58,0,.87,1,1.95,1.77,3.03,2.51,2.35,1.59,4.96,2.52,7.72,3.06.79.16,1.6.16,2.4.32.51.1.86-.15,1.02-.63.18-.51.39-1,.63-1.47,1.74-3.43,3.33-6.94,5.38-10.2.5-.8,1-1.59,1.51-2.37.19-.29.31-.59.38-.93.49-2.5,1.33-4.88,2.42-7.17.75-1.57,1.71-3.02,3.05-4.12,1.56-1.27,3.43-1.82,5.43-1.96.24-.02.49-.05.74,0,.2.05.34-.06.46-.22.42-.58.75-1.22,1.11-1.84.74-1.3,1.24-2.72,2.1-3.97.22-.32.29-.75.39-1.14.07-.25-.18-.36-.33-.48-.74-.56-1.48-1.1-2.23-1.66-2.9-2.15-5.8-4.3-8.69-6.46-2.28-1.7-4.61-3.34-6.8-5.13-2.27-1.86-4.62-3.6-6.96-5.36-1.19-.89-2.39-1.77-3.59-2.64-.28-.2-.34-.41-.33-.76.03-.91.2-1.81.06-2.73-.04-.27,0-.55.02-.82.01-.16.03-.34.28-.22.1.05.2-.02.29-.06.34-.17.69-.32,1.05-.42.29-.08.27-.18.05-.34-.43-.32-.84-.66-1.27-.98-.21-.16-.32-.36-.29-.64.08-.95.04-1.9.31-2.83.03-.09.02-.17,0-.27-.12-.48-.05-.6.41-.81,2.78-1.27,5.64-2.32,8.48-3.42.24-.09.49-.19.73-.28.25-.09.46-.19.57-.48.11-.27.38-.38.65-.23.23.12.41.08.63,0,.66-.22,1.07.12.95.8-.05.26.09.35.25.47,1.46,1.05,2.92,2.1,4.37,3.17,1.91,1.41,3.78,2.87,5.7,4.26,2.62,1.9,5.18,3.87,7.78,5.78,1.07.79,2.14,1.58,3.2,2.38.22.17.38.22.57-.06.5-.72,1.16-1.18,1.96-1.6,1.43-.74,2.93-1.07,4.49-1.25,1.72-.2,3.44-.16,5.14.09,2.26.33,4.5.72,6.76,1.03,2.75.38,5.5.47,8.24-.2.24-.06.49-.1.74-.07.37.04.49.24.36.6-.07.19-.2.33-.34.47-2.23,2.27-4.78,4.11-7.65,5.48-.33.16-.41.31-.3.66.44,1.32.51,2.71.61,4.08.11,1.47.04,2.94-.08,4.41-.03.37.07.59.41.79,2.98,1.82,5.8,3.89,8.66,5.9,2.99,2.11,5.98,4.22,8.97,6.34.21.15.3.15.43-.1.66-1.29,2.41-1.68,3.6-.82.76.55,1.37,1.28,2.05,1.93.21.2.39.28.69.23,1.32-.2,2.62-.15,3.91.21,1.58.45,2.77,1.42,3.74,2.69,1.44,1.87,2.49,3.94,2.96,6.28.08.42.11.85.16,1.28.03.26.04.51.21.74.11.15.11.38,0,.52-.38.46-.32,1.03-.41,1.56-.09.53-.17,1.06-.24,1.58-.04.28-.18.47-.43.61-.48.28-.96.58-1.44.87-.22.13-.24.23,0,.38.42.26.87.48,1.22.84.07.08.16.12.13.25-.24.96-.29,1.96-.44,2.93-.07.45-.22.83-.78.85-.15,0-.3.15-.45.23-3.35,1.72-6.58,3.66-9.81,5.6-.23.13-.45.26-.71.31-.33.06-.59-.02-.76-.33-.05-.09-.1-.19-.18-.25-2.3-1.69-4.54-3.46-6.87-5.1-.21-.15-.39-.15-.62-.05-1.81.78-3.65,1.48-5.57,1.94-2.36.56-4.75.94-7.19,1.02-1.29.04-2.55-.04-3.79-.35-.16-.04-.31-.05-.45.04-.81.5-1.68.88-2.54,1.31-.04.02-.1.04-.09.14Zm-17.75-14.19c.04-1.06-.05-2.11-.15-3.16-.24-2.41-1-4.63-2.36-6.63-.25-.36-.54-.69-.99-.78-.26-.05-.5-.13-.75-.22-1-.37-2.04-.56-3.1-.56-.47,0-.97-.03-1.43.16-1.61.65-2.91,1.69-3.99,3.05-1.1,1.37-1.83,2.94-2.47,4.55-1.49,3.74-2.22,7.62-2.03,11.65.11,2.26.93,4.26,2.48,5.94,1.52,1.65,3.43,2.66,5.51,3.38,2.29.79,4.64,1.11,7.07,1,1.97-.09,3.92-.33,5.85-.71,3.57-.7,6.98-1.93,10.38-3.17.87-.32.85-.34.68-1.24-.46-2.56-.84-5.14-1.34-7.7-.26-1.3-.48-2.61-.52-3.95-.01-.36-.12-.44-.46-.37-2.01.4-4.02.76-6.04,1.06-1.8.27-3.61.55-5.44.5-.56-.02-.69-.12-.81-.68-.15-.7-.05-1.4-.08-2.11Zm15.63-5.81c-.07.06-.14.12-.2.18-.33.34-.67.66-1.05.93-.19.13-.42.22-.6.02-.17-.18-.09-.41.04-.57.18-.22.38-.44.6-.62.74-.61,1.32-1.36,1.85-2.15,1.85-2.76,3.13-5.8,4.18-8.93,1.5-4.43,2.27-8.99,1.99-13.68-.07-1.27-.18-2.55-.43-3.8-.06-.33-.18-.41-.5-.3-1.66.57-3.38.75-5.12.73-1.68-.01-3.36-.13-5.01-.48-.25-.05-.47-.07-.66.17-1.34,1.68-2.89,3.14-4.58,4.46-1.34,1.05-2.78,1.91-4.46,2.26-.5.1-.7.33-.83.8-.85,3.13-1.75,6.25-2.96,9.27-.14.36-.13.64.06.98,1.28,2.23,2.69,4.37,4.16,6.47,1.66,2.37,3.48,4.62,5.44,6.75,1.04,1.13,2.22,2.12,3.41,3.1.4.33.62.32.94-.09.62-.81,1.24-1.61,1.83-2.44.69-.98,1.35-1.97,1.88-3.07Zm-2.88,26.91c-1.21.62-2.46,1.11-3.75,1.49-2.55.76-5.16,1.13-7.83,1.11-1.66-.01-3.31-.13-4.95-.35-.28-.04-.42.05-.56.29-.79,1.36-1.61,2.71-2.41,4.07-.19.32-.44.44-.81.37-1.09-.19-2.17-.45-3.24-.73-.62-.16-.75-.46-.49-1.05.54-1.23,1.07-2.46,1.62-3.69.14-.31.06-.42-.24-.48-.28-.06-.56-.12-.83-.23-.36-.15-.56-.03-.78.27-1.15,1.58-2.28,3.18-3.77,4.47-1.86,1.61-4.04,2.45-6.5,2.51-2.14.05-4.2-.35-6.22-1.04-2.01-.68-3.84-1.74-5.72-2.71-2.91-1.5-5.51-3.41-7.95-5.57-.22-.19-.35-.21-.51.06-.72,1.15-1.44,2.29-2.18,3.43-.15.23-.08.37.09.54.59.56,1.17,1.11,1.74,1.68,1.86,1.88,3.8,3.68,5.94,5.25,3.52,2.58,7.41,4.46,11.5,5.92,2.48.89,5.03,1.46,7.66,1.64,1.39.09,2.79.11,4.18-.01.62-.05,1.25.02,1.87-.12,3.56-.83,6.89-2.22,10.03-4.08,1.93-1.15,3.71-2.51,5.46-3.92,2.52-2.04,4.86-4.26,6.93-6.75.62-.75,1.23-1.51,1.72-2.37Zm-32.44-76.22c-.06.02-.13.04-.2.07-2.95,1.18-5.94,2.27-8.93,3.36-.11.04-.3.03-.32.18-.01.14.17.18.27.26,1,.77,2.01,1.53,3.01,2.31,3.85,3.01,7.7,6.02,11.55,9.04,3.45,2.7,6.94,5.34,10.27,8.18.14.12.26.13.42.07,1.38-.51,2.72-.37,4,.33.3.17.39.07.44-.21.01-.08.03-.15.05-.23.43-2.08.89-4.16,1.62-6.16.24-.65.25-.65-.3-1.06-.01,0-.02-.01-.03-.02-3.7-2.8-7.52-5.43-11.2-8.26-3.39-2.61-6.92-5.03-10.29-7.65-.1-.08-.19-.18-.35-.19Zm-4.01,68.95c-.45.88-.9,1.7-1.29,2.55-.3.64-.68,1.23-1.07,1.81-.17.25-.4.4-.7.27-.3-.13-.34-.42-.26-.7.09-.31-.04-.38-.3-.34-.47.07-.93.06-1.4,0-3.31-.37-6.33-1.48-9.01-3.46-.74-.55-.76-.57-1.16.25-.69,1.39-1.5,2.71-2.29,4.05-.19.32-.14.5.12.73,1.59,1.35,3.17,2.73,4.94,3.83,2.05,1.27,4.16,2.44,6.35,3.46,2.69,1.26,5.51,2,8.51,1.84,1.74-.09,3.34-.67,4.75-1.73,1.66-1.25,2.86-2.91,4.07-4.56.26-.35.25-.36-.17-.5-2-.66-3.93-1.48-5.74-2.55-1.83-1.08-3.52-2.32-4.75-4.11-.17-.26-.35-.51-.57-.83Zm56.22-26.8c.42-.03,1.13.17,1.86.42.76.25,1.21.73,1.45,1.46.09.26.23.4.48.51.67.29,1.2.76,1.53,1.4.19.38.43.56.81.69,1.25.45,1.85,1.86,1.29,2.97-.16.32-.43.56-.7.78-.22.17-.23.31-.13.56.32.77.23,1.51-.31,2.16-.2.23-.14.34.07.49,1.08.8,2.17,1.58,3.23,2.41,1.77,1.39,3.52,2.82,5.26,4.24.25.2.44.22.72.03,1.29-.89,2.64-1.67,4-2.46,1.7-.99,3.41-1.96,5.11-2.95.36-.21.33-.23.01-.5-.49-.41-1.06-.72-1.49-1.19-.15-.16-.28-.09-.42-.03-.68.28-1.3.67-1.95,1-.83.42-1.65.83-2.6.93-.94.1-1.6-.33-1.84-1.24-.02-.09-.04-.18-.06-.27-.04-.21-.13-.26-.32-.14-.29.18-.58.35-.88.5-1.25.64-2.17.27-2.61-1.06-.06-.18-.13-.24-.33-.22-1.3.13-2.24-.79-2.11-2.08.02-.23,0-.32-.26-.26-.41.08-.74-.08-1.01-.38-.54-.59-.6-1.73-.15-2.5.53-.89,1.29-1.57,2.12-2.16.37-.27.38-.27.01-.53-2.15-1.5-4.3-2.99-6.45-4.48-4.45-3.1-8.99-6.07-13.31-9.35-.29-.22-.35-.12-.39.18-.18,1.2-.43,2.39-.7,3.57-.4,1.73-.93,3.42-1.58,5.07-.07.17-.17.34.05.48,1.01.68,1.92,1.47,2.81,2.3.23.22.45.22.74.09,1.12-.52,2.07-.2,2.67.89.14.26.24.31.5.13,1.36-.97,2.88-1.42,4.9-1.46Zm-28.68,44.89s.02.04.04.07c.47-.08.94-.15,1.41-.24,2.91-.55,5.83-.61,8.75-.13,3.99.65,7.66,2.15,11.14,4.18,1.48.86,2.86,1.86,4.24,2.87.42.31.46.29.71-.14.76-1.28,1.52-2.56,2.26-3.84.56-.97.65-.71-.15-1.54-.12-.12-.21-.27-.33-.39-1.49-1.6-3.05-3.14-4.72-4.56-1.95-1.65-4.07-3.04-6.4-4.1-2.2-1-4.52-1.48-6.9-1.79-.25-.03-.35.08-.48.25-.94,1.25-1.93,2.46-3.03,3.58-1.64,1.68-3.37,3.26-5.22,4.71-.45.35-.88.71-1.32,1.07Zm28.16-43.71c-1.2-.06-2.29.33-3.31.92-1.26.73-2.25,1.76-3.19,2.85-.91,1.07-1.68,2.26-2.51,3.4-.45.62-.82,1.31-1.49,1.74-.31.2-.3.38-.07.65,1.15,1.4,2.21,2.87,3.29,4.32.85,1.14,1.74,2.24,2.52,3.44.26.4.36.41.73.09.43-.38.85-.77,1.21-1.22,1.08-1.34,2.15-2.69,3.24-4.02.58-.71,1.25-1.33,2.11-1.7,1.07-.45,2.13-.93,3.26-1.19.34-.08.48-.27.52-.59.02-.21,0-.41-.04-.62-.05-.21-.16-.31-.38-.32-.46,0-.91-.03-1.36.09-1.37.36-2.63,1-3.88,1.65-.13.07-.26.13-.39.17-.19.06-.36,0-.49-.16-.13-.16-.1-.35,0-.51.13-.22.32-.38.52-.53.92-.7,1.99-1.08,3.05-1.48.75-.28,1.53-.44,2.34-.41.56.02,1.06-.27,1.27-.78.03-.07.04-.15.03-.23-.12-.76-.77-1.32-1.54-1.35-.64-.02-1.24.17-1.82.39-1.57.6-3.09,1.31-4.6,2.06-.19.09-.38.18-.57.25-.22.08-.45.08-.6-.14-.16-.24-.04-.45.13-.63.11-.11.23-.22.35-.3.75-.5,1.53-.94,2.35-1.31,1.25-.56,2.5-1.12,3.83-1.45.24-.06.23-.16.08-.32-.3-.31-.63-.54-1.05-.64-.68-.15-1.35-.11-2.01.06-1.68.43-3.24,1.14-4.71,2.05-.21.13-.4.29-.65.36-.16.04-.31.03-.43-.1-.12-.14-.11-.29-.03-.44.14-.29.36-.51.62-.69,1.84-1.23,3.78-2.2,6.01-2.48.16-.02.41.07.45-.12.04-.2-.16-.37-.33-.5-.15-.11-.32-.18-.51-.19-.65-.03-1.3-.06-1.95-.09Zm-14.69,27.03c-.38-.08-.5.14-.59.43-.56,1.75-1.24,3.46-2.14,5.07-.31.56-.31.58.34.63,2.95.19,5.64,1.21,8.19,2.64,3.92,2.21,7.06,5.32,10.03,8.62.23.25.32.26.5-.03.69-1.09,1.32-2.22,2.11-3.24.16-.21.08-.35-.04-.52-2.23-2.91-4.6-5.7-7.42-8.06-2.01-1.69-4.13-3.23-6.54-4.31-1.42-.64-2.87-1.17-4.43-1.23Zm-14.39-50.27s.08.03.11.05c.13-.09.25-.18.38-.27,1.03-.72,1.93-1.59,2.84-2.45.29-.28.61-.53.95-.74.08-.05.17-.09.25-.01.08.07.06.17.02.25-.11.21-.2.43-.34.61-1.18,1.49-2.53,2.8-4.2,3.74-.25.14-.39.31-.44.59-.09.49-.22.96-.33,1.45-.02.11-.11.25,0,.33.12.1.25-.02.35-.08.64-.33,1.24-.71,1.82-1.14,1.36-1,2.57-2.17,3.75-3.36.17-.18.34-.36.57-.47.14-.07.29-.17.43-.04.14.12.05.27,0,.4-.08.23-.2.45-.36.65-.77.99-1.69,1.84-2.61,2.69-1.04.96-2.1,1.91-3.46,2.36-.8.26-1.07.75-1.16,1.48,0,.01,0,.03,0,.04-.08.26,0,.34.26.25.52-.18,1.04-.36,1.52-.61,1.65-.85,3.05-2.04,4.4-3.29,1.17-1.08,2.21-2.28,3.29-3.45.18-.19.37-.37.6-.49.13-.07.27-.14.4-.03.14.11.08.26.02.39-.06.13-.12.26-.19.39-.26.47-.26.49.27.54,1.7.14,3.4.27,5.11.25,2.49-.02,4.82-.65,7-1.84.45-.25.89-.53,1.34-.79-.16-.05-.27-.03-.38.01-2.42.89-4.94,1.14-7.49,1.21-1.2.04-2.39-.13-3.59-.18-.27-.01-.54-.1-.8-.16-.09-.02-.19-.05-.19-.16,0-.12.11-.14.19-.15.18-.03.36-.05.54-.06,1.46-.06,2.91-.02,4.37-.15,2.06-.17,4.08-.57,6.04-1.23.09-.03.21-.02.24-.15-.12-.06-.24-.02-.35,0-1.47.23-2.96.26-4.44.19-.97-.05-1.95-.17-2.9-.42-.21-.06-.56-.09-.52-.37.04-.26.38-.2.61-.21.89-.03,1.77.04,2.66.06,1.63.03,3.25-.14,4.86-.41.66-.11,1.32-.22,1.95-.46-.11-.03-.21-.04-.31-.03-1.23.07-2.45-.06-3.66-.22-1.87-.24-3.74-.55-5.6-.86-2.36-.39-4.73-.6-7.12-.27-1.34.18-2.65.43-3.87,1.05-.32.16-.58.38-.8.67-.63.85-1.04,1.8-1.38,2.79-.24.7-.43,1.41-.64,2.12Zm50.05,60.35c0-.53-.11-.62-.54-.44-.88.38-1.6.99-2.27,1.64-1.73,1.7-3.47,3.38-5.26,5.02-1.64,1.5-3.38,2.85-5.29,4-.16.1-.28.23-.4.37-.54.61-1.08,1.23-1.63,1.85-1.01,1.14-2.02,2.28-3.03,3.42-.17.19-.13.3.03.45.28.24.55.48.81.73,1.13,1.08,2.27,2.15,3.39,3.24.2.19.34.19.51,0,.21-.23.45-.44.65-.68,2.44-2.87,4.81-5.79,7.08-8.8,2.04-2.7,3.73-5.62,5.28-8.63.36-.7.6-1.44.66-2.16Zm-3.09-36.39c-.55,0-1.12.03-1.69.09-2.1.23-3.89,1.13-5.4,2.58-.57.54-.9,1.24-.91,2.06,0,.4.21.69.51.67.33-.02.68-.05.93-.33.32-.35.69-.64,1.08-.9,1.33-.91,2.69-1.75,4.28-2.14.23-.06.46-.12.69-.06.12.03.23.08.25.21.03.13-.04.24-.14.3-.19.11-.39.21-.6.28-.97.33-1.89.75-2.78,1.24-.76.41-1.5.85-2.09,1.49-.41.44-.57.96-.54,1.54.04.65.58,1.07,1.2.99.21-.03.37-.1.42-.33.11-.43.38-.77.67-1.08.58-.62,1.28-1.06,2-1.49,1.11-.66,2.22-1.32,3.54-1.48.19-.02.36-.03.54.04.14.06.24.16.25.32,0,.15-.09.24-.21.31-.17.1-.37.13-.56.17-1.89.37-3.47,1.3-4.85,2.62-.3.28-.53.61-.64,1.01-.19.73.31,1.45,1,1.3.91-.19,1.88-.39,2.34-1.39.08-.17.21-.33.35-.47.99-1.06,2.23-1.65,3.64-1.91.27-.05.55-.06.81.06.14.06.26.14.26.31,0,.17-.12.26-.26.3-.17.05-.35.09-.53.12-1.03.18-2,.51-2.81,1.19-.54.45-.98.99-.92,1.76.04.54.33.79.87.78.4,0,.77-.14,1.13-.3.96-.44,1.91-.89,2.87-1.34.61-.29,1.24-.56,1.91-.68.19-.04.43-.05.52.16.09.19-.1.31-.24.4-.18.12-.19.2-.01.34.37.29.76.54,1.17.76.16.08.22.04.21-.13,0-.09-.02-.18-.04-.27-.37-2.58-1.52-4.81-3.19-6.77-1.29-1.52-2.88-2.52-5.02-2.32Zm-94.55,19.78c-.11.01-.18.1-.26.16-1.55,1.17-3.07,2.37-4.53,3.65-1.44,1.25-2.67,2.67-3.71,4.26-1.25,1.93-2.13,4.03-2.71,6.25-.47,1.79-.67,3.59-.09,5.39.16.5.33.99.66,1.41.32.4.62.39.92-.02.15-.21.28-.43.39-.68.68-1.58,1.12-3.25,1.73-4.86.68-1.79,1.58-3.42,3.02-4.73.28-.25.61-.42.83-.75,1.58-2.41,3.28-4.73,5.23-6.86.22-.24.28-.47.09-.76-.49-.75-.98-1.51-1.39-2.31-.03-.07-.07-.14-.16-.15Zm26.07-4.3s-.05,0-.08,0c-.03.04-.06.09-.08.13-1.36,2.43-2.59,4.94-3.94,7.38-.3.54-.34.9.12,1.38.82.87,1.53,1.84,2.48,2.59,1.64,1.29,3.44,2.3,5.34,3.14,1.71.76,3.47,1.34,5.26,1.88.37.11.58.05.71-.33.12-.36.3-.69.47-1.03.24-.5.24-.49-.29-.65-1.51-.44-2.95-1.03-4.33-1.77-1.4-.75-2.51-1.85-3.44-3.07-1.91-2.51-2.53-5.44-2.34-8.56.02-.36.07-.72.11-1.08Zm20.42,18.16c2.27-.04,4.53-.3,6.75-.87,1.67-.43,3.3-.98,4.8-1.85.2-.12.38-.26.5-.48.68-1.28,1.2-2.63,1.69-3.99.03-.08.1-.18,0-.25-.07-.05-.15,0-.22.03-1.27.62-2.61,1.06-3.93,1.54-4.12,1.49-8.33,2.6-12.73,2.84-.32.02-.56.12-.76.39-.41.56-.73,1.17-1.09,1.76-.28.45-.26.49.27.55,1.57.19,3.14.3,4.73.33Zm-31.91-66.65c-.16.03-.14.15-.14.25-.02.4-.03.81-.07,1.21-.03.25.05.41.25.57,1.12.86,2.23,1.72,3.33,2.59,2.64,2.07,5.37,4,8.05,6,4.54,3.4,9.02,6.86,13.53,10.3.93.71,1.86,1.42,2.79,2.14.26.2.41.15.49-.17.11-.43.25-.85.37-1.28.03-.11.08-.24-.03-.33-.32-.24-.59-.59-1.01-.63-1.21-.12-2.04-.8-2.63-1.8-.22-.38-.5-.68-.85-.95-7.94-5.94-15.96-11.77-23.86-17.77-.07-.05-.15-.1-.22-.14Zm54.11,55.84c2.37.06,4.7-.29,7.01-.81,1.77-.4,3.49-.96,5.16-1.67.15-.06.46-.12.12-.37-1.84-1.37-3.67-2.75-5.45-4.19-.18-.15-.33-.14-.46.04-.34.43-.76.79-1.16,1.16-1.49,1.4-3.22,2.28-5.27,2.48-.25.02-.51.06-.71-.13-.17-.16-.32-.12-.49-.01-.44.3-.87.62-1.31.92-.2.14-.22.28-.14.5.21.56.46,1.11.51,1.72.03.29.16.38.42.38.59,0,1.17,0,1.76,0Zm-7.35-11.49c-.8.27-1.64.43-2.46.61-.2.04-.19.21-.16.38.4,2.26.71,4.53,1.03,6.79.24,1.74.5,3.48.73,5.22.05.33.16.39.46.26,1.45-.62,2.87-1.31,4.23-2.1.21-.12.2-.26.12-.45-.82-2.03-1.54-4.09-2.24-6.17-.47-1.39-.99-2.77-1.36-4.2-.05-.18-.11-.36-.36-.35Zm-10.48.59c1.03-.16,2.18-.34,3.32-.53.11-.02.28,0,.31-.12.05-.15-.13-.21-.22-.29-.79-.66-1.62-1.27-2.36-1.99-1.09-1.05-2.1-2.17-3.08-3.32-1.35-1.59-2.64-3.23-3.77-4.98-1.12-1.74-2.34-3.42-3.38-5.21-.16-.26-.24-.2-.35.03-.21.43-.43.87-.66,1.29-.09.16-.06.29,0,.44.32.67.62,1.35.84,2.06.06.18.16.32.33.42.5.29.92.68,1.29,1.12.66.76,1.26,1.59,1.64,2.51.36.88.61,1.83.71,2.79.06.53.17,1.02.7,1.3.15.08.27.25.39.38,1.24,1.29,2.47,2.57,3.71,3.86.13.13.24.29.57.25Zm-35.93-51.35c-.15.03-.12.14-.12.22,0,.57,0,1.15-.08,1.72-.03.23.1.35.28.47.46.3.91.6,1.36.92,3.89,2.77,7.66,5.69,11.49,8.53,3.69,2.74,7.37,5.51,11.06,8.26.47.35.47.34.79-.12.06-.09.12-.17.19-.25.19-.19.14-.33-.07-.47-.4-.27-.79-.55-1.17-.85-3.25-2.53-6.46-5.11-9.75-7.59-4.64-3.5-9.23-7.07-13.78-10.69-.07-.06-.14-.11-.2-.15Zm75.98,64.64c.16.04.21-.04.29-.09,1.45-.97,2.98-1.82,4.51-2.66,1.46-.8,3-1.46,4.49-2.2,1.05-.52,1.04-.53,1.26-1.69.02-.12.14-.27-.01-.36-.11-.06-.22.05-.32.11-.75.42-1.51.83-2.3,1.17-.52.22-.8.02-.74-.54.06-.61.15-1.22.27-1.81.13-.68.43-1.25,1.1-1.61.64-.34,1.21-.83,1.86-1.14.68-.32,1.02-.79,1.04-1.53,0-.31.27-.76.09-.88-.26-.17-.55.22-.82.38-2.84,1.67-5.6,3.48-8.55,4.96-.14.07-.24.15-.27.31-.11.54-.23,1.07-.34,1.61-.02.07-.06.16,0,.22.07.06.15,0,.21-.03,1.17-.67,2.44-1.12,3.61-1.78.19-.11.38-.2.58-.05.19.14.16.35.12.54-.17.72-.35,1.44-.52,2.16-.04.17-.16.26-.3.33-1.46.81-2.93,1.59-4.45,2.28-.12.05-.26.1-.3.23-.22.68-.39,1.37-.52,2.06Zm-51.94-42.93c.03-.28-.14-.37-.29-.48-.9-.67-1.8-1.34-2.7-2-6.55-4.86-13.17-9.64-19.69-14.54-.21-.16-.37-.19-.59-.03-.24.18-.54.26-.82.37-.09.03-.23.04-.23.17,0,.1.12.13.19.18.73.43,1.41.94,2.09,1.44,6.3,4.67,12.6,9.35,18.9,14.03.89.66,1.78,1.32,2.67,1.97.09.07.18.2.3.14.12-.06.06-.21.06-.32,0-.33.04-.65.1-.92Zm45.03,62.89s-.05-.12-.1-.18c-.75-1.16-1.48-2.33-2.3-3.44-.33-.44-.35-.45-.65.02-1.86,2.92-3.53,5.96-5.34,8.91-.12.2-.09.33.09.46.52.37,1,.8,1.44,1.26.2.21.33.2.53-.02,2.03-2.27,4.05-4.55,6.19-6.72.07-.08.14-.15.14-.29Zm-80.41-22.96c-.14.03-.18.13-.25.21-.59.73-1.15,1.48-1.77,2.18-1.78,1.99-3.19,4.27-4.87,6.35-.11.14-.09.23.04.36.73.71,1.45,1.42,2.17,2.14.42.42.42.41.74-.11,1.89-3.01,3.69-6.07,5.64-9.04.14-.22.17-.39-.06-.57-.53-.42-1-.91-1.47-1.39-.05-.05-.12-.09-.17-.13Zm86.61,1.15c.03-.22-.12-.33-.28-.44-2.46-1.82-4.92-3.65-7.38-5.47-1.73-1.28-3.46-2.56-5.18-3.85-.28-.21-.44-.19-.62.09-.16.25-.35.49-.55.71-.19.21-.14.33.08.49,2.48,1.81,4.92,3.68,7.31,5.61,1.32,1.06,2.65,2.11,3.98,3.16.63.49,1.27.95,1.91,1.42.13.1.31.25.38-.04.13-.56.23-1.12.35-1.68Zm1.62-6.04c0-.12-.11-.21-.22-.3-1.06-.77-2.12-1.55-3.19-2.32-2.1-1.5-4.15-3.06-6.11-4.74-.16-.14-.3-.18-.49-.09-.58.26-1.17.5-1.76.76-.53.24-.53.24-.05.6,3.17,2.37,6.34,4.75,9.51,7.12.44.33.88.65,1.33.97.12.08.27.19.34-.02.22-.64.42-1.29.64-1.98Zm4.3,1.35s-.05-.05-.07-.07c-.27.15-.55.29-.82.44-1.21.64-2.41,1.3-3.73,1.69-.17.05-.38.17-.5-.04-.31-.52-.82-.79-1.28-1.13-3.42-2.53-6.84-5.04-10.27-7.56q-.77-.56-1.38.16c-.32.38-.33.39.09.7,2.61,1.95,5.23,3.89,7.84,5.84,1.46,1.09,2.9,2.22,4.4,3.26.26.18.51.3.83.17.29-.12.59-.21.86-.35,1.11-.56,2.22-1.1,3.35-1.6.16-.07.3-.16.35-.34.11-.39.21-.78.32-1.16Zm-58.28,11.71c-.3-.03-.36.13-.42.29-.35.97-.8,1.89-1.23,2.83-.55,1.21-1.08,2.43-1.63,3.64-.11.25-.07.37.22.43.69.16,1.37.33,2.04.53.3.09.48.02.64-.26.77-1.33,1.55-2.66,2.33-3.98.54-.91,1.14-1.77,1.65-2.7.24-.44.22-.48-.26-.49-.48,0-.96-.01-1.44-.06-.66-.06-1.32-.15-1.9-.24Zm30.79-11.97c.82-.09,1.6-.34,2.36-.67.56-.25.56-.25.13-.66-.05-.05-.09-.09-.13-.14-2.05-2.45-4.02-4.97-5.8-7.62-.14-.2-.26-.33-.49-.15-.21.16-.54.19-.35.63.42,1.01.9,2,1.35,2.99.82,1.82,1.7,3.61,2.64,5.37.07.13.12.27.31.24Zm-27.46-34.41c0-2.21,1.65-3.35,3.6-2.6.12.04.24.15.31-.05.05-.15.05-.29-.13-.35-.25-.09-.49-.19-.74-.25-.83-.19-1.67-.32-2.5-.02-.86.32-1.16,1.07-1.4,1.86-.52,1.73.3,4.22,3.03,4.11.22,0,.37-.04.44-.28.32-1.22.64-2.44.97-3.66.06-.22-.01-.34-.23-.4-1.2-.34-2.06.02-2.31,1.29-.08.41-.13.82-.19,1.23-.02.12-.04.24-.18.28-.12.03-.19-.05-.27-.12-.35-.3-.39-.72-.4-1.04Zm17.22,26.71c1-.2,2.01-.45,3.06-.51.27-.02.42-.15.55-.37.54-.98,1.08-1.96,1.64-2.93.15-.26.11-.41-.12-.58-.6-.45-1.23-.87-1.77-1.41-.22-.23-.26-.03-.34.13-.51,1.04-.98,2.1-1.59,3.09-.49.78-.96,1.58-1.55,2.3-.06.07-.14.14-.1.24.04.09.13.06.22.07Zm8.85,7.6c-.03-.05-.07-.13-.11-.21-.26-.48-.53-.96-.78-1.45-.9-1.81-1.79-3.62-2.68-5.44-.08-.17-.14-.4-.42-.26-.24.12-.46.23-.31.59.21.51.36,1.03.53,1.55.66,2.02,1.32,4.04,1.98,6.06.08.26.21.33.46.2.43-.23.82-.51,1.21-.78.08-.05.14-.12.12-.26Zm-.44-12.7c.17-.04.21-.18.28-.28,1.1-1.57,2.21-3.13,3.61-4.44.31-.3.24-.56.11-.87-.13-.32-.32-.56-.71-.57-.61,0-1.04.34-1.37.78-1.02,1.36-1.59,2.91-1.87,4.58-.04.25-.11.52-.05.8Zm1.08-6.12c-.02-.17-.13-.24-.24-.32-.81-.59-1.58-1.23-2.3-1.93-.2-.2-.34-.21-.45.08-.23.57-.46,1.13-.71,1.69-.11.24-.08.41.14.57.74.53,1.47,1.08,2.19,1.63.22.17.33.12.43-.12.22-.49.5-.94.8-1.38.05-.07.09-.16.12-.22Zm20.93-2.05c-.57.07-1.11.27-1.49.77-.16.21-.2.42.06.6.62.43,1.24.86,1.86,1.3.17.12.32.14.51.04.54-.27,1.09-.49,1.67-.66.21-.06.26-.13.07-.3-.42-.37-.82-.77-1.25-1.13-.4-.34-.85-.6-1.44-.63Zm-43,14.86c-.02.22,0,.4.3.35.87-.13,1.75-.26,2.62-.4.08-.01.2,0,.23-.11.03-.1-.07-.16-.14-.22-.97-.9-1.89-1.85-2.73-2.88-.05-.07-.11-.17-.22-.11-.1.05-.07.16-.06.25.1,1.04.06,2.07,0,3.11Zm20.56-9.91c0-.1-.12-.16-.22-.24-.73-.54-1.46-1.09-2.19-1.62-.15-.11-.36-.33-.47-.04-.14.38-.78.74-.36,1.13.81.74,1.75,1.34,2.64,2,.08.06.2.15.25-.01.12-.38.22-.77.35-1.22Zm-.49,3.46c0-.37.05-.7-.29-.95-1.01-.72-1.99-1.47-2.98-2.21-.14-.11-.3-.22-.42,0-.1.22-.45.41-.11.7,1.06.9,2.11,1.81,3.18,2.71.16.13.33.41.54.29.19-.1.04-.39.08-.55Zm32.97,12.75c.98-.48,1.88-.93,2.79-1.38.19-.09.15-.17,0-.26-.38-.23-.75-.46-1.12-.7-.13-.08-.25-.08-.36.02-.2.19-.46.29-.7.4-.13.06-.24.15-.27.31-.1.51-.21,1.01-.33,1.61Z"/>
    <path class="cls-1" d="m129.49,129.65c-.27,0-.53-.05-.61-.37-.07-.31.12-.5.37-.61.6-.29,1.26-.42,1.9-.6,4.57-1.27,9.14-2.54,13.71-3.8.05-.01.1-.03.15-.04.43-.09.76.07.86.41.1.38-.08.7-.51.83-.5.15-1.01.27-1.51.41-4.54,1.22-9.08,2.44-13.63,3.65-.24.06-.48.13-.73.13Z"/>
    <path class="cls-1" d="m70.31,129.84c1.84.16,3.68.39,5.5.67,2.83.44,5.63,1.09,8.45,1.57.06.01.13.02.19.04.23.05.44.15.45.42,0,.27-.18.42-.43.49-.57.18-1.14.1-1.7.02-3.39-.47-6.76-1.08-10.13-1.71-1.11-.21-2.23-.43-3.31-.75-.18-.05-.42-.07-.41-.33,0-.24.23-.28.42-.33.32-.08.65-.07.97-.09Z"/>
    <path class="cls-1" d="m71.07,150.29c-.19,0-.3-.02-.34-.15-.05-.16.08-.22.19-.3,1.04-.84,2.18-1.52,3.34-2.17,2.38-1.34,4.7-2.8,7.16-4,1.04-.51,2.06-1.07,3.14-1.48.27-.1.61-.3.79.08.17.35-.19.49-.41.65-.97.69-2.05,1.19-3.08,1.76-2.68,1.48-5.37,2.94-8.06,4.41-.72.39-1.46.75-2.22,1.05-.18.07-.37.12-.5.16Z"/>
    <path class="cls-1" d="m131.4,131.48c1.25.16,2.58.31,3.91.5,2.31.33,4.63.59,6.91,1.07.1.02.21.03.3.07.24.1.38.27.34.55-.04.26-.21.4-.45.41-.28,0-.57-.03-.86-.05-3.4-.26-6.78-.77-10.16-1.25-.22-.03-.43-.1-.64-.18-.26-.1-.44-.29-.41-.59.03-.32.27-.43.53-.49.14-.03.28-.02.51-.04Z"/>
    <path class="cls-1" d="m128.57,125.71c-.25-.05-.5-.1-.75-.17-.15-.04-.22-.18-.22-.34,0-.18.11-.32.28-.32.22,0,.35-.14.51-.24,2.13-1.28,4.13-2.77,6.25-4.09.47-.29.98-.49,1.49-.67.32-.12.7-.22.91.15.22.37-.07.64-.32.87-.43.39-.94.65-1.42.96-1.75,1.1-3.48,2.26-5.29,3.25-.46.25-.91.51-1.45.6Z"/>
    <path class="cls-1" d="m71.96,139.64c-.18,0-.37.01-.55,0-.17-.01-.41.01-.44-.23-.02-.23.21-.28.38-.32.44-.12.88-.24,1.33-.31,2.33-.37,4.67-.66,7.01-.88,1.4-.13,2.79-.37,4.2-.4.21,0,.42,0,.62.05.18.04.35.13.37.35.02.23-.15.32-.32.38-.63.24-1.29.32-1.95.41-2.27.31-4.55.54-6.84.65-1.27.06-2.54.21-3.81.32v-.03Z"/>
    <path class="cls-1" d="m108.08,135.56c.25.01.5.02.74.11.17.07.31.16.29.36-.02.21-.18.28-.35.31-.4.06-.8.09-1.19.21-.09.03-.23.03-.24.16-.01.11.1.15.17.2,1.3.95,2.54,2,3.93,2.83.81.49,1.64.93,2.59,1.05,1.45.18,2.82-.16,4.13-.74.3-.13.57-.32.89-.39.14-.03.29-.07.4.06.09.12.03.25-.03.37-.06.13-.13.26-.22.37-.92,1.13-1.86,2.25-3.07,3.09-.7.49-1.42.92-2.22,1.22-1.02.4-1.99.29-2.92-.27-1.38-.83-2.39-2-3.12-3.42-.57-1.11-1.16-2.22-1.48-3.44-.07-.28-.21-.25-.38-.08-.15.16-.31.32-.47.47-.1.09-.22.13-.36.07-.13-.06-.18-.18-.19-.32-.01-.17.03-.34.13-.48.73-1.03,1.7-1.67,2.99-1.75Z"/>
    <path class="cls-1" d="m120.13,136.68c-.6-.54-1.24-.89-1.84-1.29-.58-.38-1.14-.77-1.65-1.25-.34-.32-.52-.71-.48-1.19.1-1.36.32-2.69.76-3.98.04-.12.11-.24.19-.34.09-.12.22-.18.38-.14.16.05.22.17.24.32.03.36-.06.7-.12,1.05-.16.95-.42,1.88-.55,2.84-.04.31.02.54.24.78.63.66,1.4,1.13,2.12,1.66.64.47,1.32.89,1.82,1.53.36.46.25.74-.36.83-1.16.18-2.32.35-3.48.51-1.01.14-2.01.28-3.03.32-.09,0-.18,0-.27,0-.25,0-.54,0-.57-.34-.03-.33.23-.46.49-.5.74-.13,1.49-.25,2.24-.35,1.21-.16,2.42-.34,3.65-.41.05,0,.1-.02.23-.06Z"/>
    <path class="cls-1" d="m111.15,130.59c-.01.5-.24,1.21-.83,1.75-.36.33-.78.53-1.29.33-.49-.2-.77-.59-.85-1.09-.12-.81.08-1.55.63-2.17.41-.46,1.19-.65,1.71-.43.42.18.63.62.62,1.61Z"/>
    <path class="cls-1" d="m122.12,131.43c-.07.69-.33,1.34-.89,1.84-.68.61-1.58.34-1.85-.53-.31-1,.23-2.22,1.18-2.65.65-.29,1.39.16,1.53.93.02.11.02.23.03.4Z"/>
  </g>
  <g>
    <g>
      <path class="cls-1" d="m40.92,57.13v5.83c0,.96.79,1.75,1.75,1.75h10.62c.13,0,.26-.02.38-.04-.54-3.75-2.48-7.04-5.27-9.33h-5.73c-.96,0-1.75.79-1.75,1.79Z"/>
      <path class="cls-1" d="m53.77,68.11c-.15-.04-.31-.07-.47-.07h-10.62c-.96,0-1.75.79-1.75,1.75v6.67c0,.96.79,1.75,1.75,1.75h5.78c2.97-2.45,4.96-6.04,5.31-10.1Z"/>
      <path class="cls-1" d="m36.61,70.05c0-1.12-.87-2-2-2h-10.35c.57,6.79,5.72,12.28,12.35,13.36v-11.36Z"/>
      <path class="cls-1" d="m34.66,64.71c1.08,0,1.96-.87,1.96-1.96v-10.57c-6.36,1.04-11.36,6.13-12.26,12.53h10.3Z"/>
    </g>
    <g>
      <path class="cls-1" d="m77.69,68.1c-.38-.43-.97-.84-1.39-1.12-.38-.25-.59-.62-.59-1.07,0-.34.13-.66.35-.89.32-.28.6-.61.84-.97.71-1.07,1.08-2.38,1.08-3.88,0-1.38-.32-2.58-.97-3.6-.69-.98-1.45-1.71-2.32-2.23-.45-.29-.99-.49-1.59-.61-.59-.13-1.24-.24-1.85-.31l-1.96-.11h-11.82v27.22h13.16c1.36,0,2.58-.24,3.62-.7,1.03-.42,1.9-1,2.68-1.78.66-.7,1.19-1.53,1.62-2.57.36-1.01.55-2,.55-2.94,0-1.69-.47-3.18-1.39-4.42l-.02-.03Zm-5.79-3.46h-9.5c-.62,0-1.15-.53-1.15-1.15v-5.22c0-.65.52-1.19,1.15-1.19h9.5c.63,0,1.15.53,1.15,1.19v5.22c0,.62-.53,1.15-1.15,1.15Zm-10.65,4.96c0-.62.53-1.15,1.15-1.15h9.5c.62,0,1.15.53,1.15,1.15v5.96c0,.62-.53,1.15-1.15,1.15h-9.5c-.62,0-1.15-.53-1.15-1.15v-5.96Z"/>
      <path class="cls-1" d="m90.89,53.31l-10.57,27.22h4.47l2.64-7.06c.2-.54.7-.88,1.29-.88h8.65c.58,0,1.09.35,1.29.88l2.56,7.06h4.78l-10.65-27.22h-4.45Zm2.19,6.87c.28,0,.79.09,1.02.69l2.2,6.16c.04.11.04.25.04.41,0,.66-.49,1.34-1.3,1.34h-4.36c-.59,0-1.07-.48-1.07-1.07,0-.1.03-.24.09-.38l2.39-6.49c.17-.48.64-.65.99-.65Z"/>
      <path class="cls-1" d="m111.9,75.61v-6.04c0-.61.52-1.11,1.15-1.11h12.57v-3.81h-12.57c-.63,0-1.15-.5-1.15-1.11v-5.29c0-.62.53-1.15,1.15-1.15h13.57v-3.78h-19.06v27.22h19.17v-3.81h-13.69c-.63,0-1.15-.5-1.15-1.11Z"/>
      <path class="cls-1" d="m147.34,70.02c0,.73-.56,1.11-1.11,1.11-.27,0-.64-.13-.88-.48l-11.34-17.33h-4.37v27.22h4.19v-16.37c0-.75.58-1.15,1.15-1.15.36,0,.69.19.92.52l11.12,17h4.48v-27.22h-4.15v16.7Z"/>
      <path class="cls-1" d="m168.09,53.31h-4.45l-10.57,27.22h4.48l2.64-7.06c.2-.54.7-.88,1.29-.88h8.65c.58,0,1.09.35,1.29.88l2.56,7.06h4.78l-10.65-27.22Zm-2.26,6.87c.28,0,.79.09,1.02.69l2.2,6.16c.04.11.04.25.04.41,0,.66-.49,1.34-1.3,1.34h-4.36c-.59,0-1.07-.48-1.07-1.07,0-.1.03-.24.09-.38l2.39-6.49c.17-.48.64-.65.99-.65Z"/>
    </g>
    <g>
      <path class="cls-1" d="m42.42,30.95c0,.74-.6,1.34-1.34,1.34h-10.36c-.74,0-1.34-.6-1.34-1.34v-10h-4.37v27.22h4.37v-10.7c0-.78.59-1.37,1.37-1.37h10.29c.78,0,1.37.59,1.37,1.37v10.7h4.37v-27.22h-4.37v10Z"/>
      <rect class="cls-1" x="49.69" y="20.95" width="4.34" height="27.22"/>
      <path class="cls-1" d="m76.09,44.36h-13.69c-.63,0-1.15-.5-1.15-1.11v-6.04c0-.61.52-1.11,1.15-1.11h12.57v-3.81h-12.57c-.63,0-1.15-.5-1.15-1.11v-5.29c0-.62.53-1.15,1.15-1.15h13.57v-3.78h-19.06v27.22h19.17v-3.81Z"/>
      <path class="cls-1" d="m83.36,38.33c0-.81.62-1.45,1.41-1.45h6.75c.75,0,1.38.12,1.86.37.47.23.82.53,1.12.92.29.39.52.88.64,1.35.14.55.25,1.12.37,1.8.12.68.18,1.32.18,1.93v.21c.05.59.07,1.11.07,1.63v.03c.04.59.12,1.14.19,1.6.09.62.35,1.02.56,1.3l.12.17h5.01l-.57-.68c-.31-.38-.56-.83-.74-1.39-.21-.66-.33-1.21-.4-1.77-.13-.75-.18-1.34-.18-1.93l-.11-2c-.07-.63-.19-1.25-.34-1.85-.11-.61-.34-1.18-.68-1.72-.29-.54-.71-1-1.23-1.37l-.47-.35c-.1-.06-.15-.15-.15-.25,0-.14.12-.24.18-.28.62-.39,1.73-1.14,2.15-1.89.78-1.25,1.18-2.75,1.18-4.43,0-2.23-.76-4.04-2.27-5.38-1.47-1.28-3.56-1.93-6.2-1.93h-12.83v27.22h4.37v-9.85Zm-.07-12.34c0-.7.55-1.26,1.22-1.26h10.18c.67,0,1.22.57,1.22,1.26v5.85c0,.7-.55,1.26-1.22,1.26h-10.18c-.67,0-1.22-.57-1.22-1.26v-5.85Z"/>
      <path class="cls-1" d="m108.44,38.33c0-.81.62-1.45,1.41-1.45h6.75c.75,0,1.38.12,1.86.37.47.23.82.53,1.12.92.29.39.52.88.64,1.35.14.56.25,1.12.37,1.8.12.68.18,1.32.18,1.93v.2c.05.6.07,1.11.07,1.64v.03c.04.59.12,1.14.19,1.6.1.62.35,1.02.56,1.3l.12.17h5.01l-.57-.68c-.31-.38-.56-.83-.74-1.39-.21-.66-.33-1.22-.4-1.77-.12-.75-.18-1.34-.18-1.93l-.11-2c-.07-.63-.19-1.25-.34-1.85-.11-.61-.34-1.18-.68-1.72-.29-.54-.71-1-1.23-1.37l-.47-.35c-.1-.06-.15-.15-.15-.25,0-.14.12-.24.18-.28.62-.39,1.73-1.14,2.15-1.89.78-1.25,1.18-2.75,1.18-4.43,0-2.23-.76-4.04-2.27-5.38-1.47-1.28-3.56-1.93-6.2-1.93h-12.83v27.22h4.37v-9.85Zm-.07-12.34c0-.7.55-1.26,1.22-1.26h10.18c.67,0,1.22.57,1.22,1.26v5.85c0,.7-.55,1.26-1.22,1.26h-10.18c-.67,0-1.22-.57-1.22-1.26v-5.85Z"/>
      <path class="cls-1" d="m160.1,46.63c1.01.77,2.22,1.36,3.61,1.75,1.33.38,2.78.58,4.29.58,1.25,0,2.48-.15,3.74-.46,1.15-.24,2.28-.7,3.46-1.4,1.04-.68,1.89-1.55,2.55-2.6.66-1.11.99-2.4.99-3.83,0-1.32-.25-2.47-.76-3.45-.5-.88-1.19-1.64-2.06-2.26-.87-.63-1.86-1.11-2.83-1.4-.97-.32-2.02-.63-3.12-.9h-.07c-.95-.18-7.32-1.69-8.04-2.4v-4.76c0-.71.49-1.26,1.11-1.26h9.39c.6,0,1.11.58,1.11,1.26v4.18h4.16v-.43c-.05-1.44-.33-2.72-.87-3.94-.57-1.14-1.29-2.03-2.19-2.71-.86-.71-1.9-1.24-3.17-1.61-1.21-.34-2.46-.5-3.91-.5-1.25,0-2.46.16-3.62.46-1.25.36-2.27.83-3.22,1.48-.96.68-1.7,1.52-2.29,2.56-.55,1.03-.83,2.25-.83,3.63s.25,2.4.77,3.23c.51.86,1.19,1.55,2.08,2.12.85.53,1.79.94,2.77,1.23.91.3,1.93.57,3.14.83.37.08.75.17,1.12.25.64.15,1.31.3,1.95.42.04.01.1.03.2.06,4.21,1.25,4.78,1.88,4.86,1.99v5.15c0,.7-.62,1.26-1.37,1.26h-10.85c-.77,0-1.37-.55-1.37-1.26v-5.08h-4.11v.42c0,1.63.3,3.09.9,4.32.61,1.21,1.43,2.21,2.5,3.05Z"/>
      <path class="cls-1" d="m155.41,34.8c0-7.83-6.27-14.18-14.01-14.18s-14.01,6.35-14.01,14.18,6.27,14.18,14.01,14.18,14.01-6.35,14.01-14.18Zm-18.08,10.05c-1.02,0-1.97-.55-2.48-1.45l-4.08-7.15c-.51-.9-.51-2.01,0-2.9l4.08-7.15c.51-.9,1.46-1.45,2.48-1.45h8.15c1.02,0,1.97.55,2.48,1.45l4.08,7.15c.51.9.51,2.01,0,2.9l-4.08,7.15c-.51.9-1.46,1.45-2.48,1.45h-8.15Z"/>
    </g>
  </g>
</svg>