<?xml version="1.0" encoding="UTF-8"?>
<svg id="Capa_1" data-name="Capa 1" xmlns="http://www.w3.org/2000/svg" viewBox="0 0 306.22 120.11">
  <defs>
    <style>
      .cls-1 {
        fill: #24397c;
      }
    </style>
  </defs>
  <path class="cls-1" d="m90.41,69.56h-17.5c-1.17,0-2.12.98-2.12,2.18v9.61c0,1.15.97,2.12,2.12,2.12h17.5c1.15,0,2.12-.97,2.12-2.12v-9.61c0-1.2-.95-2.18-2.12-2.18Z"/>
  <path class="cls-1" d="m72.91,90.49h17.5c1.17,0,2.12.95,2.12,2.12v10.98c0,1.17-.95,2.12-2.12,2.12h-17.5c-1.17,0-2.12-.95-2.12-2.12v-10.98c0-1.17.95-2.12,2.12-2.12Z"/>
  <path class="cls-1" d="m159.79,25.4h18.73c1.24,0,2.25-1.04,2.25-2.32v-10.77c0-1.28-1.01-2.32-2.25-2.32h-18.73c-1.24,0-2.25,1.04-2.25,2.32v10.77c0,1.28,1.01,2.32,2.25,2.32Z"/>
  <path class="cls-1" d="m113.61,25.4h18.73c1.24,0,2.25-1.04,2.25-2.32v-10.77c0-1.28-1.01-2.32-2.25-2.32h-18.73c-1.24,0-2.25,1.04-2.25,2.32v10.77c0,1.28,1.01,2.32,2.25,2.32Z"/>
  <path class="cls-1" d="m129.38,75.26c-.64,0-1.5.32-1.82,1.2l-4.4,11.95c-.1.26-.16.51-.16.7,0,1.09.89,1.98,1.98,1.98h8.03c1.5,0,2.39-1.25,2.39-2.46,0-.29,0-.54-.08-.75l-4.06-11.35c-.43-1.11-1.37-1.28-1.89-1.28Z"/>
  <path class="cls-1" d="m210.85,47.03h15.01c1.89,0,3.63-1.02,4.57-2.67l7.5-13.16c.94-1.65.94-3.69,0-5.34l-7.5-13.16c-.94-1.65-2.69-2.67-4.57-2.67h-15.01c-1.89,0-3.63,1.02-4.57,2.67l-7.5,13.16c-.94,1.65-.94,3.69,0,5.34l7.5,13.16c.94,1.65,2.69,2.67,4.57,2.67Z"/>
  <path class="cls-1" d="m263.32,75.26c-.64,0-1.5.32-1.82,1.2l-4.39,11.95c-.1.26-.16.51-.16.7,0,1.09.89,1.98,1.98,1.98h8.03c1.5,0,2.39-1.25,2.39-2.46,0-.29,0-.54-.08-.75l-4.06-11.35c-.43-1.11-1.37-1.28-1.89-1.28Z"/>
  <path class="cls-1" d="m306.16,116.97l-20.8-53.17c-.04-.09-.05-.19-.05-.29v-2.92c0-.41.32-.75.73-.79,1.61-.13,3.2-.4,4.83-.79,2.35-.5,4.65-1.43,7.02-2.84l.08-.05c2.18-1.43,3.99-3.27,5.38-5.47l.03-.05c1.42-2.4,2.14-5.16,2.14-8.2,0-2.8-.56-5.29-1.66-7.4l-.04-.07c-1.08-1.9-2.57-3.55-4.44-4.89-1.8-1.29-3.82-2.29-5.85-2.89-1.83-.61-3.81-1.18-5.88-1.7l-.27-.06c-.34-.06-.84-.17-1.46-.31-.36-.08-.62-.4-.62-.77v-.9c0-.47.41-.84.87-.79l16.47,1.71c.48.05.89-.33.87-.81l-.06-2.21c-.08-2.95-.66-5.61-1.79-8.12l-.04-.09c-1.2-2.41-2.73-4.29-4.67-5.75-1.82-1.5-3.99-2.59-6.63-3.36-.47-.13-.97-.26-1.51-.37-.51-.11-.96-.2-1.37-.27l-1.21-.22s-.09-.02-.1-.02l-3.79-.68s-.07-.01-.1-.02l-8.16-1.47s-.09-.02-.11-.02l-.49-.09h0s-2.42-.44-2.42-.44c-.35-.06-.71-.11-1.06-.16-1.31-.17-2.66-.25-4.13-.25-2.49,0-4.93.31-7.25.93h-.05c-2.53.75-4.62,1.71-6.6,3.06-.13.09-.24.19-.36.28h-9.44c-.07,0-.14,0-.21-.03-1.04-.29-2.1-.53-3.16-.69h-.08s-.07-.03-.1-.03h-.07s-.06-.02-.09-.03l-.24-.04s-.06-.01-.09-.02c-.03,0-.05,0-.08-.01-.03,0-.06-.01-.09-.02l-.23-.04s-.07-.01-.1-.02l-.4-.07s-.06-.01-.09-.02c-.03,0-.06-.01-.08-.01-.03,0-.06-.01-.09-.02l-.15-.03s-.07-.01-.09-.02c-.03,0-.06-.01-.08-.02-.03,0-.06-.01-.09-.02l-.4-.07s-.06-.01-.09-.02l-.4-.07s-.06-.01-.1-.02l-.23-.04s-.07-.01-.1-.02h-.07s-.07-.03-.1-.03l-.14-.03s-.08-.02-.09-.02l-.17-.03s-.06-.01-.09-.02l-.24-.04s-.06-.01-.09-.02c-.03,0-.06-.01-.09-.02l-.32-.06s-.06-.01-.1-.02l-.4-.07s-.06-.01-.09-.02c-.03,0-.05,0-.08-.01-.03,0-.06-.01-.09-.02l-.15-.03s-.06-.01-.08-.02c-.03,0-.06-.01-.09-.02-.03,0-.06-.01-.09-.02l-.73-.13s-.06-.01-.09-.02c-.03,0-.06-.01-.09-.02-.03,0-.06-.01-.09-.02l-.23-.04s-.07-.01-.1-.02h-.07s-.07-.02-.1-.03l-.4-.07s-.06-.01-.09-.02l-.23-.04s-.07-.01-.1-.02h-.07s-.06-.02-.1-.03l-.23-.04s-.06-.01-.09-.02c-.02,0-.05,0-.07-.01-.03,0-.06-.01-.09-.02l-.24-.04s-.06-.01-.09-.02c-.03,0-.06-.01-.08-.02-.03,0-.06-.01-.08-.01l-.24-.04s-.06-.01-.1-.02l-.49-.09s-.06-.01-.1-.02l-.23-.04s-.07-.01-.1-.02h-.07s-.06-.02-.1-.03l-.4-.07s-.06-.01-.09-.02l-.4-.07h0s-.06-.01-.1-.02l-.23-.04s-.06-.01-.1-.02h-.07s-.07-.02-.1-.03l-.24-.04s-.06-.01-.09-.02c-.02,0-.05,0-.07-.01-.03,0-.06-.01-.09-.02l-.24-.04s-.06-.01-.09-.02c-.03,0-.06-.01-.08-.01l-.32-.06s-.07-.01-.11-.02l-.3-.06s-.06-.01-.08-.02c-.03,0-.06-.01-.09-.02-.03,0-.06-.01-.09-.02l-.23-.04s-.07-.01-.09-.02c-.03,0-.06-.01-.08-.02-.03,0-.05,0-.08-.01-.04,0-.07-.01-.07-.01l-.33-.06s-.06-.01-.09-.02l-.24-.04s-.06-.01-.1-.02h-.06s-.07-.02-.1-.03l-.23-.04s-.06-.01-.09-.02c-.04,0-.07-.01-.08-.01-.03,0-.06-.01-.09-.02l-.19-.03c-1.44-.23-2.91-.34-4.36-.34-5.07,0-9.98,1.38-14.27,3.95-.12.07-.26.11-.4.11h-8.78c-.05,0-.1,0-.16-.02-.12-.02-.25-.05-.37-.07l-.85-.15c-.05,0-.1-.02-.14-.03l-1.28-.23s-.08-.02-.12-.02l-.88-.16s-.09-.02-.13-.02l-.19-.03-.68-.12s-.09-.02-.13-.02l-.28-.05s-.08-.01-.12-.02l-.46-.08c-.05,0-.1-.02-.12-.02l-.29-.05s-.08-.01-.12-.02l-.77-.14h-.06s-.62-.12-.66-.13l-.37-.07s-.1-.02-.13-.02l-.37-.07s-.09-.02-.13-.02l-.18-.03h-.07s-.11-.03-.11-.03c-.05,0-.31-.06-.31-.06h-.06s-.54-.11-.54-.11c-.04,0-1.49-.27-1.49-.27-.04,0-.08-.02-.12-.02l-.38-.07s-.09-.02-.12-.02l-.37-.07s-.09-.02-.13-.02l-.37-.07s-.1-.02-.13-.02l-.29-.05s-.06-.01-.1-.02c-.04,0-.08-.02-.12-.02l-1.76-.32s-.08-.01-.12-.02l-.38-.07s-.09-.02-.13-.02l-.36-.07s-.1-.02-.12-.02l-.19-.03h-.06s-.06-.02-.06-.02c-.32-.06-.65-.11-.97-.15-1.2-.17-2.49-.25-3.82-.25h-25.09c-.44,0-.79.35-.79.79v2.41h-.02s-.09-.02-.13-.03l-.28-.05s-.07-.01-.1-.02c-.04,0-.08-.02-.11-.02l-.78-.14s-.08-.02-.12-.02l-.38-.07s-.08-.02-.12-.02l-.28-.05h-.06s-.35-.07-.35-.07h-.06s-.61-.12-.61-.12c-.05,0-.09-.02-.13-.02l-.37-.07s-.09-.02-.13-.02l-.18-.03h-.07s-.11-.03-.11-.03c-.05,0-.1-.02-.12-.02l-.19-.03h-.06s-.54-.11-.54-.11c-.04,0-.08-.01-.12-.02l-.28-.05h-.06s-.54-.11-.54-.11c-.04,0-.08-.01-.12-.02l-.38-.07s-.08-.01-.12-.02l-.38-.07s-.09-.02-.12-.02l-.37-.07s-.08-.01-.12-.02l-.38-.07s-.1-.02-.13-.02l-.19-.03h-.05s-.04-.02-.04-.02c-.04,0-.08-.02-.12-.02l-.38-.07s-.07-.01-.11-.02l-1.37-.25s-.08-.01-.12-.02l-.38-.07s-.09-.02-.13-.02l-.36-.07s-.08-.01-.12-.02l-.2-.04h-.06s-.53-.11-.53-.11c-.04,0-.08-.02-.12-.02l-.28-.05h-.07s-.84-.16-.84-.16h-.08s-.11-.03-.11-.03c-.04,0-.08-.02-.12-.02l-.88-.16s-.08-.01-.12-.02l-.19-.04h-.06s-.06-.02-.06-.02c-.32-.06-.65-.11-.97-.15-.72-.1-1.47-.17-2.24-.21v-.02h-.37c-.4-.02-.8-.03-1.21-.03H34.22c-.44,0-.79.35-.79.79v1.7c0,.49-.44.86-.93.78L14.01.86s-.09-.01-.14-.01H1.65l-.26-.03v54c0,.38.27.7.64.78l15.9,3.14c.77.15.87,1.2.14,1.51C8.66,64.21,1.67,72.95.19,83.29c0,.03,0,.07,0,.1L0,89.93s0,.07,0,.1c1.15,13.49,11.27,24.42,24.61,26.6.03,0,.05.01.08.01.03,0,.25.05.25.05.03,0,.05,0,.08.01.03,0,.06.01.1.02.02,0,.04,0,.07.01.03,0,.07.01.1.02,0,0,13.88,3.6,18.6,3.35,4.16-.22,15.43-4.36,17.06-4.97.13-.05.27-.06.41-.04l16.39,2.94v.02h53.58c.33,0,.63-.21.74-.51l5.22-13.96c.03-.09.12-.14.24-.14.34,0,.65.22.75.55l4.34,13.47c.11.33.41.55.75.55l66.42.05v-.15l12.24.14c.44,0,.8-.35.8-.79v-5.84c0-.79,1.03-1.09,1.46-.43l4.23,6.65c.15.23.4.37.67.37l36.07.05c.33,0,.63-.2.74-.51l5.21-13.96c.03-.09.12-.14.24-.14h.02c.34,0,.64.21.75.53l4.72,13.51c.11.32.41.53.75.53l27.73.05c.56,0,.94-.56.74-1.08ZM56.85,83.51c-.23.05-.46.08-.7.08h-19.56c-1.76,0-3.22-1.46-3.22-3.22v-10.74c0-1.84,1.46-3.3,3.22-3.3h10.55c5.14,4.22,8.71,10.28,9.71,17.18ZM14.67,30.91c-1.44,0-2.53,1.09-2.53,2.53v19.7H4.09V3.03h8.05v18.4c0,1.36,1.1,2.46,2.46,2.46h19.08c1.36,0,2.46-1.1,2.46-2.46V3.03h8.05v50.11h-8.05v-19.7c0-1.44-1.09-2.53-2.53-2.53H14.67Zm10.77,83.42c-12.21-1.99-21.69-12.1-22.74-24.6h19.06c2.07,0,3.68,1.61,3.68,3.68v20.92Zm0-34.34c0,1.99-1.61,3.6-3.6,3.6H2.87c1.66-11.79,10.86-21.16,22.57-23.07v19.46Zm4.14-21.61h0s.02,0,.02,0h-.02Zm.08.02h0s.04,0,.04,0h-.04Zm.38.06h-.04s0-.02,0-.02h-.08s0-.02,0-.02h.13v.04Zm17.19,50h-10.64c-1.76,0-3.22-1.46-3.22-3.22v-12.27c0-1.76,1.46-3.22,3.22-3.22h19.56c.3,0,.59.04.87.12-.66,7.47-4.33,14.07-9.78,18.59Zm10.26-55.3h-7.98V3.03h7.98v50.11ZM149.62,3.03h23.62c4.86,0,8.7,1.19,11.41,3.55,2.77,2.48,4.17,5.81,4.17,9.91,0,3.11-.73,5.85-2.18,8.16-.77,1.36-2.81,2.76-3.95,3.47-.11.07-.32.26-.32.51,0,.18.1.34.28.46l.86.64c.96.67,1.74,1.52,2.27,2.51.62,1.01,1.04,2.06,1.25,3.17.28,1.12.49,2.25.63,3.41l.21,3.68c0,1.09.1,2.17.33,3.55.12,1.02.35,2.05.73,3.26.34,1.02.79,1.86,1.37,2.55l1.05,1.26h-9.22l-.23-.31c-.39-.52-.86-1.26-1.04-2.4-.13-.85-.28-1.86-.35-2.95v-.05c0-.96-.06-1.91-.12-3.01l-.02-.38c0-1.12-.11-2.3-.33-3.55-.22-1.24-.42-2.28-.68-3.31-.23-.87-.65-1.75-1.18-2.48-.54-.72-1.19-1.26-2.06-1.69-.89-.45-2.05-.67-3.43-.67h-12.42c-1.46,0-2.6,1.17-2.6,2.66v18.13h-8.05V3.03Zm-46.18,0h23.62c4.86,0,8.7,1.19,11.41,3.55,2.77,2.48,4.18,5.81,4.18,9.91,0,3.11-.73,5.85-2.18,8.16-.77,1.36-2.81,2.76-3.95,3.47-.11.07-.32.26-.32.51,0,.18.1.34.28.46l.86.64c.96.67,1.74,1.52,2.27,2.51.62,1.01,1.04,2.06,1.24,3.17.28,1.12.49,2.25.63,3.41l.21,3.68c0,1.09.1,2.17.33,3.55.12,1.02.35,2.05.73,3.26.34,1.02.79,1.86,1.37,2.55l1.05,1.26h-9.22l-.23-.31c-.39-.52-.86-1.27-1.04-2.4-.13-.85-.28-1.86-.35-2.95v-.05c0-.96-.05-1.91-.12-3l-.02-.39c0-1.12-.11-2.3-.33-3.54-.22-1.25-.42-2.29-.68-3.31-.23-.87-.65-1.75-1.18-2.48-.54-.72-1.19-1.26-2.06-1.69-.89-.45-2.05-.67-3.43-.67h-12.42c-1.46,0-2.6,1.17-2.6,2.66v18.13h-8.05V3.03Zm-40.62,0h35.09v6.95h-24.99c-1.15,0-2.12.97-2.12,2.12v9.74c0,1.13.95,2.05,2.12,2.05h23.14v7.02h-23.14c-1.17,0-2.12.92-2.12,2.05v11.12c0,1.13.95,2.05,2.12,2.05h25.19v7.02h-35.29V3.03Zm39.83,100.4c-.8,1.91-1.77,3.45-2.98,4.73-1.44,1.44-3.05,2.5-4.93,3.27-1.92.85-4.17,1.29-6.67,1.29h-24.23v-50.11h21.76l3.61.21c1.12.13,2.32.33,3.41.57,1.11.22,2.1.6,2.93,1.13,1.59.97,2.99,2.32,4.26,4.11,1.19,1.86,1.79,4.08,1.79,6.62,0,2.77-.67,5.18-1.98,7.15-.44.66-.97,1.26-1.55,1.78-.41.42-.65,1.02-.65,1.64,0,.81.39,1.51,1.09,1.96.78.5,1.86,1.27,2.56,2.06l.04.05c1.69,2.28,2.55,5.02,2.55,8.14,0,1.73-.34,3.55-1.01,5.41Zm41.7,9.29l-4.71-12.99c-.36-.98-1.29-1.62-2.37-1.62h-15.92c-1.08,0-2.01.64-2.37,1.63l-4.85,12.99h-8.24l19.46-50.11h8.18l19.61,50.11h-8.8Zm47,0h-35.29v-50.11h35.09v6.95h-24.99c-1.15,0-2.12.97-2.12,2.12v9.74c0,1.13.95,2.05,2.12,2.05h23.14v7.02h-23.14c-1.17,0-2.12.92-2.12,2.05v11.12c0,1.13.95,2.05,2.12,2.05h25.19v7.02Zm55.16-76.76h7.57v9.34c0,1.3,1.11,2.32,2.53,2.32h19.97c1.39,0,2.53-1.04,2.53-2.32v-9.48c-.13-.21-1.19-1.36-8.94-3.67-.19-.06-.3-.09-.37-.11-1.18-.22-2.41-.5-3.6-.77-.69-.16-1.37-.31-2.06-.46-2.22-.47-4.11-.98-5.78-1.53-1.81-.54-3.54-1.3-5.1-2.27-1.64-1.04-2.89-2.32-3.82-3.9-.95-1.53-1.41-3.48-1.41-5.95s.52-4.79,1.53-6.68c1.07-1.93,2.45-3.47,4.21-4.72,1.75-1.19,3.63-2.05,5.92-2.72,2.13-.57,4.37-.85,6.66-.85,2.68,0,4.97.29,7.21.92,2.34.68,4.25,1.65,5.84,2.96,1.66,1.24,2.99,2.88,4.04,4.98,1.01,2.24,1.52,4.61,1.59,7.25l.02.79h-7.66v-7.7c0-1.26-.94-2.32-2.05-2.32h-17.29c-1.15,0-2.05,1.02-2.05,2.32v8.76c1.33,1.3,13.06,4.09,14.8,4.4l.12.02c2.03.51,3.96,1.07,5.75,1.66,1.79.53,3.6,1.42,5.21,2.57,1.6,1.14,2.88,2.54,3.79,4.16.94,1.79,1.4,3.92,1.4,6.35,0,2.64-.61,5.01-1.82,7.05-1.21,1.93-2.79,3.53-4.7,4.78-2.18,1.29-4.25,2.13-6.37,2.58-2.32.56-4.58.84-6.88.84-2.78,0-5.44-.36-7.9-1.06-2.55-.71-4.78-1.79-6.64-3.22-1.98-1.54-3.49-3.38-4.61-5.62-1.1-2.28-1.66-4.95-1.66-7.96v-.77ZM218.35,2.42c14.24,0,25.79,11.69,25.79,26.11s-11.55,26.11-25.79,26.11-25.79-11.69-25.79-26.11,11.55-26.11,25.79-26.11Zm18.56,110.31h-8.25l-20.47-31.29c-.42-.6-1.04-.96-1.69-.96-1.05,0-2.12.73-2.12,2.11v30.13h-7.71v-50.11h8.04l20.88,31.91c.44.65,1.12.89,1.62.89,1.02,0,2.05-.7,2.05-2.05v-30.75h7.64v50.11Zm41.37,0l-4.71-12.99c-.36-.98-1.29-1.62-2.37-1.62h-15.92c-1.08,0-2.01.64-2.37,1.63l-4.85,12.99h-8.24l19.46-50.11h8.18l19.61,50.11h-8.8Z"/>
</svg>