<?xml version="1.0" encoding="UTF-8"?>
<svg id="Capa_1" data-name="Capa 1" xmlns="http://www.w3.org/2000/svg" viewBox="0 0 252.28 252.28">
  <defs>
    <style>
      .cls-1 {
        fill: #24397c;
      }

      .cls-2 {
        fill: #fffffb;
      }
    </style>
  </defs>
  <rect class="cls-1" width="252.28" height="252.28"/>
  <g>
    <g>
      <path class="cls-2" d="m59.44,132.94v6.42c0,1.06.87,1.93,1.93,1.93h11.7c.14,0,.28-.02.42-.05-.59-4.12-2.73-7.75-5.8-10.27h-6.31c-1.05,0-1.93.87-1.93,1.97Z"/>
      <path class="cls-2" d="m73.59,145.03c-.17-.05-.34-.07-.52-.07h-11.7c-1.05,0-1.93.87-1.93,1.93v7.34c0,1.05.87,1.93,1.93,1.93h6.37c3.26-2.7,5.46-6.65,5.85-11.12Z"/>
      <path class="cls-2" d="m54.7,147.16c0-1.24-.96-2.2-2.2-2.2h-11.4c.62,7.48,6.3,13.52,13.6,14.71v-12.51Z"/>
      <path class="cls-2" d="m52.55,141.29c1.19,0,2.16-.96,2.16-2.16v-11.64c-7,1.14-12.5,6.75-13.5,13.8h11.34Z"/>
    </g>
    <g>
      <path class="cls-2" d="m99.93,145.02c-.42-.47-1.06-.93-1.53-1.23-.42-.27-.65-.69-.65-1.17,0-.37.14-.73.39-.98.35-.31.66-.67.93-1.06.79-1.18,1.18-2.62,1.18-4.28,0-1.52-.36-2.84-1.07-3.96-.76-1.07-1.6-1.88-2.55-2.46-.5-.32-1.09-.54-1.75-.68-.65-.14-1.37-.26-2.04-.34l-2.16-.12h-13.02v29.97h14.49c1.49,0,2.84-.26,3.99-.77,1.13-.46,2.09-1.1,2.95-1.96.73-.77,1.3-1.68,1.78-2.83.4-1.11.6-2.2.6-3.23,0-1.87-.51-3.5-1.53-4.87l-.03-.03Zm-6.37-3.81h-10.46c-.69,0-1.27-.58-1.27-1.27v-5.75c0-.72.57-1.31,1.27-1.31h10.46c.7,0,1.27.59,1.27,1.31v5.75c0,.69-.58,1.27-1.27,1.27Zm-11.73,5.46c0-.69.58-1.27,1.27-1.27h10.46c.69,0,1.27.58,1.27,1.27v6.57c0,.69-.58,1.27-1.27,1.27h-10.46c-.69,0-1.27-.58-1.27-1.27v-6.57Z"/>
      <path class="cls-2" d="m114.46,128.74l-11.64,29.97h4.93l2.9-7.77c.22-.59.77-.97,1.42-.97h9.52c.64,0,1.2.38,1.42.97l2.82,7.77h5.26l-11.73-29.97h-4.89Zm2.41,7.56c.31,0,.87.1,1.13.76l2.43,6.79c.05.12.05.27.05.45,0,.72-.53,1.47-1.43,1.47h-4.8c-.65,0-1.18-.53-1.18-1.18,0-.11.03-.26.1-.42l2.63-7.15c.19-.53.7-.72,1.09-.72Z"/>
      <path class="cls-2" d="m137.59,153.28v-6.65c0-.68.57-1.22,1.27-1.22h13.84v-4.2h-13.84c-.7,0-1.27-.55-1.27-1.22v-5.83c0-.69.58-1.27,1.27-1.27h14.94v-4.16h-20.98v29.97h21.11v-4.2h-15.07c-.7,0-1.27-.55-1.27-1.22Z"/>
      <path class="cls-2" d="m176.61,147.13c0,.8-.62,1.22-1.22,1.22-.3,0-.71-.14-.97-.53l-12.49-19.08h-4.81v29.97h4.61v-18.02c0-.83.64-1.26,1.27-1.26.39,0,.76.21,1.01.57l12.24,18.72h4.93v-29.97h-4.57v18.39Z"/>
      <path class="cls-2" d="m199.46,128.74h-4.89l-11.64,29.97h4.93l2.9-7.77c.22-.59.77-.97,1.42-.97h9.52c.64,0,1.2.38,1.42.97l2.82,7.77h5.26l-11.73-29.97Zm-2.49,7.56c.31,0,.87.1,1.13.76l2.43,6.79c.05.12.05.27.05.45,0,.72-.53,1.47-1.43,1.47h-4.8c-.65,0-1.18-.53-1.18-1.18,0-.11.03-.26.09-.42l2.63-7.15c.19-.53.7-.72,1.09-.72Z"/>
    </g>
    <g>
      <path class="cls-2" d="m61.1,104.11c0,.81-.66,1.47-1.47,1.47h-11.41c-.81,0-1.47-.66-1.47-1.47v-11.01h-4.82v29.97h4.82v-11.78c0-.86.65-1.51,1.51-1.51h11.33c.86,0,1.51.65,1.51,1.51v11.78h4.81v-29.97h-4.81v11.01Z"/>
      <rect class="cls-2" x="69.1" y="93.1" width="4.77" height="29.97"/>
      <path class="cls-2" d="m98.17,118.88h-15.07c-.7,0-1.27-.55-1.27-1.22v-6.65c0-.68.57-1.22,1.27-1.22h13.84v-4.2h-13.84c-.7,0-1.27-.55-1.27-1.22v-5.83c0-.69.58-1.27,1.27-1.27h14.94v-4.16h-20.98v29.97h21.11v-4.2Z"/>
      <path class="cls-2" d="m106.17,112.24c0-.89.68-1.59,1.55-1.59h7.43c.83,0,1.52.14,2.05.4.52.26.91.58,1.23,1.01.32.43.57.96.71,1.48.15.61.27,1.23.4,1.98.13.75.2,1.45.2,2.12v.23c.05.65.08,1.22.08,1.79v.03c.04.65.13,1.25.21,1.76.1.68.39,1.12.62,1.44l.14.18h5.52l-.63-.75c-.35-.42-.61-.92-.82-1.53-.23-.72-.36-1.34-.44-1.95-.14-.82-.2-1.47-.2-2.13l-.13-2.2c-.08-.7-.21-1.37-.37-2.04-.13-.67-.37-1.3-.74-1.9-.32-.59-.78-1.1-1.36-1.5l-.51-.38c-.11-.07-.16-.17-.16-.27,0-.16.13-.27.19-.31.69-.42,1.91-1.26,2.36-2.08.86-1.38,1.3-3.02,1.3-4.88,0-2.45-.84-4.44-2.5-5.93-1.62-1.41-3.92-2.12-6.83-2.12h-14.12v29.97h4.82v-10.84Zm-.08-13.58c0-.77.6-1.39,1.35-1.39h11.2c.74,0,1.35.62,1.35,1.39v6.44c0,.77-.6,1.39-1.35,1.39h-11.2c-.74,0-1.35-.62-1.35-1.39v-6.44Z"/>
      <path class="cls-2" d="m133.79,112.24c0-.89.68-1.59,1.55-1.59h7.43c.83,0,1.52.14,2.05.4.52.26.91.58,1.23,1.01.32.43.57.96.71,1.48.15.61.27,1.24.4,1.98.13.75.2,1.45.2,2.12v.22c.05.66.08,1.23.08,1.8v.03c.04.65.13,1.25.21,1.76.1.68.39,1.12.62,1.44l.14.18h5.52l-.63-.75c-.35-.42-.61-.92-.82-1.53-.23-.73-.36-1.34-.44-1.95-.14-.82-.2-1.47-.2-2.13l-.13-2.2c-.08-.7-.21-1.37-.37-2.04-.13-.67-.37-1.3-.74-1.9-.32-.59-.78-1.1-1.36-1.5l-.51-.38c-.11-.07-.16-.17-.16-.27,0-.16.13-.27.19-.31.69-.42,1.91-1.26,2.36-2.08.86-1.38,1.3-3.02,1.3-4.88,0-2.45-.84-4.44-2.5-5.93-1.62-1.41-3.92-2.12-6.83-2.12h-14.12v29.97h4.82v-10.84Zm-.08-13.58c0-.77.6-1.39,1.35-1.39h11.2c.74,0,1.35.62,1.35,1.39v6.44c0,.77-.6,1.39-1.35,1.39h-11.2c-.74,0-1.35-.62-1.35-1.39v-6.44Z"/>
      <path class="cls-2" d="m190.66,121.38c1.11.85,2.45,1.5,3.97,1.92,1.47.42,3.06.63,4.72.63,1.38,0,2.73-.17,4.12-.5,1.27-.27,2.51-.77,3.81-1.54,1.14-.75,2.08-1.7,2.81-2.86.72-1.22,1.09-2.64,1.09-4.21,0-1.45-.28-2.72-.84-3.8-.55-.97-1.31-1.8-2.27-2.49-.96-.69-2.05-1.22-3.12-1.54-1.07-.36-2.23-.69-3.44-1h-.07c-1.04-.2-8.06-1.87-8.85-2.65v-5.24c0-.78.54-1.39,1.22-1.39h10.34c.66,0,1.22.64,1.22,1.39v4.6h4.58v-.47c-.05-1.58-.36-3-.96-4.34-.63-1.26-1.42-2.24-2.42-2.98-.95-.79-2.09-1.36-3.49-1.77-1.34-.38-2.7-.55-4.31-.55-1.37,0-2.71.17-3.99.51-1.37.4-2.5.91-3.54,1.63-1.05.75-1.88,1.67-2.52,2.82-.61,1.13-.92,2.47-.92,3.99s.28,2.64.84,3.56c.56.95,1.31,1.71,2.29,2.33.93.58,1.97,1.04,3.05,1.36,1,.33,2.13.63,3.45.92.41.09.82.18,1.23.27.71.16,1.44.33,2.15.46.04.01.11.03.22.07,4.64,1.38,5.27,2.07,5.35,2.19v5.67c0,.77-.68,1.39-1.51,1.39h-11.94c-.85,0-1.51-.61-1.51-1.39v-5.59h-4.53v.46c0,1.8.33,3.4.99,4.76.67,1.34,1.57,2.44,2.76,3.36Z"/>
      <path class="cls-2" d="m185.5,108.35c0-8.62-6.91-15.62-15.42-15.62s-15.42,6.99-15.42,15.62,6.91,15.62,15.42,15.62,15.42-6.99,15.42-15.62Zm-19.91,11.07c-1.13,0-2.17-.61-2.73-1.6l-4.49-7.87c-.56-.99-.56-2.21,0-3.2l4.49-7.87c.56-.99,1.61-1.6,2.73-1.6h8.98c1.13,0,2.17.61,2.73,1.6l4.49,7.87c.56.99.56,2.21,0,3.2l-4.49,7.87c-.56.99-1.61,1.6-2.73,1.6h-8.98Z"/>
    </g>
  </g>
</svg>