<?xml version="1.0" encoding="UTF-8"?>
<svg id="Capa_1" data-name="Capa 1" xmlns="http://www.w3.org/2000/svg" viewBox="0 0 237.43 206.49">
  <defs>
    <style>
      .cls-1 {
        fill: #b1c7e8;
      }
    </style>
  </defs>
  <path class="cls-1" d="m38.17,131.61c-1.06-1.12-2.13-2.24-3.19-3.35-1.69-1.78-3.38-3.56-5.08-5.34-.39-.41-.77-.81-1.16-1.22-.34-.35-.96-.44-1.38-.18-.21.14-.42.29-.63.44-.66.48-1.3.98-1.93,1.5-.89.73-1.74,1.5-2.57,2.29-1.1,1.05-2.16,2.15-3.17,3.28-1.3,1.46-2.53,2.98-3.71,4.55-1.31,1.75-2.54,3.57-3.68,5.44-1.3,2.14-2.49,4.34-3.57,6.6-1.25,2.62-2.36,5.31-3.33,8.04-1.05,2.98-1.93,6.03-2.65,9.11-.81,3.49-1.42,7.03-1.84,10.59-.11.91-.21,1.83-.29,2.74-.04.4.25.78.56.98.54.35,1.14.61,1.73.86,1.11.46,2.32.77,3.52.74,1.52-.04,2.99-.66,3.96-1.85,1.03-1.26,1.45-2.86,1.99-4.37,1.08-3.04,2.2-6.06,3.32-9.09s2.22-5.97,3.33-8.95c.57-1.53,1.19-3.05,1.73-4.6,0-.02.02-.05.03-.07l-1.4.79c1.35.33,2.7.66,4.05.99.58.14,1.26-.18,1.4-.79s-.18-1.25-.79-1.4c-1.35-.33-2.7-.66-4.05-.99-.64-.16-1.18.2-1.4.79-.46,1.22-.92,2.45-1.38,3.67-1.05,2.8-2.09,5.6-3.13,8.4-1.13,3.06-2.26,6.12-3.37,9.19-.45,1.25-.89,2.52-1.35,3.77-.09.25.08-.17.01-.02-.02.05-.04.09-.06.14-.05.1-.09.2-.14.29-.1.18-.2.36-.31.53-.05.07-.11.14-.15.21.16-.27.06-.07-.02.01-.12.14-.25.27-.39.4-.06.05-.14.1-.19.16,0,0,.24-.17.1-.08-.03.02-.06.04-.09.06-.13.09-.27.17-.41.24-.06.03-.13.05-.19.09.32-.19.12-.05.01-.01-.15.05-.3.1-.46.13-.07.01-.13.03-.2.04-.03,0-.07,0-.1.02-.17.03.16-.02.15-.02-.15,0-.3.03-.45.03-.3.01-.59-.01-.89-.04-.18-.02.32.05.06,0-.07-.01-.14-.02-.22-.04-.14-.03-.28-.06-.42-.09-.26-.06-.52-.14-.78-.23-.12-.04-.23-.08-.35-.13s-.57-.24-.13-.05c-.19-.09-.39-.17-.58-.27-.25-.12-.5-.25-.74-.4-.03-.02-.07-.04-.1-.06l.56.98c.09-.93.19-1.86.3-2.79.03-.22.05-.44.08-.66.01-.11.03-.22.04-.33,0-.05.01-.09.02-.14.04-.3-.02.15,0-.02.06-.45.12-.89.19-1.34.26-1.73.56-3.45.92-5.16.65-3.15,1.47-6.27,2.46-9.33.46-1.41.95-2.81,1.48-4.19.25-.66.52-1.32.79-1.98.03-.08.06-.16.1-.23.1-.24-.07.16.01-.03.07-.16.14-.33.21-.49.14-.31.27-.63.41-.94,1.05-2.34,2.21-4.63,3.49-6.85,1.13-1.95,2.35-3.85,3.66-5.69.3-.42.6-.83.91-1.25.15-.2.3-.4.45-.6.04-.05.07-.09.11-.14-.08.1-.16.21-.04.05.08-.1.15-.2.23-.3.57-.73,1.16-1.45,1.77-2.15,1.04-1.21,2.13-2.39,3.27-3.51.88-.87,1.78-1.7,2.72-2.5.35-.3.71-.6,1.08-.89.08-.06.15-.12.23-.18.04-.03.07-.06.11-.08.2-.15-.19.14-.1.07.13-.1.26-.2.39-.3.3-.22.6-.42.9-.64.01,0,.03-.02.04-.03l-1.38-.18c1.06,1.12,2.13,2.24,3.19,3.35,1.69,1.78,3.38,3.56,5.08,5.34.39.41.77.81,1.16,1.22.41.43,1.2.45,1.61,0s.44-1.15,0-1.61h0Z"/>
  <path class="cls-1" d="m136.3,40.06c-.05.08-.11.15-.16.23-.07.09-.13.18-.2.27-.04.05-.08.11-.12.16-.09.12-.23.29.01-.02-.59.75-1.2,1.47-1.86,2.16-.95,1.01-1.96,1.96-3.02,2.84-.14.12-.29.24-.43.35-.07.06-.15.12-.22.18-.04.03-.11.07-.14.11.05-.08.18-.14.03-.02-.32.25-.65.49-.98.72-.72.51-1.47.99-2.23,1.43-.91.53-1.85,1.01-2.82,1.43-.05.02-.1.05-.16.07-.03.01-.26.11-.1.04.15-.06-.03.01-.06.03-.07.03-.13.05-.2.08-.26.1-.52.2-.78.3-.55.2-1.1.38-1.66.54s-.99.81-.79,1.4.79.97,1.4.79c3.75-1.09,7.17-2.99,10.22-5.41,1.94-1.54,3.73-3.3,5.27-5.24.34-.42.68-.85.98-1.31.33-.5.11-1.28-.41-1.56-.57-.3-1.2-.12-1.56.41h0Z"/>
  <path class="cls-1" d="m131.68,37.09c-.13.21-.27.41-.41.61-.07.1-.14.19-.21.29-.04.05-.08.11-.12.16-.19.25.15-.19-.01.02-.22.28-.44.55-.67.81-.59.68-1.21,1.31-1.88,1.91-.17.15-.35.3-.53.45-.05.04-.23.23-.28.22.03,0,.18-.14.05-.04-.08.06-.15.12-.23.17-.42.31-.85.59-1.3.85-.26.15-.53.3-.8.43-.14.07-.28.13-.42.2-.04.02-.1.05-.14.06.29-.07-.02,0-.09.04-.59.23-1.19.41-1.8.53-.57.12-.95.82-.77,1.36.2.6.75.9,1.36.77,3.99-.81,7.29-3.74,9.63-6.94.18-.25.37-.51.53-.77.31-.49.12-1.24-.4-1.52s-1.19-.13-1.52.4h0Z"/>
  <path class="cls-1" d="m178.76,31.59c-1.67,1.03-3.39,1.98-5.17,2.83-.41.2-.83.39-1.24.58-.2.09-.39.17-.59.26-.09.04-.18.08-.27.12-.12.05.03-.01.05-.02-.08.03-.15.06-.23.09-.79.33-1.59.63-2.4.92-2.85,1.01-5.79,1.75-8.78,2.17-.09.01-.17.02-.26.04-.13.02.13-.02.12-.02-.04,0-.07,0-.11.01-.17.02-.34.04-.5.06-.32.04-.63.07-.95.1-.6.06-1.21.1-1.81.13-1.09.06-2.18.07-3.27.04-.9-.03-1.8-.09-2.7-.18-.19-.02-.38-.04-.57-.07-.09-.01-.17-.02-.26-.03-.17-.02.31.04.15.02-.05,0-.1-.01-.15-.02-.31-.04-.63-.09-.94-.15-.66-.12-1.31-.27-1.96-.44,0,0-.02,0-.03,0-.57-.18-1.27.21-1.4.79-.14.62.19,1.21.79,1.4.53.16,1.07.27,1.61.38,1.57.3,3.17.48,4.77.55,2.28.11,4.57.02,6.84-.26,3.02-.36,6-1.01,8.9-1.96,3.56-1.16,6.99-2.72,10.23-4.61.44-.25.87-.51,1.3-.78.51-.31.75-1.03.41-1.56s-1.01-.74-1.56-.41h0Z"/>
  <path class="cls-1" d="m150.19,35.63c1.92.34,3.88.5,5.82.6,4.61.25,9.23.05,13.81-.59,3.18-.44,6.33-1.12,9.4-2.06.57-.17.99-.8.79-1.4s-.79-.98-1.4-.79c-2.74.84-5.55,1.47-8.38,1.91-.31.05-.61.09-.92.14-.1.01-.2.03-.3.04.04,0,.22-.03,0,0-.18.02-.37.05-.55.07-.64.08-1.27.15-1.91.21-1.22.11-2.44.2-3.66.25-3.5.14-7.03.05-10.52-.35-.26-.03-.53-.06-.79-.1s.32.04.11.01c-.05,0-.1-.01-.15-.02-.09-.01-.17-.02-.26-.04-.16-.02-.32-.05-.48-.08-.58-.1-1.25.16-1.4.79-.13.56.17,1.29.79,1.4h0Z"/>
  <g>
    <ellipse class="cls-1" cx="157.58" cy="62.95" rx="3.41" ry="2.55" transform="translate(53.61 197.06) rotate(-73.99)"/>
    <ellipse class="cls-1" cx="135.97" cy="59.88" rx="3.41" ry="2.55" transform="translate(40.9 174.05) rotate(-73.99)"/>
    <path class="cls-1" d="m150.26,56c-.21,1.09-.42,2.19-.63,3.28-.33,1.73-.67,3.47-1,5.2-.08.4-.15.8-.23,1.2s-.03.84.29,1.11c.94.8,1.88,1.59,2.82,2.39l4.5,3.82.76.64c.07.06.14.12.2.17.13.11.04.11-.07-.11l-.11-.88-.02.05.79-.79c.23-.08.32-.01.14-.02-.1,0-.19,0-.29-.01l-1.03-.05-3.4-.16-7.65-.36c-.58-.03-1.17-.06-1.75-.08s-1.16.54-1.14,1.14c.03.64.5,1.11,1.14,1.14,1.35.06,2.7.13,4.05.19l7.18.34,2.42.11c.17,0,.35.03.52.02.39,0,.76-.16,1-.47.38-.49.34-1.2-.12-1.62s-.91-.77-1.37-1.16l-2.64-2.24c-1.42-1.2-2.81-2.45-4.26-3.61-.03-.02-.05-.04-.08-.07l.29,1.11c.21-1.09.42-2.19.63-3.28.33-1.73.67-3.47,1-5.2.08-.4.15-.8.23-1.2.11-.58-.16-1.26-.79-1.4-.56-.13-1.28.17-1.4.79h0Z"/>
    <g>
      <path class="cls-1" d="m130.23,71.09c-.12-.38.36-.64.68-.36,2.41,2.09,8.32,6.85,13,7.68s8.52-.53,9.86-1.15c.15-.07.3.09.22.22-1.46,2.12-7.63,10.4-13.48,8.53-5.43-1.74-9.08-11.34-10.27-14.92Z"/>
      <path class="cls-1" d="m131.33,70.79c.09.38-.16.84-.54.94-.11.03-.25.03-.36,0-.03,0-.27-.1-.29-.16.02.09.28.24.35.3.25.22.51.43.76.64.66.54,1.34,1.07,2.02,1.59,1.48,1.13,3.01,2.18,4.63,3.11s3.33,1.75,5.14,2.18c2.18.52,4.46.53,6.67.21.91-.13,1.82-.33,2.7-.61.33-.1.66-.22.99-.34.12-.05.25-.1.37-.15.14-.06.28-.12.42-.18.02,0,.04-.02.07-.03.1-.04.16,0-.1.06h-.6l-.15-.06-.41-.41-.07-.16v-.6c.02-.06.14-.25.03-.12-.02.02-.04.05-.05.08-.05.07-.09.13-.14.2-.1.15-.21.29-.32.44-.12.17-.25.34-.38.5-.12.16-.04.05.04-.05-.03.04-.06.08-.1.12-.08.1-.16.2-.24.3-.72.9-1.48,1.76-2.29,2.57-.45.45-.91.88-1.39,1.29-.12.1-.24.2-.35.3-.06.05-.11.09-.17.13-.04.03-.07.06-.11.09-.12.09.02-.02.06-.05-.27.14-.52.39-.77.56-.52.35-1.06.68-1.62.95-.13.06-.27.13-.4.19-.18.08.25-.1,0,0-.07.03-.15.06-.22.08-.28.1-.56.19-.85.27-.14.04-.28.07-.41.09-.07.01-.15.03-.22.04-.25.05.2-.02.01,0-.29.03-.58.05-.87.04-.14,0-.28-.01-.42-.02-.04,0-.32-.04-.11,0s-.06-.01-.11-.02c-.3-.05-.59-.13-.88-.23-.06-.02-.11-.04-.17-.06-.04-.02-.28-.11-.08-.03s-.01,0-.05-.03c-.07-.03-.14-.07-.22-.1-.25-.12-.48-.26-.71-.41-.11-.07-.23-.15-.34-.23-.05-.04-.1-.07-.15-.11-.2-.15.17.14-.02-.02-.23-.18-.45-.37-.66-.57-.45-.42-.86-.86-1.25-1.33-.1-.12-.19-.23-.29-.35-.06-.08-.15-.27-.02-.02-.04-.07-.1-.13-.15-.2-.19-.26-.38-.52-.56-.79-.73-1.08-1.38-2.21-1.97-3.37-.29-.57-.57-1.15-.83-1.74-.12-.28-.25-.55-.37-.83-.03-.06-.05-.12-.08-.18-.08-.18.11.25,0,0-.06-.14-.11-.27-.17-.41-.37-.91-.72-1.83-1.04-2.75-.06-.18-.12-.36-.18-.54-.19-.56-.79-.99-1.4-.79-.56.18-1,.79-.79,1.4.57,1.7,1.22,3.37,1.95,5,.9,2.01,1.93,3.98,3.21,5.77s2.76,3.47,4.71,4.44c1.02.51,2.11.81,3.25.81s2.17-.24,3.17-.65c2.13-.88,3.97-2.32,5.6-3.94,1.31-1.3,2.48-2.73,3.56-4.22.26-.36.57-.72.57-1.2,0-.83-.8-1.46-1.61-1.27-.17.04-.32.12-.47.19-.02.01-.05.02-.07.03-.23.1.26-.1.08-.04-.84.34-1.7.61-2.59.81-.27.06-.55.12-.83.17-.16.03-.32.05-.48.08-.05,0-.11.02-.16.02.33-.03-.06,0-.12.01-.7.08-1.4.12-2.11.11-.37,0-.73-.02-1.1-.04-.21-.01-.41-.03-.62-.06-.09,0-.17-.02-.26-.03-.08-.01-.07,0,.04,0-.07,0-.14-.02-.21-.03-.61-.09-1.2-.22-1.79-.41-.27-.08-.54-.18-.81-.28-.15-.06-.3-.11-.44-.17-.06-.02-.31-.1-.03,0-.08-.03-.15-.06-.22-.1-.58-.26-1.15-.54-1.71-.85-1.14-.62-2.24-1.31-3.31-2.05-.51-.35-1.01-.71-1.51-1.09-.22-.17-.47-.32-.67-.51.23.21.05.04,0,0-.06-.04-.11-.09-.17-.13-.11-.09-.22-.18-.33-.26-.39-.31-.77-.62-1.15-.94-.43-.36-.86-.84-1.39-1.03-.44-.15-.95-.08-1.33.18-.56.37-.78,1.02-.62,1.66.14.58.83.98,1.4.79.6-.19.95-.78.79-1.4Z"/>
    </g>
    <path class="cls-1" d="m127.65,73.19c.08-.16.19-.31.29-.45.05-.07.1-.14.15-.21.03-.05.16-.21.01-.02s0,0,.04-.04c.16-.19.33-.38.5-.56.21-.21.43-.42.66-.61.11-.09.24-.11-.03.02.07-.03.13-.1.19-.14.14-.1.29-.2.44-.29.14-.08.28-.16.43-.24.08-.04.16-.08.24-.11.04-.02.07-.03.11-.05-.3.16-.13.05-.05.02.35-.14.72-.24,1.09-.31.04,0,.09-.02.13-.02.11-.02.26,0-.04,0,.11,0,.23-.02.34-.03.24-.02.48-.02.72,0,.13,0,.25.01.38.03.03,0,.28.02.08,0s.08.01.12.02c.29.05.57.12.85.2.57.16,1.26-.2,1.4-.79s-.18-1.23-.79-1.4c-1.96-.55-4.02-.41-5.83.55-1.21.64-2.2,1.6-3,2.7-.14.2-.28.4-.4.61-.28.52-.15,1.26.41,1.56s1.25.15,1.56-.41h0Z"/>
  </g>
  <path class="cls-1" d="m161.28,43.77c.09.3.17.6.24.91.21.85.39,1.7.54,2.56.11.61.21,1.22.3,1.83.03.17.05.34.07.51,0,.05.01.09.02.14.03.19-.03-.22-.02-.15.01.09.02.19.04.28.05.38.09.76.14,1.14.19,1.73.3,3.47.34,5.21.05,2.07,0,4.15-.16,6.22-.09,1.13-.21,2.26-.35,3.39,0,.07.04-.27,0-.04-.01.08-.02.15-.03.23-.02.15-.04.3-.07.46-.04.3-.09.59-.14.89-.1.6-.21,1.2-.32,1.8-.5,2.55-1.16,5.06-2,7.52-.44,1.3-.9,2.62-1.47,3.88.08-.17.04-.1,0,.02-.04.08-.07.17-.11.25-.07.17-.15.34-.22.51-.15.33-.29.66-.45.98-.31.66-.63,1.32-.97,1.97-1.42,2.77-3.07,5.42-4.91,7.93-.24.33-.49.66-.74.98-.05.07-.17.22-.05.06-.07.08-.13.17-.2.25-.13.17-.27.34-.4.51-.53.66-1.07,1.31-1.63,1.95-1.16,1.33-2.37,2.61-3.63,3.84-.64.63-1.3,1.25-1.97,1.86-.44.4-.44,1.21,0,1.61.47.43,1.14.43,1.61,0,2.64-2.39,5.09-4.97,7.31-7.76,2.04-2.56,3.89-5.26,5.5-8.11,1.47-2.6,2.73-5.32,3.79-8.12.95-2.5,1.72-5.06,2.32-7.66.56-2.44.96-4.92,1.22-7.41.23-2.15.34-4.31.34-6.47,0-1.84-.08-3.69-.24-5.53-.14-1.55-.33-3.1-.59-4.64-.16-1-.35-1.99-.58-2.97-.1-.45-.21-.9-.34-1.35,0-.02-.01-.04-.02-.06-.17-.57-.8-.99-1.4-.79s-.98.79-.79,1.4h0Z"/>
  <path class="cls-1" d="m119.2,57.96c6.16-.77,11.69-3.56,16.53-7.36,1.66-1.3,3.22-2.72,4.74-4.18.48-.46.96-.93,1.46-1.37.08-.07.16-.14.24-.2.19-.17-.19.13-.09.07.04-.02.08-.06.12-.08s.14-.06.17-.1c-.1.15-.34.12-.19.08.14-.04-.39.03-.22.03-.39,0-.35-.07-.21-.01.1.04.21.07.32.1.19.06.38.12.57.18.44.13.88.25,1.32.36.78.2,1.57.36,2.36.49,1.64.27,3.29.43,4.95.44,3.02.02,6.05-.4,8.96-1.19,4.92-1.33,9.55-3.68,13.7-6.63,2.15-1.52,4.33-3.19,6.13-5.13.03-.03.05-.05.08-.08.7-.75.17-1.87-.8-1.94-1.1-.08-2.2-.16-3.29-.24-2.74-.2-5.49-.41-8.23-.61-3.55-.27-7.1-.53-10.64-.8-3.56-.27-7.12-.54-10.69-.81-2.74-.21-5.48-.42-8.21-.65-1.25-.1-2.52-.27-3.78-.15-2.04.19-4,.9-5.65,2.13-1.31.97-2.41,2.14-3.33,3.47-.38.55-.78,1.15-1.01,1.79-.32.9-.57,1.83-.85,2.74-.7,2.24-1.4,4.48-2.1,6.72-.93,2.99-1.86,5.97-2.79,8.96s-1.95,6.23-2.92,9.35c-.82,2.64-1.65,5.29-2.47,7.93l-1.46,4.68c-.15.48-.37.96-.07,1.46.12.2.29.39.43.58l2.92,3.92c1.61,2.17,3.23,4.33,4.84,6.5,1.92,2.58,3.84,5.16,5.76,7.74,1.92,2.58,3.85,5.17,5.77,7.75,1.59,2.14,3.19,4.28,4.78,6.43l2.82,3.79c.13.17.25.34.38.51.37.49.98.74,1.56.41.49-.28.78-1.06.41-1.56-.92-1.24-1.85-2.48-2.77-3.73-2.2-2.96-4.4-5.92-6.6-8.87-2.67-3.59-5.34-7.17-8.01-10.76-2.31-3.1-4.61-6.2-6.92-9.3l-2.27-3.05c-.36-.48-.69-1-1.08-1.45-.02-.02-.03-.04-.05-.07l.11.88c.45-1.45.9-2.89,1.35-4.34l3.21-10.27,3.82-12.24c1.05-3.37,2.1-6.74,3.15-10.1l.94-3.01.24-.78c.02-.06.04-.12.05-.18.04-.18-.17.36-.09.21.19-.34.37-.7.58-1.03.2-.32.42-.62.64-.93.15-.21-.15.18.05-.06.07-.09.15-.18.22-.27.15-.18.3-.35.46-.53.36-.38.74-.75,1.14-1.08.09-.07.18-.14.26-.21-.23.18.14-.1.19-.14.24-.17.49-.34.75-.49.24-.14.48-.28.73-.4.14-.07.29-.14.43-.2-.23.1.2-.08.27-.1.61-.22,1.24-.38,1.88-.48.34-.06-.13.01.07,0,.09,0,.18-.02.27-.03.15-.01.3-.02.45-.03.39-.02.78-.01,1.17.01.31.02.62.05.94.08.65.05,1.29.11,1.94.16,1.74.14,3.47.28,5.21.41,4.57.36,9.15.7,13.72,1.05,4.46.34,8.92.67,13.38,1,2.54.19,5.08.38,7.63.57.12,0,.24.02.35.03l-.8-1.94c-.4.43-.83.83-1.25,1.22-.49.45-1,.9-1.51,1.33-.32.27-.63.53-.96.78-.17.14-.34.27-.51.4-.15.12.04-.03.06-.05-.05.04-.09.07-.14.11-.11.08-.21.16-.32.24-1.76,1.32-3.61,2.53-5.53,3.6-1.11.62-2.24,1.19-3.4,1.71-.14.06-.28.12-.42.18-.06.03-.45.19-.24.11-.32.13-.64.26-.96.39-.65.25-1.31.49-1.98.71-1.34.44-2.71.8-4.1,1.07-.33.06-.66.12-.99.18-.18.03-.37.06-.55.09-.07.01-.15.02-.22.03-.37.05.22-.02-.15.02-.74.09-1.48.16-2.23.2-1.54.08-3.09.05-4.63-.1-.18-.02-.37-.04-.55-.06-.1-.01-.2-.02-.31-.04-.23-.03.27.04-.13-.02s-.82-.13-1.23-.2c-.82-.15-1.63-.34-2.44-.56-.92-.25-1.89-.82-2.79-.26-.46.29-.87.69-1.27,1.07-1.32,1.24-2.61,2.5-3.98,3.69-.45.39-.9.76-1.37,1.13-.11.09-.22.18-.34.27-.06.05-.13.1-.19.15-.15.12.21-.16-.04.03-.26.2-.53.4-.79.59-1.11.81-2.25,1.56-3.44,2.25-2.66,1.54-5.23,2.61-8.28,3.29-.37.08-.73.15-1.1.22s-.86.14-1.08.17c-.61.08-1.14.47-1.14,1.14,0,.56.52,1.21,1.14,1.14h0Z"/>
  <path class="cls-1" d="m116.72,63.75c-.29-.07-.57-.16-.85-.26-.31-.1-.61-.22-.91-.34-.04-.02-.08-.03-.12-.05-.13-.05.31.13.09.04-.09-.04-.19-.08-.28-.12-.19-.09-.38-.17-.56-.27-.41-.2-.81-.43-1.19-.67-.21-.13-.41-.27-.61-.41-.09-.07-.19-.14-.28-.21s.15.12.13.1c-.03-.02-.05-.04-.08-.06-.05-.04-.1-.08-.16-.13-.38-.32-.75-.66-1.07-1.04-.04-.05-.08-.09-.12-.14-.07-.08-.16-.28.02.03-.06-.11-.15-.21-.23-.31-.14-.21-.27-.42-.39-.64-.06-.11-.11-.22-.16-.33-.11-.25.06.18.01.03-.02-.07-.05-.13-.07-.2-.09-.25-.16-.5-.21-.75-.01-.06-.03-.13-.04-.19,0-.04-.01-.07-.02-.11-.02-.11.04-.09.02.14.01-.13-.03-.29-.04-.43-.02-.29-.01-.58.01-.87,0-.08.02-.17.03-.25.02-.2-.05.29,0,.02.03-.16.06-.33.09-.49.08-.35.19-.7.31-1.05.03-.07.05-.14.08-.21,0-.02.05-.1.05-.13,0,.02-.11.25-.03.08.07-.15.14-.31.22-.46.14-.27.31-.53.49-.78.17-.23-.1.11,0,0,.04-.05.09-.11.13-.16.09-.11.19-.21.3-.31.09-.09.19-.18.29-.26.04-.03.22-.17.05-.05-.17.13.06-.04.1-.07.21-.15.43-.28.65-.39.05-.03.11-.05.16-.08.05-.02.25-.11.05-.03s0,0,.05-.02c.06-.02.13-.05.19-.07.24-.08.48-.15.73-.2.11-.02.23-.05.34-.06.06,0,.27-.04.05,0-.24.03.04,0,.09,0,.47-.05.93-.05,1.4-.02.23.01.46.04.69.06.18.02-.32-.05-.1-.01.05,0,.1.02.15.02.11.02.23.04.34.06.38.07.75.16,1.12.26.44.12.88.28,1.31.44.14.06-.35-.15-.2-.09.54.24,1.25.18,1.56-.41.26-.49.17-1.3-.41-1.56-1.21-.53-2.5-.84-3.81-1-2.3-.28-4.75.22-6.45,1.89-1.07,1.06-1.76,2.5-2.11,3.95-.32,1.33-.34,2.76.1,4.07.74,2.24,2.53,3.91,4.53,5.06,1.19.68,2.51,1.28,3.85,1.61.02,0,.04.01.06.02.58.14,1.26-.19,1.4-.79s-.18-1.24-.79-1.4h0Z"/>
  <path class="cls-1" d="m119.82,54.16c-.45-.28-.94-.49-1.43-.69-.84-.35-1.76-.6-2.68-.59-1.23.02-2.31.55-3.01,1.58-.39.58-.62,1.31-.71,2s-.1,1.34.13,1.98c.26.74.79,1.52,1.52,1.87.54.25,1.25.17,1.56-.41.27-.51.17-1.28-.41-1.56-.03-.01-.05-.03-.08-.04s-.05-.03-.08-.05c-.23-.14.22.19.07.05-.08-.08-.17-.15-.24-.24-.2-.23.14.22,0,0-.05-.08-.1-.15-.14-.23-.02-.04-.04-.1-.06-.13,0,.01.1.29.06.13-.03-.11-.07-.21-.09-.32,0-.04-.01-.08-.02-.11-.05-.22.02.29,0,.06,0-.14-.01-.27,0-.41,0-.02.02-.22.02-.22l-.02.15c0-.05.02-.11.03-.16.03-.14.06-.28.1-.42s.09-.29.14-.43c.08-.24-.12.23,0,.02.03-.07.07-.13.1-.2.05-.1.13-.18.18-.28-.17.3-.04.06.04-.03.04-.04.08-.07.12-.11.14-.14-.2.13-.08.06.1-.06.19-.12.29-.17.24-.14-.26.08,0,0,.09-.03.18-.06.27-.08.04,0,.08-.02.12-.03.2-.05-.31.03-.1.01.1,0,.21-.02.31-.02.19,0,.39.04.58.03-.37,0-.12-.02.01,0,.1.02.21.04.31.07.37.09.74.22,1.1.36.03.01.06.02.08.04-.38-.14-.16-.07-.07-.03.08.03.15.07.22.1.13.06.26.13.38.19.12.06.23.13.35.2.51.31,1.27.13,1.56-.41s.13-1.22-.41-1.56h0Z"/>
  <path class="cls-1" d="m148.22,96.7c-.98,1.89-1.96,3.78-2.94,5.67l-4.68,9.03c-.36.69-.71,1.38-1.07,2.06-.48.92.31,1.85,1.28,1.67,3.48-.65,6.97-1.3,10.45-1.95.49-.09.98-.18,1.47-.27l-1.4-.79c.27.77.53,1.55.8,2.32l1.91,5.57,2.3,6.71c.67,1.94,1.34,3.89,2,5.83.32.94.59,1.92.97,2.84,0,.01,0,.03.01.04l.52-1.28c-1.85,1.07-3.79,2.02-5.72,2.95-.98.47-1.97.92-2.96,1.37-.55.25-1.11.49-1.67.73-.15.06-.29.12-.44.19-.07.03-.15.06-.22.09-.26.11.23-.1-.02.01-.32.13-.63.26-.95.39-2.71,1.11-5.45,2.14-8.23,3.06-3.12,1.03-6.28,1.94-9.48,2.69-1.68.39-3.38.75-5.08,1.05-.86.15-1.73.29-2.6.42-.22.03-.44.06-.65.09-.36.05.23-.03-.13.02-.11.01-.22.03-.33.04-.46.06-.91.11-1.37.16-3.56.39-7.15.53-10.73.34-.89-.05-1.78-.11-2.67-.2-.43-.04-.85-.09-1.27-.14-.09-.01-.18-.02-.28-.04-.36-.05.22.03-.14-.02-.26-.04-.52-.07-.77-.11-2.06-.32-4.11-.77-6.11-1.36s-3.92-1.31-5.75-2.18c-1.07-.51-2.11-1.08-3.07-1.76-.09-.06-.17-.12-.26-.19-.07-.05-.44-.3-.12-.09-.22-.15-.43-.34-.64-.52-.38-.32-.75-.67-1.1-1.02s-.68-.72-1-1.1c-.08-.09-.16-.19-.23-.29-.06-.08-.31-.31-.05-.06-.18-.18-.33-.44-.47-.65-.57-.81-1.07-1.67-1.51-2.56-.11-.22-.22-.45-.32-.68-.04-.1-.08-.19-.13-.29-.03-.07-.14-.27.02.04-.04-.07-.06-.16-.1-.23-.19-.47-.37-.95-.53-1.43-.33-.98-.59-1.98-.8-3-.11-.52-.2-1.04-.27-1.56-.01-.09-.1-.55-.02-.16-.02-.13-.03-.27-.05-.4-.03-.29-.07-.58-.09-.87-.2-2.2-.19-4.42,0-6.63.05-.56.11-1.13.18-1.69.01-.09.07-.58.02-.19.02-.14.04-.28.06-.42.04-.28.09-.57.13-.85.19-1.13.42-2.26.68-3.38.54-2.26,1.24-4.48,2.1-6.65.1-.24.19-.49.29-.73.03-.08.21-.53.08-.19.06-.15.13-.3.2-.46.23-.52.46-1.03.7-1.54.48-1,.99-1.98,1.55-2.95s1.11-1.85,1.72-2.74c.3-.43.6-.86.92-1.28.08-.1.16-.21.23-.31.14-.19-.17.21-.02.03.04-.05.08-.1.12-.15.16-.2.32-.4.48-.6.63-.76,1.3-1.5,2.01-2.2.35-.34.7-.68,1.07-1,.17-.15.34-.29.51-.44.09-.07.18-.15.27-.22.05-.04.09-.07.14-.11.03-.02.06-.05.09-.07.09-.07.06-.05-.09.07.16-.05.36-.27.5-.37.2-.14.4-.28.6-.42.37-.24.74-.48,1.13-.69s.76-.41,1.15-.59c.1-.04.19-.09.29-.13.04-.02.08-.03.12-.05.13-.06-.29.12-.1.04.21-.08.42-.17.63-.25.77-.28,1.57-.49,2.38-.61.05,0,.1-.01.15-.02.21-.03-.31.04-.1.01.1-.01.2-.02.3-.03.2-.02.4-.03.6-.04.41-.02.81-.02,1.22,0,.2.01.41.03.61.05.36.04-.22-.04.05,0,.09.01.17.03.26.04.41.07.82.16,1.23.28.48.13,1.04-.09,1.28-.52.73-1.3,1.46-2.6,2.2-3.89,1.17-2.07,2.33-4.13,3.5-6.2.27-.47.53-.95.8-1.42.29-.52.14-1.27-.41-1.56s-1.24-.15-1.56.41c-.73,1.3-1.46,2.6-2.2,3.89l-3.5,6.2c-.27.47-.53.95-.8,1.42l1.28-.52c-3.57-1.01-7.29-.3-10.49,1.49-3.57,2.01-6.43,5.15-8.74,8.49-2.61,3.79-4.57,8.05-5.97,12.43s-2.27,9.24-2.27,13.96c0,4.44.75,8.93,2.72,12.94s5.04,7.04,8.94,8.94c7.29,3.55,15.46,4.82,23.52,4.59,7.12-.2,14.21-1.51,21.05-3.44,5.76-1.63,11.38-3.72,16.84-6.15,2.86-1.27,5.7-2.64,8.44-4.16.12-.07.25-.14.37-.21.41-.24.68-.81.52-1.28-.27-.77-.53-1.55-.8-2.32l-1.91-5.57-2.3-6.71-2-5.83c-.32-.95-.63-1.9-.97-2.84,0-.01,0-.03-.01-.04-.21-.62-.76-.91-1.4-.79-3.48.65-6.97,1.3-10.45,1.95-.49.09-.98.18-1.47.27l1.28,1.67c.98-1.89,1.96-3.78,2.94-5.67l4.68-9.03c.36-.69.71-1.38,1.07-2.06.27-.53.15-1.26-.41-1.56-.52-.28-1.26-.16-1.56.41h0Z"/>
  <path class="cls-1" d="m114.07,49.33c-.48-.39-.97-.78-1.45-1.18-1.31-1.06-2.62-2.12-3.92-3.19l-5.82-4.73c-2.36-1.92-4.72-3.83-7.08-5.75l-7.75-6.3c-2.61-2.12-5.22-4.24-7.82-6.35-2.44-1.98-4.88-3.96-7.32-5.95l-6.16-5.01c-1.48-1.2-2.96-2.41-4.45-3.61-.7-.57-1.38-1.16-2.1-1.7-.03-.02-.06-.05-.09-.07l-.5,1.9c.97-.17,1.94-.34,2.91-.52l7-1.24c2.82-.5,5.65-1,8.47-1.5l7.33-1.3c1.19-.21,2.4-.37,3.57-.63.02,0,.03,0,.05,0l-1.11-.29c.35.27.7.55,1.05.82l2.87,2.23,4.22,3.29,5.17,4.03,5.67,4.41c1.91,1.49,3.81,2.97,5.72,4.46l5.33,4.15c1.5,1.17,2.99,2.33,4.49,3.5l3.24,2.53c.51.4,1.02.8,1.54,1.2.02.02.04.03.07.05.47.36,1.16.49,1.61,0,.37-.41.5-1.22,0-1.61-.87-.68-1.73-1.35-2.6-2.03l-6.54-5.1c-2.9-2.26-5.8-4.52-8.7-6.78-3.03-2.36-6.07-4.73-9.1-7.09-2.54-1.98-5.07-3.95-7.61-5.93l-4.37-3.41c-.13-.1-.25-.2-.38-.3-.02-.02-.04-.03-.06-.05-.36-.28-.69-.36-1.15-.29-.6.1-1.19.21-1.79.32l-9.06,1.6c-3.72.66-7.43,1.31-11.15,1.97-2.32.41-4.65.82-6.97,1.23-.11.02-.22.04-.33.06-.8.14-1.14,1.38-.5,1.9.48.39.97.78,1.45,1.18l3.92,3.19,5.82,4.73,7.08,5.75c2.58,2.1,5.17,4.2,7.75,6.3s5.22,4.24,7.82,6.35c2.44,1.98,4.88,3.96,7.32,5.95l6.16,5.01,4.45,3.61c.7.57,1.4,1.14,2.1,1.7.03.02.06.05.09.07.46.37,1.16.48,1.61,0,.38-.42.49-1.21,0-1.61h0Z"/>
  <path class="cls-1" d="m58.11,6.91c-.14,1.25-.28,2.5-.42,3.74-.06.53-.15,1.07-.18,1.61-.02.35.14.67.39.89.69.6,1.42,1.16,2.13,1.73l4.64,3.78c2.15,1.75,4.31,3.5,6.46,5.26,2.52,2.05,5.04,4.1,7.56,6.15,2.64,2.14,5.27,4.29,7.91,6.43s5.05,4.11,7.57,6.16l6.56,5.33,4.75,3.86,2.28,1.85.1.08c.46.37,1.16.48,1.61,0,.38-.42.49-1.21,0-1.61-.45-.36-.89-.72-1.34-1.09l-3.64-2.96c-1.8-1.46-3.6-2.93-5.4-4.39l-6.57-5.34c-2.4-1.95-4.8-3.9-7.19-5.85l-7.26-5.9c-2.26-1.83-4.51-3.67-6.77-5.5l-5.74-4.66-4.11-3.34c-.65-.53-1.29-1.07-1.94-1.58-.03-.02-.05-.04-.08-.07l.33.8c.17-1.57.35-3.15.52-4.72l.07-.67c.07-.59-.57-1.16-1.14-1.14-.67.03-1.07.5-1.14,1.14h0Z"/>
  <path class="cls-1" d="m57.3,19.6c.45.36.91.72,1.36,1.08l3.7,2.94,5.48,4.36c2.22,1.77,4.44,3.54,6.67,5.3,2.43,1.94,4.87,3.87,7.3,5.81l7.37,5.86c2.29,1.82,4.58,3.64,6.87,5.47,1.94,1.54,3.87,3.08,5.81,4.62,1.39,1.11,2.78,2.22,4.18,3.32.66.53,1.32,1.05,1.98,1.58.03.02.06.05.09.07.46.37,1.16.49,1.61,0,.38-.41.5-1.21,0-1.61-.45-.36-.91-.72-1.36-1.08l-3.7-2.94-5.48-4.36-6.67-5.3-7.3-5.81c-2.46-1.95-4.91-3.91-7.37-5.86-2.29-1.82-4.58-3.64-6.87-5.47-1.94-1.54-3.87-3.08-5.81-4.62l-4.18-3.32c-.66-.53-1.32-1.05-1.98-1.58-.03-.02-.06-.05-.09-.07-.46-.37-1.16-.49-1.61,0-.38.41-.5,1.21,0,1.61h0Z"/>
  <path class="cls-1" d="m57.01,18.49c-.29,1.51-.58,3.03-.87,4.54l-.12.65c-.07.37-.03.85.29,1.11.51.41,1.03.82,1.54,1.24l4.2,3.37,6.21,4.98c2.51,2.01,5.02,4.02,7.53,6.04,2.76,2.22,5.53,4.43,8.29,6.65s5.58,4.47,8.37,6.71c2.59,2.07,5.18,4.15,7.76,6.22,2.2,1.76,4.4,3.52,6.6,5.29l4.74,3.8,2.23,1.79.1.08c.46.37,1.16.49,1.61,0,.38-.41.5-1.21,0-1.61s-1.03-.82-1.54-1.24l-4.2-3.37c-2.07-1.66-4.14-3.32-6.21-4.98l-7.53-6.04c-2.76-2.22-5.53-4.43-8.29-6.65l-8.37-6.71-7.76-6.22-6.6-5.29-4.74-3.8-2.23-1.79-.1-.08.29,1.11c.29-1.51.58-3.03.87-4.54l.12-.65c.11-.58-.16-1.26-.79-1.4-.56-.13-1.28.17-1.4.79h0Z"/>
  <path class="cls-1" d="m163.3,64.62c.29.23.58.47.87.7l2.34,1.89,3.48,2.8,4.23,3.4,4.66,3.75,4.7,3.78c1.45,1.17,2.91,2.34,4.36,3.51l3.7,2.98,2.65,2.13c.42.34.84.68,1.26,1.02.02.01.04.03.05.04.46.37,1.16.49,1.61,0,.38-.41.5-1.21,0-1.61-.29-.23-.58-.47-.87-.7l-2.34-1.89-3.48-2.8-4.23-3.4c-1.55-1.25-3.1-2.5-4.66-3.75l-4.7-3.78c-1.45-1.17-2.91-2.34-4.36-3.51-1.23-.99-2.47-1.99-3.7-2.98l-2.65-2.13c-.42-.34-.84-.68-1.26-1.02-.02-.01-.04-.03-.05-.04-.46-.37-1.16-.49-1.61,0-.38.41-.5,1.21,0,1.61h0Z"/>
  <path class="cls-1" d="m186.79,112c.76.63,1.52,1.25,2.29,1.88l5.32,4.36,6.1,5c1.55,1.27,3.09,2.54,4.64,3.81l1.05.86s.06.05.08.07c.36.29.66.38,1.12.3.07-.01.14-.02.21-.04l3.75-.64c2.28-.39,4.56-.77,6.84-1.16l7.84-1.33c2.26-.38,4.53-.77,6.79-1.15l3.61-.61.17-.03c.83-.14,1.11-1.37.5-1.9-.52-.46-1.04-.92-1.57-1.38l-3.74-3.3c-1.51-1.33-3.01-2.66-4.52-3.99l-3.93-3.47c-.63-.56-1.26-1.13-1.9-1.68,0,0-.02-.02-.03-.02-.45-.39-1.18-.47-1.61,0-.4.43-.48,1.19,0,1.61.52.46,1.04.92,1.57,1.38,1.25,1.1,2.49,2.2,3.74,3.3l4.52,3.99,3.93,3.47c.63.56,1.24,1.15,1.9,1.68,0,0,.02.02.03.02l.5-1.9c-.97.17-1.94.33-2.92.5-2.32.39-4.65.79-6.97,1.18l-8.43,1.43-7.29,1.24c-1.18.2-2.37.36-3.55.6-.02,0-.03,0-.05,0l1.11.29c-.65-.53-1.3-1.06-1.94-1.59l-4.64-3.81c-1.88-1.54-3.76-3.08-5.64-4.63-1.62-1.33-3.24-2.66-4.86-3.99-.79-.65-1.58-1.3-2.37-1.95-.01,0-.02-.02-.03-.03-.46-.38-1.17-.48-1.61,0-.38.42-.49,1.21,0,1.61h0Z"/>
  <path class="cls-1" d="m156.5,87.58c1.65,1.33,3.3,2.65,4.96,3.98.23.19.47.38.7.56.46.37,1.16.49,1.61,0,.38-.41.5-1.21,0-1.61-1.65-1.33-3.3-2.65-4.96-3.98-.23-.19-.47-.38-.7-.56-.46-.37-1.16-.49-1.61,0-.38.41-.5,1.21,0,1.61h0Z"/>
  <path class="cls-1" d="m151,95.88c1.16.95,2.32,1.9,3.48,2.85,1.85,1.51,3.69,3.02,5.54,4.54.42.35.84.69,1.27,1.04v-1.61c-1.02.99-2.05,1.98-3.07,2.97l-.45.43c-.43.41-.45,1.2,0,1.61s1.15.44,1.61,0c1.02-.99,2.05-1.98,3.07-2.97l.45-.43c.41-.4.47-1.22,0-1.61-1.16-.95-2.32-1.9-3.48-2.85-1.85-1.51-3.69-3.02-5.54-4.54-.42-.35-.84-.69-1.27-1.04-.46-.38-1.17-.48-1.61,0-.38.42-.49,1.21,0,1.61h0Z"/>
  <path class="cls-1" d="m182.97,115.34c.38.3.76.61,1.14.91l2.96,2.38,4.12,3.31,4.61,3.7,4.43,3.56,3.59,2.88,2.07,1.66c.36.29.7.59,1.22.52.36-.05.72-.11,1.08-.16,1.74-.26,3.48-.52,5.22-.78l4.4-.66.24-.04-1.4-1.4c-.29,1.65-.57,3.3-.86,4.95l-.12.7.79-.79c-1.27.24-2.54.47-3.81.71l-6.05,1.13c-.47.09-.93.17-1.4.26l1.11.29c-.83-.68-1.66-1.37-2.49-2.05-2-1.64-3.99-3.28-5.99-4.92-2.41-1.98-4.83-3.96-7.24-5.95-2.09-1.71-4.17-3.42-6.26-5.14-1.01-.83-2.01-1.66-3.03-2.49-.01-.01-.03-.02-.04-.03-.46-.38-1.17-.48-1.61,0-.38.42-.49,1.21,0,1.61.4.33.8.66,1.21.99l3.14,2.57,4.39,3.61c1.64,1.35,3.29,2.7,4.93,4.05l4.75,3.9,3.91,3.21,2.35,1.93c.12.1.24.2.37.3.35.28.68.37,1.12.29.04,0,.08-.02.13-.02l.61-.11,5.44-1.01,4.81-.9.26-.05c.35-.07.73-.44.79-.79.29-1.65.57-3.3.86-4.95l.12-.7c.07-.41.02-.8-.29-1.11s-.69-.35-1.11-.29c-1.22.18-2.44.37-3.65.55-1.93.29-3.86.58-5.79.87-.45.07-.89.13-1.34.2l1.11.29c-.77-.62-1.54-1.23-2.3-1.85l-5.53-4.44c-2.23-1.79-4.46-3.58-6.69-5.37-1.93-1.55-3.86-3.1-5.79-4.64-.94-.75-1.88-1.51-2.82-2.26-.01-.01-.03-.02-.04-.03-.46-.37-1.16-.49-1.61,0-.38.41-.5,1.21,0,1.61h0Z"/>
  <path class="cls-1" d="m153.95,91.95c1.87,1.5,3.73,2.99,5.6,4.49.26.21.53.42.79.63.46.37,1.16.49,1.61,0,.38-.41.5-1.21,0-1.61-1.87-1.5-3.73-2.99-5.6-4.49-.26-.21-.53-.42-.79-.63-.46-.37-1.16-.49-1.61,0-.38.41-.5,1.21,0,1.61h0Z"/>
  <path class="cls-1" d="m235.2,121.93c-.26,1.5-.53,3.01-.79,4.51l-.11.64.79-.79c-1.26.25-2.52.49-3.78.74-2.01.39-4.01.78-6.02,1.18-.46.09-.92.18-1.38.27-.36.07-.73.44-.79.79-.33,1.75-.67,3.49-1,5.24l-.14.74c-.17.89.51,1.57,1.4,1.4,1.28-.25,2.56-.49,3.84-.74,2.03-.39,4.07-.78,6.1-1.17.47-.09.94-.18,1.41-.27l-1.4-1.4c-.24,1.53-.48,3.06-.72,4.59l-.1.66.79-.79c-.99.19-1.97.37-2.96.56-2.37.45-4.74.9-7.11,1.35-2.86.54-5.71,1.08-8.57,1.62-2.47.47-4.94.94-7.41,1.4-1.2.23-2.42.41-3.61.68-.02,0-.03,0-.05,0l1.4,1.4c.3-1.61.6-3.22.91-4.83l.13-.69c.11-.58-.16-1.26-.79-1.4-.56-.13-1.28.17-1.4.79-.3,1.61-.6,3.22-.91,4.83l-.13.69c-.17.89.51,1.57,1.4,1.4.99-.19,1.97-.37,2.96-.56,2.37-.45,4.74-.9,7.11-1.35,2.86-.54,5.71-1.08,8.57-1.62,2.47-.47,4.94-.94,7.41-1.4,1.2-.23,2.42-.41,3.61-.68.02,0,.03,0,.05,0,.35-.07.74-.44.79-.79.24-1.53.48-3.06.72-4.59l.1-.66c.06-.41.02-.8-.29-1.11s-.7-.37-1.11-.29c-1.28.25-2.56.49-3.84.74-2.03.39-4.07.78-6.1,1.17-.47.09-.94.18-1.41.27l1.4,1.4c.33-1.75.67-3.49,1-5.24l.14-.74-.79.79c1.26-.25,2.52-.49,3.78-.74,2.01-.39,4.01-.78,6.02-1.18.46-.09.92-.18,1.38-.27.35-.07.73-.44.79-.79.26-1.5.53-3.01.79-4.51l.11-.64c.1-.58-.16-1.25-.79-1.4-.55-.13-1.29.17-1.4.79h0Z"/>
  <path class="cls-1" d="m175.9,122.63c.91.75,1.81,1.49,2.72,2.24,2.16,1.78,4.32,3.56,6.48,5.34,2.63,2.16,5.25,4.33,7.88,6.49l6.78,5.58c1.1.91,2.2,1.82,3.31,2.72.02.01.03.02.04.04.46.38,1.17.48,1.61,0,.38-.42.49-1.21,0-1.61-.91-.75-1.81-1.49-2.72-2.24-2.16-1.78-4.32-3.56-6.48-5.34l-7.88-6.49c-2.26-1.86-4.52-3.72-6.78-5.58-1.1-.91-2.2-1.82-3.31-2.72-.02-.01-.03-.02-.04-.04-.46-.38-1.17-.48-1.61,0-.38.42-.49,1.21,0,1.61h0Z"/>
  <path class="cls-1" d="m58.63,19.87c1.92-.32,3.85-.65,5.77-.97.27-.05.55-.09.82-.14.59-.1.97-.86.79-1.4-.21-.64-.77-.9-1.4-.79-1.92.32-3.85.65-5.77.97-.27.05-.55.09-.82.14-.59.1-.97.86-.79,1.4.21.64.77.9,1.4.79h0Z"/>
  <path class="cls-1" d="m235.25,132.56c-1.47-1.32-2.95-2.65-4.42-3.97-.21-.19-.42-.38-.63-.56-.44-.4-1.18-.47-1.61,0-.4.43-.47,1.18,0,1.61,1.47,1.32,2.95,2.65,4.42,3.97.21.19.42.38.63.56.44.4,1.18.47,1.61,0,.4-.43.47-1.18,0-1.61h0Z"/>
  <g>
    <path class="cls-1" d="m182.65,46.84c.86-.84,1.72-1.67,2.58-2.51,2.06-2.01,4.13-4.01,6.19-6.02l7.44-7.24c2.15-2.1,4.31-4.19,6.46-6.29,1.04-1.01,2.11-2,3.12-3.04.01-.01.03-.03.04-.04.43-.42.45-1.2,0-1.61s-1.15-.44-1.61,0c-.86.84-1.72,1.67-2.58,2.51l-6.19,6.02c-2.48,2.41-4.96,4.82-7.44,7.24-2.15,2.1-4.31,4.19-6.46,6.29-1.04,1.01-2.11,2-3.12,3.04-.01.01-.03.03-.04.04-.43.42-.45,1.2,0,1.61s1.15.44,1.61,0h0Z"/>
    <path class="cls-1" d="m188.98,58.36c1.01-.58,2.01-1.15,3.02-1.73,2.42-1.38,4.83-2.77,7.25-4.15,2.91-1.67,5.83-3.34,8.74-5.01,2.52-1.44,5.04-2.89,7.55-4.33,1.23-.7,2.47-1.38,3.68-2.11.02-.01.03-.02.05-.03.52-.3.74-1.04.41-1.56s-1-.72-1.56-.41c-1.01.58-2.01,1.15-3.02,1.73-2.42,1.38-4.83,2.77-7.25,4.15-2.91,1.67-5.83,3.34-8.74,5.01l-7.55,4.33c-1.23.7-2.47,1.38-3.68,2.11-.02.01-.03.02-.05.03-.52.3-.74,1.04-.41,1.56s1,.72,1.56.41h0Z"/>
    <path class="cls-1" d="m195.28,69.83c1.16-.32,2.31-.64,3.47-.96,2.77-.77,5.55-1.53,8.32-2.3,3.34-.92,6.67-1.84,10.01-2.76l8.69-2.4c1.4-.39,2.81-.74,4.2-1.16.02,0,.04-.01.06-.02.57-.16.98-.81.79-1.4s-.78-.96-1.4-.79c-1.16.32-2.31.64-3.47.96-2.77.77-5.55,1.53-8.32,2.3-3.34.92-6.67,1.84-10.01,2.76l-8.69,2.4c-1.4.39-2.81.74-4.2,1.16-.02,0-.04.01-.06.02-.57.16-.98.81-.79,1.4s.78.96,1.4.79h0Z"/>
  </g>
  <g>
    <path class="cls-1" d="m81.44,87.93c-1.19.15-2.38.3-3.57.45-2.86.36-5.71.72-8.57,1.08-3.43.43-6.87.86-10.3,1.3-2.98.38-5.96.75-8.95,1.13-1.44.18-2.88.36-4.32.54-.02,0-.04,0-.06,0-.59.07-1.17.47-1.14,1.14.02.55.51,1.22,1.14,1.14,1.19-.15,2.38-.3,3.57-.45,2.86-.36,5.71-.72,8.57-1.08,3.43-.43,6.87-.86,10.3-1.3,2.98-.38,5.96-.75,8.95-1.13,1.44-.18,2.88-.36,4.32-.54.02,0,.04,0,.06,0,.59-.07,1.17-.47,1.14-1.14-.02-.55-.51-1.22-1.14-1.14h0Z"/>
    <path class="cls-1" d="m83.03,74.91c-1.15-.15-2.3-.29-3.45-.44-2.76-.35-5.53-.7-8.29-1.05-3.33-.42-6.66-.84-9.99-1.27-2.88-.36-5.76-.73-8.64-1.09-1.4-.18-2.8-.41-4.21-.53-.02,0-.04,0-.06,0-.59-.08-1.16.58-1.14,1.14.03.68.5,1.06,1.14,1.14,1.15.15,2.3.29,3.45.44,2.76.35,5.53.7,8.29,1.05,3.33.42,6.66.84,9.99,1.27,2.88.36,5.76.73,8.64,1.09,1.4.18,2.8.41,4.21.53.02,0,.04,0,.06,0,.59.08,1.16-.58,1.14-1.14-.03-.68-.5-1.06-1.14-1.14h0Z"/>
    <path class="cls-1" d="m84.93,61.94c-1.11-.44-2.23-.88-3.34-1.32-2.68-1.06-5.35-2.12-8.03-3.18-3.22-1.27-6.43-2.55-9.65-3.82l-8.38-3.32c-1.35-.53-2.68-1.12-4.05-1.6-.02,0-.04-.02-.06-.02-.55-.22-1.27.24-1.4.79-.15.66.2,1.16.79,1.4,1.11.44,2.23.88,3.34,1.32,2.68,1.06,5.35,2.12,8.03,3.18,3.22,1.27,6.43,2.55,9.65,3.82,2.79,1.11,5.59,2.21,8.38,3.32,1.35.53,2.68,1.12,4.05,1.6.02,0,.04.02.06.02.55.22,1.27-.24,1.4-.79.15-.66-.2-1.16-.79-1.4h0Z"/>
  </g>
  <g>
    <path class="cls-1" d="m220.36,107.4c-1.53.59-3.07,1.19-4.6,1.78-1.24.48-2.48.99-3.73,1.45-.3.11-.61.2-.92.28-.22.06-.43.1-.65.14-.06.01-.12.02-.18.03-.05,0-.25.03-.05,0,.21-.03-.04,0-.08,0-.07,0-.15.02-.22.02-.26.02-.52.03-.79.02-.13,0-.26-.02-.38-.03-.17-.02.27.05.01,0-.07-.01-.14-.02-.2-.04-.13-.03-.25-.06-.37-.1-.07-.02-.13-.05-.19-.07-.12-.04.21.1.1.04-.04-.02-.08-.04-.12-.05-.12-.06-.23-.12-.34-.19-.05-.03-.1-.09-.15-.11.14.04.16.13.08.06-.03-.03-.07-.06-.1-.09-.1-.09-.19-.2-.29-.3-.11-.12.13.19-.02-.03-.05-.07-.09-.13-.13-.2s-.08-.15-.12-.22c-.02-.04-.04-.08-.06-.12-.06-.13,0,.05.02.06-.07-.03-.13-.37-.15-.46-.01-.05-.02-.1-.03-.15-.03-.11.02.26.02.14,0-.03,0-.06,0-.08,0-.11,0-.23,0-.34s-.05.26-.02.14c0-.03,0-.06.02-.08.01-.05.02-.1.04-.15.02-.06.04-.11.05-.17.07-.22-.08.15-.02.03.12-.22.29-.43.39-.65,0,0-.17.2-.06.09.02-.03.04-.05.07-.08.04-.05.08-.09.12-.14.1-.11.2-.21.31-.31s.21-.19.32-.28c.06-.05.14-.09.18-.15-.01.01-.2.15-.06.05.03-.02.07-.05.1-.07.27-.2.56-.39.85-.56s.61-.35.92-.5c.16-.08.31-.15.47-.23.09-.04.17-.08.26-.12.04-.02.09-.04.13-.06-.11.03-.14.06-.01,0,.71-.29,1.43-.54,2.17-.74s1.44-.35,2.17-.46c.03,0,.1-.02.14-.02-.02,0-.25.03-.06,0,.08,0,.16-.02.24-.03.19-.02.38-.04.57-.05.33-.02.66-.03.99-.02.31,0,.61.03.91.07.53.07,1.03-.51,1.01-1.01-.03-.61-.45-.94-1.01-1.01-1.48-.19-3.02,0-4.47.32-1.6.35-3.16.9-4.62,1.64-1.28.65-2.5,1.49-3.37,2.64-.34.45-.6.98-.69,1.54-.13.79.04,1.48.36,2.2.59,1.3,1.85,2.16,3.25,2.37,1.17.18,2.36.04,3.51-.27s2.25-.82,3.35-1.25c1.86-.72,3.73-1.44,5.59-2.16l.11-.04c.49-.19.89-.69.71-1.25-.16-.48-.72-.91-1.25-.71h0Z"/>
    <path class="cls-1" d="m192.95,94.04c.15-.13.3-.25.45-.37.08-.06.15-.12.23-.18.05-.04.23-.15-.02.01.05-.03.1-.07.14-.11.34-.26.69-.51,1.05-.74.74-.49,1.52-.93,2.32-1.31.2-.1.41-.19.62-.28.04-.02.09-.04.13-.05-.26.07-.05.02.01,0,.13-.05.26-.1.39-.15.44-.17.89-.33,1.35-.46.5-.15,1-.28,1.51-.39.25-.05.5-.1.75-.15.13-.02.25-.04.38-.06.05,0,.1-.02.15-.02s.4-.05.12-.02c1.13-.14,2.26-.2,3.4-.16.61.02,1.22.06,1.83.13.08,0,.15.02.23.03,0,0,.29.04.14.02s.15.02.14.02c.08.01.16.02.23.04.33.05.67.11,1,.17,1.42.28,2.81.67,4.17,1.15.3.11.6.21.89.33.05.02.1.04.15.06.2.08-.17-.08-.04-.02.1.05.21.09.31.14.39.18.77.39,1.14.61s.7.44,1.03.69c.04.03.08.06.12.09.17.13-.15-.12-.04-.03.08.06.16.12.23.19.16.13.32.27.48.41.61.55,1.17,1.16,1.69,1.8.03.04.06.08.09.12.13.16-.11-.15-.03-.04.06.08.12.16.18.24.12.17.24.34.36.51.24.34.46.7.67,1.05.41.7.79,1.42,1.12,2.16.08.18.16.36.24.54.08.19-.07-.18-.02-.05.02.05.04.09.06.14.04.11.09.22.13.33.15.37.29.74.42,1.12.26.74.49,1.5.69,2.25.37,1.36.65,2.74.87,4.12.05.31.09.62.14.93-.06-.39-.01-.1,0-.02,0,.07.02.14.03.21.02.15.04.29.05.44.05.47.1.94.14,1.41.04.53.06,1.05.09,1.58,0,.02,0,.05,0,.07,0,.53.46,1.04,1.01,1.01s1.02-.45,1.01-1.01c-.02-1.44-.19-2.88-.38-4.31-.41-2.96-1.1-5.9-2.24-8.67-1.35-3.3-3.31-6.36-6.25-8.46-1.84-1.32-4.04-2.06-6.21-2.63-2.56-.67-5.23-1.02-7.87-.86-4.08.24-8.05,1.66-11.31,4.14-.38.29-.75.58-1.12.89-.4.35-.38,1.08,0,1.43.43.4,1,.37,1.43,0h0Z"/>
    <path class="cls-1" d="m197.34,106.28c.1.65.42,1.32.81,1.85.99,1.32,2.53,1.93,4.17,1.82,1.49-.11,2.9-.64,4.24-1.28.48-.23.64-.95.36-1.39-.32-.49-.87-.61-1.39-.36-.18.09-.35.17-.53.25-.06.03-.11.05-.17.08.2-.09-.07.03-.1.04-.29.11-.58.22-.87.31-.25.08-.5.15-.76.21-.12.03-.25.05-.37.07-.04,0-.09.01-.13.02-.29.05.13,0-.05,0-.4.04-.79.03-1.19,0-.13,0,.28.05.1.01-.05,0-.09-.02-.14-.03-.08-.01-.15-.03-.22-.05-.15-.04-.3-.11-.45-.15.33.09.12.05.02,0-.06-.03-.13-.07-.19-.1s-.12-.07-.18-.11c-.02-.01-.04-.03-.06-.04-.19-.12.17.15.06.05-.18-.17-.35-.33-.52-.52.08.09.15.2.03.04-.03-.04-.06-.08-.09-.13-.06-.09-.11-.18-.16-.28-.05-.09-.08-.18-.13-.26-.06-.11.12.31.05.11-.02-.04-.03-.09-.05-.13-.07-.18-.13-.38-.15-.57-.08-.53-.77-.86-1.25-.71-.57.19-.79.68-.71,1.25h0Z"/>
    <path class="cls-1" d="m212.45,97.39c-1.14-.15-2.3-.03-3.43.14-1.27.2-2.52.53-3.74.96-1.29.46-2.56,1.02-3.74,1.73-1.04.62-2.06,1.37-2.84,2.3-.83.98-1.44,2.17-1.4,3.49.02.53.45,1.04,1.01,1.01s1.03-.45,1.01-1.01c0-.1,0-.21,0-.31,0-.06,0-.11.01-.17.01-.15-.05.26,0,.06s.1-.42.17-.63c0-.03.03-.06.04-.09,0-.01-.1.22-.05.13.02-.04.04-.09.06-.14.05-.11.11-.21.17-.31s.12-.19.18-.29c.03-.05.07-.1.11-.15.02-.02.03-.04.05-.06.08-.11-.04.06-.06.08.09-.05.18-.22.25-.3.09-.1.18-.2.27-.29.19-.19.38-.37.59-.54.09-.08.24-.16.31-.25,0,0-.17.13-.08.06.03-.02.05-.04.08-.06.07-.05.14-.1.2-.15.24-.17.48-.33.73-.49.52-.32,1.06-.62,1.61-.88.28-.13.57-.3.86-.39-.18.06-.06.02.05-.02.07-.03.13-.05.2-.08.15-.06.31-.12.46-.18,1.17-.44,2.39-.78,3.62-1,.16-.03.32-.06.48-.08.07-.01.15-.02.22-.03-.02,0-.26.03-.08.01.04,0,.08-.01.12-.02.3-.04.6-.06.9-.08.55-.03,1.11-.02,1.66.05s1.03-.51,1.01-1.01c-.03-.61-.45-.94-1.01-1.01h0Z"/>
    <path class="cls-1" d="m197.12,98.06c.63-.48,1.29-.9,1.98-1.28.37-.2.74-.39,1.12-.57.19-.09.37-.17.56-.25s-.1.04.08-.04c.11-.04.22-.09.33-.13.79-.31,1.59-.58,2.41-.79.38-.1.77-.19,1.15-.26.19-.04.38-.07.57-.1.05,0,.11-.02.16-.02.02,0,.16-.02.02,0s0,0,.02,0c.07,0,.13-.02.2-.02.78-.08,1.57-.1,2.36,0,.53.07,1.03-.51,1.01-1.01-.03-.61-.45-.94-1.01-1.01-1.56-.2-3.17.03-4.69.4-1.71.41-3.38,1.05-4.94,1.86-.82.43-1.62.92-2.36,1.48-.42.32-.68.89-.36,1.39.27.42.93.71,1.39.36h0Z"/>
    <path class="cls-1" d="m194.07,86.4c-.06-.08-.12-.17-.16-.26-.02-.04-.04-.09-.06-.13.15.21.06.16.02.03-.03-.1-.06-.19-.08-.29-.01-.06-.02-.12-.03-.17-.02-.09.02.17.02.16,0-.03,0-.08-.01-.11,0-.11-.01-.23,0-.34,0-.05,0-.11,0-.16,0-.1.07-.32,0,.01.06-.24.09-.47.17-.7.02-.06.06-.12.07-.18-.02.12-.09.21-.01.04.06-.12.12-.24.19-.35.02-.04.22-.28.21-.31.01.04-.17.21-.02.03.04-.05.09-.1.14-.15.09-.09.18-.18.28-.26.02-.02.06-.04.08-.06,0,0-.19.13-.1.08.07-.04.13-.09.19-.13.1-.07.21-.12.32-.18.22-.12-.13.04,0,0,.07-.02.14-.05.21-.07.14-.04.27-.07.41-.1.22-.04-.19.01,0,0,.09,0,.18-.01.27-.02.16,0,.32,0,.47.01.03,0,.07,0,.1.01.14,0-.2-.04-.07,0,.09.02.18.03.27.05.18.04.36.09.54.15.09.03.17.06.26.09.05.02.1.04.15.06.14.05-.22-.1.03.01.4.19.78.39,1.16.61.79.45,1.54.97,2.26,1.52.05.04.09.07.14.11.02.02.17.13.07.05-.09-.07.02.02.03.03.05.04.09.07.14.11.18.14.35.28.52.42.31.25.61.51.9.77.74.65,1.47,1.33,2.15,2.05.36.39,1.07.39,1.43,0,.38-.41.39-1.02,0-1.43-.62-.66-1.28-1.28-1.95-1.88-1.42-1.28-2.95-2.48-4.6-3.45-1.52-.89-3.27-1.62-5.06-1.16-1.3.33-2.4,1.31-2.93,2.53s-.7,2.87.15,4.03c.31.43.89.68,1.39.36.42-.27.7-.93.36-1.39h0Z"/>
  </g>
  <path class="cls-1" d="m140.52,112.9c-.71.08-1.41.17-2.12.25l-5.11.6-6.16.72-5.33.63c-.86.1-1.74.16-2.6.31-.01,0-.03,0-.04,0l1.1,1.44c.16-.87.26-1.76.35-2.64.18-1.94.23-3.9.14-5.84-.13-2.59-.5-5.2-1.23-7.69-.82-2.77-2.1-5.38-3.93-7.62-2.03-2.49-4.74-4.3-7.74-5.42-.4-.15-.81-.29-1.22-.41-.57-.17-1.27.21-1.4.79s.18,1.21.79,1.4c.41.12.82.26,1.22.41.19.07.38.15.57.22.24.1-.23-.1.07.03.1.04.2.09.3.13.71.32,1.4.69,2.07,1.11.31.19.61.4.91.61.07.05.14.11.22.16.04.03.08.06.12.09,0,0-.23-.18-.09-.07s.29.23.44.35c.54.45,1.05.94,1.52,1.46.24.26.46.52.68.79.05.07.1.13.16.2.09.12-.17-.22,0,0,.11.15.22.3.33.45.39.55.75,1.12,1.07,1.71s.62,1.18.88,1.79c.02.04.04.08.05.12.06.13-.12-.29-.04-.1.03.07.06.13.08.2.07.17.13.34.2.5.11.3.22.61.32.91.41,1.23.72,2.49.94,3.76.06.31.11.62.15.94.02.13.08.65.03.2.02.15.04.3.06.45.07.6.13,1.2.17,1.8.14,2,.11,4.01-.05,6.01-.03.36-.06.72-.1,1.08-.02.15-.03.3-.05.45-.02.16-.09.66-.01.12-.04.3-.09.6-.14.89,0,.01,0,.03,0,.04-.07.37-.03.69.2.99.2.26.55.49.89.45.71-.08,1.41-.17,2.12-.25l5.11-.6c2.05-.24,4.11-.48,6.16-.72l5.33-.63c.87-.1,1.73-.2,2.6-.31.01,0,.03,0,.04,0,.59-.07,1.17-.47,1.14-1.14-.02-.56-.5-1.21-1.14-1.14h0Z"/>
  <path class="cls-1" d="m118.58,105.92c1.13,1.13,2.26,2.26,3.4,3.4,1.79,1.79,3.58,3.58,5.36,5.36.41.41.82.82,1.24,1.24s1.19.45,1.61,0,.45-1.16,0-1.61c-1.13-1.13-2.26-2.26-3.4-3.4l-5.36-5.36c-.41-.41-.82-.82-1.24-1.24s-1.19-.45-1.61,0-.45,1.16,0,1.61h0Z"/>
  <path class="cls-1" d="m148.4,99.99c1.06.87,2.11,1.74,3.17,2.61,1.68,1.38,3.36,2.76,5.03,4.14.39.32.78.64,1.16.96v-1.61c-1.61,1.29-3.23,2.59-4.84,3.88-.43.34-.86.69-1.29,1.03l1.9.5c-.36-1.42-.73-2.84-1.09-4.26-.58-2.27-1.17-4.54-1.75-6.82-.13-.52-.27-1.04-.4-1.56-.15-.58-.82-.98-1.4-.79s-.95.78-.79,1.4c.36,1.42.73,2.84,1.09,4.26.58,2.27,1.17,4.54,1.75,6.82.13.52.27,1.04.4,1.56.1.38.42.69.79.79.42.12.78-.03,1.11-.29,1.63-1.3,3.25-2.61,4.88-3.91.42-.33.83-.67,1.25-1,.45-.36.44-1.25,0-1.61-1.06-.87-2.11-1.74-3.17-2.61l-5.03-4.14c-.39-.32-.78-.64-1.16-.96-.46-.38-1.17-.48-1.61,0-.38.42-.49,1.21,0,1.61Z"/>
  <path class="cls-1" d="m189.62,91.05c-1.23-2.27-3.47-3.72-5.98-4.16-2.16-.38-4.41-.22-6.53.35-1.56.42-2.91,1.2-4.25,2.08-2.03,1.33-3.91,2.89-5.59,4.64-2.2,2.3-4.08,4.93-5.55,7.75-.21.4-.41.81-.61,1.22l2.08.27c-.01-.06-.02-.13-.03-.19-.01-.07-.02-.15-.03-.22.06.4.02.18,0-.02-.08-.62-.14-1.24-.18-1.87-.12-1.83-.09-3.64.11-5.47-.05.42,0-.02.02-.12.02-.12.04-.24.06-.36.05-.26.1-.51.15-.77.1-.46.23-.92.39-1.37.04-.11.08-.22.12-.33.02-.05.04-.11.06-.16.08-.21-.12.26-.03.06.1-.21.19-.42.31-.63.1-.18.21-.37.32-.54.06-.09.12-.18.18-.27.08-.12.15-.08-.05.06.05-.04.09-.12.14-.16.14-.16.28-.31.44-.46.06-.06.13-.12.2-.17.1-.08.18-.07-.07.05.06-.03.12-.09.17-.12.25-.17.51-.32.78-.46.07-.03.14-.07.21-.1.23-.11-.24.09,0,0,.15-.05.3-.11.45-.15.1-.03.21-.05.31-.07.06-.01.12-.02.18-.03-.33.08-.17.02-.07.01.11,0,.23-.01.34-.01.05,0,.11,0,.16,0,.04,0,.07,0,.11,0,.12.01.07,0-.15-.02.18.07.4.08.59.15.04.02.09.04.14.05-.3-.07-.2-.09-.09-.04.09.04.17.09.26.14.1.06.19.12.28.18.08.06.17.17-.08-.07.04.04.1.08.14.12.16.14.31.29.46.45.06.07.12.13.17.2s.14.22-.07-.09c.03.05.07.09.1.14.11.15.21.31.31.47.14.24.28.49.39.75.05.11.12.34-.05-.12.01.03.03.07.04.1.01.03.02.06.03.09.2.56.79.99,1.4.79.55-.18,1.01-.8.79-1.4-.4-1.13-1.1-2.27-2.03-3.04-.87-.71-1.9-1.17-3.04-1.14-1.36.04-2.66.66-3.71,1.5-1.61,1.3-2.42,3.42-2.81,5.4s-.49,4.13-.39,6.2c.03.74.09,1.47.17,2.2.05.46.08.93.18,1.38,0,.02,0,.04,0,.05.07.44.55.76.95.82s.94-.14,1.13-.54c.72-1.51,1.55-2.97,2.48-4.37.22-.32.44-.64.66-.95.1-.14.21-.28.31-.42.05-.07.1-.14.16-.21.03-.05.07-.09.1-.14-.05.06-.1.13-.02.03.44-.56.9-1.11,1.37-1.64.85-.95,1.76-1.86,2.73-2.7.43-.38.88-.75,1.33-1.1.19-.15-.16.12,0,0,.05-.04.1-.08.15-.11.11-.08.21-.16.32-.24.21-.15.42-.3.63-.45.74-.51,1.49-.99,2.27-1.44.28-.16.56-.32.85-.46.06-.03.11-.05.17-.07-.33.15-.17.07-.02.01s.31-.11.47-.17c.81-.27,1.64-.44,2.49-.57.22-.03-.16.02-.08.01.06,0,.11-.01.17-.02.13-.02.27-.03.4-.04.25-.02.51-.04.76-.05.51-.02,1.03-.01,1.54.03.13.01.26.02.4.04.05,0,.27.03.06,0s.04,0,.09.02c.26.04.53.09.78.16s.52.14.77.22c.13.04.25.09.38.14.21.08-.11-.05-.04-.02s.13.06.2.09c.24.11.48.24.71.38.12.07.23.15.34.22.05.04.1.07.15.11.2.14-.14-.12,0,0,.21.18.42.37.62.57.1.1.19.21.29.32.03.03.17.22.06.07s.05.06.07.1c.18.25.34.51.48.78.28.52,1.05.73,1.56.41.53-.34.71-1,.41-1.56h0Z"/>
  <path class="cls-1" d="m174.94,97.5c.09-.07-.31.23-.2.15.03-.02.06-.04.08-.06.1-.08.21-.15.31-.23.38-.27.76-.53,1.15-.78,1.28-.82,2.63-1.54,4.02-2.15.05-.02.1-.04.15-.06.19-.08-.02,0-.05.02.11-.05.23-.09.34-.14.22-.09.43-.17.65-.25.45-.17.9-.32,1.36-.46s.95-.27,1.43-.37c.24-.05.49-.1.73-.15.12-.02.23-.04.35-.06.06,0,.12-.02.18-.03.15-.02.14-.05,0,0,.23-.07.52-.06.75-.08.25-.02.51-.04.76-.04s.51,0,.76,0c.23,0,.49.06.72.04-.23.02-.21-.04-.11-.01.05.01.11.02.16.03.08.02.17.04.25.07s.16.06.25.09c.14.05-.22-.11-.09-.04.05.03.1.05.15.07.17.09.33.18.49.29.08.05.15.1.22.15.04.03.16.12.02.01-.15-.12.01.01.04.04.33.27.64.58.93.9.13.14.26.29.38.44.03.04.22.28.09.11s.06.08.09.12c.22.3.43.6.61.92.29.52,1.04.74,1.56.41s.72-1,.41-1.56c-.54-.95-1.25-1.85-2.04-2.59-.68-.65-1.45-1.18-2.34-1.5-.95-.35-2.08-.3-3.08-.23-3.85.26-7.55,1.77-10.82,3.77-.78.48-1.55.99-2.27,1.56-.47.37-.42,1.23,0,1.61.5.46,1.11.39,1.61,0h0Z"/>
  <path class="cls-1" d="m178.64,102.27c2.14-1.53,4.4-2.92,6.8-4.02.14-.06.27-.12.41-.18.05-.02.11-.05.16-.07.19-.08,0,0-.03.01.26-.12.53-.22.8-.32.49-.19,1-.36,1.5-.51.47-.14.94-.26,1.42-.35.21-.04.41-.08.62-.11.04,0,.09-.01.14-.02-.32.06-.15.02-.07.01.12-.01.24-.03.36-.04.39-.03.79-.05,1.19-.03.18,0,.35.02.53.04.21.02-.25-.04-.1-.01.05,0,.09.01.14.02.09.02.18.03.27.05.17.04.33.08.49.13.08.02.15.05.22.08.04.01.08.03.12.05.22.08-.19-.09-.08-.03.14.07.29.14.43.22s.27.21.42.28c0,0-.24-.2-.11-.09.02.02.05.04.08.06.06.05.13.11.19.17.12.12.23.24.34.37s-.08-.11-.08-.11c.02.04.05.07.08.1.05.06.09.13.13.19.1.15.18.31.26.47.06.12.09.34-.02-.07,0,0,0,.01,0,.02.01.04.03.08.04.13.05.17.09.35.12.52.05.3-.02-.18,0-.06,0,.07.01.14.02.21.01.17.02.34,0,.5,0,.08-.01.17-.02.25,0,.12-.08.2.02-.1-.02.05-.02.11-.03.16-.04.19-.09.39-.15.57-.02.05-.03.09-.05.14-.07.19.12-.25.02-.05-.05.1-.09.19-.14.28-.06.12-.13.23-.21.34-.03.04-.05.07-.08.11-.14.2.17-.2,0,0-.19.21-.38.42-.6.6-.02.02-.12.11-.13.11.11-.08.13-.1.06-.05-.04.03-.07.05-.11.08-.15.11-.31.21-.46.3-.51.31-.74,1.04-.41,1.56s1.01.74,1.56.41c1.82-1.1,3.1-2.95,2.98-5.13-.07-1.26-.52-2.35-1.39-3.29-1.17-1.27-2.92-1.79-4.61-1.81-2.06-.03-4.11.56-6,1.32-2.93,1.18-5.65,2.8-8.21,4.62-.48.34-.76,1.01-.41,1.56.31.48,1.04.78,1.56.41h0Z"/>
  <path class="cls-1" d="m182.47,108.2c1.33-.92,2.71-1.77,4.16-2.48.32-.16.65-.32.98-.45-.03.01-.23.09-.03.01.08-.03.16-.06.24-.1.18-.07.36-.14.54-.21.55-.2,1.11-.37,1.67-.5.24-.06.49-.11.74-.15.06-.01.13-.02.19-.03-.35.07-.13.02-.05,0,.14-.02.29-.03.43-.04.21-.01.42-.02.63-.01.1,0,.2,0,.3.02.04,0,.09,0,.13.01.2.02-.33-.06-.05,0,.18.03.35.07.52.12.09.03.17.06.26.09.18.06-.28-.13-.11-.05.05.02.09.04.14.07.07.04.14.07.21.12.11.07.3.27.01,0,.12.11.24.22.36.34.17.18-.18-.26,0,0,.04.06.07.12.11.18.06.12.12.38.01,0,.02.08.06.17.09.25s.05.18.07.27c0,.05.02.09.03.14.04.2-.01-.31-.01-.11,0,.16.06.31.06.46,0-.44-.02-.23-.02-.05,0,.06,0,.12,0,.18,0,.16.06-.31.03-.18-.01.04-.01.09-.02.13-.02.08-.04.16-.07.24-.08.25.14-.27,0,0-.04.09-.1.17-.15.25-.06.1-.17.13.04-.05-.06.05-.11.13-.16.18-.08.08-.16.15-.25.23-.19.17.22-.14,0,0-.07.04-.13.09-.2.13-.15.09-.31.18-.47.25-.02.01-.17.08-.18.08.15-.06.18-.07.08-.04-.03.01-.07.03-.1.04-.45.19-.91.38-1.36.57-1.08.46-2.17.92-3.25,1.38-.88.38-1.76.76-2.64,1.13-.35.15-.88.28-1.15.58-.18.2-.33.42-.5.63-.38.48-.77.97-1.16,1.45-2.48,3.07-5.02,6.12-7.79,8.94-.6.61-1.21,1.21-1.86,1.77-.14.12-.28.24-.43.36-.06.05-.11.09-.17.14.34-.28.06-.04-.03.02-.59.43-1.23.81-1.9,1.12-.08.04-.17.08-.25.11-.04.02-.31.15-.06.03-.14.07-.3.12-.45.18-.33.12-.67.23-1.01.33-.56.16-1.13.28-1.71.37-.07.01-.14.02-.2.03-.25.04.28-.03.04,0-.1.01-.21.02-.31.04-.24.02-.49.04-.73.06-.31.02-.62.02-.92.02-.11,0-.23,0-.34-.02l.98.56c-.3-.61-.6-1.23-.9-1.84l-2.16-4.41-2.61-5.34-2.25-4.62c-.36-.74-.7-1.52-1.09-2.24,0-.01-.01-.02-.02-.03-.26-.54-1.07-.72-1.56-.41-.55.35-.69.98-.41,1.56.56,1.15,1.12,2.3,1.69,3.45l3.53,7.24c1.03,2.12,2.07,4.23,3.1,6.35.22.46.44.93.67,1.38s.69.61,1.17.63.99,0,1.48-.03c2.1-.16,4.17-.7,6.03-1.71,1.39-.75,2.58-1.8,3.7-2.9,2.33-2.29,4.46-4.79,6.55-7.3.83-1,1.66-2.01,2.47-3.03.24-.3.48-.6.72-.91.03-.04.29-.31.28-.35.02.05-.36.21-.18.16.05-.02.11-.05.16-.07.19-.08.38-.17.58-.25.67-.29,1.33-.57,2-.86.81-.35,1.63-.7,2.45-1.04.41-.18.83-.35,1.24-.52-.33.14,0,0,.07-.03.09-.04.18-.08.27-.11.19-.08.37-.16.56-.23.95-.4,1.91-.79,2.57-1.62.5-.62.83-1.36.82-2.17,0-.19-.05-.39-.07-.58,0,.03.05.39.02.15-.02-.15-.04-.3-.06-.45s-.06-.3-.11-.45c-.21-.66-.58-1.28-1.12-1.72-1.25-1.03-2.9-1.16-4.45-.95-2.11.28-4.12,1.13-5.98,2.13-1.13.61-2.22,1.29-3.28,2.02-.49.34-.76,1.01-.41,1.56.31.48,1.03.77,1.56.41h0Z"/>
  <path class="cls-1" d="m197.92,104.38c-.21.03-.43,0-.64-.02l.3.04c-.37-.05-.73-.15-1.07-.3l.27.11c-.35-.15-.68-.34-.98-.56-.18-.13.07.06.07.06,0,0-.13-.11-.14-.11-.09-.07-.17-.15-.25-.23-.19-.18-.36-.37-.53-.57-.18-.21-.54-.33-.8-.33-.28,0-.61.12-.8.33s-.35.5-.33.8.13.56.33.8c.79.95,1.84,1.7,3.03,2.05.38.11.79.17,1.18.2.12,0,.24.01.36,0,.31-.04.57-.1.8-.33.2-.2.35-.52.33-.8s-.11-.6-.33-.8c-.21-.19-.51-.37-.8-.33h0Z"/>
  <path class="cls-1" d="m157.52,107.83c.48.61.96,1.23,1.44,1.84l3.47,4.41,4.2,5.34c1.21,1.54,2.42,3.08,3.63,4.62.59.75,1.14,1.53,1.77,2.25,0,.01.02.02.03.03.37.47,1.23.42,1.61,0,.46-.5.39-1.11,0-1.61-.48-.61-.96-1.23-1.44-1.84-1.16-1.47-2.31-2.94-3.47-4.41-1.4-1.78-2.8-3.56-4.2-5.34-1.21-1.54-2.42-3.08-3.63-4.62-.59-.75-1.14-1.53-1.77-2.25,0-.01-.02-.02-.03-.03-.37-.47-1.23-.42-1.61,0-.46.5-.39,1.11,0,1.61h0Z"/>
  <path class="cls-1" d="m159.96,131.31c.58-.26,1.14-.58,1.68-.91,1.09-.68,2.13-1.47,2.87-2.53.34-.49.1-1.29-.41-1.56-.58-.31-1.19-.11-1.56.41-.05.08-.22.26.03-.03-.04.05-.09.11-.13.16-.09.11-.19.21-.29.31-.19.19-.4.38-.61.55-.03.03-.23.18-.06.05s-.03.02-.06.04c-.12.09-.24.17-.36.26-.22.15-.44.29-.66.43-.51.31-1.04.61-1.59.86-.24.11-.45.43-.52.68-.08.27-.04.64.11.88.36.56.98.67,1.56.41h0Z"/>
  <path class="cls-1" d="m158.89,136.93c2.32.44,4.7.65,7.05.77,4.97.26,10.02-.02,14.87-1.16,3.06-.72,6.06-1.81,8.78-3.38.52-.3.74-1.04.41-1.56s-1.01-.73-1.56-.41c-.6.35-1.22.67-1.85.97-.3.14-.6.28-.91.42-.05.02-.1.04-.15.07-.26.11.23-.09-.04.02-.18.07-.36.15-.54.22-1.26.5-2.56.91-3.87,1.25s-2.61.6-3.93.81c-.29.05-.58.09-.88.13s.26-.03-.01,0c-.08.01-.16.02-.24.03-.18.02-.37.05-.55.07-.62.07-1.25.13-1.87.18-4.02.31-8.08.19-12.07-.3-.18-.02-.35-.04-.53-.07s.34.05.16.02c-.04,0-.09-.01-.13-.02-.07-.01-.15-.02-.22-.03-.24-.03-.47-.07-.71-.11-.2-.03-.4-.07-.6-.1-.58-.11-1.26.16-1.4.79-.13.56.17,1.28.79,1.4h0Z"/>
  <path class="cls-1" d="m66.32,147.41c.48-.84.96-1.67,1.43-2.51,1.15-2.01,2.29-4.01,3.44-6.02,1.38-2.42,2.76-4.84,4.15-7.25l3.58-6.27c.58-1.02,1.19-2.03,1.75-3.06,0-.01.02-.03.02-.04.3-.52.14-1.27-.41-1.56s-1.24-.14-1.56.41c-.48.84-.96,1.67-1.43,2.51l-3.44,6.02c-1.38,2.42-2.76,4.84-4.15,7.25-1.19,2.09-2.39,4.18-3.58,6.27-.58,1.02-1.19,2.03-1.75,3.06,0,.01-.02.03-.02.04-.3.52-.14,1.27.41,1.56s1.24.14,1.56-.41h0Z"/>
  <path class="cls-1" d="m143.38,113.71c.47,3.06.94,6.13,1.41,9.19.75,4.91,1.5,9.82,2.26,14.72.17,1.12.34,2.24.51,3.36v-.6c-.13.39-.27.77-.42,1.15-.17.44-.35.89-.52,1.33-.06.14-.11.27-.17.41-.04.09-.21.49-.14.33.09-.21-.03.07-.04.11-.04.08-.07.17-.11.25-.07.16-.14.33-.21.49-1.57,3.6-3.38,7.1-5.39,10.48-2.75,4.64-5.81,8.94-9.32,12.94-4.04,4.62-8.62,8.76-13.75,12.1-5.7,3.71-12.01,6.37-18.68,7.73-7.47,1.53-15.26,1.4-22.72-.14-7.15-1.47-14-4.15-20.4-7.63-5.82-3.16-11.31-6.96-16.4-11.16-4.01-3.31-7.81-6.88-11.38-10.67-1.81-1.93-3.58-3.9-5.22-5.98-.06-.07-.11-.14-.17-.21-.12-.14.23.29.11.15v1.15c1.72-2.34,3.44-4.69,5.16-7.03,2.74-3.73,5.48-7.47,8.22-11.2.63-.86,1.26-1.71,1.89-2.57h-1.96c1.4,2.03,3.2,3.84,5.06,5.44,4.08,3.51,8.95,6.14,14.25,7.22,3.9.79,7.89.74,11.79-.01.6-.12.95-.84.79-1.4-.17-.63-.79-.91-1.4-.79-5.98,1.15-12.16.33-17.58-2.43-3.71-1.89-6.83-4.36-9.59-7.49-.22-.25-.44-.5-.65-.76-.09-.11-.18-.22-.27-.33-.1-.13-.28-.37-.05-.07-.13-.17-.26-.35-.39-.52-.51-.75-1.44-.71-1.96,0-1.72,2.34-3.44,4.69-5.16,7.03-2.74,3.73-5.48,7.47-8.22,11.2-.63.86-1.26,1.71-1.89,2.57-.21.29-.22.86,0,1.15,1.72,2.26,3.63,4.38,5.57,6.44,4.66,4.96,9.73,9.54,15.14,13.67,6.94,5.3,14.5,9.8,22.64,13,8.95,3.52,18.64,5.3,28.26,4.56,8.86-.68,17.44-3.46,25.02-8.11,6.61-4.06,12.4-9.38,17.3-15.37,4.04-4.93,7.54-10.3,10.49-15.95,1.66-3.18,3.18-6.45,4.43-9.81.08-.21.17-.42.23-.63.1-.39-.04-.92-.1-1.32-.37-2.4-.74-4.81-1.1-7.21-.93-6.06-1.86-12.13-2.79-18.19-.06-.4-.12-.79-.18-1.19-.09-.61-.86-.94-1.4-.79-.65.18-.89.79-.79,1.4h0Z"/>
  <path class="cls-1" d="m148.65,141.83c.33.01.66.05.99.08.18.02.36.04.54.06.05,0,.1.01.15.02.24.03-.29-.04-.15-.02.12.02.23.03.35.05.54.08,1.07.17,1.61.27,3.29.63,6.51,1.64,9.6,2.91.12.05.24.1.36.15.29.12-.21-.09.09.04.26.11.53.23.79.35.52.23,1.04.47,1.56.72,1.08.52,2.14,1.07,3.19,1.66,2.37,1.32,4.64,2.8,6.81,4.42.14.11.28.21.42.32.07.05.14.11.21.16.04.03.27.21.05.04.29.22.57.45.85.67.6.48,1.2.98,1.78,1.48,1.21,1.04,2.38,2.12,3.51,3.24,1.23,1.22,2.42,2.49,3.56,3.79.58.66,1.14,1.33,1.69,2.01.63.77,1.11,1.39,1.64,2.08,2.43,3.21,4.61,6.61,6.57,10.12.54.98,1.07,1.96,1.58,2.96.25.49.5.98.74,1.48.21.43.38.78.77,1.08.84.64,1.69,1.28,2.54,1.92l.73.56c.39.3,1.06.15,1.38-.18,2.78-2.87,5.55-5.74,8.31-8.62,2.18-2.27,4.35-4.54,6.51-6.82.92-.98,1.85-1.96,2.76-2.94.19-.2.37-.4.56-.6.14-.15.28-.3.43-.44.09-.08.18-.16.27-.24.06-.05.12-.1.18-.15-.08.06-.07.06.04-.02.17-.11.35-.23.53-.33.07-.04.15-.07.22-.11.17-.08-.25.08.03-.01.17-.06.34-.12.52-.16.08-.02.17-.03.26-.05-.32.06.05,0,.12,0,.17,0,.33,0,.49.01.28,0-.25-.05.02,0,.11.02.21.04.32.06.18.04.36.1.54.17.06.02.3.14.02,0,.07.03.15.07.22.1.33.16.64.36.94.57.06.04.12.09.19.14-.24-.18-.05-.04,0,.01.13.11.26.22.39.34.41.37.79.78,1.14,1.21.11.14.2.28.02.02.04.06.08.11.13.17.04.05.08.11.11.16l.18-1.38c-1.07,1.3-2.15,2.61-3.22,3.91-2.58,3.13-5.16,6.26-7.73,9.39-3.1,3.76-6.2,7.53-9.3,11.29-2.69,3.27-5.38,6.54-8.08,9.81l-2.63,3.2c-.42.51-.87,1.01-1.27,1.54-.02.02-.04.05-.06.07h1.61c-3.15-2.47-6.29-4.93-9.44-7.4-.44-.34-.88-.69-1.32-1.03-.48-.38-1.14-.47-1.61,0-.39.39-.49,1.23,0,1.61,3.15,2.47,6.29,4.93,9.44,7.4.44.34.88.69,1.32,1.03s1.18.52,1.61,0c1.07-1.3,2.15-2.61,3.22-3.91,2.58-3.13,5.16-6.26,7.73-9.39,3.1-3.76,6.2-7.53,9.3-11.29,2.69-3.27,5.38-6.54,8.08-9.81,1.3-1.58,2.61-3.15,3.9-4.74.02-.02.04-.05.06-.07.31-.37.47-.93.18-1.38-1.16-1.73-2.94-3.37-4.99-3.91-1.8-.47-3.52.09-4.93,1.24-.55.45-1.01,1-1.5,1.52s-.92.99-1.38,1.48c-4.23,4.5-8.52,8.95-12.8,13.39-1.08,1.12-2.16,2.23-3.24,3.35l1.38-.18c-1.11-.84-2.22-1.68-3.33-2.52l.41.41c-3.31-6.83-7.38-13.3-12.32-19.08-3.87-4.53-8.28-8.58-13.17-11.98-3.78-2.62-7.85-4.81-12.12-6.51-2.87-1.15-5.85-2.06-8.89-2.66-.99-.19-1.98-.35-2.97-.47-.41-.05-.84-.11-1.25-.11-.02,0-.03,0-.05,0-.61-.02-1.14.54-1.14,1.14,0,.63.52,1.12,1.14,1.14h0Z"/>
  <path class="cls-1" d="m124.26,177.8c.29-.07.59-.13.88-.19.35-.07.7-.13,1.05-.18.23-.04.46-.07.68-.1.12-.02.24-.03.36-.05.27-.04-.21.03-.08.01.08,0,.16-.02.23-.03,3.02-.39,6.06-.52,9.1-.45,2.07.05,4.15.19,6.21.42.27.03.54.06.81.1.12.02.25.03.37.05.06,0,.35.05.03,0,.08.01.17.02.25.03.59.08,1.19.17,1.78.27,1.21.2,2.41.43,3.61.7,2.63.58,5.23,1.31,7.78,2.19,1.36.47,2.7.98,4.03,1.52.08.03.17.07.25.1.05.02.26.11.08.03.17.07.33.14.5.21.37.16.74.32,1.1.49.68.31,1.35.62,2.02.95,6.2,3.04,11.91,6.94,17.04,11.47.7.62,1.39,1.25,2.07,1.89.42.4,1.2.48,1.61,0,1.49-1.75,2.99-3.5,4.48-5.24,2.38-2.78,4.75-5.56,7.13-8.35.54-.63,1.08-1.27,1.63-1.9.4-.47.46-1.15,0-1.61-.41-.41-1.21-.47-1.61,0-1.49,1.75-2.99,3.5-4.48,5.24l-7.13,8.35c-.54.63-1.08,1.27-1.63,1.9h1.61c-5.23-4.93-11.07-9.24-17.43-12.62-5.22-2.78-10.79-4.94-16.53-6.37-4.61-1.15-9.34-1.84-14.08-2.05-3.27-.15-6.55-.06-9.8.3-1.48.17-3.02.32-4.46.71-.02,0-.04,0-.06.01-.6.15-.95.82-.79,1.4s.8.94,1.4.79h0Z"/>
  <path class="cls-1" d="m100.36,155.09c-1.81-.51-3.59-1.14-5.33-1.86-.03-.01-.13-.04-.14-.06.04.06.21.09.07.03-.11-.05-.23-.1-.34-.15-.23-.1-.46-.2-.69-.3-.46-.21-.92-.42-1.38-.65-.92-.45-1.83-.92-2.72-1.42-1.92-1.07-3.78-2.25-5.58-3.51-.49-.34-.98-.7-1.46-1.05-.22-.16-.44-.33-.66-.5-.12-.09-.25-.19-.37-.28-.06-.05-.12-.09-.19-.14-.04-.03-.07-.06-.11-.09.09.07.11.08.04.03-1-.79-2-1.59-2.97-2.41-2.38-2.02-4.66-4.16-6.86-6.38-.42-.42-1.19-.45-1.61,0s-.45,1.16,0,1.61c3.81,3.85,7.87,7.46,12.27,10.63,3.5,2.52,7.24,4.74,11.2,6.45,2.03.87,4.1,1.63,6.22,2.24.57.16,1.26-.2,1.4-.79s-.18-1.23-.79-1.4h0Z"/>
  <path class="cls-1" d="m185.78,178.06c-1.12-1.64-2.4-3.19-3.69-4.7-2.94-3.44-6.18-6.64-9.69-9.48-4.47-3.62-9.4-6.69-14.82-8.66-2.82-1.03-5.76-1.71-8.75-2-1.52-.15-3.05-.19-4.58-.11-1.89.1-3.76.41-5.63.72-8.62,1.41-17.08,3.17-25.84,3.02-1.01-.02-2.02-.06-3.04-.13-.6-.04-1.16.55-1.14,1.14.03.65.5,1.09,1.14,1.14,8.65.61,17.26-.92,25.76-2.35,2.16-.36,4.32-.76,6.5-1.06-.27.04.05,0,.09-.01.1-.01.2-.02.3-.04.16-.02.33-.04.49-.05.42-.04.84-.07,1.27-.1.74-.04,1.48-.05,2.22-.04s1.52.06,2.27.13c.34.03.69.07,1.03.11.05,0,.36.05.07,0,.09.01.19.03.28.04.22.03.43.06.65.1,1.43.24,2.84.57,4.23.98.7.21,1.4.44,2.09.69.31.11.63.23.94.35.17.07.34.13.51.2.07.03.14.06.21.09.28.11-.11-.05.1.04,1.33.57,2.62,1.2,3.89,1.89,2.4,1.31,4.7,2.83,6.88,4.48.07.05.13.1.2.15.04.03.27.21.04.03.13.1.27.21.4.31.26.21.52.41.78.62.51.41,1.01.83,1.5,1.26.93.8,1.83,1.62,2.71,2.47,1.55,1.48,3.04,3.03,4.46,4.63,1.03,1.17,2.03,2.36,2.99,3.59.05.06.09.12.14.18-.28-.35-.1-.13-.04-.05.08.11.17.22.25.32.13.17.25.34.38.51.15.21.3.42.46.63.02.03.04.05.05.08.35.51,1,.73,1.56.41.5-.29.76-1.05.41-1.56h0Z"/>
  <path class="cls-1" d="m112.21,148.84c-.82,2.01-1.63,4.02-2.45,6.03-1.29,3.18-2.58,6.36-3.87,9.53-.3.73-.59,1.46-.89,2.19l1.4-.79c-1.1-.22-2.2-.44-3.29-.65-1.75-.35-3.5-.7-5.26-1.04-.41-.08-.81-.16-1.22-.24l.68,1.67c.8-1.84,1.59-3.68,2.39-5.52,1.26-2.91,2.52-5.83,3.79-8.74.29-.67.58-1.35.87-2.02.24-.54.18-1.25-.41-1.56-.49-.26-1.3-.17-1.56.41-.8,1.84-1.59,3.68-2.39,5.52l-3.79,8.74c-.29.67-.58,1.35-.87,2.02-.15.35-.21.65-.06,1.01.13.31.4.59.74.66,1.1.22,2.2.44,3.29.65l5.26,1.04c.41.08.81.16,1.22.24.66.13,1.15-.19,1.4-.79.82-2.01,1.63-4.02,2.45-6.03,1.29-3.18,2.58-6.36,3.87-9.53.3-.73.59-1.46.89-2.19.22-.55-.24-1.27-.79-1.4-.66-.15-1.16.2-1.4.79h0Z"/>
  <path class="cls-1" d="m29.7,160.93c.47-.75.94-1.5,1.41-2.26,1.12-1.8,2.24-3.6,3.36-5.39l4.08-6.55,3.51-5.64c.57-.91,1.17-1.81,1.71-2.74,0-.01.02-.03.02-.04.32-.51.12-1.28-.41-1.56s-1.22-.13-1.56.41c-.47.75-.94,1.5-1.41,2.26l-3.36,5.39-4.08,6.55-3.51,5.64c-.57.91-1.17,1.81-1.71,2.74,0,.01-.02.03-.02.04-.32.51-.12,1.28.41,1.56s1.22.13,1.56-.41h0Z"/>
  <path class="cls-1" d="m76.56,167.74c-1.08.03-2.17.02-3.25-.04-.53-.03-1.07-.07-1.6-.12-.26-.03-.52-.05-.77-.08-.12-.01-.24-.03-.36-.04-.07,0-.14-.02-.2-.03.18.03.13.02-.02,0-2.06-.29-4.09-.74-6.09-1.33-.99-.29-1.96-.61-2.93-.96-.48-.17-.95-.35-1.42-.54-.22-.09-.43-.17-.65-.26-.12-.05-.24-.09-.36-.15.02.01.24.1.06.02-.07-.03-.14-.06-.21-.09-1.8-.77-3.56-1.64-5.28-2.59-3.07-1.69-6-3.63-8.78-5.74-.15-.12-.3-.23-.45-.35-.12-.09.24.18.07.05-.03-.02-.06-.05-.09-.07-.09-.07-.18-.14-.28-.22-.28-.22-.57-.45-.85-.68-.54-.44-1.07-.88-1.6-1.33-.88-.75-1.74-1.51-2.58-2.3s-1.66-1.63-2.48-2.45c-.01-.01-.02-.02-.03-.03-.4-.44-1.21-.44-1.61,0-.43.47-.43,1.14,0,1.61.65.71,1.34,1.38,2.04,2.05,1.79,1.71,3.68,3.32,5.63,4.85,2.79,2.18,5.71,4.2,8.78,5.97,3.49,2.01,7.18,3.72,11.01,4.97,4.1,1.34,8.4,2.13,12.71,2.18.53,0,1.06,0,1.59-.02.59-.02,1.17-.51,1.14-1.14s-.5-1.16-1.14-1.14h0Z"/>
  <path class="cls-1" d="m94.42,154.05c-.81,1.63-1.87,3.17-2.97,4.62-.03.04-.06.08-.09.12-.13.17.18-.23.05-.06-.05.07-.11.14-.16.21-.14.18-.28.35-.43.53-.28.34-.57.68-.87,1.01-.63.71-1.3,1.39-1.99,2.03-.36.33-.72.65-1.1.96-.18.15-.37.3-.55.45s.22-.16.02-.02c-.05.04-.1.08-.16.12-.1.08-.21.16-.32.23-.84.61-1.73,1.17-2.65,1.65-.26.14-.52.27-.79.39-.13.06-.27.12-.4.18-.05.02-.11.04-.16.07.32-.16.03-.01-.05.02-.56.23-1.13.42-1.71.59s-1.19.31-1.8.41c-.16.03-.34.04-.5.08.32-.07.09-.01.01,0-.07,0-.15.02-.22.02-.34.04-.69.06-1.03.08-.59.03-1.17.51-1.14,1.14.03.59.5,1.17,1.14,1.14,4.65-.2,8.87-2.29,12.34-5.3,2.56-2.21,4.73-4.91,6.5-7.78.35-.56.69-1.14.98-1.73.26-.53.16-1.26-.41-1.56-.51-.27-1.28-.16-1.56.41h0Z"/>
  <path class="cls-1" d="m178.15,190.42c.48-.69.95-1.39,1.43-2.08l3.45-5.02c1.39-2.02,2.77-4.03,4.16-6.05,1.2-1.74,2.4-3.49,3.6-5.23.58-.85,1.21-1.68,1.75-2.55,0-.01.02-.02.02-.04.34-.49.11-1.28-.41-1.56-.58-.31-1.2-.12-1.56.41-.48.69-.95,1.39-1.43,2.08-1.15,1.67-2.3,3.35-3.45,5.02-1.39,2.02-2.77,4.03-4.16,6.05-1.2,1.74-2.4,3.49-3.6,5.23-.58.85-1.21,1.68-1.75,2.55,0,.01-.02.02-.02.04-.34.49-.11,1.28.41,1.56.58.31,1.2.12,1.56-.41h0Z"/>
</svg>