<?xml version="1.0" encoding="UTF-8"?>
<svg id="Capa_1" data-name="Capa 1" xmlns="http://www.w3.org/2000/svg" viewBox="0 0 210.61 170.16">
  <defs>
    <style>
      .cls-1 {
        fill: #fffffb;
      }
    </style>
  </defs>
  <path class="cls-1" d="m140.61,170.16h-70.61c-5.28,0-10.46-1.82-14.58-5.14L8.68,127.43c-5.52-4.44-8.68-11.05-8.68-18.13v-48.45c0-7.08,3.16-13.69,8.68-18.13L55.43,5.14c4.12-3.31,9.29-5.14,14.58-5.14h70.61c5.28,0,10.46,1.82,14.58,5.13l46.74,37.59c5.52,4.44,8.68,11.05,8.68,18.13v48.45c0,7.08-3.16,13.69-8.68,18.13l-46.74,37.59c-4.12,3.31-9.29,5.14-14.58,5.14ZM70,3.96c-4.38,0-8.68,1.51-12.1,4.26L11.17,45.81c-4.58,3.68-7.21,9.16-7.21,15.04v48.45c0,5.88,2.63,11.36,7.21,15.04l46.74,37.59c3.42,2.75,7.71,4.26,12.1,4.26h70.61c4.38,0,8.68-1.51,12.1-4.26l46.74-37.59c4.58-3.68,7.21-9.16,7.21-15.04v-48.45c0-5.88-2.63-11.36-7.21-15.04l-46.74-37.59c-3.42-2.75-7.71-4.26-12.1-4.26h-70.61Z"/>
  <g>
    <g>
      <path class="cls-1" d="m43.71,91.36v5.93c0,.97.8,1.78,1.78,1.78h10.8c.13,0,.26-.02.39-.04-.55-3.81-2.52-7.16-5.36-9.49h-5.83c-.97,0-1.78.8-1.78,1.82Z"/>
      <path class="cls-1" d="m56.77,102.52c-.15-.04-.31-.07-.48-.07h-10.8c-.97,0-1.78.8-1.78,1.78v6.78c0,.97.8,1.78,1.78,1.78h5.88c3.02-2.5,5.04-6.14,5.4-10.27Z"/>
      <path class="cls-1" d="m39.33,104.49c0-1.14-.89-2.03-2.03-2.03h-10.53c.58,6.91,5.82,12.49,12.56,13.59v-11.55Z"/>
      <path class="cls-1" d="m37.34,99.07c1.1,0,1.99-.89,1.99-1.99v-10.75c-6.47,1.06-11.55,6.23-12.46,12.74h10.47Z"/>
    </g>
    <g>
      <path class="cls-1" d="m81.1,102.51c-.39-.44-.98-.86-1.41-1.14-.39-.25-.6-.63-.6-1.08,0-.34.13-.67.36-.9.32-.29.61-.62.86-.98.73-1.09,1.09-2.42,1.09-3.95,0-1.4-.33-2.63-.99-3.66-.7-.99-1.48-1.74-2.35-2.27-.46-.29-1-.5-1.62-.63-.6-.13-1.26-.24-1.88-.31l-1.99-.11h-12.02v27.68h13.38c1.38,0,2.62-.24,3.68-.71,1.04-.42,1.93-1.01,2.72-1.81.67-.71,1.21-1.55,1.64-2.61.37-1.02.56-2.03.56-2.99,0-1.72-.47-3.24-1.41-4.5l-.02-.03Zm-5.89-3.51h-9.66c-.63,0-1.17-.53-1.17-1.17v-5.31c0-.67.52-1.21,1.17-1.21h9.66c.64,0,1.17.54,1.17,1.21v5.31c0,.63-.54,1.17-1.17,1.17Zm-10.83,5.05c0-.63.54-1.17,1.17-1.17h9.66c.63,0,1.17.53,1.17,1.17v6.06c0,.63-.54,1.17-1.17,1.17h-9.66c-.63,0-1.17-.53-1.17-1.17v-6.06Z"/>
      <path class="cls-1" d="m94.52,87.48l-10.75,27.68h4.55l2.68-7.17c.2-.55.71-.9,1.31-.9h8.79c.59,0,1.11.35,1.31.9l2.6,7.18h4.86l-10.83-27.68h-4.52Zm2.22,6.99c.29,0,.8.09,1.04.7l2.24,6.27c.05.11.05.25.05.41,0,.67-.49,1.36-1.32,1.36h-4.43c-.6,0-1.09-.49-1.09-1.09,0-.1.03-.24.09-.38l2.43-6.6c.17-.49.65-.67,1-.67Z"/>
      <path class="cls-1" d="m115.88,110.15v-6.14c0-.62.52-1.13,1.17-1.13h12.78v-3.88h-12.78c-.64,0-1.17-.51-1.17-1.13v-5.38c0-.63.54-1.17,1.17-1.17h13.8v-3.84h-19.38v27.68h19.49v-3.88h-13.91c-.64,0-1.17-.51-1.17-1.13Z"/>
      <path class="cls-1" d="m151.91,104.46c0,.74-.57,1.13-1.13,1.13-.28,0-.66-.13-.9-.49l-11.53-17.63h-4.44v27.68h4.26v-16.64c0-.77.59-1.17,1.17-1.17.36,0,.7.2.93.53l11.31,17.28h4.56v-27.68h-4.22v16.98Z"/>
      <path class="cls-1" d="m173.01,87.48h-4.52l-10.75,27.68h4.55l2.68-7.17c.2-.55.71-.9,1.31-.9h8.79c.59,0,1.11.35,1.31.9l2.6,7.18h4.86l-10.83-27.68Zm-2.3,6.99c.29,0,.8.09,1.04.7l2.24,6.27c.05.11.05.25.05.41,0,.67-.49,1.36-1.32,1.36h-4.43c-.6,0-1.09-.49-1.09-1.09,0-.1.03-.24.09-.38l2.43-6.6c.17-.49.65-.67,1-.67Z"/>
    </g>
    <g>
      <path class="cls-1" d="m45.24,64.73c0,.75-.61,1.36-1.36,1.36h-10.54c-.75,0-1.36-.61-1.36-1.36v-10.16h-4.45v27.68h4.45v-10.88c0-.8.6-1.4,1.4-1.4h10.46c.8,0,1.4.6,1.4,1.4v10.88h4.45v-27.68h-4.45v10.16Z"/>
      <rect class="cls-1" x="52.63" y="54.57" width="4.41" height="27.68"/>
      <path class="cls-1" d="m79.47,78.37h-13.91c-.64,0-1.17-.51-1.17-1.13v-6.14c0-.62.52-1.13,1.17-1.13h12.78v-3.88h-12.78c-.64,0-1.17-.51-1.17-1.13v-5.38c0-.63.54-1.17,1.17-1.17h13.8v-3.84h-19.38v27.68h19.49v-3.88Z"/>
      <path class="cls-1" d="m86.86,72.24c0-.83.63-1.47,1.43-1.47h6.86c.76,0,1.4.13,1.9.37.48.24.84.54,1.14.93.29.4.52.89.65,1.37.14.56.25,1.14.37,1.83.12.69.18,1.34.18,1.96v.21c.05.6.08,1.13.08,1.66v.03c.04.6.12,1.16.19,1.63.1.63.36,1.04.57,1.33l.13.17h5.09l-.58-.69c-.32-.38-.57-.85-.75-1.41-.21-.67-.34-1.24-.4-1.8-.13-.76-.18-1.36-.18-1.96l-.12-2.03c-.08-.64-.19-1.27-.35-1.89-.12-.62-.34-1.2-.69-1.75-.3-.55-.72-1.02-1.26-1.39l-.47-.36c-.1-.07-.15-.16-.15-.25,0-.14.12-.24.18-.28.63-.39,1.76-1.16,2.18-1.92.8-1.28,1.2-2.79,1.2-4.51,0-2.26-.77-4.1-2.31-5.47-1.5-1.3-3.62-1.96-6.3-1.96h-13.04v27.68h4.45v-10.01Zm-.08-12.54c0-.71.56-1.28,1.24-1.28h10.35c.69,0,1.24.58,1.24,1.28v5.95c0,.71-.56,1.28-1.24,1.28h-10.35c-.69,0-1.24-.58-1.24-1.28v-5.95Z"/>
      <path class="cls-1" d="m112.37,72.24c0-.83.63-1.47,1.43-1.47h6.86c.76,0,1.4.13,1.9.37.48.24.84.54,1.14.93.29.4.52.89.65,1.37.14.57.25,1.14.37,1.83.12.69.18,1.34.18,1.96v.21c.05.61.08,1.13.08,1.66v.03c.04.6.12,1.16.19,1.63.1.63.36,1.04.57,1.33l.13.17h5.09l-.58-.69c-.32-.38-.57-.85-.75-1.41-.21-.67-.34-1.24-.4-1.8-.13-.76-.18-1.36-.18-1.96l-.12-2.03c-.08-.64-.19-1.27-.35-1.89-.12-.62-.34-1.2-.69-1.75-.3-.55-.72-1.02-1.26-1.39l-.47-.36c-.1-.07-.15-.16-.15-.25,0-.14.12-.24.18-.28.63-.39,1.76-1.16,2.18-1.92.8-1.28,1.2-2.79,1.2-4.51,0-2.26-.77-4.1-2.31-5.47-1.5-1.3-3.62-1.96-6.3-1.96h-13.04v27.68h4.45v-10.01Zm-.08-12.54c0-.71.56-1.28,1.24-1.28h10.35c.69,0,1.24.58,1.24,1.28v5.95c0,.71-.56,1.28-1.24,1.28h-10.35c-.69,0-1.24-.58-1.24-1.28v-5.95Z"/>
      <path class="cls-1" d="m164.89,80.68c1.02.79,2.26,1.39,3.67,1.78,1.36.39,2.82.58,4.36.58,1.27,0,2.52-.15,3.8-.46,1.17-.25,2.31-.71,3.52-1.42,1.05-.69,1.93-1.57,2.6-2.64.67-1.13,1.01-2.44,1.01-3.89,0-1.34-.26-2.52-.77-3.51-.5-.89-1.21-1.66-2.09-2.3-.89-.64-1.89-1.13-2.88-1.42-.99-.33-2.06-.64-3.18-.92h-.07c-.96-.19-7.44-1.72-8.18-2.44v-4.84c0-.72.5-1.28,1.13-1.28h9.55c.61,0,1.13.59,1.13,1.28v4.25h4.23v-.43c-.05-1.46-.33-2.77-.89-4.01-.58-1.16-1.32-2.07-2.23-2.75-.88-.73-1.93-1.26-3.22-1.63-1.23-.35-2.5-.51-3.98-.51-1.27,0-2.5.16-3.68.47-1.27.37-2.31.84-3.27,1.5-.97.69-1.73,1.54-2.33,2.61-.56,1.04-.85,2.28-.85,3.69s.26,2.44.78,3.29c.52.87,1.21,1.58,2.11,2.15.86.53,1.82.96,2.82,1.25.92.31,1.97.58,3.19.85.38.08.76.17,1.14.25.66.15,1.33.3,1.99.42.04.01.1.03.2.06,4.28,1.27,4.86,1.91,4.94,2.03v5.23c0,.71-.63,1.28-1.4,1.28h-11.03c-.78,0-1.4-.56-1.4-1.28v-5.16h-4.18v.42c0,1.66.31,3.14.92,4.4.62,1.24,1.45,2.25,2.55,3.1Z"/>
      <path class="cls-1" d="m160.12,68.65c0-7.96-6.38-14.42-14.24-14.42s-14.24,6.46-14.24,14.42,6.38,14.42,14.24,14.42,14.24-6.46,14.24-14.42Zm-18.39,10.22c-1.04,0-2-.56-2.53-1.48l-4.15-7.27c-.52-.91-.52-2.04,0-2.95l4.15-7.27c.52-.91,1.48-1.48,2.53-1.48h8.29c1.04,0,2,.56,2.53,1.48l4.15,7.27c.52.91.52,2.04,0,2.95l-4.15,7.27c-.52.91-1.48,1.48-2.53,1.48h-8.29Z"/>
    </g>
  </g>
</svg>