<?xml version="1.0" encoding="UTF-8"?>
<svg id="Capa_1" data-name="Capa 1" xmlns="http://www.w3.org/2000/svg" viewBox="0 0 249.17 231.24">
  <defs>
    <style>
      .cls-1 {
        fill: #b1c7e8;
      }
    </style>
  </defs>
  <path class="cls-1" d="m148.04,23.84c-.05.08-.11.15-.16.23-.07.09-.13.18-.2.27-.04.05-.08.11-.12.16-.09.12-.23.29.01-.02-.59.75-1.2,1.47-1.86,2.16-.95,1.01-1.96,1.96-3.02,2.84-.14.12-.29.24-.43.35-.07.06-.15.12-.22.18-.04.03-.11.07-.14.11.05-.08.18-.14.03-.02-.32.25-.65.49-.98.72-.72.51-1.47.99-2.23,1.43-.91.53-1.85,1.01-2.82,1.43-.05.02-.1.05-.16.07-.03.01-.26.11-.1.04.15-.06-.03.01-.06.03-.07.03-.13.05-.2.08-.26.1-.52.2-.78.3-.55.2-1.1.38-1.66.54s-.99.81-.79,1.4.79.97,1.4.79c3.75-1.09,7.17-2.99,10.22-5.41,1.94-1.54,3.73-3.3,5.27-5.24.34-.42.68-.85.98-1.31.33-.5.11-1.28-.41-1.56-.57-.3-1.2-.12-1.56.41h0Z"/>
  <path class="cls-1" d="m143.42,20.87c-.13.21-.27.41-.41.61-.07.1-.14.19-.21.29-.04.05-.08.11-.12.16-.19.25.15-.19-.01.02-.22.28-.44.55-.67.81-.59.68-1.21,1.31-1.88,1.91-.17.15-.35.3-.53.45-.05.04-.23.23-.28.22.03,0,.18-.14.05-.04-.08.06-.15.12-.23.17-.42.31-.85.59-1.3.85-.26.15-.53.3-.8.43-.14.07-.28.13-.42.2-.04.02-.1.05-.14.06.29-.07-.02,0-.09.04-.59.23-1.19.41-1.8.53-.57.12-.95.82-.77,1.36.2.6.75.9,1.36.77,3.99-.81,7.29-3.74,9.63-6.94.18-.25.37-.51.53-.77.31-.49.12-1.24-.4-1.52s-1.19-.13-1.52.4h0Z"/>
  <path class="cls-1" d="m190.5,15.37c-1.67,1.03-3.39,1.98-5.17,2.83-.41.2-.83.39-1.24.58-.2.09-.39.17-.59.26-.09.04-.18.08-.27.12-.12.05.03-.01.05-.02-.08.03-.15.06-.23.09-.79.33-1.59.63-2.4.92-2.85,1.01-5.79,1.75-8.78,2.17-.09.01-.17.02-.26.04-.13.02.13-.02.12-.02-.04,0-.07,0-.11.01-.17.02-.34.04-.5.06-.32.04-.63.07-.95.1-.6.06-1.21.1-1.81.13-1.09.06-2.18.07-3.27.04-.9-.03-1.8-.09-2.7-.18-.19-.02-.38-.04-.57-.07-.09-.01-.17-.02-.26-.03-.17-.02.31.04.15.02-.05,0-.1-.01-.15-.02-.31-.04-.63-.09-.94-.15-.66-.12-1.31-.27-1.96-.44,0,0-.02,0-.03,0-.57-.18-1.27.21-1.4.79-.14.62.19,1.21.79,1.4.53.16,1.07.27,1.61.38,1.57.3,3.17.48,4.77.55,2.28.11,4.57.02,6.84-.26,3.02-.36,6-1.01,8.9-1.96,3.56-1.16,6.99-2.72,10.23-4.61.44-.25.87-.51,1.3-.78.51-.31.75-1.03.41-1.56s-1.01-.74-1.56-.41h0Z"/>
  <path class="cls-1" d="m161.93,19.42c1.92.34,3.88.5,5.82.6,4.61.25,9.23.05,13.81-.59,3.18-.44,6.33-1.12,9.4-2.06.57-.17.99-.8.79-1.4s-.79-.98-1.4-.79c-2.74.84-5.55,1.47-8.38,1.91-.31.05-.61.09-.92.14-.1.01-.2.03-.3.04.04,0,.22-.03,0,0-.18.02-.37.05-.55.07-.64.08-1.27.15-1.91.21-1.22.11-2.44.2-3.66.25-3.5.14-7.03.05-10.52-.35-.26-.03-.53-.06-.79-.1s.32.04.11.01c-.05,0-.1-.01-.15-.02-.09-.01-.17-.02-.26-.04-.16-.02-.32-.05-.48-.08-.58-.1-1.25.16-1.4.79-.13.56.17,1.29.79,1.4h0Z"/>
  <g>
    <ellipse class="cls-1" cx="169.32" cy="46.73" rx="3.41" ry="2.55" transform="translate(77.69 196.6) rotate(-73.99)"/>
    <ellipse class="cls-1" cx="147.71" cy="43.67" rx="3.41" ry="2.55" transform="translate(64.99 173.6) rotate(-73.99)"/>
    <path class="cls-1" d="m162,39.78c-.21,1.09-.42,2.19-.63,3.28l-1,5.2c-.08.4-.15.8-.23,1.2s-.03.84.29,1.11c.94.8,1.88,1.59,2.82,2.39l4.5,3.82.76.64c.07.06.14.12.2.17.13.11.04.11-.07-.11l-.11-.88-.02.05.79-.79c.23-.08.32-.01.14-.02-.1,0-.19,0-.29-.01l-1.03-.05-3.4-.16c-2.55-.12-5.1-.24-7.65-.36-.58-.03-1.17-.06-1.75-.08s-1.16.54-1.14,1.14c.03.64.5,1.11,1.14,1.14,1.35.06,2.7.13,4.05.19l7.18.34,2.42.11c.17,0,.35.03.52.02.39,0,.76-.16,1-.47.38-.49.34-1.2-.12-1.62s-.91-.77-1.37-1.16l-2.64-2.24c-1.42-1.2-2.81-2.45-4.26-3.61-.03-.02-.05-.04-.08-.07l.29,1.11c.21-1.09.42-2.19.63-3.28l1-5.2c.08-.4.15-.8.23-1.2.11-.58-.16-1.26-.79-1.4-.56-.13-1.28.17-1.4.79h0Z"/>
    <g>
      <path class="cls-1" d="m141.98,54.88c-.12-.38.36-.64.68-.36,2.41,2.09,8.32,6.85,13,7.68s8.52-.53,9.86-1.15c.15-.07.3.09.22.22-1.46,2.12-7.63,10.4-13.48,8.53-5.43-1.74-9.08-11.34-10.27-14.92Z"/>
      <path class="cls-1" d="m143.07,54.57c.09.38-.16.84-.54.94-.11.03-.25.03-.36,0-.03,0-.27-.1-.29-.16.02.09.28.24.35.3.25.22.51.43.76.64.66.54,1.34,1.07,2.02,1.59,1.48,1.13,3.01,2.18,4.63,3.11s3.33,1.75,5.14,2.18c2.18.52,4.46.53,6.67.21.91-.13,1.82-.33,2.7-.61.33-.1.66-.22.99-.34.12-.05.25-.1.37-.15.14-.06.28-.12.42-.18.02,0,.04-.02.07-.03.1-.04.16,0-.1.06h-.6l-.15-.06-.41-.41-.07-.16v-.6c.02-.06.14-.25.03-.12-.02.02-.04.05-.05.08-.05.07-.09.13-.14.2-.1.15-.21.29-.32.44-.12.17-.25.34-.38.5-.12.16-.04.05.04-.05-.03.04-.06.08-.1.12-.08.1-.16.2-.24.3-.72.9-1.48,1.76-2.29,2.57-.45.45-.91.88-1.39,1.29-.12.1-.24.2-.35.3-.06.05-.11.09-.17.13-.04.03-.07.06-.11.09-.12.09.02-.02.06-.05-.27.14-.52.39-.77.56-.52.35-1.06.68-1.62.95-.13.06-.27.13-.4.19-.18.08.25-.1,0,0-.07.03-.15.06-.22.08-.28.1-.56.19-.85.27-.14.04-.28.07-.41.09-.07.01-.15.03-.22.04-.25.05.2-.02.01,0-.29.03-.58.05-.87.04-.14,0-.28-.01-.42-.02-.04,0-.32-.04-.11,0s-.06-.01-.11-.02c-.3-.05-.59-.13-.88-.23-.06-.02-.11-.04-.17-.06-.04-.02-.28-.11-.08-.03s-.01,0-.05-.03c-.07-.03-.14-.07-.22-.1-.25-.12-.48-.26-.71-.41-.11-.07-.23-.15-.34-.23-.05-.04-.1-.07-.15-.11-.2-.15.17.14-.02-.02-.23-.18-.45-.37-.66-.57-.45-.42-.86-.86-1.25-1.33-.1-.12-.19-.23-.29-.35-.06-.08-.15-.27-.02-.02-.04-.07-.1-.13-.15-.2-.19-.26-.38-.52-.56-.79-.73-1.08-1.38-2.21-1.97-3.37-.29-.57-.57-1.15-.83-1.74-.12-.28-.25-.55-.37-.83-.03-.06-.05-.12-.08-.18-.08-.18.11.25,0,0-.06-.14-.11-.27-.17-.41-.37-.91-.72-1.83-1.04-2.75-.06-.18-.12-.36-.18-.54-.19-.56-.79-.99-1.4-.79-.56.18-1,.79-.79,1.4.57,1.7,1.22,3.37,1.95,5,.9,2.01,1.93,3.98,3.21,5.77s2.76,3.47,4.71,4.44c1.02.51,2.11.81,3.25.81s2.17-.24,3.17-.65c2.13-.88,3.97-2.32,5.6-3.94,1.31-1.3,2.48-2.73,3.56-4.22.26-.36.57-.72.57-1.2,0-.83-.8-1.46-1.61-1.27-.17.04-.32.12-.47.19-.02.01-.05.02-.07.03-.23.1.26-.1.08-.04-.84.34-1.7.61-2.59.81-.27.06-.55.12-.83.17-.16.03-.32.05-.48.08-.05,0-.11.02-.16.02.33-.03-.06,0-.12.01-.7.08-1.4.12-2.11.11-.37,0-.73-.02-1.1-.04-.21-.01-.41-.03-.62-.06-.09,0-.17-.02-.26-.03-.08-.01-.07,0,.04,0-.07,0-.14-.02-.21-.03-.61-.09-1.2-.22-1.79-.41-.27-.08-.54-.18-.81-.28-.15-.06-.3-.11-.44-.17-.06-.02-.31-.1-.03,0-.08-.03-.15-.06-.22-.1-.58-.26-1.15-.54-1.71-.85-1.14-.62-2.24-1.31-3.31-2.05-.51-.35-1.01-.71-1.51-1.09-.22-.17-.47-.32-.67-.51.23.21.05.04,0,0-.06-.04-.11-.09-.17-.13-.11-.09-.22-.18-.33-.26-.39-.31-.77-.62-1.15-.94-.43-.36-.86-.84-1.39-1.03-.44-.15-.95-.08-1.33.18-.56.37-.78,1.02-.62,1.66.14.58.83.98,1.4.79.6-.19.95-.78.79-1.4Z"/>
    </g>
    <path class="cls-1" d="m139.39,56.98c.08-.16.19-.31.29-.45.05-.07.1-.14.15-.21.03-.05.16-.21.01-.02s0,0,.04-.04c.16-.19.33-.38.5-.56.21-.21.43-.42.66-.61.11-.09.24-.11-.03.02.07-.03.13-.1.19-.14.14-.1.29-.2.44-.29.14-.08.28-.16.43-.24.08-.04.16-.08.24-.11.04-.02.07-.03.11-.05-.3.16-.13.05-.05.02.35-.14.72-.24,1.09-.31.04,0,.09-.02.13-.02.11-.02.26,0-.04,0,.11,0,.23-.02.34-.03.24-.02.48-.02.72,0,.13,0,.25.01.38.03.03,0,.28.02.08,0s.08.01.12.02c.29.05.57.12.85.2.57.16,1.26-.2,1.4-.79s-.18-1.23-.79-1.4c-1.96-.55-4.02-.41-5.83.55-1.21.64-2.2,1.6-3,2.7-.14.2-.28.4-.4.61-.28.52-.15,1.26.41,1.56s1.25.15,1.56-.41h0Z"/>
  </g>
  <path class="cls-1" d="m173.02,27.55c.09.3.17.6.24.91.21.85.39,1.7.54,2.56.11.61.21,1.22.3,1.83.03.17.05.34.07.51,0,.05.01.09.02.14.03.19-.03-.22-.02-.15.01.09.02.19.04.28.05.38.09.76.14,1.14.19,1.73.3,3.47.34,5.21.05,2.07,0,4.15-.16,6.22-.09,1.13-.21,2.26-.35,3.39,0,.07.04-.27,0-.04-.01.08-.02.15-.03.23-.02.15-.04.3-.07.46-.04.3-.09.59-.14.89-.1.6-.21,1.2-.32,1.8-.5,2.55-1.16,5.06-2,7.52-.44,1.3-.9,2.62-1.47,3.88.08-.17.04-.1,0,.02-.04.08-.07.17-.11.25-.07.17-.15.34-.22.51-.15.33-.29.66-.45.98-.31.66-.63,1.32-.97,1.97-1.42,2.77-3.07,5.42-4.91,7.93-.24.33-.49.66-.74.98-.05.07-.17.22-.05.06-.07.08-.13.17-.2.25-.13.17-.27.34-.4.51-.53.66-1.07,1.31-1.63,1.95-1.16,1.33-2.37,2.61-3.63,3.84-.64.63-1.3,1.25-1.97,1.86-.44.4-.44,1.21,0,1.61.47.43,1.14.43,1.61,0,2.64-2.39,5.09-4.97,7.31-7.76,2.04-2.56,3.89-5.26,5.5-8.11,1.47-2.6,2.73-5.32,3.79-8.12.95-2.5,1.72-5.06,2.32-7.66.56-2.44.96-4.92,1.22-7.41.23-2.15.34-4.31.34-6.47,0-1.84-.08-3.69-.24-5.53-.14-1.55-.33-3.1-.59-4.64-.16-1-.35-1.99-.58-2.97-.1-.45-.21-.9-.34-1.35,0-.02-.01-.04-.02-.06-.17-.57-.8-.99-1.4-.79s-.98.79-.79,1.4h0Z"/>
  <path class="cls-1" d="m151.26,98.69c-.85-1.28-1.71-2.57-2.56-3.85-2.05-3.08-4.1-6.16-6.15-9.24-2.48-3.73-4.96-7.45-7.44-11.18-2.14-3.22-4.28-6.44-6.42-9.66l-2.11-3.18c-.33-.5-.64-1.02-1-1.5-.02-.02-.03-.04-.04-.07l.11.88,1.36-4.34c1.07-3.42,2.13-6.83,3.2-10.25,1.27-4.08,2.55-8.17,3.82-12.25,1.05-3.36,2.1-6.73,3.15-10.09l.95-3.03.24-.78c.02-.06.04-.12.06-.18.04-.18-.18.36-.09.2.2-.35.37-.7.59-1.04.19-.31.4-.6.62-.89.19-.25-.13.16.07-.09.06-.07.12-.15.18-.22.16-.19.32-.38.49-.56.35-.38.73-.74,1.12-1.07.1-.08.2-.17.3-.25.14-.11-.22.16.01,0,.05-.03.1-.07.14-.11.25-.18.5-.34.76-.5.24-.15.49-.28.75-.41.12-.06.23-.11.35-.16.28-.13-.14.05.04-.02.09-.04.18-.07.28-.11.61-.22,1.23-.37,1.86-.48.34-.06-.13.01.08-.01.09-.01.18-.02.28-.03.15-.01.3-.02.45-.03.4-.02.79-.01,1.19.01.31.02.62.05.93.08.64.05,1.28.11,1.92.16,1.75.14,3.51.28,5.26.42,4.55.35,9.1.7,13.65,1.04,4.48.34,8.96.67,13.44,1.01,2.54.19,5.07.38,7.61.57.12,0,.24.02.36.03l-.8-1.94c-.4.43-.83.83-1.26,1.23-.49.45-.99.89-1.49,1.32-.31.26-.63.52-.95.78-.17.14-.35.27-.52.41-.21.16.17-.13-.08.07-.11.08-.22.16-.33.25-1.76,1.32-3.6,2.53-5.52,3.59-1.1.61-2.22,1.18-3.36,1.69-.16.07-.31.14-.47.21-.06.03-.13.05-.19.08-.31.13.12-.05-.06.03-.32.13-.65.26-.97.39-.63.24-1.27.47-1.91.68-1.35.44-2.72.8-4.11,1.08-1.5.3-2.6.44-4.15.52-3.25.18-6.22-.14-9.32-1-.92-.25-1.86-.81-2.76-.24-.46.29-.87.69-1.26,1.06-1.32,1.24-2.62,2.51-4,3.7-.44.38-.89.76-1.35,1.12-.13.1-.25.2-.38.3-.05.04-.1.08-.15.12.17-.13.03-.02,0,0-.27.2-.53.4-.81.6-1.11.81-2.26,1.57-3.45,2.26-2.65,1.53-5.22,2.61-8.25,3.28-.37.08-.74.16-1.12.22s-.87.14-1.1.17c-.61.08-1.14.47-1.14,1.14,0,.56.52,1.21,1.14,1.14,6.15-.77,11.68-3.56,16.52-7.35,1.66-1.31,3.23-2.73,4.75-4.19.47-.45.94-.91,1.43-1.35.09-.08.18-.15.27-.23.16-.13-.05.06-.11.08.04-.02.09-.07.13-.09.04-.02.14-.06.16-.1-.12.16-.34.12-.19.08s-.39.03-.22.03c-.52,0-.19,0,.05.07.19.06.39.12.58.18.42.13.85.25,1.28.35.82.21,1.64.38,2.47.52,1.62.27,3.27.42,4.91.44,3.01.03,6.04-.4,8.94-1.18,4.94-1.33,9.6-3.69,13.76-6.65,2.14-1.52,4.32-3.19,6.12-5.12.03-.03.05-.06.08-.08.7-.75.17-1.87-.8-1.94-1.1-.08-2.2-.16-3.3-.24-2.75-.2-5.49-.41-8.24-.61-3.55-.27-7.1-.53-10.65-.8s-7.13-.54-10.69-.82c-2.74-.21-5.47-.42-8.21-.65-1.28-.1-2.57-.27-3.85-.15-2.03.21-3.97.93-5.61,2.15-1.29.96-2.38,2.12-3.29,3.44-.38.55-.78,1.15-1.01,1.78-.32.91-.58,1.84-.86,2.76-.7,2.25-1.4,4.49-2.1,6.74-.93,2.99-1.86,5.98-2.8,8.96-.97,3.12-1.94,6.23-2.92,9.35-.82,2.64-1.65,5.28-2.47,7.92l-1.46,4.67c-.15.49-.35.93-.06,1.44.12.21.27.41.41.61.9,1.36,1.81,2.72,2.71,4.08l4.49,6.75c1.79,2.69,3.58,5.38,5.37,8.07s3.57,5.36,5.35,8.04c1.47,2.21,2.94,4.42,4.42,6.64l2.63,3.95c.12.18.24.35.35.53.34.51,1,.73,1.56.41.51-.3.75-1.04.41-1.56h0Z"/>
  <path class="cls-1" d="m128.46,47.54c-.29-.07-.57-.16-.85-.26-.31-.1-.61-.22-.91-.34-.04-.02-.08-.03-.12-.05-.13-.05.31.13.09.04-.09-.04-.19-.08-.28-.12-.19-.09-.38-.17-.56-.27-.41-.2-.81-.43-1.19-.67-.21-.13-.41-.27-.61-.41-.09-.07-.19-.14-.28-.21s.15.12.13.1c-.03-.02-.05-.04-.08-.06-.05-.04-.1-.08-.16-.13-.38-.32-.75-.66-1.07-1.04-.04-.05-.08-.09-.12-.14-.07-.08-.16-.28.02.03-.06-.11-.15-.21-.23-.31-.14-.21-.27-.42-.39-.64-.06-.11-.11-.22-.16-.33-.11-.25.06.18.01.03-.02-.07-.05-.13-.07-.2-.09-.25-.16-.5-.21-.75-.01-.06-.03-.13-.04-.19,0-.04-.01-.07-.02-.11-.02-.11.04-.09.02.14.01-.13-.03-.29-.04-.43-.02-.29-.01-.58.01-.87,0-.08.02-.17.03-.25.02-.2-.05.29,0,.02.03-.16.06-.33.09-.49.08-.35.19-.7.31-1.05.03-.07.05-.14.08-.21,0-.02.05-.1.05-.13,0,.02-.11.25-.03.08.07-.15.14-.31.22-.46.14-.27.31-.53.49-.78.17-.23-.1.11,0,0,.04-.05.09-.11.13-.16.09-.11.19-.21.3-.31.09-.09.19-.18.29-.26.04-.03.22-.17.05-.05-.17.13.06-.04.1-.07.21-.15.43-.28.65-.39.05-.03.11-.05.16-.08.05-.02.25-.11.05-.03s0,0,.05-.02c.06-.02.13-.05.19-.07.24-.08.48-.15.73-.2.11-.02.23-.05.34-.06.06,0,.27-.04.05,0-.24.03.04,0,.09,0,.47-.05.93-.05,1.4-.02.23.01.46.04.69.06.18.02-.32-.05-.1-.01.05,0,.1.02.15.02.11.02.23.04.34.06.38.07.75.16,1.12.26.44.12.88.28,1.31.44.14.06-.35-.15-.2-.09.54.24,1.25.18,1.56-.41.26-.49.17-1.3-.41-1.56-1.21-.53-2.5-.84-3.81-1-2.3-.28-4.75.22-6.45,1.89-1.07,1.06-1.76,2.5-2.11,3.95-.32,1.33-.34,2.76.1,4.07.74,2.24,2.53,3.91,4.53,5.06,1.19.68,2.51,1.28,3.85,1.61.02,0,.04.01.06.02.58.14,1.26-.19,1.4-.79s-.18-1.24-.79-1.4h0Z"/>
  <path class="cls-1" d="m131.56,37.94c-.45-.28-.94-.49-1.43-.69-.84-.35-1.76-.6-2.68-.59-1.23.02-2.31.55-3.01,1.58-.39.58-.62,1.31-.71,2s-.1,1.34.13,1.98c.26.74.79,1.52,1.52,1.87.54.25,1.25.17,1.56-.41.27-.51.17-1.28-.41-1.56-.03-.01-.05-.03-.08-.04s-.05-.03-.08-.05c-.23-.14.22.19.07.05-.08-.08-.17-.15-.24-.24-.2-.23.14.22,0,0-.05-.08-.1-.15-.14-.23-.02-.04-.04-.1-.06-.13,0,.01.1.29.06.13-.03-.11-.07-.21-.09-.32,0-.04-.01-.08-.02-.11-.05-.22.02.29,0,.06,0-.14-.01-.27,0-.41,0-.02.02-.22.02-.22l-.02.15c0-.05.02-.11.03-.16.03-.14.06-.28.1-.42s.09-.29.14-.43c.08-.24-.12.23,0,.02.03-.07.07-.13.1-.2.05-.1.13-.18.18-.28-.17.3-.04.06.04-.03.04-.04.08-.07.12-.11.14-.14-.2.13-.08.06.1-.06.19-.12.29-.17.24-.14-.26.08,0,0,.09-.03.18-.06.27-.08.04,0,.08-.02.12-.03.2-.05-.31.03-.1.01.1,0,.21-.02.31-.02.19,0,.39.04.58.03-.37,0-.12-.02.01,0,.1.02.21.04.31.07.37.09.74.22,1.1.36.03.01.06.02.08.04-.38-.14-.16-.07-.07-.03.08.03.15.07.22.1.13.06.26.13.38.19.12.06.23.13.35.2.51.31,1.27.13,1.56-.41s.13-1.22-.41-1.56h0Z"/>
  <path class="cls-1" d="m52.94,102.85c.79-.83,1.59-1.66,2.38-2.49l3.8-3.97c.29-.3.58-.61.87-.91h-1.61c.91.8,1.83,1.61,2.74,2.41l6.58,5.79c2.65,2.34,5.3,4.67,7.95,7.01l6.88,6.06c1.11.98,2.19,2.01,3.34,2.94.02.01.03.03.05.04v-1.61c-1.87,2.06-3.74,4.12-5.6,6.18-.26.29-.52.58-.79.87h1.61c-.94-.8-1.88-1.6-2.82-2.39l-6.73-5.71c-2.71-2.3-5.42-4.6-8.13-6.9-2.34-1.99-4.69-3.98-7.03-5.97-1.14-.97-2.28-1.95-3.43-2.91-.02-.01-.03-.03-.05-.04-.45-.38-1.17-.48-1.61,0-.39.42-.48,1.2,0,1.61.94.8,1.88,1.6,2.82,2.39l6.73,5.71,8.13,6.9c2.34,1.99,4.69,3.98,7.03,5.97,1.14.97,2.28,1.95,3.43,2.91.02.01.03.03.05.04.45.38,1.17.49,1.61,0,1.87-2.06,3.74-4.12,5.6-6.18.26-.29.52-.58.79-.87.39-.43.48-1.19,0-1.61-.91-.8-1.83-1.61-2.74-2.41-2.19-1.93-4.38-3.86-6.58-5.79l-7.95-7.01c-2.29-2.02-4.58-4.04-6.88-6.06-1.11-.98-2.21-1.97-3.34-2.94-.02-.01-.03-.03-.05-.04-.45-.4-1.16-.47-1.61,0-.79.83-1.59,1.66-2.38,2.49l-3.8,3.97c-.29.3-.58.61-.87.91-.41.43-.46,1.19,0,1.61s1.17.46,1.61,0Z"/>
  <path class="cls-1" d="m116.85,65.68c-.26,0-.52.01-.78.02-.74.04-1.48.11-2.22.19-1.25.14-2.5.33-3.74.56-1.54.29-3.08.63-4.59,1.04-1.87.5-3.72,1.07-5.54,1.72-2.22.79-4.4,1.69-6.54,2.67-2.36,1.09-4.67,2.29-6.92,3.59-2.55,1.48-5.02,3.09-7.41,4.82-2.73,1.97-5.36,4.08-7.87,6.31-2.75,2.44-5.36,5.03-7.85,7.74-.65.7-1.28,1.42-1.91,2.14-.39.45-.47,1.17,0,1.61.43.39,1.19.48,1.61,0,2.47-2.83,5.07-5.55,7.82-8.11,1.26-1.18,2.55-2.32,3.87-3.44.63-.53,1.27-1.06,1.92-1.58.32-.26.65-.51.97-.77.07-.06.14-.11.22-.17.04-.03.07-.06.11-.08,0,0-.15.12-.05.04.17-.13.33-.26.5-.38,2.4-1.82,4.89-3.53,7.46-5.11,2.28-1.39,4.62-2.68,7.01-3.85,1.1-.54,2.21-1.05,3.33-1.53.13-.06.26-.11.39-.17.06-.03.12-.05.18-.08.01,0-.24.1-.12.05.04-.02.08-.03.12-.05.27-.11.54-.22.8-.33.51-.21,1.03-.41,1.54-.61,1.88-.71,3.79-1.35,5.72-1.9,1.58-.45,3.18-.85,4.79-1.18.67-.14,1.34-.26,2.01-.37.31-.05.61-.1.92-.14.14-.02.28-.04.41-.06.07,0,.13-.02.2-.03.08-.01-.36.05-.18.02.04,0,.08-.01.12-.02.83-.11,1.67-.2,2.51-.25.38-.02.75-.03,1.13-.05.02,0,.03,0,.05,0,.6,0,1.17-.53,1.14-1.14s-.5-1.13-1.14-1.14h0Z"/>
  <path class="cls-1" d="m125.45,91.07c-.36.23-.72.46-1.08.69l-2.93,1.87-4.35,2.78c-1.76,1.13-3.53,2.25-5.29,3.38-1.93,1.23-3.86,2.46-5.79,3.7l-5.85,3.73-5.47,3.49c-1.54.98-3.07,1.96-4.61,2.94l-3.31,2.11c-.52.33-1.05.66-1.57,1-.02.01-.04.03-.07.04-.5.32-.75,1.03-.41,1.56.32.5,1.02.75,1.56.41.36-.23.72-.46,1.08-.69l2.93-1.87,4.35-2.78,5.29-3.38c1.93-1.23,3.86-2.46,5.79-3.7s3.9-2.49,5.85-3.73l5.47-3.49,4.61-2.94,3.31-2.11c.52-.33,1.05-.66,1.57-1,.02-.01.04-.03.07-.04.5-.32.75-1.03.41-1.56-.32-.5-1.02-.75-1.56-.41h0Z"/>
  <path class="cls-1" d="m143.34,129.38c.28-.96.55-1.92.83-2.87l2-6.94c.8-2.79,1.61-5.58,2.41-8.36l2.09-7.26c.34-1.17.71-2.33,1.01-3.51,0-.02,0-.03.01-.05.22-.77-.38-1.37-1.1-1.44-1.42-.15-2.84-.3-4.27-.44-2.27-.24-4.53-.47-6.8-.71-.52-.05-1.04-.11-1.56-.16l.8.33c-.85-.9-1.69-1.79-2.54-2.69-2.03-2.15-4.07-4.3-6.1-6.45l-7.38-7.81c-2.13-2.25-4.26-4.5-6.39-6.75-1.03-1.09-2.03-2.24-3.11-3.29-.02-.01-.03-.03-.04-.05v1.61c1.37-1.26,2.74-2.51,4.1-3.77,2.18-2,4.36-4,6.53-6,.5-.46.99-.91,1.49-1.37.44-.4.44-1.21,0-1.61-.47-.43-1.14-.43-1.61,0-1.37,1.26-2.74,2.51-4.1,3.77l-6.53,6c-.5.46-.99.91-1.49,1.37-.46.42-.41,1.18,0,1.61s.8.85,1.21,1.28l3.16,3.34c1.47,1.56,2.94,3.11,4.41,4.67l4.97,5.26c1.61,1.71,3.23,3.41,4.84,5.12,1.34,1.41,2.67,2.83,4.01,4.24l2.49,2.63c.15.16.3.33.46.48.38.37.96.37,1.47.42,2.02.21,4.05.42,6.07.63l5.59.58.31.03-1.1-1.44c-.28.96-.55,1.92-.83,2.87l-2,6.94-2.41,8.36-2.09,7.26c-.34,1.17-.71,2.33-1.01,3.51,0,.02,0,.03-.01.05-.16.57.2,1.26.79,1.4s1.22-.18,1.4-.79h0Z"/>
  <path class="cls-1" d="m118.66,100.98c-.06,1.77-.11,3.55-.17,5.32l-.26,8.47c-.02.65-.04,1.29-.06,1.94-.02.5.37.96.84,1.1,1.91.55,3.83,1.11,5.74,1.66,3.05.88,6.09,1.77,9.14,2.65.69.2,1.39.4,2.08.6.46.13,1.06-.08,1.28-.52.84-1.61,1.67-3.23,2.51-4.84l3.96-7.65c.3-.59.61-1.17.91-1.76.33-.64.06-1.47-.68-1.67-.79-.21-1.58-.42-2.37-.63l-5.69-1.52c-2.29-.62-4.59-1.23-6.88-1.85-1.99-.53-3.97-1.06-5.96-1.6-.97-.26-1.93-.54-2.9-.78-.01,0-.03,0-.04-.01-.57-.15-1.26.19-1.4.79s.18,1.23.79,1.4c.79.21,1.58.42,2.37.63l5.69,1.52c2.29.62,4.59,1.23,6.88,1.85l5.96,1.6c.96.26,1.93.56,2.9.78.01,0,.03,0,.04.01l-.68-1.67c-.84,1.61-1.67,3.23-2.51,4.84l-3.96,7.65c-.3.59-.61,1.17-.91,1.76l1.28-.52c-1.91-.55-3.83-1.11-5.74-1.66-3.05-.88-6.09-1.77-9.14-2.65-.69-.2-1.39-.4-2.08-.6l.84,1.1c.06-1.77.11-3.55.17-5.32.09-2.82.18-5.65.26-8.47.02-.65.04-1.29.06-1.94.02-.6-.54-1.16-1.14-1.14-.63.03-1.12.5-1.14,1.14Z"/>
  <path class="cls-1" d="m159.78,121.13c.79.42,1.63.76,2.45,1.08,1.95.78,3.97,1.39,6.02,1.87,3,.69,6.08,1.1,9.15,1.17,3.76.1,7.55-.31,11.21-1.2,4.34-1.06,8.51-2.84,12.33-5.16.51-.31,1.02-.63,1.51-.96s.75-1.02.41-1.56c-.32-.49-1.03-.76-1.56-.41-1.95,1.29-3.99,2.44-6.12,3.41-.25.11-.5.22-.75.33-.06.03-.12.05-.19.08-.04.02-.2.09,0,0-.12.05-.25.1-.37.15-.5.21-1.01.4-1.52.59-.97.36-1.96.67-2.96.95s-1.92.5-2.89.7c-.46.09-.93.18-1.4.26-.23.04-.46.08-.69.11-.1.02-.2.03-.3.04-.06,0-.11.02-.17.02-.29.04.25-.03-.04,0-1.76.22-3.52.34-5.3.35-1.62,0-3.25-.08-4.86-.26-.19-.02-.37-.04-.56-.07-.08,0-.16-.02-.24-.03-.05,0-.09-.01-.14-.02-.25-.03.28.04.03,0-.36-.05-.71-.1-1.07-.16-.69-.11-1.37-.24-2.05-.38-2.15-.45-4.27-1.06-6.32-1.84-.35-.13-.7-.27-1.05-.42-.04-.02-.08-.03-.11-.05-.18-.07.31.13.14.06-.07-.03-.15-.06-.22-.09-.12-.05-.24-.11-.36-.16-.28-.13-.55-.26-.83-.39-.01,0-.02-.01-.03-.02-.53-.28-1.26-.15-1.56.41-.28.53-.15,1.26.41,1.56h0Z"/>
  <path class="cls-1" d="m159.94,80.83l-1.03,1.86-2.47,4.47c-.99,1.79-1.98,3.58-2.97,5.38-.86,1.56-1.72,3.11-2.58,4.67-.42.76-.86,1.5-1.25,2.27,0,.01-.01.02-.02.03-.49.88.32,1.91,1.28,1.67,1.4-.34,2.81-.68,4.21-1.03,2.24-.54,4.47-1.09,6.71-1.63.51-.12,1.02-.25,1.53-.37.58-.14.98-.83.79-1.4-.19-.6-.78-.95-1.4-.79-1.4.34-2.81.68-4.21,1.03l-6.71,1.63c-.51.12-1.02.25-1.53.37l1.28,1.67,1.03-1.86,2.47-4.47,2.97-5.38,2.58-4.67c.42-.76.85-1.5,1.25-2.27,0-.01.01-.02.02-.03.29-.52.14-1.27-.41-1.56s-1.25-.15-1.56.41h0Z"/>
  <path class="cls-1" d="m119.66,109.37c.68.17,1.35.35,2.03.52,1.62.42,3.25.83,4.87,1.25,1.96.5,3.93,1.01,5.89,1.51,1.7.44,3.4.87,5.1,1.31.83.21,1.65.45,2.48.64.01,0,.02,0,.04,0,.58.15,1.26-.19,1.4-.79s-.18-1.24-.79-1.4c-.68-.17-1.35-.35-2.03-.52l-4.87-1.25c-1.96-.5-3.93-1.01-5.89-1.51-1.7-.44-3.4-.87-5.1-1.31-.83-.21-1.65-.45-2.48-.64-.01,0-.02,0-.04,0-.58-.15-1.26.19-1.4.79s.18,1.24.79,1.4h0Z"/>
  <path class="cls-1" d="m122.11,163.64c.5.52,1,1.03,1.49,1.55l4.04,4.19,6.01,6.22c2.43,2.52,4.86,5.04,7.3,7.55,2.68,2.77,5.35,5.54,8.03,8.31s5.38,5.57,8.07,8.35l7.56,7.82c2.12,2.19,4.24,4.39,6.36,6.58l4.59,4.76c.72.75,1.43,1.52,2.17,2.25.03.03.06.07.09.1.42.43,1.19.44,1.61,0,2.29-2.4,4.58-4.8,6.87-7.21,3.65-3.83,7.3-7.65,10.95-11.48.83-.87,1.66-1.75,2.5-2.62.33-.35.46-.96.18-1.38-1.17-1.76-2.34-3.52-3.51-5.29-2.9-4.37-5.8-8.73-8.7-13.1-3.71-5.59-7.42-11.18-11.14-16.77-3.61-5.43-7.21-10.86-10.82-16.29-2.59-3.89-5.17-7.78-7.76-11.68l-1.86-2.81c-.1-.14-.19-.29-.29-.43-.3-.42-.64-.51-1.07-.64-3.45-1.02-6.9-2.05-10.35-3.07-6.14-1.82-12.28-3.64-18.42-5.46-6.18-1.83-12.36-3.66-18.54-5.5-3.57-1.06-7.14-2.12-10.72-3.18-.17-.05-.34-.1-.51-.15-1.41-.42-2.01,1.78-.6,2.19,1.96.58,3.92,1.16,5.88,1.74,4.7,1.39,9.41,2.79,14.11,4.18,5.67,1.68,11.34,3.36,17.01,5.04,4.9,1.45,9.8,2.9,14.69,4.36l4.82,1.43c.77.23,1.54.51,2.32.69.03,0,.07.02.1.03l-.68-.52c.39.59.79,1.18,1.18,1.77l3.21,4.83c1.58,2.38,3.16,4.76,4.74,7.14l5.79,8.71c2.11,3.18,4.23,6.36,6.34,9.54s4.27,6.42,6.4,9.63c1.99,2.99,3.98,5.99,5.97,8.98l5.04,7.59,3.63,5.46c.57.86,1.1,1.76,1.72,2.58.03.04.05.07.07.11l.18-1.38c-2.29,2.4-4.58,4.8-6.87,7.21l-10.95,11.48c-.83.87-1.66,1.75-2.5,2.62h1.61c-.5-.52-1-1.03-1.49-1.55-1.35-1.4-2.7-2.79-4.04-4.19-2-2.07-4-4.15-6.01-6.22-2.43-2.52-4.86-5.04-7.3-7.55-2.68-2.77-5.35-5.54-8.03-8.31-2.69-2.78-5.38-5.57-8.07-8.35-2.52-2.61-5.04-5.22-7.56-7.82-2.12-2.19-4.24-4.39-6.36-6.58-1.53-1.59-3.06-3.17-4.59-4.76-.72-.75-1.43-1.52-2.17-2.25-.03-.03-.06-.07-.09-.1-1.02-1.06-2.63.55-1.61,1.61h0Z"/>
  <path class="cls-1" d="m180.44,218.69c1.07,1.11,2.14,2.22,3.22,3.33,1.71,1.77,3.41,3.53,5.12,5.3.39.4.78.8,1.17,1.21.44.45,1.16.41,1.61,0,.33-.31.67-.61,1-.92l2.72-2.51c1.34-1.23,2.67-2.46,4.01-3.7l4.91-4.52c1.79-1.65,3.57-3.29,5.36-4.94s3.62-3.33,5.43-5c1.69-1.55,3.38-3.11,5.06-4.66,1.42-1.31,2.84-2.62,4.26-3.93,1.02-.94,2.05-1.88,3.07-2.83.49-.45.99-.88,1.46-1.35.02-.02.04-.04.06-.06.39-.36.39-.93.18-1.38-.25-.52-.58-1.02-.92-1.48-.78-1.06-1.7-2.05-2.88-2.67-.7-.38-1.45-.6-2.24-.66-.87-.06-1.72.16-2.51.5s-1.48.91-2.16,1.46c-.5.41-1.01.82-1.51,1.23-2.5,2.02-5.01,4.02-7.53,6.02s-4.89,3.86-7.34,5.79c-1.27.99-2.56,1.95-3.8,2.98-.02.01-.04.03-.06.04h1.61c-.98-.98-1.97-1.97-2.95-2.95-.42-.42-1.19-.45-1.61,0s-.45,1.16,0,1.61c.98.98,1.97,1.97,2.95,2.95.47.47,1.12.38,1.61,0,1-.78,2.01-1.57,3.01-2.36,2.31-1.81,4.62-3.63,6.92-5.45,2.54-2,5.07-4.01,7.59-6.04,1.02-.82,2.04-1.64,3.05-2.48.07-.06.13-.12.21-.17-.26.16.08-.05.13-.09.18-.13.38-.25.57-.36.09-.05.19-.1.28-.14.03-.02.1-.04.12-.06-.01.01-.26.1-.09.04s.36-.13.54-.18c.08-.02.16-.04.23-.05.04,0,.08-.01.12-.02.18-.04-.12.02-.13.02.17,0,.33-.03.5-.03.08,0,.16,0,.24.01.05,0,.33.04.09,0s.05.01.11.02c.09.02.17.04.26.06.13.04.26.08.4.13.26.09-.19-.1-.03-.01.08.04.16.07.23.11.27.14.52.3.76.48.2.14-.22-.18-.03-.02.06.05.12.1.18.15.11.1.23.2.33.31.2.19.39.39.57.6.09.1.17.2.25.3.14.18-.18-.24-.03-.04.04.05.08.1.11.15.13.18.26.37.38.56.16.25.31.5.45.76.02.04.04.07.06.11l.18-1.38c-.33.31-.67.61-1,.92l-2.72,2.51c-1.34,1.23-2.67,2.46-4.01,3.7l-4.91,4.52c-1.79,1.65-3.57,3.29-5.36,4.94s-3.62,3.33-5.43,5c-1.69,1.55-3.38,3.11-5.06,4.66-1.42,1.31-2.84,2.62-4.26,3.93-1.02.94-2.05,1.88-3.07,2.83-.49.45-.99.89-1.46,1.35-.02.02-.04.04-.06.06h1.61c-1.07-1.11-2.14-2.22-3.22-3.33l-5.12-5.3c-.39-.4-.78-.8-1.17-1.21-.41-.43-1.2-.45-1.61,0s-.44,1.15,0,1.61h0Z"/>
  <path class="cls-1" d="m40.07,185.93c-.96,1.2-1.93,2.41-2.89,3.61-1.54,1.92-3.07,3.83-4.61,5.75-.35.44-.7.87-1.05,1.31s-.51,1.18,0,1.61c.35.29.69.58,1.04.88l2.83,2.38c1.39,1.17,2.78,2.34,4.17,3.51l5.11,4.3,5.58,4.69c1.88,1.58,3.77,3.17,5.65,4.75,1.76,1.48,3.51,2.95,5.27,4.43l4.43,3.73,3.19,2.68c.51.43,1.01.86,1.52,1.28.02.02.04.04.07.06.37.32.93.47,1.38.18,1.72-1.13,3.34-2.87,3.93-4.87.24-.82.27-1.67.1-2.5-.18-.94-.68-1.78-1.28-2.52-.45-.56-1.01-1.04-1.53-1.54-.48-.46-.96-.91-1.43-1.37-2.28-2.19-4.55-4.4-6.81-6.61s-4.31-4.23-6.46-6.34c-1.09-1.07-2.14-2.19-3.27-3.22-.02-.01-.03-.03-.05-.05v1.61c.85-1.1,1.7-2.2,2.55-3.3.19-.25.33-.47.33-.8,0-.28-.12-.61-.33-.8-.41-.37-1.22-.5-1.61,0-.85,1.1-1.7,2.2-2.55,3.3-.37.48-.48,1.13,0,1.61.86.86,1.73,1.71,2.6,2.56,2.01,1.98,4.02,3.95,6.03,5.93,2.27,2.22,4.54,4.44,6.82,6.64.96.92,1.91,1.84,2.88,2.75.23.21.46.42.68.64.16.16.32.33.47.51.03.03.08.09.1.13-.11-.2-.08-.1-.03-.04.07.1.15.21.21.31.1.16.19.33.28.5.02.03.03.09.06.12-.12-.17-.07-.19-.04-.09s.07.2.1.31c.05.16.08.32.11.48.03.18-.02-.11-.02-.12,0,.04,0,.08.01.12,0,.1.01.2.01.29,0,.15-.03.31-.03.46,0,0,.05-.31.02-.13,0,.04-.01.07-.02.11-.02.09-.04.19-.06.28-.04.15-.08.29-.13.43-.02.05-.09.16-.08.21,0,0,.13-.27.05-.12-.02.05-.05.1-.07.15-.13.28-.29.54-.46.79-.08.12-.21.25-.27.38,0,0,.19-.24.08-.1-.02.03-.04.06-.07.08-.05.06-.1.12-.15.18-.35.41-.73.78-1.14,1.13-.08.07-.15.13-.23.2-.04.03-.07.06-.11.09-.02.01-.03.03-.05.04-.13.1.15-.12.14-.11-.09.09-.22.16-.32.23-.04.03-.08.05-.12.08l1.38.18c-.35-.29-.69-.58-1.04-.88-.94-.79-1.89-1.59-2.83-2.38-1.39-1.17-2.78-2.34-4.17-3.51l-5.11-4.3-5.58-4.69c-1.88-1.58-3.77-3.17-5.65-4.75-1.76-1.48-3.51-2.95-5.27-4.43-1.48-1.24-2.96-2.49-4.43-3.73l-3.19-2.68c-.51-.43-1-.87-1.52-1.28-.02-.02-.04-.04-.07-.06v1.61c.96-1.2,1.93-2.41,2.89-3.61,1.54-1.92,3.07-3.83,4.61-5.75.35-.44.7-.87,1.05-1.31.37-.46.49-1.16,0-1.61-.41-.38-1.21-.5-1.61,0h0Z"/>
  <path class="cls-1" d="m170.91,212.47c.75-.72,1.5-1.43,2.25-2.15,1.8-1.72,3.6-3.44,5.4-5.16,2.18-2.08,4.35-4.16,6.53-6.25l5.65-5.4c.91-.88,1.86-1.73,2.75-2.63.01-.01.03-.03.04-.04.43-.41.45-1.2,0-1.61s-1.15-.44-1.61,0c-.75.72-1.5,1.43-2.25,2.15l-5.4,5.16c-2.18,2.08-4.35,4.16-6.53,6.25-1.88,1.8-3.77,3.6-5.65,5.4-.91.88-1.86,1.73-2.75,2.63-.01.01-.03.03-.04.04-.43.41-.45,1.2,0,1.61s1.15.44,1.61,0h0Z"/>
  <path class="cls-1" d="m142.04,152.57c.34.44.68.88,1.02,1.31.92,1.19,1.85,2.38,2.77,3.57,1.37,1.76,2.73,3.52,4.1,5.29,1.67,2.15,3.34,4.3,5,6.45,1.83,2.35,3.65,4.71,5.48,7.06l5.51,7.11c1.72,2.22,3.44,4.43,5.16,6.65,1.45,1.87,2.9,3.73,4.34,5.6,1.05,1.35,2.09,2.69,3.14,4.04.49.64.98,1.29,1.49,1.92.02.03.04.05.06.08.37.47,1.23.41,1.61,0,.46-.5.39-1.1,0-1.61-.34-.44-.68-.88-1.02-1.31l-2.77-3.57-4.1-5.29c-1.67-2.15-3.34-4.3-5-6.45-1.83-2.35-3.65-4.71-5.48-7.06l-5.51-7.11-5.16-6.65c-1.45-1.87-2.9-3.73-4.34-5.6-1.05-1.35-2.09-2.69-3.14-4.04-.49-.64-.98-1.29-1.49-1.92-.02-.03-.04-.05-.06-.08-.37-.47-1.23-.41-1.61,0-.46.5-.39,1.1,0,1.61h0Z"/>
  <path class="cls-1" d="m160.48,81.87c.56,1.42.88,2.94,1.14,4.44.04.23.08.46.11.69.02.11.03.22.05.32.01.09.07.55.02.16.07.51.13,1.01.18,1.52.11,1.11.19,2.22.25,3.34.12,2.56.11,5.12,0,7.67-.06,1.41-.16,2.82-.28,4.23-.07.73-.14,1.46-.22,2.19-.04.34-.08.67-.12,1.01-.02.2-.05.41-.08.61,0,.07-.02.14-.03.2,0,.07-.02.14-.03.2.02-.13.02-.13,0,0-.87,6.32-2.32,12.57-4.49,18.58s-5.24,12.08-9.27,17.39c-.34.45-.97,1.24-1.46,1.82-.54.64-1.1,1.27-1.67,1.89-1.15,1.24-2.36,2.42-3.64,3.53-2.53,2.2-5.32,4.13-8.4,5.75-6.79,3.58-14.54,5.25-22.26,5.41-.74.01-1.52-.12-2.13.37-.08.06-.16.13-.24.19l-1.13.92-4.55,3.71c-4.94,4.02-9.88,8.05-14.82,12.07-5.34,4.34-10.67,8.69-16.01,13.03l-9.45,7.69c-.15.13-.31.25-.46.38l1.38-.18c-2.7-2.05-5.4-4.11-8.1-6.16-4.29-3.26-8.57-6.52-12.86-9.78-.99-.75-1.98-1.5-2.96-2.25l.23,1.79c1.42-1.75,2.84-3.5,4.26-5.24.39-.48.47-1.14,0-1.61-.4-.4-1.22-.48-1.61,0-1.42,1.75-2.84,3.5-4.26,5.24-.5.62-.39,1.31.23,1.79,2.7,2.05,5.4,4.11,8.1,6.16l12.86,9.78c.99.75,1.98,1.5,2.96,2.25.43.32,1.02.12,1.38-.18,1.55-1.26,3.1-2.53,4.66-3.79,3.73-3.03,7.45-6.07,11.18-9.1,4.49-3.65,8.98-7.31,13.47-10.96,3.88-3.16,7.76-6.32,11.64-9.48,1.29-1.05,2.57-2.1,3.86-3.14.6-.49,1.24-.95,1.81-1.47.03-.02.06-.05.08-.07l-.8.33c5,0,10.03-.57,14.86-1.87,4.27-1.15,8.41-2.89,12.19-5.19,3.53-2.15,6.78-4.78,9.64-7.76s5.26-6.2,7.37-9.66,3.85-7.11,5.33-10.87,2.6-7.42,3.52-11.24,1.54-7.42,1.99-11.18c.41-3.34.65-6.71.69-10.08.04-2.83-.05-5.66-.35-8.48-.23-2.17-.54-4.36-1.18-6.45-.11-.36-.23-.72-.37-1.08-.22-.57-.76-.97-1.4-.79-.55.15-1.02.82-.79,1.4h0Z"/>
  <path class="cls-1" d="m69.02,163.47c-.6.72-1.2,1.43-1.8,2.15-1.43,1.71-2.87,3.42-4.3,5.13l-5.2,6.2c-1.5,1.79-3,3.58-4.5,5.36-.73.87-1.52,1.71-2.19,2.61,0,.01-.02.03-.03.04h1.61c-.45-.38-.9-.76-1.36-1.14-1.23-1.03-2.46-2.06-3.69-3.09-1.82-1.52-3.64-3.05-5.45-4.57l-6.65-5.58c-2.43-2.04-4.86-4.07-7.29-6.11s-4.9-4.11-7.36-6.17c-2.29-1.92-4.57-3.83-6.86-5.75l-5.8-4.86c-1.39-1.16-2.78-2.33-4.17-3.49-.66-.55-1.3-1.12-1.97-1.65-.03-.02-.06-.05-.08-.07v1.61c.6-.72,1.2-1.43,1.8-2.15l4.3-5.13c1.73-2.07,3.47-4.13,5.2-6.2,1.5-1.79,3-3.58,4.5-5.36.73-.87,1.52-1.71,2.19-2.61,0-.01.02-.03.03-.04h-1.61c.45.38.9.76,1.36,1.14l3.69,3.09c1.82,1.52,3.64,3.05,5.45,4.57,2.22,1.86,4.44,3.72,6.65,5.58,2.43,2.04,4.86,4.07,7.29,6.11,2.45,2.06,4.9,4.11,7.36,6.17,2.29,1.92,4.57,3.83,6.86,5.75,1.93,1.62,3.86,3.24,5.8,4.86l4.17,3.49c.66.55,1.31,1.1,1.97,1.65.03.02.06.05.08.07.46.38,1.17.48,1.61,0,.39-.42.49-1.2,0-1.61-.45-.38-.9-.76-1.36-1.14l-3.69-3.09c-1.82-1.52-3.64-3.05-5.45-4.57l-6.65-5.58c-2.43-2.04-4.86-4.07-7.29-6.11s-4.9-4.11-7.36-6.17c-2.29-1.92-4.57-3.83-6.86-5.75l-5.8-4.86-4.17-3.49c-.66-.55-1.31-1.1-1.97-1.65-.03-.02-.06-.05-.08-.07-.44-.37-1.19-.5-1.61,0-.6.72-1.2,1.43-1.8,2.15l-4.3,5.13-5.2,6.2-4.5,5.36c-.73.87-1.47,1.73-2.19,2.61-.01.01-.02.03-.03.04-.37.44-.5,1.19,0,1.61.45.38.9.76,1.36,1.14l3.69,3.09c1.82,1.52,3.64,3.05,5.45,4.57,2.22,1.86,4.44,3.72,6.65,5.58,2.43,2.04,4.86,4.07,7.29,6.11,2.45,2.06,4.9,4.11,7.36,6.17,2.29,1.92,4.57,3.83,6.86,5.75,1.93,1.62,3.86,3.24,5.8,4.86,1.39,1.16,2.78,2.33,4.17,3.49.66.55,1.31,1.1,1.97,1.65.03.02.06.05.08.07.44.37,1.19.5,1.61,0,.6-.72,1.2-1.43,1.8-2.15l4.3-5.13,5.2-6.2c1.5-1.79,3-3.58,4.5-5.36.73-.87,1.47-1.73,2.19-2.61.01-.01.02-.03.03-.04.38-.46.48-1.17,0-1.61-.42-.39-1.2-.49-1.61,0Z"/>
  <path class="cls-1" d="m45.97,154.82c-.84,1-1.67,1.99-2.51,2.99l-4,4.77c-.31.36-.61.73-.92,1.09h1.61c-.53-.44-1.06-.89-1.59-1.33l-3.78-3.17-4.58-3.84-3.98-3.33c-.64-.54-1.26-1.11-1.93-1.62,0,0-.02-.02-.03-.02v1.61c.84-1,1.67-1.99,2.51-2.99,1.33-1.59,2.67-3.18,4-4.77.31-.36.61-.73.92-1.09h-1.61c.53.44,1.06.89,1.59,1.33,1.26,1.06,2.52,2.12,3.78,3.17,1.53,1.28,3.05,2.56,4.58,3.84l3.98,3.33c.64.54,1.28,1.08,1.93,1.62,0,0,.02.02.03.02.46.38,1.17.48,1.61,0,.39-.42.49-1.2,0-1.61-.53-.44-1.06-.89-1.59-1.33l-3.78-3.17c-1.53-1.28-3.05-2.56-4.58-3.84l-3.98-3.33c-.64-.54-1.28-1.08-1.93-1.62,0,0-.02-.02-.03-.02-.44-.37-1.19-.5-1.61,0-.84,1-1.67,1.99-2.51,2.99l-4,4.77c-.31.36-.61.73-.92,1.09-.37.44-.5,1.19,0,1.61.53.44,1.06.89,1.59,1.33l3.78,3.17,4.58,3.84,3.98,3.33c.64.54,1.28,1.08,1.93,1.62,0,0,.02.02.03.02.44.37,1.19.5,1.61,0,.84-1,1.67-1.99,2.51-2.99,1.33-1.59,2.67-3.18,4-4.77.31-.36.61-.73.92-1.09.38-.46.48-1.17,0-1.61-.42-.39-1.2-.49-1.61,0Z"/>
  <path class="cls-1" d="m9.05,133.82c.79.67,1.58,1.34,2.37,2.01l6.16,5.23c2.87,2.44,5.73,4.87,8.6,7.31,3.25,2.76,6.5,5.53,9.76,8.29s6.3,5.36,9.46,8.04c2.62,2.23,5.24,4.46,7.87,6.68l4.93,4.19c.32.27.63.54.95.81.02.01.03.03.05.04.4.33.82.36,1.28.25l1.88-.45,5.84-1.41c.52-.13,1.05-.23,1.56-.38.46-.13.65-.42.93-.76,2.29-2.77,4.59-5.54,6.88-8.31l.61-.73c.36-.44.51-1.19,0-1.61-1.15-.96-2.29-1.92-3.44-2.89-1.82-1.53-3.64-3.05-5.46-4.58-.42-.35-.84-.7-1.26-1.06v1.61c1.45-1.75,2.9-3.49,4.34-5.24,2.29-2.76,4.58-5.51,6.86-8.27.52-.63,1.05-1.26,1.57-1.89.36-.43.52-1.2,0-1.61-2.52-2.01-5.04-4.02-7.57-6.03-.35-.28-.71-.57-1.06-.85l.18,1.38c.73-1.13,1.46-2.26,2.18-3.39.32-.5.12-1.28-.41-1.56-.57-.3-1.21-.13-1.56.41-.73,1.13-1.46,2.26-2.18,3.39-.25.38-.2,1.08.18,1.38,2.52,2.01,5.04,4.02,7.57,6.03.35.28.71.57,1.06.85v-1.61c-1.45,1.75-2.9,3.49-4.34,5.24l-6.86,8.27c-.52.63-1.05,1.26-1.57,1.89-.37.44-.51,1.19,0,1.61,1.15.96,2.29,1.92,3.44,2.89,1.82,1.53,3.64,3.05,5.46,4.58.42.35.84.7,1.26,1.06v-1.61c-.89,1.07-1.77,2.14-2.66,3.21l-4.24,5.12-.97,1.17.5-.29c-2.78.67-5.56,1.34-8.34,2.01-.39.09-.78.19-1.17.28l1.11.29c-.45-.38-.89-.76-1.34-1.14l-3.65-3.1-5.4-4.59c-2.2-1.87-4.39-3.73-6.59-5.6-2.4-2.04-4.81-4.09-7.21-6.13s-4.85-4.12-7.28-6.19c-2.25-1.92-4.51-3.83-6.76-5.75l-5.74-4.88-4.13-3.51c-.65-.55-1.3-1.11-1.96-1.66-.03-.02-.06-.05-.08-.07-.45-.38-1.17-.48-1.61,0-.39.42-.48,1.2,0,1.61h0Z"/>
  <path class="cls-1" d="m52.11,186.87c1.31-.41,2.63-.82,3.94-1.22,1.74-.54,3.47-1.08,5.21-1.62.12-.04.24-.07.35-.11.3-.11.46-.24.65-.46l1.17-1.36c1.35-1.56,2.7-3.13,4.04-4.69.93-1.08,1.87-2.15,2.79-3.23.02-.02.03-.04.05-.05.39-.45.48-1.17,0-1.61-.43-.39-1.19-.48-1.61,0-.92,1.07-1.84,2.14-2.76,3.21-1.47,1.71-2.94,3.41-4.41,5.12l-1.02,1.18.5-.29c-1.07.33-2.14.66-3.21.99l-5.12,1.59c-.39.12-.79.24-1.18.37-.57.18-.99.8-.79,1.4s.79.98,1.4.79h0Z"/>
  <path class="cls-1" d="m69.83,165.42c2.2-.13,4.4-.27,6.6-.4.31-.02.62-.04.93-.06.59-.04,1.17-.5,1.14-1.14-.03-.59-.5-1.18-1.14-1.14-2.2.13-4.4.27-6.6.4-.31.02-.62.04-.93.06-.59.04-1.17.5-1.14,1.14.03.59.5,1.18,1.14,1.14h0Z"/>
  <path class="cls-1" d="m56.24,185.27c1.48,1.18,2.96,2.37,4.44,3.55l7.06,5.65c.54.43,1.07.86,1.61,1.29.46.37,1.16.49,1.61,0,.38-.41.5-1.21,0-1.61-1.48-1.18-2.96-2.37-4.44-3.55-2.35-1.88-4.71-3.77-7.06-5.65-.54-.43-1.07-.86-1.61-1.29-.46-.37-1.16-.49-1.61,0-.38.41-.5,1.21,0,1.61h0Z"/>
  <path class="cls-1" d="m83.98,131.31c.58-.73,1.16-1.45,1.73-2.18,1.39-1.74,2.78-3.48,4.16-5.23,1.67-2.1,3.35-4.2,5.02-6.3,1.45-1.82,2.9-3.64,4.35-5.46.7-.88,1.41-1.76,2.11-2.65.01-.01.02-.03.03-.04.37-.46.49-1.16,0-1.61-.41-.38-1.21-.5-1.61,0-.58.73-1.16,1.45-1.73,2.18l-4.16,5.23-5.02,6.3c-1.45,1.82-2.9,3.64-4.35,5.46-.7.88-1.41,1.76-2.11,2.65-.01.01-.02.03-.03.04-.37.46-.49,1.16,0,1.61.41.38,1.21.5,1.61,0h0Z"/>
  <path class="cls-1" d="m109.16,119.74c-.23.72-.46,1.44-.69,2.16-.55,1.73-1.1,3.46-1.65,5.19-.66,2.09-1.33,4.19-1.99,6.28l-1.72,5.43c-.28.88-.59,1.75-.84,2.64,0,.01,0,.02-.01.04-.18.57.21,1.26.79,1.4l3.2.76c1.7.4,3.41.8,5.11,1.21l1.19.28c.61.14,1.21-.19,1.4-.79.22-.71.44-1.42.65-2.13l1.56-5.09,1.9-6.19,1.64-5.35c.26-.86.56-1.72.8-2.59,0-.01,0-.03.01-.04.17-.57-.21-1.27-.79-1.4s-1.21.19-1.4.79c-.22.71-.44,1.42-.65,2.13l-1.56,5.09-1.9,6.19c-.55,1.78-1.09,3.57-1.64,5.35-.26.86-.57,1.72-.8,2.59,0,.01,0,.03-.01.04l1.4-.79c-1.07-.25-2.13-.5-3.2-.76l-5.11-1.21-1.19-.28.79,1.4c.23-.72.46-1.44.69-2.16l1.65-5.19c.66-2.09,1.33-4.19,1.99-6.28l1.72-5.43c.28-.88.59-1.75.84-2.64,0-.01,0-.02.01-.04.18-.57-.21-1.27-.79-1.4-.62-.14-1.21.19-1.4.79h0Z"/>
  <path class="cls-1" d="m85.1,129.07c.68.17,1.35.33,2.03.5,1.62.4,3.24.8,4.87,1.2,1.96.48,3.92.96,5.89,1.45,1.69.42,3.38.83,5.07,1.25.82.2,1.65.45,2.48.61.01,0,.02,0,.04,0l-.68-1.67c-.08.13-.17.25-.26.37-.08.1-.3.38.02-.02-.06.08-.12.16-.18.23-.15.19-.31.38-.47.56-.97,1.13-2.03,2.17-3.17,3.13-.17.15-.35.29-.53.43-.09.08-.19.15-.29.23-.02.02-.04.03-.06.05-.13.1.12-.09.11-.09-.05.04-.11.08-.16.12-.41.31-.83.61-1.26.9-.94.63-1.91,1.21-2.92,1.73-.54.28-1.1.54-1.66.78-.03.01-.06.02-.09.04-.13.06.23-.1.1-.04-.07.03-.14.06-.2.08-.16.06-.32.13-.47.19-.3.12-.61.23-.92.34-1.29.45-2.62.8-3.96,1.05-.36.07-.72.13-1.08.18-.04,0-.07.01-.11.02-.2.03.06,0,.08-.01-.09,0-.17.02-.26.03-.2.02-.4.05-.6.07-.78.08-1.56.13-2.34.14s-1.62,0-2.43-.05c-.43-.03-.86-.06-1.28-.1-.22-.02-.44-.05-.65-.07-.1-.01-.21-.03-.31-.04-.07,0-.2,0,.04,0-.06,0-.12-.02-.18-.02-.45-.06-.9-.14-1.35-.22-.58-.11-1.25.16-1.4.79-.13.56.17,1.29.79,1.4,3.46.63,6.96.76,10.45.27,2.79-.39,5.5-1.22,8.06-2.41,2.11-.98,4.06-2.24,5.88-3.69,1.26-1,2.44-2.11,3.5-3.31.53-.6,1.08-1.22,1.51-1.89,0,0,.01-.02.02-.02.4-.6,0-1.5-.68-1.67s-1.35-.33-2.03-.5l-4.87-1.2-5.89-1.45-5.07-1.25c-.83-.2-1.65-.43-2.48-.61-.01,0-.02,0-.04,0-.58-.14-1.26.18-1.4.79s.18,1.25.79,1.4h0Z"/>
  <path class="cls-1" d="m116.17,136.67c1.08.27,2.15.54,3.23.81,2.57.64,5.13,1.29,7.7,1.93,3.1.78,6.2,1.56,9.3,2.34,2.7.68,5.39,1.36,8.09,2.03,1.3.33,2.6.68,3.9.98.02,0,.04,0,.05.01.58.14,1.26-.19,1.4-.79s-.18-1.24-.79-1.4c-1.08-.27-2.15-.54-3.23-.81l-7.7-1.93c-3.1-.78-6.2-1.56-9.3-2.34-2.7-.68-5.39-1.36-8.09-2.03-1.3-.33-2.6-.68-3.9-.98-.02,0-.04,0-.05-.01-.58-.14-1.26.19-1.4.79s.18,1.24.79,1.4h0Z"/>
  <path class="cls-1" d="m50.6,120.84c-1.52,2.22-3.03,4.45-4.55,6.67-.21.31-.42.62-.63.93l1.56-.41c-.18-.11-.36-.22-.53-.34-.04-.03-.08-.07-.12-.09.02.01.2.17.05.04-.08-.07-.17-.14-.25-.21-.13-.12-.25-.24-.36-.37-.06-.07-.11-.15-.17-.21.18.16.11.15.06.07-.03-.04-.06-.09-.09-.13-.09-.14-.18-.29-.26-.44-.03-.06-.07-.13-.1-.19-.02-.04-.03-.07-.05-.11-.1-.21.1.26.02.05-.11-.3-.2-.6-.26-.92-.01-.08-.03-.15-.04-.23-.03-.19.03.31,0,.02-.02-.15-.03-.3-.03-.46-.01-.3,0-.61.02-.91,0-.07.01-.14.02-.21,0-.03,0-.05,0-.08.02-.18-.02.15-.02.15.03-.15.05-.3.07-.45.05-.24.1-.49.17-.72.1-.36.21-.72.35-1.07.02-.05.04-.1.06-.15-.18.47-.11.23-.06.14.01-.02.02-.04.03-.06.17-.3.39-.57.59-.86,1.1-1.6,2.19-3.2,3.29-4.8l4.01-5.84c.75-1.1,1.55-2.17,2.26-3.3.01-.02.02-.03.03-.05.34-.49.11-1.28-.41-1.56-.58-.31-1.2-.12-1.56.41-.64.93-1.28,1.87-1.92,2.8l-4.03,5.88-3.48,5.08c-.24.35-.5.69-.72,1.05-.24.41-.4.92-.53,1.37-.82,2.68-.61,5.84,1.62,7.8.37.33.78.62,1.2.87.56.33,1.21.1,1.56-.41,1.52-2.22,3.03-4.45,4.55-6.67.21-.31.42-.62.63-.93.34-.49.11-1.28-.41-1.56-.58-.3-1.2-.12-1.56.41h0Z"/>
  <path class="cls-1" d="m51.54,136.89c-.22-.03-.43-.09-.64-.15-.23-.07-.46-.15-.68-.24s.3.13.05.02c-.07-.03-.14-.06-.21-.1-.14-.07-.27-.14-.41-.21-.15-.08-.29-.17-.44-.27-.07-.04-.13-.09-.19-.13-.04-.03-.07-.06-.11-.08-.12-.09.24.2.09.07-.29-.25-.57-.5-.81-.79-.03-.04-.06-.08-.1-.12-.05-.05.18.25.07.09-.06-.09-.13-.18-.19-.27-.11-.17-.22-.36-.31-.54-.05-.1-.09-.2-.14-.3.05.09.1.25.04.08-.02-.07-.05-.13-.07-.2-.08-.22-.14-.45-.19-.69-.03-.14-.06-.29-.08-.43-.04-.25.02.22,0,.03,0-.08-.02-.16-.02-.25-.03-.33-.03-.66-.02-.99,0-.17.02-.33.03-.5,0-.02.04-.29.03-.3,0,0-.03.24-.02.11,0-.05.01-.1.02-.15.07-.43.16-.85.27-1.26.15-.58-.19-1.26-.79-1.4s-1.24.18-1.4.79c-.62,2.42-.7,5.23.83,7.35.98,1.35,2.35,2.28,3.93,2.8.28.09.57.18.87.22.59.09,1.25-.15,1.4-.79.12-.54-.17-1.3-.79-1.4h0Z"/>
  <path class="cls-1" d="m56.12,125.33c-.73,1.12-1.46,2.24-2.18,3.35-.86,1.33-1.73,2.65-2.59,3.98-.09.14-.15.29-.22.44-.23.54-.44,1.08-.59,1.65-.41,1.49-.6,3.22-.02,4.69.39.99,1,1.78,1.87,2.4,1.02.72,2.28,1.02,3.5,1.17.35.04.7.07,1.05.09.6.03,1.16-.54,1.14-1.14-.03-.64-.5-1.11-1.14-1.14-.17,0-.35-.02-.52-.03-.08,0-.15-.01-.23-.02-.04,0-.08,0-.11-.01-.04,0-.26-.03-.07,0s-.05,0-.1-.02c-.07-.01-.14-.02-.21-.03-.15-.03-.31-.06-.46-.1-.27-.06-.53-.14-.79-.24-.05-.02-.11-.04-.16-.06-.18-.06.27.13.04.02-.1-.05-.21-.1-.31-.15-.2-.11-.38-.24-.56-.36-.06-.04.23.19.08.06-.04-.03-.08-.07-.12-.1-.08-.07-.15-.14-.22-.22-.06-.06-.12-.13-.17-.19-.14-.16.08.11.06.08-.02-.04-.06-.08-.09-.12-.1-.15-.2-.31-.28-.48-.02-.04-.03-.08-.05-.11-.02-.04.12.31.04.1-.03-.08-.06-.16-.09-.25-.05-.17-.1-.35-.13-.52-.01-.07-.06-.38-.02-.12s0-.06,0-.13c-.01-.18-.02-.36-.02-.54s0-.35.02-.53c0-.08.01-.16.02-.23.03-.3-.05.29,0,0,.05-.32.11-.64.2-.95.13-.5.29-.98.48-1.46.06-.16.04-.09-.06.14.01-.03.03-.07.04-.1.02-.05.04-.1.07-.15.02-.04.03-.07.06-.11.24-.42.53-.82.8-1.22l1.52-2.34c.82-1.25,1.67-2.49,2.45-3.76.01-.02.03-.04.04-.07.33-.5.12-1.28-.41-1.56-.57-.3-1.21-.13-1.56.41h0Z"/>
  <path class="cls-1" d="m79.51,126.77c.13.11.26.23.38.36.14.14.28.29.41.43.07.08.14.16.21.24.04.05.08.09.12.14.03.04.19.25.06.08s.02.03.05.07c.03.05.07.09.1.14.09.12.17.25.25.37.15.25.3.5.42.76.03.07.06.14.09.2,0,0-.09-.24-.05-.13.01.04.03.08.05.12.05.14.1.28.14.42s.07.29.1.44c.05.25-.01-.21,0-.02,0,.09.01.17.02.26,0,.14,0,.28-.01.42-.02.25.05-.21,0,0-.02.09-.04.17-.06.26-.02.07-.04.13-.06.2-.01.04-.1.31-.04.13.05-.17-.04.07-.07.13-.05.09-.1.18-.15.26s-.22.29.05-.03c0,0,0,0,0,.01-.02.02-.04.05-.06.07-.07.09-.15.19-.22.28l-1.77,2.21c-.46.58-.93,1.16-1.39,1.74-.37.46-.49,1.16,0,1.61.41.38,1.21.5,1.61,0,1.04-1.3,2.07-2.59,3.11-3.89.17-.22.36-.43.52-.66.49-.69.75-1.5.82-2.34.12-1.39-.48-2.8-1.26-3.92-.49-.71-1.06-1.41-1.72-1.97-.45-.39-1.17-.48-1.61,0-.39.42-.48,1.2,0,1.61h0Z"/>
  <path class="cls-1" d="m70.52,132.22c-1.4,2.24-2.81,4.48-4.21,6.72-.2.33-.42.65-.61.99-.65,1.15-.97,2.43-.48,3.69.1.26.22.52.34.78.05.11.1.21.14.32.02.04.03.07.05.11-.16-.34-.03-.06,0,.01,0,.02.02.1.03.11-.1-.08-.02-.35-.03-.17,0,.12.09-.36,0-.12.12-.35.11-.25.06-.16-.08.13-.06-.04.1-.12-.02.01-.06.06-.07.08-.09.1-.21.09.08-.06-.14.07-.28.16-.42.24-.18.09.28-.11.1-.04-.03.01-.06.02-.09.04-.11.04-.22.08-.34.11-.37.11-.75.2-1.14.26-.17.03-.33.05-.5.08-.21.03.36-.04.07,0-.07,0-.13.02-.2.02-.28.03-.55,0-.83-.02-.08,0-.15-.01-.23-.02-.09,0-.3-.08,0,0-.11-.03-.24-.03-.35-.05-.26-.05-.52-.1-.77-.17-.23-.06-.45-.15-.67-.23-.16-.06.11.04.12.05-.03-.03-.11-.05-.15-.07-.11-.05-.22-.11-.33-.17-.16-.09-.3-.19-.45-.29-.16-.11.23.19.08.06-.03-.03-.07-.06-.11-.09-.07-.06-.13-.12-.2-.18s-.12-.13-.18-.19c-.07-.08-.19-.31.02.03-.09-.15-.2-.28-.28-.44-.04-.07-.07-.13-.1-.2-.14-.29.09.25,0,.01-.06-.15-.11-.3-.15-.46-.04-.14-.07-.29-.09-.43-.05-.31.03.28,0,.03,0-.08-.02-.16-.02-.24-.02-.32-.02-.63,0-.95.01-.13.09-.65,0-.16.02-.15.05-.3.07-.45.1-.52.24-1.02.41-1.52.06-.18.13-.36.2-.54.02-.04.03-.07.05-.11-.17.43-.12.27-.07.17.02-.05.05-.1.07-.15.06-.12.13-.23.2-.34,1.52-2.33,3.04-4.67,4.56-7l.13-.2c.33-.5.12-1.28-.41-1.56-.57-.3-1.21-.13-1.56.41-1.47,2.26-2.95,4.53-4.42,6.79-.14.21-.29.42-.42.64-.15.28-.26.58-.38.87-.43,1.09-.7,2.25-.74,3.42-.06,1.55.41,3.16,1.56,4.25.72.68,1.62,1.13,2.57,1.4.6.17,1.23.27,1.85.33.32.03.64.07.96.04.77-.08,1.55-.2,2.29-.41.92-.27,2.02-.74,2.29-1.77.17-.65-.12-1.22-.38-1.8-.05-.1-.1-.21-.14-.31-.02-.05-.04-.1-.07-.15-.09-.19.1.27.03.07s-.13-.41-.18-.62,0,.3.01.08c0-.06,0-.11,0-.17,0-.06,0-.12,0-.18,0-.22-.05.23-.01.08.03-.12.05-.25.09-.37.02-.07.05-.15.07-.22.02-.05.04-.1.06-.15-.06.14-.06.15,0,.03.14-.28.29-.55.45-.81l4.46-7.1.13-.21c.32-.5.12-1.28-.41-1.56-.56-.3-1.22-.13-1.56.41h0Z"/>
  <path class="cls-1" d="m66.87,139.9c2.13,1.8,4.25,3.59,6.38,5.39.3.25.6.5.89.76.45.38,1.17.48,1.61,0,.39-.42.49-1.2,0-1.61-2.13-1.8-4.25-3.59-6.38-5.39-.3-.25-.6-.5-.89-.76-.45-.38-1.17-.48-1.61,0-.39.42-.49,1.2,0,1.61h0Z"/>
  <path class="cls-1" d="m38.36,115.98c1.55,1.32,3.1,2.63,4.66,3.95.22.19.44.38.66.56.45.38,1.17.48,1.61,0,.39-.42.48-1.2,0-1.61-1.55-1.32-3.1-2.63-4.66-3.95-.22-.19-.44-.38-.66-.56-.45-.38-1.17-.48-1.61,0-.39.42-.48,1.2,0,1.61h0Z"/>
  <path class="cls-1" d="m70.66,142.78c-.08.1-.18.19-.28.27-.02.02-.04.03-.06.05-.16.13.25-.18.12-.09-.06.04-.12.09-.19.13-.15.1-.31.19-.47.27-.04.02-.24.1-.02.01s.01,0-.03,0c-.11.04-.21.07-.32.1-.12.03-.24.06-.36.08-.1.02-.36.02.03,0-.06,0-.12.01-.17.02-.29.02-.59.02-.88,0-.05,0-.09,0-.14-.02.19.03.22.03.09.01-.07-.01-.14-.03-.22-.04-.2-.04-.41-.09-.6-.15-.57-.17-1.27.21-1.4.79s.18,1.22.79,1.4c1.43.43,2.93.41,4.3-.22.52-.23,1.06-.58,1.43-1.02.2-.24.33-.48.33-.8,0-.28-.12-.61-.33-.8-.42-.38-1.21-.49-1.61,0h0Z"/>
  <path class="cls-1" d="m70.17,143.35c-1.1,1.33-2.2,2.67-3.31,4-1.74,2.11-3.49,4.22-5.23,6.33-.4.49-.81.98-1.21,1.47-.38.46-.48,1.17,0,1.61.42.38,1.2.49,1.61,0,1.1-1.33,2.2-2.67,3.31-4,1.74-2.11,3.49-4.22,5.23-6.33.4-.49.81-.98,1.21-1.47.38-.46.48-1.17,0-1.61-.42-.38-1.2-.49-1.61,0h0Z"/>
  <path class="cls-1" d="m40.73,117.46c-1.19,1.44-2.38,2.88-3.57,4.32-1.9,2.29-3.8,4.59-5.69,6.88-.43.52-.87,1.05-1.3,1.57-.38.46-.48,1.17,0,1.61.42.38,1.2.49,1.61,0,1.19-1.44,2.38-2.88,3.57-4.32l5.69-6.88c.43-.52.87-1.05,1.3-1.57.38-.46.48-1.17,0-1.61-.42-.38-1.2-.49-1.61,0h0Z"/>
  <path class="cls-1" d="m66.4,154.49c-.91,1.03-1.82,2.06-2.73,3.09l-.38.43c-.2.23-.33.49-.33.8,0,.28.12.61.33.8.43.4,1.19.48,1.61,0,.91-1.03,1.82-2.06,2.73-3.09l.38-.43c.2-.23.33-.49.33-.8,0-.28-.12-.61-.33-.8-.43-.4-1.19-.48-1.61,0h0Z"/>
  <path class="cls-1" d="m48.89,113.42c-1.43-1.11-2.87-2.23-4.3-3.34-.21-.16-.41-.32-.62-.48-.24-.19-.48-.35-.8-.33-.29.01-.61.11-.8.33-.5.59-1,1.18-1.5,1.77l-3.59,4.25c-1.45,1.71-2.9,3.43-4.35,5.14l-3.76,4.45c-.61.72-1.23,1.44-1.83,2.17,0,.01-.02.02-.03.03-.38.45-.48,1.17,0,1.61.42.39,1.2.49,1.61,0,.5-.59,1-1.18,1.5-1.77l3.59-4.25,4.35-5.14,3.76-4.45c.61-.72,1.26-1.42,1.83-2.17,0-.01.02-.02.03-.03h-1.61c1.43,1.11,2.87,2.23,4.3,3.34.21.16.41.32.62.48.25.19.47.33.8.33.28,0,.61-.12.8-.33.37-.41.5-1.22,0-1.61h0Z"/>
  <path class="cls-1" d="m19.16,122.93c2.29.28,4.59.56,6.88.83.32.04.65.08.97.12l-.57-.16c1.17.87,2.33,1.75,3.5,2.62.48.36,1.29.09,1.56-.41.32-.6.1-1.17-.41-1.56-.67-.5-1.35-1.01-2.02-1.51l-1.2-.9c-.29-.22-.49-.32-.9-.37-1.88-.23-3.77-.46-5.65-.69-.72-.09-1.44-.17-2.15-.26-.59-.07-1.16.57-1.14,1.14.03.68.5,1.06,1.14,1.14h0Z"/>
  <path class="cls-1" d="m124.37,32.86c-.31-.24-.61-.49-.92-.73l-2.5-1.99-3.69-2.94c-1.5-1.2-3-2.39-4.51-3.59l-4.94-3.93c-1.66-1.32-3.32-2.65-4.98-3.97-1.55-1.23-3.1-2.47-4.65-3.7l-3.94-3.14c-.94-.75-1.88-1.5-2.82-2.25-.44-.35-.88-.72-1.34-1.06-.02-.01-.04-.03-.06-.05l-.5,1.9c.98-.17,1.96-.35,2.94-.52,2.33-.41,4.66-.82,7-1.24,2.82-.5,5.64-1,8.46-1.5l7.36-1.3c1.18-.21,2.38-.38,3.55-.63.02,0,.03,0,.05,0l-1.11-.29c.66.52,1.32,1.04,1.98,1.56,1.6,1.26,3.19,2.52,4.79,3.77,1.92,1.52,3.85,3.03,5.77,4.55l4.99,3.93c.81.64,1.62,1.28,2.44,1.92.01,0,.02.02.03.03.25.19.48.33.8.33.28,0,.61-.12.8-.33.38-.41.5-1.22,0-1.61-.78-.61-1.56-1.23-2.33-1.84-1.81-1.43-3.62-2.85-5.43-4.28l-6.25-4.92c-1.59-1.25-3.19-2.51-4.78-3.76l-1.11-.87s-.06-.05-.09-.07c-.37-.29-.67-.38-1.13-.31-.07.01-.13.02-.2.04-1.24.22-2.49.44-3.73.66l-6.86,1.21c-2.64.47-5.28.93-7.92,1.4l-6.82,1.21-3.64.64-.17.03c-.8.14-1.15,1.39-.5,1.9.31.24.61.49.92.73l2.5,1.99,3.69,2.94c1.5,1.2,3,2.39,4.51,3.59l4.94,3.93,4.98,3.97,4.65,3.7,3.94,3.14,2.82,2.25c.45.35.89.71,1.34,1.06.02.02.04.03.06.05.46.37,1.16.49,1.61,0,.38-.41.5-1.21,0-1.61h0Z"/>
  <path class="cls-1" d="m88.09,6.31c-.19,1.67-.37,3.34-.56,5.02-.05.47-.01.93.38,1.25l.59.47,2.56,2.06,3.99,3.22,4.9,3.95,5.26,4.24,5.14,4.14,4.48,3.61,3.29,2.65c.53.43,1.05.85,1.58,1.28.02.02.05.04.07.05.46.37,1.16.49,1.61,0,.38-.41.49-1.21,0-1.61-.28-.23-.57-.46-.85-.69l-2.32-1.87-3.45-2.78c-1.4-1.13-2.79-2.25-4.19-3.38l-4.59-3.7c-1.54-1.24-3.09-2.49-4.63-3.73-1.45-1.17-2.89-2.33-4.34-3.5l-3.65-2.94-2.63-2.12c-.41-.33-.82-.69-1.25-1-.02-.01-.04-.03-.05-.04l.33.8c.17-1.57.35-3.15.52-4.72l.07-.67c.07-.59-.57-1.16-1.14-1.14-.67.03-1.07.5-1.14,1.14h0Z"/>
  <path class="cls-1" d="m86.63,18.9c.31.24.62.49.92.73l2.51,1.99,3.72,2.95,4.54,3.59c1.65,1.31,3.3,2.61,4.95,3.92,1.67,1.32,3.34,2.65,5.02,3.97l4.68,3.7,3.95,3.13,2.84,2.25c.45.35.89.71,1.34,1.06.02.02.04.03.06.05.47.37,1.16.49,1.61,0,.38-.41.5-1.21,0-1.61-.31-.24-.62-.49-.92-.73l-2.51-1.99-3.72-2.95-4.54-3.59-4.95-3.92c-1.67-1.32-3.34-2.65-5.02-3.97l-4.68-3.7-3.95-3.13-2.84-2.25c-.45-.35-.89-.71-1.34-1.06-.02-.02-.04-.03-.06-.05-.47-.37-1.16-.49-1.61,0-.38.41-.5,1.21,0,1.61h0Z"/>
  <path class="cls-1" d="m86.33,17.79c-.29,1.51-.58,3.03-.87,4.54l-.13.65c-.07.37-.03.84.29,1.11.35.29.71.58,1.06.86l2.87,2.34c1.42,1.16,2.84,2.31,4.26,3.47,1.73,1.4,3.46,2.81,5.18,4.21,1.89,1.54,3.78,3.08,5.68,4.62l5.73,4.66c1.79,1.45,3.58,2.91,5.36,4.36,1.51,1.22,3.01,2.45,4.52,3.67l3.26,2.65c.51.42,1.02.83,1.54,1.25.02.02.04.04.07.05.46.37,1.16.48,1.61,0,.38-.42.49-1.21,0-1.61-.35-.29-.71-.58-1.06-.86-.96-.78-1.92-1.56-2.87-2.34l-4.26-3.47-5.18-4.21-5.68-4.62-5.73-4.66-5.36-4.36c-1.51-1.22-3.01-2.45-4.52-3.67l-3.26-2.65c-.51-.42-1.01-.85-1.54-1.25-.02-.02-.04-.04-.07-.05l.29,1.11c.29-1.51.58-3.03.87-4.54l.13-.65c.11-.58-.16-1.26-.79-1.4-.56-.13-1.28.17-1.4.79h0Z"/>
  <g>
    <path class="cls-1" d="m204.29,86.33c-.52.06-.97-.42-1.07-.81-.17-.65-.02-.35-.04-.25,0,.04,0,.09,0,.13-.01.14-.03.28-.05.42-.04.43-.06.86-.03,1.29.05.71.2,1.36.5,2.01.32.7.86,1.27,1.48,1.72.9.65,2.03.88,3.12.99.59.06,1.16-.57,1.14-1.14-.03-.67-.5-1.07-1.14-1.14-.04,0-.21,0-.24-.03,0,0,.29.04.08,0-.12-.02-.24-.04-.36-.07-.22-.05-.43-.1-.64-.17-.1-.03-.19-.08-.29-.11,0,0,.27.12.11.04-.03-.02-.07-.03-.1-.05-.17-.08-.33-.18-.49-.29-.25-.17.12.12,0,.01-.06-.05-.12-.1-.18-.16-.11-.11-.2-.23-.31-.34.27.28.09.11.02.01-.04-.06-.08-.12-.11-.19-.03-.05-.05-.1-.08-.15-.02-.04-.04-.08-.05-.12-.08-.16.11.29.05.12-.09-.25-.17-.5-.22-.76-.01-.06-.02-.12-.03-.18.08.44.02.18.01.07-.01-.12-.02-.25-.02-.37-.01-.4.02-.81.06-1.21.01-.12.03-.25.04-.37,0-.19-.03-.34-.11-.51-.17-.39-.6-.76-1.06-.71-.59.07-1.17.48-1.14,1.14.03.56.5,1.21,1.14,1.14h0Z"/>
    <g>
      <path class="cls-1" d="m234.31,92.78c-1.75.68-3.49,1.35-5.24,2.03-1.38.54-2.76,1.1-4.16,1.61-.35.13-.7.23-1.06.32-.25.06-.49.11-.74.16-.07.01-.14.02-.21.03-.3.05.21-.02.04,0-.15.02-.29.03-.44.04-.29.02-.59.03-.89,0-.08,0-.15,0-.23-.02-.12-.01-.32-.08.05.01-.15-.04-.3-.05-.45-.08s-.3-.08-.44-.13c-.06-.02-.13-.06-.19-.07.25.05.22.1.13.05-.05-.02-.09-.04-.14-.07-.13-.07-.26-.14-.38-.23-.25-.17.12.11,0,0-.06-.05-.12-.1-.18-.16-.04-.03-.3-.35-.32-.35.04,0,.16.22.07.09-.02-.03-.05-.06-.07-.1-.06-.08-.11-.17-.16-.26-.05-.08-.09-.17-.13-.25-.02-.05-.04-.11-.07-.15.01.02.1.26.04.09-.06-.17-.12-.33-.16-.5-.01-.06-.02-.11-.03-.17.1.35.02.21.02.07,0-.06,0-.13,0-.19,0-.13.08-.34-.02.05.03-.11.04-.22.07-.33.02-.06.04-.12.06-.19.09-.27-.09.19-.02.04.13-.26.31-.48.45-.73-.16.29-.1.13-.02.03.05-.06.1-.12.16-.18.12-.13.24-.25.36-.37.11-.1.23-.2.34-.3.07-.06.14-.11.21-.17.11-.09-.2.15-.09.07.05-.04.1-.07.15-.11.3-.22.61-.42.93-.61.35-.21.7-.4,1.07-.58.17-.08.33-.16.5-.24.1-.04.19-.09.29-.13.04-.02.09-.04.13-.06.1-.04-.25.1,0,0,.8-.32,1.61-.6,2.44-.83s1.62-.4,2.45-.52c.05,0,.09-.01.14-.02-.32.06-.15.02-.06,0,.1-.01.2-.02.3-.03.2-.02.4-.04.6-.05.37-.02.74-.03,1.11-.03.34,0,.69.03,1.03.08.59.08,1.16-.58,1.14-1.14-.03-.68-.5-1.05-1.14-1.14-1.66-.22-3.38,0-5.01.36-1.79.39-3.55,1.01-5.18,1.83-1.44.73-2.82,1.67-3.8,2.97-.38.51-.69,1.12-.79,1.75-.14.88.04,1.66.41,2.47.66,1.46,2.08,2.43,3.65,2.67,1.32.2,2.65.05,3.94-.31s2.54-.93,3.79-1.41c2.09-.81,4.18-1.62,6.26-2.42l.13-.05c.55-.21,1-.77.79-1.4-.17-.54-.81-1.02-1.4-.79h0Z"/>
      <path class="cls-1" d="m203.79,83.75s.27-.18.15-.12c-.01,0-.03.02-.04.03-.03.02-.07.04-.1.06-.05.03-.2.09.01,0s.04-.02,0,0c-.07.02-.15.04-.22.06-.05.01-.24.04,0,0s.02,0-.04,0c-.19.01-.37-.01-.56-.02.1,0,.31.05.12.01-.05,0-.1-.02-.15-.03-.11-.02-.21-.05-.32-.08-.09-.03-.18-.07-.27-.1-.15-.05.28.13.08.04-.05-.03-.11-.05-.16-.08-.2-.1-.39-.22-.57-.35s.09.08.06.05c-.04-.04-.08-.07-.12-.1-.09-.08-.17-.16-.25-.24-.04-.04-.07-.08-.11-.12-.12-.14.02.02.06.09-.06-.1-.14-.19-.2-.29-.06-.09-.11-.19-.15-.29-.1-.19.08.25.03.07-.02-.06-.04-.12-.06-.18-.03-.11-.05-.22-.08-.33-.04-.17.03.32.01.08,0-.07-.01-.14-.01-.2,0-.12,0-.23,0-.34,0-.03.01-.08.01-.11,0-.01-.05.28-.02.16.02-.07.03-.15.04-.23.03-.14.07-.27.11-.41.02-.07.05-.14.08-.21.01-.03.05-.15,0,.01-.07.18,0,0,.03-.05.15-.31.33-.61.53-.9.03-.04.06-.09.1-.13.07-.09.01-.1-.02.03.02-.06.12-.15.17-.2.15-.18.31-.35.47-.52.45-.47.95-.9,1.46-1.32.11-.09.21-.17.32-.26.05-.04.11-.09.16-.13.11-.09-.2.15-.09.07.03-.02.06-.05.1-.07.23-.18.47-.35.71-.52.49-.34,1-.67,1.51-.97s1.1-.61,1.66-.88c.14-.07.29-.13.43-.2.07-.03.15-.07.22-.1.03-.01.06-.03.09-.04.22-.1-.18.07-.05.02.31-.13.63-.25.95-.37,1.33-.48,2.7-.84,4.09-1.06.09-.01.18-.03.27-.04.05,0,.1-.01.16-.02.13-.02-.11.02-.11.01.17-.06.41-.05.6-.07.39-.04.79-.07,1.18-.09.81-.04,1.62-.04,2.44,0,.43.02.87.05,1.3.1.2.02.4.04.59.07.11.01.22.03.32.04-.25-.04.08.01.16.03.94.14,1.87.33,2.8.56.98.24,1.95.53,2.9.86.43.15.85.3,1.27.47.07.03.14.06.2.08-.33-.13-.09-.04-.01,0,.14.06.28.13.42.2.52.25,1.03.54,1.52.86.24.16.48.32.72.5.06.04.11.09.17.13.1.07-.12-.1-.11-.09.03.03.06.05.09.07.12.09.23.19.35.28.87.73,1.65,1.55,2.35,2.44.02.03.05.06.07.09.08.09-.1-.13-.09-.11.04.06.08.11.13.17.09.12.18.24.26.36.16.23.32.45.47.69.32.48.61.97.89,1.48s.53,1,.77,1.51c.12.26.24.52.35.78.02.04.12.28.04.08s.02.04.03.08c.05.13.1.25.15.38.79,1.99,1.38,4.07,1.82,6.16.19.9.35,1.81.49,2.73.02.1.03.21.04.31,0,.05.01.1.02.15,0,.06.04.28,0,.04-.03-.25.01.1.02.16.01.1.03.2.04.31.04.36.08.72.12,1.08.08.86.15,1.73.17,2.6,0,.04,0,.08,0,.12,0,.59.52,1.17,1.14,1.14s1.14-.5,1.14-1.14-.05-1.3-.11-1.95c-.14-1.7-.36-3.4-.68-5.08-.39-2.12-.93-4.22-1.66-6.25-.82-2.28-1.87-4.5-3.27-6.48s-3.27-3.86-5.48-5.12c-1.46-.83-3.07-1.39-4.67-1.87-1.93-.58-3.9-.97-5.9-1.18-3.26-.33-6.61-.05-9.74.94-2.56.81-4.97,2.06-7.1,3.7s-5.1,4.26-4.29,7.4c.57,2.23,3.05,3.69,5.28,3.36.52-.08.95-.31,1.36-.63.47-.37.42-1.23,0-1.61-.5-.46-1.11-.4-1.61,0h0Z"/>
      <path class="cls-1" d="m208.45,91.52c.11.73.47,1.48.9,2.06.47.63,1.04,1.18,1.76,1.52.91.43,1.91.61,2.92.54,1.69-.11,3.28-.71,4.79-1.44.54-.26.72-1.07.41-1.56-.36-.55-.98-.69-1.56-.41-.18.09-.36.17-.54.25-.09.04-.17.08-.26.11.25-.11-.03.01-.07.03-.34.14-.68.26-1.03.37-.29.09-.57.17-.87.23-.11.02-.22.05-.34.07-.07.01-.13.02-.2.03-.32.05.19-.02-.01,0-.24.02-.47.04-.71.04s-.46-.04-.68-.04c.4,0,.1.01-.03-.01-.08-.01-.15-.03-.23-.05-.18-.05-.36-.12-.54-.18.4.13.12.05.01,0-.07-.04-.14-.07-.21-.11s-.13-.08-.19-.12c-.03-.02-.06-.04-.09-.06-.2-.13.21.18.09.07-.21-.18-.4-.37-.58-.58-.11-.12.19.26.1.13-.02-.03-.04-.05-.06-.08-.04-.05-.07-.1-.1-.15-.06-.1-.12-.2-.18-.3-.05-.09-.09-.19-.14-.29-.09-.18.13.34.05.11-.02-.05-.04-.1-.06-.15-.07-.21-.14-.42-.17-.64-.09-.59-.87-.97-1.4-.79-.65.21-.89.77-.79,1.4h0Z"/>
      <path class="cls-1" d="m225.42,81.53c-1.28-.17-2.59-.04-3.86.16-1.43.22-2.84.6-4.2,1.08-1.44.51-2.86,1.14-4.18,1.93-1.17.7-2.32,1.54-3.2,2.59-.93,1.1-1.62,2.44-1.57,3.92.02.59.51,1.17,1.14,1.14s1.16-.5,1.14-1.14c0-.12,0-.24,0-.36,0-.06.01-.11.01-.17.01-.17-.02.17-.02.16,0-.04.01-.08.02-.12.04-.24.11-.47.19-.7.07-.19.03-.03-.03.07.03-.05.05-.12.08-.18.06-.12.12-.24.19-.36.06-.1.13-.21.19-.31.04-.06.08-.12.12-.17.02-.02.03-.04.05-.06.11-.15-.03.04-.06.08.2-.2.37-.44.58-.65s.43-.41.65-.6c.12-.1.24-.2.36-.29.15-.12-.2.15,0,0,.08-.06.15-.11.23-.17.26-.19.53-.37.81-.54.59-.37,1.2-.7,1.82-1,.32-.16.68-.27.99-.45-.02.01-.26.11-.08.03.03-.01.07-.03.1-.04.08-.03.15-.06.23-.09.18-.07.35-.14.53-.2,1.32-.49,2.67-.87,4.05-1.12.19-.03.38-.07.58-.1.08-.01.17-.02.25-.04-.01,0-.3.04-.11.02.04,0,.08-.01.12-.02.35-.04.7-.07,1.05-.09.62-.03,1.24-.02,1.85.06s1.16-.58,1.14-1.14c-.03-.68-.5-1.05-1.14-1.14h0Z"/>
      <path class="cls-1" d="m220.08,76.49c-1.22-.16-2.45-.05-3.66.13-1.32.2-2.61.54-3.87.99-2.57.91-5.12,2.2-7.13,4.07-.95.89-1.77,1.96-2.19,3.21-.19.56.22,1.27.79,1.4.63.14,1.2-.19,1.4-.79.03-.1.08-.19.11-.29-.03.1-.11.25-.03.08.03-.06.06-.13.09-.19.11-.2.22-.4.35-.59.07-.1.15-.2.22-.3,0-.01-.17.21-.09.11.02-.02.04-.05.06-.07.04-.05.09-.11.13-.16.17-.2.36-.4.55-.59s.39-.37.6-.55c.1-.09.21-.17.31-.26.03-.02.25-.2.1-.08s.07-.05.11-.08c.49-.36,1.01-.7,1.53-1.01s1.12-.62,1.7-.9c.15-.07.3-.14.45-.21.07-.03.14-.06.21-.09.11-.05.26-.1.05-.02.31-.11.62-.25.94-.37,1.2-.44,2.44-.8,3.7-1.02.18-.03.35-.06.53-.09.03,0,.07-.01.1-.02.16-.02-.05.01-.09.01.08,0,.16-.02.24-.03.32-.04.65-.06.98-.08.6-.03,1.2-.01,1.79.07s1.16-.58,1.14-1.14c-.03-.68-.5-1.05-1.14-1.14h0Z"/>
      <path class="cls-1" d="m204.77,69.18c-.07-.09-.13-.19-.19-.29-.03-.05-.05-.1-.07-.15-.06-.11.1.28.07.16,0-.03-.03-.07-.04-.1-.04-.12-.07-.23-.1-.35-.01-.06-.02-.13-.04-.19,0,0,.03.33.02.17,0-.04,0-.07-.01-.11,0-.13-.01-.26,0-.39,0-.06,0-.12,0-.19,0-.06.04-.32,0-.08s0-.03.02-.08c.01-.06.03-.13.04-.19.03-.14.08-.28.12-.42.02-.06.05-.12.07-.18.06-.16-.13.28-.02.04.07-.13.13-.27.21-.4.07-.12.15-.22.22-.33.08-.12-.19.23-.02.03.06-.06.11-.13.17-.19.1-.11.2-.2.31-.3.03-.02.05-.04.08-.07.1-.09-.22.16-.11.08.06-.04.13-.09.19-.13.13-.08.26-.15.39-.22.03-.02.07-.03.1-.05.12-.06-.25.09-.12.05.09-.03.17-.06.26-.09.14-.05.29-.08.44-.11.05,0,.1-.01.14-.02,0,0-.31.03-.13.02.09,0,.18-.02.27-.02.18,0,.36,0,.54.01.12,0,.33.09.03,0,.11.03.23.04.34.06.19.04.38.09.57.15.1.03.2.07.3.1.05.02.1.04.15.06.26.1-.23-.11.03.01.45.21.89.44,1.32.69.88.51,1.72,1.08,2.54,1.69.06.04.12.09.18.13.03.02.18.14.06.04s.03.02.06.04c.05.04.09.07.14.11.2.16.4.32.6.48.35.29.69.58,1.03.88.84.74,1.67,1.51,2.43,2.32.41.44,1.2.44,1.61,0,.43-.47.44-1.14,0-1.61-.69-.74-1.43-1.43-2.18-2.1-1.6-1.43-3.3-2.79-5.15-3.87-1.72-1.01-3.7-1.84-5.72-1.32-1.45.38-2.69,1.47-3.28,2.84s-.79,3.22.17,4.53c.35.48,1,.77,1.56.41.47-.31.78-1.04.41-1.56h0Z"/>
    </g>
  </g>
  <path class="cls-1" d="m175.04,48.4c.28.23.56.45.84.68l2.27,1.83,3.37,2.71,4.09,3.3c1.5,1.21,3,2.42,4.5,3.63l4.52,3.64c1.41,1.14,2.82,2.28,4.24,3.41l3.56,2.87,2.58,2.08c.41.33.81.65,1.22.98.02.01.04.03.05.04.46.37,1.16.49,1.61,0,.38-.41.49-1.21,0-1.61-.28-.23-.56-.45-.84-.68l-2.27-1.83-3.37-2.71-4.09-3.3-4.5-3.63-4.52-3.64c-1.41-1.14-2.82-2.28-4.24-3.41-1.19-.96-2.38-1.91-3.56-2.87l-2.58-2.08c-.41-.33-.81-.65-1.22-.98-.02-.01-.04-.03-.05-.04-.46-.37-1.16-.49-1.61,0-.38.41-.49,1.21,0,1.61h0Z"/>
  <path class="cls-1" d="m168.24,71.36c.93.75,1.86,1.51,2.79,2.26,2.38,1.93,4.75,3.86,7.13,5.79,3.24,2.63,6.49,5.27,9.73,7.9,3.53,2.87,7.06,5.73,10.6,8.6,3.25,2.64,6.49,5.27,9.74,7.91,2.37,1.92,4.73,3.84,7.1,5.76l2,1.63c.33.27.79.74,1.2.86.32.09.73-.02,1.06-.08l1.34-.23c1.57-.27,3.14-.53,4.72-.8,4.35-.74,8.71-1.48,13.06-2.22,3.06-.52,6.11-1.04,9.17-1.56l.46-.08c.84-.14,1.1-1.36.5-1.9-1.51-1.36-3.02-2.73-4.53-4.09-2.42-2.18-4.83-4.36-7.25-6.55-.55-.5-1.1-1-1.66-1.5-.46-.41-1.16-.45-1.61,0-.42.42-.46,1.2,0,1.61,1.51,1.36,3.02,2.73,4.53,4.09l7.25,6.55c.55.5,1.1,1,1.66,1.5l.5-1.9c-.97.16-1.94.33-2.91.49-2.33.4-4.66.79-6.99,1.19-2.8.48-5.61.95-8.41,1.43-2.44.41-4.87.83-7.31,1.24-1.18.2-2.38.34-3.55.6-.02,0-.03,0-.05,0l1.11.29c-.44-.36-.89-.72-1.33-1.08-1.21-.98-2.42-1.96-3.63-2.94l-5.36-4.35-6.51-5.29-7.16-5.82c-2.41-1.96-4.82-3.91-7.23-5.87l-6.74-5.47c-1.89-1.54-3.78-3.07-5.68-4.61l-4.1-3.33c-.65-.53-1.29-1.05-1.94-1.58-.03-.02-.06-.05-.08-.07-.48-.39-1.14-.47-1.61,0-.4.4-.48,1.22,0,1.61h0Z"/>
  <path class="cls-1" d="m165.69,75.73c.63.5,1.25,1,1.88,1.5l4.97,3.99c2.38,1.91,4.77,3.83,7.15,5.74,2.81,2.25,5.61,4.5,8.42,6.75l8.82,7.08c2.74,2.19,5.47,4.39,8.21,6.58,2.24,1.8,4.48,3.6,6.73,5.4l4.34,3.48.99.79s.1.08.14.12c.38.3.74.35,1.21.28.17-.02.34-.05.51-.08,3.13-.47,6.26-.94,9.38-1.41.27-.04.54-.08.81-.12l-1.4-1.4c-.29,1.64-.57,3.29-.86,4.93-.04.24-.08.48-.13.72l.79-.79c-1.27.24-2.53.47-3.8.71l-6.06,1.13c-.47.09-.93.17-1.4.26l1.11.29c-.47-.39-.95-.78-1.42-1.17-1.29-1.06-2.58-2.11-3.86-3.17-1.9-1.56-3.81-3.13-5.71-4.69-2.32-1.91-4.65-3.82-6.97-5.73l-7.66-6.29c-2.57-2.11-5.14-4.22-7.71-6.33l-7.19-5.9c-2.03-1.66-4.05-3.33-6.08-4.99l-4.37-3.59c-.69-.57-1.38-1.13-2.07-1.7-.03-.02-.06-.05-.09-.07-.46-.38-1.17-.48-1.61,0-.38.42-.49,1.21,0,1.61.64.53,1.28,1.05,1.93,1.58,1.71,1.41,3.43,2.82,5.14,4.22,2.46,2.02,4.92,4.04,7.38,6.06,2.9,2.38,5.79,4.76,8.69,7.13,3.02,2.48,6.03,4.95,9.05,7.43,2.82,2.31,5.64,4.63,8.46,6.94,2.31,1.89,4.61,3.79,6.92,5.68,1.48,1.22,2.96,2.43,4.44,3.65l.99.82s.09.08.14.11c.39.31.78.35,1.24.27l.53-.1c3.25-.61,6.5-1.21,9.74-1.82.28-.05.56-.1.84-.16.35-.07.73-.44.79-.79.29-1.64.57-3.29.86-4.93.04-.24.08-.48.13-.72.16-.91-.5-1.53-1.4-1.4-3.15.47-6.31.95-9.46,1.42-.44.07-.88.13-1.33.2l1.11.29c-.46-.37-.92-.74-1.38-1.11l-3.76-3.02c-1.85-1.48-3.69-2.96-5.54-4.45-2.27-1.82-4.54-3.64-6.81-5.46-2.47-1.98-4.94-3.96-7.41-5.94l-7.5-6.02c-2.33-1.87-4.66-3.74-6.99-5.61l-5.89-4.73c-1.42-1.14-2.83-2.27-4.25-3.41-.67-.54-1.34-1.08-2.01-1.61-.03-.02-.06-.05-.09-.07-.46-.37-1.16-.49-1.61,0-.38.41-.5,1.21,0,1.61h0Z"/>
  <path class="cls-1" d="m246.94,105.71c-.26,1.5-.53,3.01-.79,4.51l-.11.64.79-.79c-1.26.25-2.52.49-3.78.74l-6.02,1.18c-.46.09-.92.18-1.38.27-.36.07-.73.44-.79.79-.33,1.75-.67,3.49-1,5.24l-.14.74c-.17.89.51,1.57,1.4,1.4,1.28-.25,2.56-.49,3.84-.74,2.03-.39,4.07-.78,6.1-1.17.47-.09.94-.18,1.41-.27l-1.4-1.4-.72,4.59-.1.66.79-.79c-.99.19-1.97.37-2.96.56l-7.11,1.35-8.57,1.62c-2.47.47-4.94.94-7.41,1.4-1.2.23-2.42.41-3.61.68-.02,0-.03,0-.05,0l1.4,1.4c.3-1.61.6-3.22.91-4.83l.13-.69c.11-.58-.16-1.26-.79-1.4-.56-.13-1.28.17-1.4.79-.3,1.61-.6,3.22-.91,4.83l-.13.69c-.17.89.51,1.57,1.4,1.4.99-.19,1.97-.37,2.96-.56l7.11-1.35c2.86-.54,5.71-1.08,8.57-1.62,2.47-.47,4.94-.94,7.41-1.4,1.2-.23,2.42-.41,3.61-.68.02,0,.03,0,.05,0,.35-.07.74-.44.79-.79.24-1.53.48-3.06.72-4.59l.1-.66c.06-.41.02-.8-.29-1.11s-.7-.37-1.11-.29c-1.28.25-2.56.49-3.84.74l-6.1,1.17c-.47.09-.94.18-1.41.27l1.4,1.4c.33-1.75.67-3.49,1-5.24l.14-.74-.79.79c1.26-.25,2.52-.49,3.78-.74,2.01-.39,4.01-.78,6.02-1.18.46-.09.92-.18,1.38-.27.35-.07.73-.44.79-.79.26-1.5.53-3.01.79-4.51l.11-.64c.1-.58-.16-1.25-.79-1.4-.55-.13-1.29.17-1.4.79h0Z"/>
  <path class="cls-1" d="m161.82,85.09c.47.39.95.78,1.42,1.17l3.86,3.18,5.71,4.71c2.32,1.91,4.64,3.83,6.96,5.74,2.54,2.1,5.08,4.19,7.63,6.29s5.13,4.23,7.7,6.35c2.39,1.97,4.79,3.95,7.18,5.92l6.07,5,4.36,3.6,2.06,1.7.09.07c.46.38,1.17.48,1.61,0,.38-.42.49-1.2,0-1.61s-.95-.78-1.42-1.17l-3.86-3.18-5.71-4.71c-2.32-1.91-4.64-3.83-6.96-5.74-2.54-2.1-5.08-4.19-7.63-6.29s-5.13-4.23-7.7-6.35c-2.39-1.97-4.79-3.95-7.18-5.92-2.02-1.67-4.04-3.33-6.07-5-1.45-1.2-2.91-2.4-4.36-3.6l-2.06-1.7-.09-.07c-.46-.38-1.17-.48-1.61,0-.38.42-.49,1.2,0,1.61h0Z"/>
  <path class="cls-1" d="m87.95,19.16c1.92-.32,3.85-.65,5.77-.97.27-.05.55-.09.82-.14.59-.1.97-.86.79-1.4-.21-.64-.77-.9-1.4-.79-1.92.32-3.85.65-5.77.97-.27.05-.55.09-.82.14-.59.1-.97.86-.79,1.4.21.64.77.9,1.4.79h0Z"/>
  <path class="cls-1" d="m246.99,116.34c-1.47-1.32-2.95-2.65-4.42-3.97-.21-.19-.42-.38-.63-.56-.44-.4-1.18-.47-1.61,0-.4.43-.47,1.18,0,1.61,1.47,1.32,2.95,2.65,4.42,3.97.21.19.42.38.63.56.44.4,1.18.47,1.61,0,.4-.43.47-1.18,0-1.61h0Z"/>
  <g>
    <path class="cls-1" d="m194.39,30.62c.86-.84,1.72-1.67,2.58-2.51l6.19-6.02,7.44-7.24c2.15-2.1,4.31-4.19,6.46-6.29,1.04-1.01,2.11-2,3.12-3.04.01-.01.03-.03.04-.04.43-.42.45-1.2,0-1.61s-1.15-.44-1.61,0c-.86.84-1.72,1.67-2.58,2.51-2.06,2.01-4.13,4.01-6.19,6.02l-7.44,7.24c-2.15,2.1-4.31,4.19-6.46,6.29-1.04,1.01-2.11,2-3.12,3.04-.01.01-.03.03-.04.04-.43.42-.45,1.2,0,1.61s1.15.44,1.61,0h0Z"/>
    <path class="cls-1" d="m200.72,42.15c1.01-.58,2.01-1.15,3.02-1.73,2.42-1.38,4.83-2.77,7.25-4.15l8.74-5.01,7.55-4.33c1.23-.7,2.47-1.38,3.68-2.11.02-.01.03-.02.05-.03.52-.3.74-1.04.41-1.56s-1-.72-1.56-.41c-1.01.58-2.01,1.15-3.02,1.73-2.42,1.38-4.83,2.77-7.25,4.15l-8.74,5.01c-2.52,1.44-5.04,2.89-7.55,4.33-1.23.7-2.47,1.38-3.68,2.11-.02.01-.03.02-.05.03-.52.3-.74,1.04-.41,1.56s1,.72,1.56.41h0Z"/>
    <path class="cls-1" d="m207.02,53.61c1.16-.32,2.31-.64,3.47-.96,2.77-.77,5.55-1.53,8.32-2.3,3.34-.92,6.67-1.84,10.01-2.76,2.9-.8,5.79-1.6,8.69-2.4,1.4-.39,2.81-.74,4.2-1.16.02,0,.04-.01.06-.02.57-.16.98-.81.79-1.4s-.78-.96-1.4-.79c-1.16.32-2.31.64-3.47.96-2.77.77-5.55,1.53-8.32,2.3-3.34.92-6.67,1.84-10.01,2.76l-8.69,2.4c-1.4.39-2.81.74-4.2,1.16-.02,0-.04.01-.06.02-.57.16-.98.81-.79,1.4s.78.96,1.4.79h0Z"/>
  </g>
  <g>
    <path class="cls-1" d="m85.97,63.19c-1.19.15-2.38.3-3.57.45-2.86.36-5.71.72-8.57,1.08-3.43.43-6.87.86-10.3,1.3-2.98.38-5.96.75-8.95,1.13-1.44.18-2.88.36-4.32.54-.02,0-.04,0-.06,0-.59.07-1.17.47-1.14,1.14.02.55.51,1.22,1.14,1.14,1.19-.15,2.38-.3,3.57-.45,2.86-.36,5.71-.72,8.57-1.08,3.43-.43,6.87-.86,10.3-1.3,2.98-.38,5.96-.75,8.95-1.13,1.44-.18,2.88-.36,4.32-.54.02,0,.04,0,.06,0,.59-.07,1.17-.47,1.14-1.14-.02-.55-.51-1.22-1.14-1.14h0Z"/>
    <path class="cls-1" d="m87.57,50.18c-1.15-.15-2.3-.29-3.45-.44-2.76-.35-5.53-.7-8.29-1.05-3.33-.42-6.66-.84-9.99-1.27-2.88-.36-5.76-.73-8.64-1.09-1.4-.18-2.8-.41-4.21-.53-.02,0-.04,0-.06,0-.59-.08-1.16.58-1.14,1.14.03.68.5,1.06,1.14,1.14,1.15.15,2.3.29,3.45.44,2.76.35,5.53.7,8.29,1.05,3.33.42,6.66.84,9.99,1.27,2.88.36,5.76.73,8.64,1.09,1.4.18,2.8.41,4.21.53.02,0,.04,0,.06,0,.59.08,1.16-.58,1.14-1.14-.03-.68-.5-1.06-1.14-1.14h0Z"/>
    <path class="cls-1" d="m89.46,37.2c-1.11-.44-2.23-.88-3.34-1.32l-8.03-3.18c-3.22-1.27-6.43-2.55-9.65-3.82l-8.38-3.32c-1.35-.53-2.68-1.12-4.05-1.6-.02,0-.04-.02-.06-.02-.55-.22-1.27.24-1.4.79-.15.66.2,1.16.79,1.4,1.11.44,2.23.88,3.34,1.32l8.03,3.18,9.65,3.82c2.79,1.11,5.59,2.21,8.38,3.32,1.35.53,2.68,1.12,4.05,1.6.02,0,.04.02.06.02.55.22,1.27-.24,1.4-.79.15-.66-.2-1.16-.79-1.4h0Z"/>
  </g>
  <path class="cls-1" d="m33.55,129.41c.98.8,1.96,1.6,2.94,2.41l7,5.74c2.82,2.31,5.64,4.63,8.46,6.94,2.45,2.01,4.9,4.02,7.35,6.03,1.18.97,2.36,1.95,3.55,2.91.02.01.03.03.05.04.46.38,1.17.48,1.61,0,.38-.42.49-1.21,0-1.61-.98-.8-1.96-1.6-2.94-2.41l-7-5.74-8.46-6.94c-2.45-2.01-4.9-4.02-7.35-6.03-1.18-.97-2.36-1.95-3.55-2.91-.02-.01-.03-.03-.05-.04-.46-.38-1.17-.48-1.61,0-.38.42-.49,1.21,0,1.61h0Z"/>
</svg>