<?xml version="1.0" encoding="UTF-8"?>
<svg id="Capa_1" data-name="Capa 1" xmlns="http://www.w3.org/2000/svg" viewBox="0 0 203 238.19">
  <defs>
    <style>
      .cls-1 {
        fill: #24397c;
      }

      .cls-2 {
        fill: #b1c7e8;
      }
    </style>
  </defs>
  <path class="cls-2" d="m180.68,1.77H22.31C10.97,1.77,1.77,10.97,1.77,22.31v114.37c0,55.08,44.65,99.72,99.72,99.72h0c55.08,0,99.72-44.65,99.72-99.72V22.31c0-11.34-9.2-20.54-20.54-20.54Z"/>
  <path class="cls-1" d="m101.5,238.19c-13.7,0-26.99-2.68-39.51-7.98-12.09-5.11-22.94-12.43-32.26-21.75s-16.64-20.18-21.75-32.26c-5.29-12.51-7.98-25.81-7.98-39.51V22.31C0,10.01,10.01,0,22.31,0h158.37c12.3,0,22.31,10.01,22.31,22.31v114.37c0,13.7-2.68,26.99-7.98,39.51-5.11,12.09-12.43,22.94-21.75,32.26-9.32,9.32-20.18,16.64-32.26,21.75-12.51,5.29-25.81,7.98-39.51,7.98ZM22.31,3.55C11.97,3.55,3.55,11.97,3.55,22.31v114.37c0,54.01,43.94,97.95,97.95,97.95s97.95-43.94,97.95-97.95V22.31c0-10.35-8.42-18.77-18.76-18.77H22.31Z"/>
  <g>
    <path class="cls-1" d="m44.51,163.55c-.31-.34-.19-.6.02-.84,2.38-2.77,4.75-5.56,7.26-8.22.31-.32.66-.61.99-.91.12-.11.23-.17.36-.01.06.08.17.08.26.09,1.11.13,2.19.48,3.3.65.36.06.6.36.88.57.14.11.28.21.41.34.2.19.32.13.49-.06.92-1.09,1.88-2.15,2.77-3.27.71-.89,1.55-1.67,2.27-2.55.28-.34.72-.44,1.01-.74.09-.09.21.07.29.14.53.44,1.05.88,1.58,1.32.36.3.34.29.63-.05.57-.68.97-1.48,1.53-2.16.26-.32.52-.64.81-.94.21-.21.17-.36-.03-.52-.19-.15-.36-.3-.56-.43-.2-.13-.36-.3-.5-.49-.18-.24-.19-.49.03-.7,1.04-1.02,1.92-2.21,3.09-3.1.22-.17.43-.19.65-.04.34.23.68.47.99.74.21.18.31.15.47-.06,1.56-2.03,3.38-3.82,5.37-5.41,2.82-2.25,5.85-4.19,9.11-5.75,2.87-1.37,5.88-2.24,9.06-2.48.27-.02.55-.07.81-.03.47.07.77-.15,1.07-.46.7-.73,1.43-1.44,2.2-2.1.19-.17.38-.36.68-.34.12,0,.16-.09.18-.18.18-.59.36-1.17.55-1.76.08-.24-.07-.36-.21-.47-.98-.8-1.96-1.59-2.94-2.39-4.48-3.62-8.99-7.19-13.43-10.86-.82-.68-1.28-1.41-1.03-2.5.1-.42.11-.86.16-1.3.05-.43.23-.64.67-.72.24-.04.49-.06.77-.09-.25-.36-.58-.57-.9-.76-.32-.2-.3-.44-.26-.72.17-1.09.38-2.18.4-3.29,0-.2.13-.27.3-.33,1.14-.36,2.32-.54,3.48-.78,2.45-.5,4.93-.87,7.38-1.37.84-.17,1.43.03,2.07.51,3.05,2.3,6.13,4.58,9.19,6.87.19.14.32.23.52,0,1.26-1.39,2.89-1.94,4.72-1.98,1.9-.05,3.76.26,5.62.56,1.08.17,2.17.3,3.26.45,1.05.14,2.1.29,3.16.41,1.24.14,2.5.12,3.75.17.79.03,1.58-.03,2.37.04.26.02.52.02.77-.04.2-.04.44-.11.58.11.14.22,0,.41-.13.58-.71.96-1.57,1.76-2.54,2.44-1.38.98-2.85,1.81-4.46,2.35-.19.06-.29.13-.15.34.22.34.33.73.41,1.12.4,1.76.57,3.54.53,5.34-.01.54-.01,1.09-.06,1.63-.02.21.05.35.22.48,3.69,2.77,7.38,5.54,11.06,8.32.08.06.16.11.23.16.14.11.24.11.32-.08.7-1.48,2.38-2.03,4.11-.84.86.6,1.53,1.4,2.25,2.14.1.1.2.2.29.31.56.62,1.18.88,2.1.79,2.01-.19,3.89.39,5.56,1.52,3.62,2.43,5.31,5.92,5.52,10.2,0,.19.03.4-.04.56-.18.39,0,.66.29.83.73.45.76,1.08.56,1.8-.09.34-.17.69-.21,1.04-.04.37-.25.56-.55.71-.76.4-1.51.82-2.27,1.23-.08.04-.18.06-.22.19.37.14.74.3,1.12.41.38.11.67.41,1.08.48.13.02.05.19.02.28-.14.52-.35,1.04-.42,1.57-.09.8-.51,1.19-1.21,1.58-3.23,1.77-6.39,3.66-9.68,5.31-.22.11-.36.37-.64.33-.29-.04-.33-.35-.52-.5-.9-.72-1.8-1.45-2.7-2.17-1.32-1.05-2.64-2.1-3.95-3.16-.26-.21-.44-.22-.71-.03-2.76,1.87-5.81,2.97-9.13,3.26-3.11.27-6.15-.07-9.05-1.29-.1-.04-.19-.09-.29-.14-.47-.24-.47-.23-.63.25-.54,1.59-1.2,3.13-1.95,4.63-.13.26-.13.46.04.71,2.58,3.62,5.08,7.3,7.57,10.99,3.63,5.38,7.01,10.92,10.54,16.37.51.79,1.08,1.55,1.49,2.41.06.13.13.19.28.13.12-.05.26-.09.35.05.09.13.02.25-.04.37-.27.49-.69.86-1.06,1.27-.2.22-.52.4-.58.65-.07.29.33.44.49.67.42.62.43.61,1.01.13,2.66-2.21,5.41-4.31,8.34-6.15.73-.46,1.48-.88,2.33-1.1.3-.08.6-.11.91-.12.6-.02,1.24.54,1.44,1.22.06.21.06.44.21.63.1.13-.03.27-.1.38-.29.45-.67.82-1.03,1.21-1.87,2.09-3.91,3.99-5.98,5.87-2.93,2.66-5.86,5.31-8.83,7.92-.35.3-.66.64-1.05.9-.41.28-.6.27-.97-.06-.38-.34-.72-.71-1.02-1.12-.68-.93-1.55-1.68-2.37-2.48-.04-.04-.09-.08-.13-.12q-.46-.46-.94-.04c-.16.14-.34.26-.48.42-.26.31-.52.25-.81.07-.45-.27-.81-.65-1.19-1-2.32-2.18-4.53-4.48-6.73-6.78-2.42-2.52-4.8-5.07-7.24-7.57-2.04-2.09-4.12-4.16-6.16-6.25-1.45-1.49-2.89-2.98-4.26-4.55-.22-.25-.42-.3-.73-.22-.98.27-1.98.43-3,.51-.61.05-1.22-.08-1.84-.03-.32.03-.58.1-.83.32-1.45,1.25-2.88,2.51-4.36,3.73-2.16,1.78-4.34,3.52-6.52,5.27-1.53,1.23-3.06,2.44-4.59,3.67-1.65,1.32-3.28,2.65-4.93,3.98-.12.1-.25.18-.38.26-.22.13-.45.22-.31.59.08.2-.13.3-.34.25-.23-.06-.43-.19-.62-.33-.45-.34-.91-.67-1.36-1.02-.18-.14-.29-.13-.44.05-.2.24-.43.47-.67.68-.18.16-.18.26,0,.42,2.37,2.27,4.62,4.66,6.72,7.18.74.89,1.46,1.8,1.9,2.88.15.37.22.75.24,1.14.03.5-.51,1.18-1.1,1.4-.19.07-.38.12-.53.26-.11.11-.24.05-.36,0-.38-.17-.71-.42-1.05-.66-3.65-2.6-6.91-5.67-10.25-8.65-1.97-1.76-3.94-3.53-5.88-5.32-1.09-1.01-1.07-1.08-.09-2.09,1.1-1.13,2.08-2.34,3.06-3.57.14-.18.15-.29-.03-.44-.25-.21-.47-.47-.74-.66-.34-.23-.29-.5-.15-.8.28-.58.68-1.08,1.09-1.57.23-.28.19-.43-.07-.66-4.76-4.13-9.5-8.28-14.25-12.42-1.42-1.24-2.84-2.49-4.26-3.74-.14-.12-.27-.26-.4-.4-.16-.17-.28-.36-.18-.6.1-.24.31-.26.61-.18Zm53-34.01c-.06,0-.11,0-.17,0-2.69.2-5.25.89-7.74,1.9-2.04.83-3.94,1.92-5.8,3.1-2.28,1.46-4.49,3.01-6.48,4.85-.81.75-1.62,1.52-2.37,2.33-.35.38-.45.77-.33,1.26.18.73.63,1.26,1.16,1.74,2.62,2.36,5.26,4.7,7.89,7.05.44.4.45.39.92,0,.09-.08.18-.15.28-.21,1.26-.85,2.53-1.69,3.78-2.56,4.14-2.89,8.5-5.4,12.87-7.91.43-.25.87-.48,1.34-.63.13-.04.26-.05.35.08.08.13-.01.23-.09.32-.18.22-.43.37-.67.52-3.32,2.05-6.64,4.11-9.97,6.16-.18.11-.34.25-.47.42-.76.96-1.52,1.92-2.28,2.89-.28.36-.27.36.16.48,2.01.57,4.02,1.13,6.03,1.71,4.62,1.34,9.23,2.72,13.88,3.98.33.09.46.02.54-.31.43-1.74.87-3.48,1.33-5.21.56-2.12.97-4.28,1.63-6.38.11-.33.03-.45-.3-.47-1.19-.1-2.37-.25-3.53-.49-.52-.11-1.08-.13-1.47-.53-1.69-1.71-3.38-3.43-5.04-5.16-2.12-2.21-4.26-4.41-6.31-6.69-.15-.17-.29-.34-.42-.53-.13-.2-.1-.43.12-.5.6-.19.74-.81,1.15-1.19Zm-4.42,31.42s-.04-.02-.06-.03c-.28.28-.55.57-.85.83-.3.26-.62.5-.96.73-2.79,1.9-5.8,3.01-9.25,2.61-.52-.06-1.03-.1-1.54-.2-.22-.04-.35.01-.49.18-1.28,1.53-2.56,3.05-3.86,4.57-.19.23-.16.35.05.51.54.43,1.08.88,1.62,1.32.41.34.85.64,1.21,1.03.45.48,1.01.84,1.48,1.29.18.17.24.2.04.36-.05.04-.1.1-.14.16-1.04,1.6-2.42,2.93-3.68,4.34-1.07,1.19-2.18,2.36-3.26,3.54-.07.08-.16.15-.08.27.19.32,0,.51-.25.66-.31.19-.62.38-.94.56-.19.11-.23.21-.04.37,1.56,1.33,3.12,2.67,4.68,4.01.2.17.33.13.51-.03.86-.74,1.72-1.47,2.59-2.2.88-.73,1.76-1.46,2.64-2.19,2.68-2.22,5.37-4.42,8.05-6.65,1.27-1.06,2.52-2.14,3.77-3.21.14-.12.28-.22.47-.23.45,0,.9,0,1.34.08.76.14,1.53.21,2.29.14,1.6-.13,3.12-.64,4.59-1.27,3.67-1.58,6.69-4.03,9.26-7.06.29-.34.28-.35-.17-.46-1.62-.39-3.23-.78-4.85-1.17-2.96-.72-5.92-1.44-8.87-2.17-.29-.07-.43-.02-.51.28-.22.77-.5,1.52-.69,2.31-.11.45-.35.63-.8.53-1.07-.26-2.16-.41-3.2-.75-.67-.22-.79-.46-.61-1.14.17-.63.33-1.26.5-1.89Zm24.71-23.32c-.09.06-.15.09-.21.13-.25.19-.51.38-.81.49-.22.09-.43.05-.56-.16-.13-.21-.05-.39.12-.53.14-.12.29-.24.45-.34.8-.51,1.5-1.14,2.15-1.83,2.21-2.32,3.71-5.07,4.79-8.07.71-1.95,1.24-3.93,1.48-6,.27-2.28.39-4.56.17-6.85-.11-1.12-.4-2.2-.5-3.32-.02-.23-.17-.18-.31-.15-1.22.24-2.45.36-3.69.37-1.72.02-3.45-.02-5.12-.49-.18-.05-.31-.04-.45.11-.8.86-1.74,1.56-2.66,2.27-1.29,1-2.61,1.95-4.04,2.72-.88.47-1.75.99-2.74,1.21-.22.05-.31.14-.37.35-.68,2.5-1.49,4.96-2.31,7.42-.11.33-.13.67-.1,1.01.12,1.18.68,2.17,1.33,3.12.42.61.86,1.21,1.28,1.83,2.06,2.98,4.12,5.96,6.18,8.94.77,1.12,1.68,2.14,2.38,3.3.19.31.25.22.39-.02,1.04-1.72,1.96-3.5,3.04-5.19.05-.08.12-.15.1-.3Zm40.49,6.63s0-.06-.02-.06c-1.34-1.02-2.69-2.03-4.03-3.06-.14-.11-.25-.07-.39,0-.84.46-1.68.91-2.53,1.36-1.1.58-2.21,1.09-3.5,1.14-1.21.04-2.03-.51-2.13-1.57-.04-.42-.04-.43-.45-.27-.65.25-1.27.54-1.99.57-1.05.04-1.79-.52-1.95-1.57-.04-.27-.05-.55-.41-.22-.05.04-.16.03-.24.02-.28-.05-.55-.13-.79-.29-.86-.56-1.16-1.36-1.01-2.35.04-.28,0-.39-.33-.32-.67.13-1.54-.33-1.83-.95-.37-.8-.18-1.55.31-2.23.52-.73,1.23-1.23,2-1.66.7-.4,1.42-.74,2.15-1.07.2-.09.24-.17.04-.3-.07-.05-.13-.1-.2-.15-3.95-2.96-7.89-5.92-11.84-8.88-.81-.61-1.63-1.21-2.44-1.83-.23-.17-.31-.15-.33.14-.02.28-.08.56-.13.84-.53,2.74-1.21,5.44-2.4,7.98-.11.24-.06.37.14.53,3.14,2.48,6.27,4.97,9.4,7.46,2.76,2.2,5.52,4.4,8.28,6.59,2.11,1.68,4.21,3.39,6.36,5.02.24.18.41.17.66.03,2.66-1.42,5.35-2.81,8.07-4.12.52-.25,1.05-.47,1.53-.78Zm-55.61,29.66c.04.36.13.68.39.94,1.01.99,2.03,1.97,3.01,2.99,2.49,2.59,4.99,5.18,7.4,7.86,3.05,3.38,6.16,6.71,9.38,9.93.34.34.36.35.7.02,1.38-1.36,2.76-2.71,4.14-4.07.35-.35.36-.36.05-.75-1.23-1.51-2.45-3.02-3.68-4.53-1.24-1.52-2.48-3.03-3.7-4.56-2.22-2.75-4.44-5.51-6.65-8.28-1.17-1.48-2.36-2.94-3.44-4.49-.14-.2-.23-.21-.4-.05-1.96,1.81-4.19,3.21-6.63,4.27-.32.14-.46.42-.55.72Zm13.83-12.62c-.33-.02-.52.06-.68.34-1.24,2.07-2.71,3.97-4.37,5.73-.18.2-.5.34-.52.61-.02.29.36.41.5.64.02.04.06.07.09.11,1.3,1.64,2.6,3.26,3.88,4.91,1.74,2.24,3.47,4.5,5.2,6.76,1.46,1.9,2.9,3.81,4.36,5.71,1.11,1.45,2.22,2.9,3.32,4.36.17.22.28.24.49.04,1.48-1.41,2.97-2.8,4.46-4.19.17-.16.18-.28.05-.48-.58-.83-1.14-1.68-1.7-2.52-1.84-2.74-3.63-5.52-5.46-8.27-2.98-4.48-6.01-8.92-9.02-13.38-.16-.23-.35-.33-.61-.35Zm4.03-23.33c-.08.15-.01.27,0,.4.37,2.38.48,4.76.34,7.16-.15,2.47-.57,4.89-1.24,7.28-.16.57-.15.61.41.79,1.57.51,3.17.93,4.82,1.12,2.48.28,4.95.2,7.39-.35,1.94-.44,3.77-1.12,5.44-2.22.24-.16.28-.25.03-.45-1.46-1.16-2.91-2.32-4.37-3.49-4.12-3.31-8.24-6.62-12.37-9.93-.14-.11-.27-.26-.46-.31Zm-75.88,25.63c.05.07.05.1.07.11,2.76,2.4,5.52,4.8,8.27,7.21,4.98,4.37,9.96,8.76,14.94,13.14.25.22.39.23.62-.04,1.1-1.31,2.21-2.61,3.33-3.91.18-.2.2-.33-.03-.51-.75-.63-1.49-1.27-2.23-1.91-1.72-1.48-3.43-2.96-5.14-4.44-.22-.19-.35-.21-.54.03-.33.42-.68.82-1.02,1.22-.36.42-.58.44-.98.08-2.35-2.1-4.69-4.2-7.04-6.31-.36-.33-.39-.52-.12-.92.28-.42.57-.84.88-1.24.17-.22.17-.37-.06-.55-.39-.3-.76-.64-1.13-.97-1.87-1.62-3.76-3.23-5.54-4.95-.25-.24-.36-.22-.57.02-1.03,1.2-2.08,2.38-3.12,3.58-.15.17-.3.33-.58.35Zm13.54-.39c.18.01.3.12.43.22.67.57,1.35,1.14,2.03,1.72,1.8,1.54,3.63,3.05,5.37,4.67.39.36.4.6.05.99-.33.38-.66.77-1.01,1.14-.19.2-.17.33.04.52,2.37,2.09,4.74,4.18,7.11,6.28.45.4.49.39.89-.07,1.13-1.32,2.21-2.68,3.42-3.92.2-.2.11-.31-.06-.45-.8-.66-1.58-1.35-2.39-2-.61-.48-1.12-1.09-1.87-1.37-.05-.02-.1-.08-.12-.13-.11-.31-.38-.47-.62-.66-1.54-1.27-3.08-2.53-4.62-3.8-3.56-2.94-7.12-5.89-10.68-8.83-1.09-.9-2.19-1.79-3.23-2.76-.17-.16-.31-.23-.49,0-.95,1.26-1.98,2.46-3.01,3.66-.16.19-.16.3.04.45.86.64,1.67,1.35,2.48,2.05,1.42,1.22,2.83,2.46,4.24,3.7.25.22.38.22.57-.07.23-.37.52-.7.78-1.05.16-.21.38-.31.65-.3Zm8.12-4c-.12,1.72.19,2.24,1.29,2.66.24.09.31.04.33-.21.03-.54.17-1.07.36-1.58.44-1.26,1.17-2.36,1.91-3.46.13-.19.29-.38.5-.49.12-.06.24-.1.37-.02.12.08.16.21.13.34-.03.14-.07.28-.13.4-.24.5-.5.99-.79,1.46-.64,1.05-1.2,2.15-1.34,3.4-.12,1.06.58,1.84,1.66,1.88.23,0,.32-.06.33-.29.01-.37.03-.73.13-1.09.44-1.54,1.26-2.89,2.18-4.18.1-.14.23-.27.4-.34.15-.06.3-.07.43.04.14.11.17.26.12.41-.06.18-.14.35-.23.52-.49.94-1.01,1.87-1.48,2.82-.37.75-.57,1.55-.51,2.39.04.54.25.8.77.91.58.12,1.15.04,1.71-.1.14-.04.24-.11.17-.28-.2-.46-.1-.9.05-1.34.03-.09.1-.19.02-.27-.29-.3-.12-.58,0-.88.7-1.6,1.98-2.73,3.2-3.91.12-.11.25-.18.35,0,.08.15.36.27.13.5-.21.22-.43.44-.65.65-.17.17-.13.3.04.44.71.59,1.41,1.18,2.11,1.78.19.17.34.16.5-.04.32-.36.67-.7.97-1.07.32-.41.6-.85.57-1.41-.04-.95-.38-1.75-1.15-2.32-.26-.19-.47-.43-.48-.74,0-.21-.1-.29-.22-.4-.81-.67-1.62-1.33-2.44-2-2.37-1.93-4.73-3.86-7.05-5.86-.35-.3-.34-.3-.63.07-1.18,1.49-2.2,3.09-3.29,4.64-.6.86-1.15,1.77-1.32,2.83-.11.67-.04,1.32.36,1.9.12.17.19.19.29,0,.42-.8,1.01-1.48,1.54-2.2.18-.25.37-.49.62-.68.11-.08.23-.12.36-.05.13.08.14.22.11.35-.04.15-.09.29-.15.43-.34.76-.86,1.41-1.28,2.12-.49.82-.83,1.69-.88,2.27Zm20.69-58.4c.1.08.14.12.19.16,4.92,3.87,9.85,7.74,14.77,11.61.25.2.49.32.83.25.39-.08.77.05,1.14.19.45.17.9.37,1.3.63.19.13.3.13.36-.13.08-.37.21-.73.3-1.09.5-1.94.96-3.9,1.96-5.67.12-.21,0-.3-.14-.4-2.13-1.6-4.27-3.19-6.39-4.8-1.16-.88-2.34-1.72-3.43-2.67-.19-.17-.35-.23-.59-.17-2.24.5-4.49.99-6.75,1.42-1.16.22-2.31.44-3.53.67Zm70.19,41.66c-.02-.62-.01-1.16-.07-1.69-.3-2.71-1.47-5.01-3.39-6.91-1.25-1.23-2.75-2.04-4.48-2.43-1.53-.35-3.07-.12-4.57.03-2.25.23-4.25,1.29-6.16,2.47-.55.34-.93.83-1.14,1.44-.21.6.06,1.25.61,1.54.44.24,1.13.06,1.5-.37.51-.6,1.09-1.11,1.82-1.44.63-.28,1.25-.56,1.89-.79.98-.35,1.96-.69,3.01-.77.25-.02.59-.08.64.2.06.32-.33.31-.54.36-.83.22-1.65.48-2.47.75-.75.24-1.49.52-2.13,1.01-.61.47-1.24.9-1.68,1.56-.52.79-.33,1.91.42,2.39.35.23.83.2.96-.08.27-.56.68-.99,1.16-1.36,1.56-1.17,3.31-1.96,5.17-2.49.64-.18,1.29-.28,1.96-.12.14.03.28.09.28.27,0,.17-.11.25-.25.31-.25.11-.53.12-.79.17-2.08.34-3.99,1.13-5.75,2.27-.41.26-.77.59-.97,1.05-.45,1.02.15,1.9,1.24,1.82.6-.04,1.19-.17,1.77-.33.33-.09.61-.19.75-.56.06-.17.21-.32.35-.43,1.39-1.07,2.94-1.78,4.67-2.08.16-.03.33-.04.49.02.14.06.25.14.25.3,0,.15-.1.24-.22.29-.09.04-.18.06-.27.09-.63.19-1.28.35-1.9.57-.87.31-1.72.66-2.43,1.27-.47.4-.48.95-.37,1.5.08.41.41.6.79.67.46.09.92.06,1.35-.13,1.74-.77,3.45-1.59,5.13-2.48.17-.09.29-.08.46,0,.72.37,1.32.9,1.97,1.37.29.21.58.43.94.7Zm-7.35,45.18c.06-.58-.66-1.33-1.24-1.29-.51.04-.99.2-1.44.45-1.36.77-2.63,1.67-3.89,2.58-1.92,1.39-3.76,2.89-5.64,4.33-.34.26-.65.55-1.03.74-.33.17-.54.05-.55-.3,0-.15-.08-.24-.17-.33-.21-.22-.44-.43-.62-.68-.18-.25-.3-.25-.51-.03-1.8,1.86-3.6,3.71-5.4,5.55-.19.19-.21.31,0,.51,1.19,1.17,2.27,2.43,3.32,3.72.2.25.32.23.52.02.98-1.01,2.1-1.86,3.16-2.78,2.96-2.59,5.89-5.2,8.83-7.8.39-.34.74-.72,1.12-1.08,1.17-1.09,2.18-2.35,3.41-3.39.07-.06.14-.13.15-.23Zm-72.69,17.05s.06,0,.09,0c.72-.11,1.21-.84,1.03-1.53-.05-.18-.11-.36-.2-.53-.48-.99-1.23-1.78-1.92-2.62-.87-1.06-1.8-2.06-2.74-3.05-1.26-1.32-2.54-2.63-3.81-3.94-.21-.22-.43-.45-.6-.69-.22-.3-.13-.54.22-.63.15-.04.24-.14.34-.24.18-.2.35-.41.55-.6.3-.3.31-.29-.04-.57-2-1.57-4.01-3.15-6.01-4.73-.24-.19-.37-.16-.54.06-1.04,1.3-2.17,2.52-3.36,3.69-.17.17-.16.28.02.42,1.03.8,1.93,1.73,2.88,2.62,1.94,1.83,3.89,3.64,5.89,5.41,1.39,1.22,2.71,2.52,4.13,3.71,1.27,1.06,2.65,1.97,3.85,3.12.06.06.13.11.23.11Zm29.24-90.56c.1,0,.13,0,.15,0,1.93-.95,3.67-2.17,5.22-3.67.49-.48,1.01-.92,1.57-1.31.07-.05.14-.15.25-.09.12.08.06.19.02.29-.15.42-.39.78-.68,1.11-.74.84-1.5,1.66-2.42,2.33-1.22.89-2.44,1.8-3.87,2.33-.46.17-.68.4-.73.85,0,.06-.02.12-.04.17-.07.18,0,.24.18.19.47-.13.94-.22,1.38-.43,2.92-1.42,5.51-3.27,7.58-5.79.14-.17.25-.37.47-.47.3-.14.56.01.5.33-.05.29.08.31.29.35,1.2.2,2.41.23,3.63.24,3.05.03,5.93-.57,8.61-2.05.59-.33,1.18-.65,1.7-1.1-.08,0-.16.04-.23.07-.9.46-1.83.87-2.8,1.2-2.63.87-5.32.95-8.05.69-.34-.03-.67-.13-.98-.28-.09-.05-.2-.1-.2-.23,0-.14.13-.19.25-.21.14-.02.28-.04.42-.03.46.02.92.05,1.38.08,2.62.19,5.18-.16,7.67-.96.58-.19,1.14-.42,1.76-.64-.17-.1-.27-.02-.36.01-1.51.44-3.04.79-4.61.9-1.21.08-2.41.1-3.58-.23-.23-.06-.54-.14-.47-.46.06-.3.36-.25.59-.25.09,0,.19,0,.28.02.75.05,1.51.1,2.26.11,2.03.04,3.99-.29,5.93-.85.27-.08.53-.18.79-.27-.07-.05-.13-.05-.18-.04-1.5.13-2.99.13-4.49.04-1-.06-1.99-.21-2.99-.35-1.59-.23-3.17-.46-4.76-.7-1.6-.24-3.2-.46-4.82-.44-1.51.02-2.7.59-3.6,1.81-.71.96-1.25,2-1.68,3.1-.14.35-.3.69-.34,1.06.12.06.18-.01.24-.06.47-.36.93-.72,1.41-1.07.73-.54,1.39-1.17,2.18-1.62.19-.11.45-.37.62-.18.18.21-.1.45-.24.64-.5.68-1.15,1.22-1.8,1.75-.87.71-1.67,1.51-2.73,1.94-.09.04-.16.1-.19.2-.17.66-.34,1.32-.52,2.01Zm7.11,29.68c-.38-.5-.73-.92-1.03-1.37-2.15-3.19-4.33-6.36-6.53-9.51-1.38-1.97-2.77-3.94-4.15-5.91-.17-.24-.28-.29-.53-.04-1.33,1.3-2.55,2.71-3.92,3.98-.13.12-.16.21-.02.34.18.17.34.36.52.53,2.19,2.15,4.26,4.41,6.37,6.63,1.4,1.48,2.79,2.98,4.18,4.47.16.18.35.27.58.28.67.03,1.33.16,1.99.33.81.2,1.63.17,2.53.26Zm-13.56,11.58c-.16-.04-.21.05-.23.19-.03.19-.05.38-.1.56-.38,1.32-.76,2.63-1.14,3.94-.16.54-.17.54.37.68.02,0,.05.01.07.02,4.62,1.17,9.24,2.34,13.86,3.53.27.07.41,0,.56-.2.9-1.23,1.7-2.52,2.42-3.87.2-.38.2-.39-.22-.5-1.96-.53-3.92-1.06-5.87-1.6-2.42-.68-4.83-1.38-7.25-2.07-.82-.23-1.64-.44-2.46-.66Zm19.92-9.74c.04-.65.09-1.29.13-1.94,0-.08.03-.18-.06-.22-.07-.03-.13.04-.18.09-.14.11-.3.2-.47.23-1.51.32-2.96.9-4.5,1.12-.22.03-.33.14-.38.35-.56,2.55-1.39,5.03-2.05,7.55-.37,1.4-.75,2.8-1.13,4.21-.05.19-.07.34.17.41,1.55.45,3.1.91,4.65,1.37.3.09.44,0,.57-.27,1.9-4.09,2.97-8.4,3.25-12.89Zm31.55,5.17c-.17-.04-.25.06-.36.11-.93.47-1.85.94-2.77,1.42-.2.1-.34.09-.51-.05-.31-.26-.62-.5-.94-.75-1.94-1.46-3.89-2.91-5.83-4.39-3.85-2.94-7.7-5.9-11.54-8.85-2.34-1.8-4.68-3.59-7.01-5.4-.22-.17-.35-.21-.51.07-.18.33-.4.64-.63.94-.19.24-.17.37.07.57,4.55,3.59,9.09,7.18,13.63,10.79,3.09,2.45,6.16,4.92,9.24,7.38.84.67,1.64,1.38,2.52,2.01.23.16.45.19.69.04,1.04-.61,2.12-1.15,3.19-1.7.12-.06.24-.11.28-.25.17-.65.34-1.29.51-1.94Zm-17.62,35.91c-.19.08-.33.25-.48.4-1.54,1.52-3.07,3.03-4.6,4.55-1.55,1.54-3.09,3.08-4.64,4.61-.22.21-.24.33,0,.55.88.79,1.73,1.6,2.59,2.41.37.35.32.46.81,0,1.32-1.21,2.57-2.5,3.84-3.76,1.66-1.66,3.3-3.33,4.96-4.99.15-.15.18-.24,0-.39-.25-.21-.46-.47-.64-.75-.52-.8-1.05-1.6-1.57-2.39-.06-.1-.11-.21-.26-.23Zm12.61-31.27c.09-.28-.12-.38-.27-.5-1.7-1.33-3.42-2.64-5.12-3.97-3.47-2.73-6.93-5.47-10.39-8.21-3.16-2.5-6.31-4.99-9.46-7.49-.54-.43-.54-.44-.98.09-.11.13-.28.23-.2.45.11.34.24.64.54.88,4.17,3.35,8.33,6.7,12.49,10.06,3.42,2.76,6.83,5.52,10.24,8.28.68.55,1.35,1.1,2.03,1.65.18.15.38.28.57.02.28-.38.51-.79.55-1.26Zm-64.97.02c.14,0,.18-.1.24-.16.65-.67,1.35-1.29,2.08-1.87.22-.18.23-.25.02-.43-1.41-1.19-2.82-2.37-4.2-3.58-2.57-2.25-5.26-4.37-7.68-6.8-.1-.1-.17-.15-.28-.02-.67.76-1.47,1.4-2.18,2.12-.2.2-.17.29.03.46,2.65,2.12,5.17,4.41,7.74,6.63,1.34,1.16,2.64,2.36,4,3.48.08.07.17.12.24.17Zm11.8,3.87c.23.03.29,0,.36-.29.38-1.51.87-2.99,1.36-4.46.17-.52.17-.52-.35-.66-1.9-.54-3.84-.99-5.7-1.66-.23-.08-.32.03-.43.18-1.16,1.53-2.45,2.95-3.59,4.5-.24.33-.25.33.15.42,1.48.36,2.96.71,4.44,1.07,1.25.3,2.5.6,3.77.91Zm-10.83,4.88c.56-.04,1.11.07,1.66,0,2.32-.3,4.44-1.17,6.42-2.39.67-.41,1.24-.93,1.83-1.45.2-.17.16-.26-.08-.31-.35-.07-.69-.15-1.03-.24-2.28-.6-4.58-1.13-6.85-1.78-.16-.05-.29-.05-.41.1-.28.35-.57.69-.85,1.04-.67.82-1.23,1.73-1.85,2.59-.31.44-.34.42.07.79.08.07.26.12.15.3-.19.33-.27.72-.54,1.01-.15.16-.08.24.12.26.46.03.92.06,1.37.09Zm-18.31,17.64c-.13,0-.18.09-.24.17-.27.36-.53.72-.81,1.07-.14.18-.13.29.04.44.72.66,1.49,1.27,2.25,1.88,2.51,2.02,5.02,4.03,7.53,6.05.19.15.31.16.46-.04.24-.32.52-.61.84-.86.65-.53,1.33-1.02,1.95-1.58.34-.3.34-.3-.01-.6-1.57-1.29-3.14-2.57-4.7-3.86-.22-.18-.4-.17-.63-.02-.61.39-1.21.77-1.86,1.1-.28.14-.52.13-.7-.16-.04-.07-.11-.12-.17-.18-1.25-1.09-2.5-2.19-3.76-3.28-.06-.05-.13-.1-.18-.13Zm83.04-31.05c.03-.57-.57-1.84-1.09-2.24-3.48-2.75-6.96-5.5-10.45-8.24-2.83-2.23-5.65-4.45-8.48-6.68-1.16-.91-2.31-1.83-3.47-2.74-.35-.27-.35-.27-.56.14-.1.2-.19.41-.32.59-.21.29-.12.45.14.66,3,2.31,6,4.63,9,6.94,3.87,2.98,7.74,5.96,11.56,9,1.12.89,2.24,1.77,3.36,2.65.07.06.14.15.24.12.08-.03.05-.12.06-.19Zm-60.98-47.34c-.17.36.11.51.38.7,3.26,2.35,6.39,4.89,9.57,7.35,1.34,1.03,2.67,2.07,3.99,3.11.21.16.31.14.41-.1.14-.32.33-.64.59-.88.3-.27.18-.41-.07-.62-1.62-1.28-3.23-2.57-4.85-3.85-3.03-2.41-6.06-4.82-9.08-7.23-.21-.16-.33-.12-.45.08-.26.43-.47.87-.49,1.43Zm7.27,59.39c-.06.27.07.33.24.36.88.17,1.75.36,2.61.62.21.06.3,0,.36-.2.11-.41.23-.82.34-1.22.63-2.34,1.22-4.7,2.04-6.99.07-.2.02-.28-.17-.33-.91-.25-1.82-.5-2.72-.76-.22-.06-.31.03-.35.22-.04.22-.07.44-.13.66-.44,1.87-1.08,3.68-1.62,5.53-.21.72-.41,1.45-.6,2.11Zm54.85-11.44c.28-.15.51-.27.73-.39.96-.51,1.91-1.02,2.87-1.53.33-.17.46-.11.51.24.04.28-.02.56-.08.84-.17.81-.51,1.57-.74,2.36-.16.54-.4.91-.98,1.15-1.15.48-2.17,1.23-3.37,1.64-.1.03-.16.1-.19.2-.1.35-.2.7-.28,1.06-.04.18.03.23.19.14.26-.15.51-.3.76-.45,2.69-1.57,5.44-3.05,8.19-4.49.54-.28.85-.63.91-1.22,0-.09.1-.19,0-.26-.09-.06-.18.03-.26.07-.63.35-1.27.69-1.88,1.06-.22.13-.39.1-.58-.02-.19-.11-.2-.29-.17-.47.19-.94.25-1.89.5-2.82.06-.24.17-.45.43-.57.94-.45,1.86-.91,2.8-1.37.12-.06.25-.11.28-.25.08-.39.24-.76.26-1.16-.15-.01-.25.07-.35.12-2.97,1.66-5.99,3.2-9.05,4.69-.15.07-.25.17-.29.33-.07.34-.14.69-.22,1.1Zm-44.98-30.03c.03-.12,0-.22-.1-.29-.39-.28-.72-.64-1.19-.82-.6-.24-1.12-.6-1.47-1.17-.11-.17-.26-.31-.42-.43-.85-.66-1.69-1.32-2.53-1.99-2.41-1.9-4.82-3.8-7.23-5.7-1.48-1.17-2.97-2.33-4.41-3.55-.17-.15-.25-.14-.28.1-.04.32-.08.63-.15.94-.04.17,0,.25.15.35.36.24.73.49,1.07.75,3,2.31,5.93,4.71,8.89,7.08,2.36,1.9,4.72,3.81,7.08,5.71.12.1.23.14.29-.05.1-.31.2-.63.3-.94Zm-43.66,36.34c-.11,0-.12,0-.43.37q-.32.39.06.71c4.13,3.48,8.26,6.96,12.39,10.44.24.2.47.56.75.55.31,0,.43-.45.68-.66.27-.24.2-.4-.06-.61-1.26-1.01-2.51-2.03-3.77-3.05-3.14-2.54-6.27-5.07-9.41-7.6-.07-.06-.15-.11-.2-.15Zm40.31-40.32c-.03-.48-.05-.88.05-1.26.09-.34-.04-.51-.29-.7-3.9-2.97-7.81-5.94-11.69-8.95-.61-.47-1.16-.66-1.86-.38-.02,0-.05.01-.07.02-.08.02-.18.02-.21.11-.03.12.08.16.16.21.49.36,1,.71,1.48,1.09,3.89,3.03,7.74,6.11,11.58,9.2.26.21.53.42.85.66Zm-34.31,44.07c-.44-1.43-.46-1.71-.14-3.13.04-.2,0-.32-.15-.46-.37-.34-.76-.67-.91-1.19-.24-.84-.26-1.67.05-2.5.08-.21.05-.36-.13-.5-.26-.2-.51-.42-.76-.64-.15-.14-.24-.11-.36.05-.91,1.23-1.9,2.4-2.87,3.59-.18.21-.14.32.05.48.99.8,1.97,1.61,2.95,2.42.74.61,1.47,1.21,2.28,1.88Zm-3.27,12.24c.07,0,.13-.07.18-.13.25-.28.48-.58.75-.85.23-.23.19-.37-.04-.56-.81-.68-1.61-1.39-2.41-2.08-1.37-1.18-2.74-2.36-4.1-3.54-.2-.18-.33-.18-.47.06-.16.26-.33.52-.51.76-.16.21-.14.35.06.54,2.1,1.88,4.19,3.77,6.29,5.66.07.06.14.13.25.15Zm-4.34-9.57c-.11,0-.15.07-.19.13-.21.32-.41.63-.62.95-.09.14-.06.24.05.33.21.19.42.38.63.56,2.02,1.78,4.04,3.55,6.05,5.33.22.19.35.17.51-.04.2-.26.42-.51.64-.76.17-.19.13-.3-.05-.46-2.32-1.92-4.56-3.92-6.82-5.9-.07-.06-.15-.11-.21-.15Zm43-47.61c0,.75.06,1.56.67,2.22.45.49,1.05.64,1.65.82.37.12.5-.01.59-.35.24-.9.51-1.79.77-2.68.21-.73.19-.78-.55-.99-.08-.02-.16-.04-.24-.05-.57-.06-.83.1-1.02.64-.15.44-.15.88-.04,1.32.04.17.08.38-.13.46-.22.09-.39-.04-.51-.21-.18-.26-.26-.56-.26-.87-.03-1.16.73-2.55,2.43-1.98.18.06.35.13.53.2.08.03.15.05.22-.03.18-.2.15-.58-.09-.74-.5-.36-1.08-.54-1.68-.6-.65-.06-1.19.17-1.61.69-.48.6-.64,1.3-.72,2.13Zm18.3,20.71c-1.25,2.18-2.61,4.25-3.8,6.44.08,0,.11.02.14,0,1.35-.3,2.65-.86,4.05-.94.21-.01.25-.15.24-.35-.04-1.47-.16-2.94-.46-4.39-.05-.26-.12-.52-.17-.77Zm-43.01,28.05c-.43,0-.77-.07-1.08-.22-.11-.06-.2-.05-.3,0-.75.44-1.57.42-2.4.36-.74-.05-1.26-.36-1.48-1.08-.05-.16-.15-.19-.31-.22-.53-.1-1.07-.15-1.59-.33-.53-.18-.94-.49-1.11-1.05-.03-.11-.06-.25-.2-.26-.42-.03-.81-.2-1.23-.28.03.15.14.19.22.26.77.64,1.55,1.28,2.32,1.91,1.45,1.2,2.91,2.4,4.36,3.6.22.18.36.21.54-.04.17-.24.38-.45.57-.67.55-.65,1.09-1.29,1.68-1.99Zm13.23-15.73s-.03-.04-.05-.06c-.17.11-.34.23-.52.34-1.36.9-2.65,1.88-4.06,2.71-.19.11-.15.18-.03.31.26.28.27.52.02.7-.52.38-.93.89-1.47,1.27-.51.36-.93.83-1.45,1.19-.16.11-.22.23-.05.39.29.29.49.63.63,1.02.1.3.21.24.37.04.14-.19.3-.36.45-.55.78-.94,1.68-1.78,2.44-2.75.84-1.08,1.7-2.15,2.58-3.19.39-.46.76-.94,1.14-1.42Zm55.5-19c-1.02-.84-1.89-1.82-2.98-2.56-.22-.15-.47-.27-.72-.37-.9-.35-1.79-.01-2.19.8-.09.19-.12.34.09.49.96.71,1.91,1.43,2.86,2.14.12.09.25.14.4.09.82-.29,1.66-.5,2.55-.59Zm-68.01,29.54c-.12-.03-.17.04-.22.11-.35.43-.69.87-1.04,1.3-.11.14-.06.23.06.32,1.01.85,2.02,1.71,3.02,2.57.15.13.25.12.38-.03.32-.39.65-.78.99-1.16.19-.2.17-.33-.04-.51-1-.81-1.98-1.64-2.97-2.47-.06-.05-.13-.1-.18-.13Zm2.16,13.63s.02-.06.03-.09c-.55-.24-.89-.72-1.31-1.11-.55-.5-1.14-.95-1.72-1.4-.27-.21-.51-.63-.84-.57-.32.05-.46.5-.71.74-.18.17-.18.32.03.49.83.66,1.64,1.34,2.46,2.02.17.14.35.2.56.16.51-.08,1.02-.16,1.53-.25Zm-9.75,10.45s.03.03.05.04c.74-.42,1.48-.83,2.22-1.25.06-.03.12-.08.16-.13.96-1.1,1.92-2.2,2.88-3.31.06-.07.17-.13.14-.28-.42.14-.83.28-1.25.4-.26.07-.47.2-.64.41-.37.44-.76.87-1.14,1.31-.81.93-1.61,1.87-2.42,2.81Zm-3.28-33.08c.03-.12-.04-.18-.1-.23-.49-.41-.97-.82-1.46-1.24-.14-.12-.21-.07-.31.06-.32.41-.64.82-.97,1.22-.14.17-.16.29.03.44.52.41,1.02.84,1.53,1.26.16.13.25.12.36-.06.27-.44.56-.87.84-1.31.03-.05.06-.1.08-.14Zm8.31,27.27s.03.04.05.07c.27-.07.54-.15.82-.2.47-.09.82-.33,1.14-.7.8-.94,1.64-1.85,2.47-2.77.05-.06.14-.1.08-.23-.5.08-1,.23-1.52.19-.09,0-.13.08-.18.16-.3.5-.67.94-1.04,1.38-.6.71-1.2,1.41-1.81,2.12Zm3.35-13.53c-.12-.01-.15.07-.2.13-.9,1.22-1.92,2.35-2.88,3.53-.16.2-.23.34.03.51.21.13.36.42.65.05.9-1.15,1.83-2.27,2.75-3.41.09-.11.27-.22.16-.39-.12-.19-.32-.31-.5-.42Zm-18.32-8.44c.16,0,.21-.14.29-.23.94-1.15,1.86-2.31,2.85-3.41.16-.18.22-.3,0-.49-.2-.18-.32-.19-.51.03-.97,1.14-1.95,2.26-2.93,3.39-.08.09-.24.18-.15.32.1.17.27.29.44.39Zm-4.94-1.63c.02.18.13.21.21.28.55.46,1.09.93,1.65,1.38.57.47.43.61,1.02-.12.02-.03.04-.06.06-.08.07-.09.07-.17-.02-.24-.53-.38-.92-.98-1.67-1.01-.41-.02-.82-.12-1.25-.19Zm102.65-5.12c-.69-.24-1.29-.45-1.89-.66-.1-.03-.16,0-.18.1-.13.51-.26,1.02-.38,1.54-.04.15.02.25.19.17.73-.36,1.46-.74,2.27-1.15Zm-81.89,13.13c0,.32,0,.56-.01.79-.01.53.21.81.73.91.31.06.61-.03.9-.1.15-.04.15-.14.04-.23-.53-.44-1.07-.88-1.66-1.36Zm-.68,7.19c-.05-.21-.24-.27-.35-.39-.17-.19-.32-.2-.47.03-.14.2-.3.4-.47.57-.22.22-.21.36.04.55.41.32.4.33.72-.06.13-.15.26-.31.38-.46.06-.07.1-.15.15-.22Zm-15.73-12.78s-.02-.05-.04-.08c-.23-.37-.55-.41-.84-.09-.09.1-.17.19-.25.29-.06.07-.09.16-.02.22.17.15.3.36.56.38.09,0,.59-.63.59-.73Z"/>
    <path class="cls-1" d="m150.96,109.19c.14.01.26,0,.3.13.03.13-.08.19-.16.25-.63.42-1.32.72-2.01,1.03-4.11,1.87-8.29,3.59-12.38,5.5-.33.15-.68.27-1.03.38-.27.08-.57.13-.71-.19-.15-.34.13-.5.38-.62,1.01-.5,2.03-.99,3.06-1.48,3.56-1.7,7.23-3.12,10.89-4.57.55-.22,1.12-.37,1.67-.43Z"/>
    <path class="cls-1" d="m134.31,111.41c-.16-.01-.28-.07-.35-.21-.08-.17-.03-.32.07-.46.3-.39.68-.69,1.05-.99,1.45-1.19,2.91-2.37,4.35-3.58,1.98-1.67,3.98-3.3,6.04-4.86.3-.23.62-.44.98-.56.17-.06.37-.12.49.06.13.2-.07.29-.19.39-3.09,3-6.52,5.58-9.82,8.33-.7.58-1.42,1.14-2.15,1.67-.14.1-.29.2-.47.21Z"/>
    <path class="cls-1" d="m74.64,130.25c-.17-.02-.35-.03-.41-.22-.07-.2.09-.3.23-.39.71-.47,1.52-.7,2.31-.96,2.7-.88,5.38-1.85,8.1-2.65.61-.18,1.23-.33,1.86-.41.07,0,.14-.02.21-.02.18,0,.38-.01.45.2.07.21-.09.32-.24.42-.47.32-.99.55-1.52.75-3.04,1.15-6.13,2.12-9.26,2.96-.57.15-1.15.28-1.73.32Z"/>
    <path class="cls-1" d="m76.17,121.62c-.81-.07-1.63-.06-2.43-.22-.14-.03-.28-.05-.41-.11-.23-.1-.42-.26-.36-.54.05-.27.28-.37.53-.38.32-.01.64-.02.95,0,1.19.03,2.38.05,3.57.11,2.18.1,4.36.23,6.53.35.63.04,1.24.15,1.84.33.1.03.23.03.23.17,0,.12-.1.18-.2.23-.31.14-.64.16-.97.19-1.11.1-2.21.06-3.32.04-1.99-.03-3.99,0-5.97-.17Z"/>
    <path class="cls-1" d="m136.45,120.36c1.54.18,2.96.42,4.39.67,1.57.27,3.14.5,4.7.81,1.7.34,3.4.67,5.07,1.14.1.03.21.04.31.06.1.02.24-.03.26.12.01.11-.07.2-.16.26-.26.18-.55.2-.85.17-1.28-.12-2.54-.37-3.8-.64-1.5-.33-3.02-.53-4.53-.77-1.86-.29-3.72-.61-5.58-.93-.19-.03-.37-.09-.52-.2-.13-.1-.22-.22-.19-.39.04-.18.18-.29.35-.3.21-.01.42,0,.54,0Z"/>
    <path class="cls-1" d="m86.66,116.45c-.65-.12-1.29-.32-1.92-.55-3.15-1.2-6.31-2.4-9.37-3.82-.21-.1-.42-.21-.63-.33-.2-.12-.38-.28-.29-.54.11-.28.35-.27.6-.21.59.15,1.15.35,1.71.57,2.91,1.14,5.81,2.3,8.67,3.56.51.22,1,.48,1.44.82.12.1.32.19.24.39-.08.19-.29.1-.46.11Z"/>
    <path class="cls-1" d="m99.51,145.52c.03-.26.04-.52.09-.77.08-.37.22-.47.61-.41,1.07.19,2.12.47,3.17.75,2.53.68,5.05,1.36,7.58,2.04.47.13.58.31.38.74-.95,2.1-1.9,4.19-2.86,6.28-.24.53-.5.63-1.06.47-2.36-.64-4.71-1.27-7.07-1.91-.65-.18-.79-.33-.8-1.01-.02-1.68-.03-3.37-.04-5.05,0-.38-.04-.75,0-1.13Zm.77,3.77c0,.62.01,1.4-.02,2.17-.01.31.09.44.38.51,2.2.58,4.41,1.13,6.59,1.77.2.06.34.02.43-.18.41-.85.83-1.7,1.25-2.54.1-.19.09-.3-.15-.34-.22-.04-.43-.11-.65-.16-2.4-.56-4.79-1.17-7.15-1.87-.65-.19-.64-.21-.68.64Zm0-3.92c0,.62,0,1.25,0,1.87,0,.24.09.37.35.43.76.17,1.51.37,2.26.58,2.03.56,4.05,1.2,6.06,1.85.27.09.4.03.52-.23.3-.64.61-1.28.94-1.9.15-.29.07-.37-.22-.44-1.89-.44-3.79-.89-5.68-1.35-1.31-.32-2.6-.67-3.9-1.02-.2-.05-.36-.09-.33.2Z"/>
    <path class="cls-1" d="m109.9,123.37c-.26.17-.39.41-.55.62-.09.11-.16.23-.24.35-.09.12-.19.23-.36.16-.18-.07-.18-.24-.15-.39.06-.32.21-.6.41-.85.69-.86,2.01-1.25,3.05-.92.14.04.28.1.27.28,0,.2-.17.25-.33.25-.28,0-.57-.03-.85-.02-.32.01-.72.04-.85.31-.08.16.3.37.5.51,1.22.91,2.27,2.03,3.65,2.73,1.07.54,2.17.91,3.38.92.22,0,.42-.04.63-.1.87-.24,1.77-.4,2.59-.82.08-.04.18-.11.26-.03.1.09,0,.17-.06.24-1,1.4-2.15,2.66-3.56,3.65-1.07.75-2.23.99-3.47.38-.54-.27-.97-.68-1.34-1.14-.79-.98-1.42-2.04-1.93-3.2-.29-.65-.65-1.25-.83-1.95-.08-.32-.15-.63-.23-.98Z"/>
    <path class="cls-1" d="m122.15,124.14c-.03-.15-.17-.2-.26-.28-.95-.83-1.94-1.61-2.84-2.5-.18-.18-.24-.37-.21-.61.2-1.45.43-2.89.8-4.31.07-.26.16-.59.54-.54.26.03.42.37.36.76-.06.43-.25.83-.32,1.26-.13.78-.3,1.55-.46,2.32-.08.4,0,.69.34.98,1,.86,1.9,1.83,2.82,2.77.07.07.12.14.19.21.12.11.3.2.21.4-.08.19-.28.22-.45.2-.51-.05-1.01.05-1.52.02-1.46-.08-2.92.04-4.38-.12-.16-.02-.33-.04-.49-.08-.13-.03-.25-.11-.26-.26,0-.16.11-.25.25-.3.35-.13.72-.13,1.08-.11.55.02,1.11.06,1.66.11.97.09,1.95.02,2.93.07Z"/>
    <path class="cls-1" d="m111.83,118.27c.09-.61.32-1.12.77-1.53.38-.34.8-.36,1.25-.17.27.11.38.33.42.61.11.77-.13,1.44-.61,2.03-.26.31-.58.54-1.02.41-.45-.13-.7-.46-.78-.91-.03-.15-.03-.3-.04-.43Z"/>
    <path class="cls-1" d="m124.09,118.98c-.03.63-.31,1.16-.74,1.6-.55.56-1.27.39-1.54-.34-.29-.79.01-1.82.68-2.33.34-.25.7-.33,1.09-.14.38.18.5.51.52.9,0,.1-.01.21-.02.32Z"/>
  </g>
  <g>
    <g>
      <path class="cls-1" d="m40.92,57.13v5.83c0,.96.79,1.75,1.75,1.75h10.62c.13,0,.26-.02.38-.04-.54-3.75-2.48-7.04-5.27-9.33h-5.73c-.96,0-1.75.79-1.75,1.79Z"/>
      <path class="cls-1" d="m53.77,68.11c-.15-.04-.31-.07-.47-.07h-10.62c-.96,0-1.75.79-1.75,1.75v6.67c0,.96.79,1.75,1.75,1.75h5.78c2.97-2.45,4.96-6.04,5.31-10.1Z"/>
      <path class="cls-1" d="m36.61,70.05c0-1.12-.87-2-2-2h-10.35c.57,6.79,5.72,12.28,12.35,13.36v-11.36Z"/>
      <path class="cls-1" d="m34.66,64.71c1.08,0,1.96-.87,1.96-1.96v-10.57c-6.36,1.04-11.36,6.13-12.26,12.53h10.3Z"/>
    </g>
    <g>
      <path class="cls-1" d="m77.69,68.1c-.38-.43-.97-.84-1.39-1.12-.38-.25-.59-.62-.59-1.07,0-.34.13-.66.35-.89.32-.28.6-.61.84-.97.71-1.07,1.08-2.38,1.08-3.88,0-1.38-.32-2.58-.97-3.6-.69-.98-1.45-1.71-2.32-2.23-.45-.29-.99-.49-1.59-.61-.59-.13-1.24-.24-1.85-.31l-1.96-.11h-11.82v27.22h13.16c1.36,0,2.58-.24,3.62-.7,1.03-.42,1.9-1,2.68-1.78.66-.7,1.19-1.53,1.62-2.57.36-1.01.55-2,.55-2.94,0-1.69-.47-3.18-1.39-4.42l-.02-.03Zm-5.79-3.46h-9.5c-.62,0-1.15-.53-1.15-1.15v-5.22c0-.65.52-1.19,1.15-1.19h9.5c.63,0,1.15.53,1.15,1.19v5.22c0,.62-.53,1.15-1.15,1.15Zm-10.65,4.96c0-.62.53-1.15,1.15-1.15h9.5c.62,0,1.15.53,1.15,1.15v5.96c0,.62-.53,1.15-1.15,1.15h-9.5c-.62,0-1.15-.53-1.15-1.15v-5.96Z"/>
      <path class="cls-1" d="m90.89,53.31l-10.57,27.22h4.47l2.64-7.06c.2-.54.7-.88,1.29-.88h8.65c.58,0,1.09.35,1.29.88l2.56,7.06h4.78l-10.65-27.22h-4.45Zm2.19,6.87c.28,0,.79.09,1.02.69l2.2,6.16c.04.11.04.25.04.41,0,.66-.49,1.34-1.3,1.34h-4.36c-.59,0-1.07-.48-1.07-1.07,0-.1.03-.24.09-.38l2.39-6.49c.17-.48.64-.65.99-.65Z"/>
      <path class="cls-1" d="m111.9,75.61v-6.04c0-.61.52-1.11,1.15-1.11h12.57v-3.81h-12.57c-.63,0-1.15-.5-1.15-1.11v-5.29c0-.62.53-1.15,1.15-1.15h13.57v-3.78h-19.06v27.22h19.17v-3.81h-13.69c-.63,0-1.15-.5-1.15-1.11Z"/>
      <path class="cls-1" d="m147.34,70.02c0,.73-.56,1.11-1.11,1.11-.27,0-.64-.13-.88-.48l-11.34-17.33h-4.37v27.22h4.19v-16.37c0-.75.58-1.15,1.15-1.15.36,0,.69.19.92.52l11.12,17h4.48v-27.22h-4.15v16.7Z"/>
      <path class="cls-1" d="m168.09,53.31h-4.45l-10.57,27.22h4.48l2.64-7.06c.2-.54.7-.88,1.29-.88h8.65c.58,0,1.09.35,1.29.88l2.56,7.06h4.78l-10.65-27.22Zm-2.26,6.87c.28,0,.79.09,1.02.69l2.2,6.16c.04.11.04.25.04.41,0,.66-.49,1.34-1.3,1.34h-4.36c-.59,0-1.07-.48-1.07-1.07,0-.1.03-.24.09-.38l2.39-6.49c.17-.48.64-.65.99-.65Z"/>
    </g>
    <g>
      <path class="cls-1" d="m42.42,30.95c0,.74-.6,1.34-1.34,1.34h-10.36c-.74,0-1.34-.6-1.34-1.34v-10h-4.37v27.22h4.37v-10.7c0-.78.59-1.37,1.37-1.37h10.29c.78,0,1.37.59,1.37,1.37v10.7h4.37v-27.22h-4.37v10Z"/>
      <rect class="cls-1" x="49.69" y="20.95" width="4.34" height="27.22"/>
      <path class="cls-1" d="m76.09,44.36h-13.69c-.63,0-1.15-.5-1.15-1.11v-6.04c0-.61.52-1.11,1.15-1.11h12.57v-3.81h-12.57c-.63,0-1.15-.5-1.15-1.11v-5.29c0-.62.53-1.15,1.15-1.15h13.57v-3.78h-19.06v27.22h19.17v-3.81Z"/>
      <path class="cls-1" d="m83.36,38.33c0-.81.62-1.45,1.41-1.45h6.75c.75,0,1.38.12,1.86.37.47.23.82.53,1.12.92.29.39.52.88.64,1.35.14.55.25,1.12.37,1.8.12.68.18,1.32.18,1.93v.21c.05.59.07,1.11.07,1.63v.03c.04.59.12,1.14.19,1.6.09.62.35,1.02.56,1.3l.12.17h5.01l-.57-.68c-.31-.38-.56-.83-.74-1.39-.21-.66-.33-1.21-.4-1.77-.13-.75-.18-1.34-.18-1.93l-.11-2c-.07-.63-.19-1.25-.34-1.85-.11-.61-.34-1.18-.68-1.72-.29-.54-.71-1-1.23-1.37l-.47-.35c-.1-.06-.15-.15-.15-.25,0-.14.12-.24.18-.28.62-.39,1.73-1.14,2.15-1.89.78-1.25,1.18-2.75,1.18-4.43,0-2.23-.76-4.04-2.27-5.38-1.47-1.28-3.56-1.93-6.2-1.93h-12.83v27.22h4.37v-9.85Zm-.07-12.34c0-.7.55-1.26,1.22-1.26h10.18c.67,0,1.22.57,1.22,1.26v5.85c0,.7-.55,1.26-1.22,1.26h-10.18c-.67,0-1.22-.57-1.22-1.26v-5.85Z"/>
      <path class="cls-1" d="m108.44,38.33c0-.81.62-1.45,1.41-1.45h6.75c.75,0,1.38.12,1.86.37.47.23.82.53,1.12.92.29.39.52.88.64,1.35.14.56.25,1.12.37,1.8.12.68.18,1.32.18,1.93v.2c.05.6.07,1.11.07,1.64v.03c.04.59.12,1.14.19,1.6.1.62.35,1.02.56,1.3l.12.17h5.01l-.57-.68c-.31-.38-.56-.83-.74-1.39-.21-.66-.33-1.22-.4-1.77-.12-.75-.18-1.34-.18-1.93l-.11-2c-.07-.63-.19-1.25-.34-1.85-.11-.61-.34-1.18-.68-1.72-.29-.54-.71-1-1.23-1.37l-.47-.35c-.1-.06-.15-.15-.15-.25,0-.14.12-.24.18-.28.62-.39,1.73-1.14,2.15-1.89.78-1.25,1.18-2.75,1.18-4.43,0-2.23-.76-4.04-2.27-5.38-1.47-1.28-3.56-1.93-6.2-1.93h-12.83v27.22h4.37v-9.85Zm-.07-12.34c0-.7.55-1.26,1.22-1.26h10.18c.67,0,1.22.57,1.22,1.26v5.85c0,.7-.55,1.26-1.22,1.26h-10.18c-.67,0-1.22-.57-1.22-1.26v-5.85Z"/>
      <path class="cls-1" d="m160.1,46.63c1.01.77,2.22,1.36,3.61,1.75,1.33.38,2.78.58,4.29.58,1.25,0,2.48-.15,3.74-.46,1.15-.24,2.28-.7,3.46-1.4,1.04-.68,1.89-1.55,2.55-2.6.66-1.11.99-2.4.99-3.83,0-1.32-.25-2.47-.76-3.45-.5-.88-1.19-1.64-2.06-2.26-.87-.63-1.86-1.11-2.83-1.4-.97-.32-2.02-.63-3.12-.9h-.07c-.95-.18-7.32-1.69-8.04-2.4v-4.76c0-.71.49-1.26,1.11-1.26h9.39c.6,0,1.11.58,1.11,1.26v4.18h4.16v-.43c-.05-1.44-.33-2.72-.87-3.94-.57-1.14-1.29-2.03-2.19-2.71-.86-.71-1.9-1.24-3.17-1.61-1.21-.34-2.46-.5-3.91-.5-1.25,0-2.46.16-3.62.46-1.25.36-2.27.83-3.22,1.48-.96.68-1.7,1.52-2.29,2.56-.55,1.03-.83,2.25-.83,3.63s.25,2.4.77,3.23c.51.86,1.19,1.55,2.08,2.12.85.53,1.79.94,2.77,1.23.91.3,1.93.57,3.14.83.37.08.75.17,1.12.25.64.15,1.31.3,1.95.42.04.01.1.03.2.06,4.21,1.25,4.78,1.88,4.86,1.99v5.15c0,.7-.62,1.26-1.37,1.26h-10.85c-.77,0-1.37-.55-1.37-1.26v-5.08h-4.11v.42c0,1.63.3,3.09.9,4.32.61,1.21,1.43,2.21,2.5,3.05Z"/>
      <path class="cls-1" d="m155.41,34.8c0-7.83-6.27-14.18-14.01-14.18s-14.01,6.35-14.01,14.18,6.27,14.18,14.01,14.18,14.01-6.35,14.01-14.18Zm-18.08,10.05c-1.02,0-1.97-.55-2.48-1.45l-4.08-7.15c-.51-.9-.51-2.01,0-2.9l4.08-7.15c.51-.9,1.46-1.45,2.48-1.45h8.15c1.02,0,1.97.55,2.48,1.45l4.08,7.15c.51.9.51,2.01,0,2.9l-4.08,7.15c-.51.9-1.46,1.45-2.48,1.45h-8.15Z"/>
    </g>
  </g>
</svg>